<svg xmlns="http://www.w3.org/2000/svg" width="13" height="17.371" viewBox="0 0 13 17.371">
  <g id="Group_1640" data-name="Group 1640" transform="translate(-1111 -293)">
    <path id="Icon_awesome-bookmark" data-name="Icon awesome-bookmark" d="M0,16V1.5A1.5,1.5,0,0,1,1.5,0h9A1.5,1.5,0,0,1,12,1.5V16L6,12.5Z" transform="translate(1111.5 293.5)" fill="none" stroke="#5260db" stroke-width="1"/>
    <path id="Icon_ionic-ios-star" data-name="Icon ionic-ios-star" d="M8.79,5.56H6.558L5.88,3.536a.246.246,0,0,0-.461,0L4.74,5.56H2.493A.243.243,0,0,0,2.25,5.8a.178.178,0,0,0,0,.041.233.233,0,0,0,.1.171L4.191,7.308l-.7,2.047a.243.243,0,0,0,.083.273.235.235,0,0,0,.137.059.3.3,0,0,0,.152-.055L5.649,8.357,7.439,9.633a.284.284,0,0,0,.152.055.218.218,0,0,0,.135-.059.241.241,0,0,0,.083-.273l-.7-2.047L8.925,6l.044-.038A.232.232,0,0,0,8.79,5.56Z" transform="translate(1111.851 292.656)" fill="#5260db"/>
  </g>
</svg>
