<svg id="noun_courses_4026107" xmlns="http://www.w3.org/2000/svg" width="12.275" height="10.208" viewBox="0 0 12.275 10.208">
  <g id="Group_638" data-name="Group 638" transform="translate(0 0)">
    <g id="Group_637" data-name="Group 637">
      <path id="Path_2988" data-name="Path 2988" d="M11.218,9.551a.4.4,0,0,1,0,.545.373.373,0,0,1-.532,0,.4.4,0,0,1,0-.545A.385.385,0,0,1,11.218,9.551ZM5.944.052a.386.386,0,0,1,.386,0h0L12.076,3.36a.4.4,0,0,1,0,.695h0l-.8.461,0,.027v4a.391.391,0,0,1-.78.054l0-.054V4.967L9.738,5.4V8.28a.361.361,0,0,1-.2.323,7.567,7.567,0,0,1-6.808,0A.36.36,0,0,1,2.54,8.33l0-.051V5.4L.2,4.055a.4.4,0,0,1-.05-.661L.2,3.36ZM9.031,5.807,6.33,7.363a.386.386,0,0,1-.386,0h0l-2.7-1.556V8.051l.172.078a6.871,6.871,0,0,0,5.444,0l.171-.078ZM6.137.857l-4.95,2.85,4.95,2.849L9.706,4.5,6.743,3.315a.4.4,0,0,1-.238-.466L6.522,2.8a.39.39,0,0,1,.457-.242l.051.016,3.555,1.422.5-.288Z" transform="translate(0 0)" fill="#5260db"/>
    </g>
  </g>
</svg>
