<svg xmlns="http://www.w3.org/2000/svg" width="12.9" height="14.3" viewBox="0 0 12.9 14.3">
  <g id="noun_note_2044208" transform="translate(-2.65 -1.35)">
    <g id="Group_6" data-name="Group 6" transform="translate(2.8 1.5)">
      <g id="Group_5" data-name="Group 5" transform="translate(0 0)">
        <path id="Path_27" data-name="Path 27" d="M31.339,47.79a.495.495,0,0,0,0-.99H25.695a.495.495,0,0,0,0,.99Z" transform="translate(-22.204 -39.648)" fill="#272c3d" stroke="#272c3d" stroke-width="0.3"/>
        <path id="Path_28" data-name="Path 28" d="M25.695,25.69h5.658a.494.494,0,0,0,.495-.495.5.5,0,0,0-.495-.495H25.695a.495.495,0,0,0,0,.99Z" transform="translate(-22.204 -20.538)" fill="#272c3d" stroke="#272c3d" stroke-width="0.3"/>
        <path id="Path_29" data-name="Path 29" d="M13.594,1.5H4.632A1.842,1.842,0,0,0,2.8,3.338v10.31a1.862,1.862,0,0,0,.535,1.311,1.792,1.792,0,0,0,1.284.541h0l7.2-.014a1.77,1.77,0,0,0,1.284-.541l1.766-1.784a1.831,1.831,0,0,0,.535-1.3V3.338A1.8,1.8,0,0,0,13.594,1.5Zm-8.961,13a.8.8,0,0,1-.589-.243.821.821,0,0,1-.241-.595V3.338A.838.838,0,0,1,4.632,2.5h8.961a.838.838,0,0,1,.829.838v8.309h-2.14a.674.674,0,0,0-.669.676v2.163Z" transform="translate(-2.8 -1.5)" fill="#272c3d" stroke="#272c3d" stroke-width="0.3"/>
      </g>
    </g>
  </g>
</svg>
