<svg id="Group_1727" data-name="Group 1727" xmlns="http://www.w3.org/2000/svg" width="14" height="14" viewBox="0 0 14 14">
  <g id="Rectangle_168" data-name="Rectangle 168" fill="none" stroke="#5260db" stroke-width="1.3">
    <rect width="14" height="14" rx="3" stroke="none"/>
    <rect x="0.65" y="0.65" width="12.7" height="12.7" rx="2.35" fill="none"/>
  </g>
  <g id="noun_Video_3955447" transform="translate(4.333 3.896)">
    <path id="Path_56" data-name="Path 56" d="M18.838,23.3a.875.875,0,0,1-.481-.141.9.9,0,0,1-.427-.767V17.928a.91.91,0,0,1,1.3-.817l3.737,2.231h0a.907.907,0,0,1,0,1.634l-3.737,2.231A.881.881,0,0,1,18.838,23.3Zm0-.908,3.737-2.231.2-.409-.2.409Z" transform="translate(-17.93 -17.021)" fill="#5260db"/>
  </g>
</svg>
