<svg xmlns="http://www.w3.org/2000/svg" width="20.495" height="20.495" viewBox="0 0 20.495 20.495">
  <g id="noun_Video_Player_3199008" data-name="noun_Video Player_3199008" transform="translate(0.25 0.25)">
    <path id="Path_3321" data-name="Path 3321" d="M23.435,5H6.56A1.562,1.562,0,0,0,5,6.56V17.837A1.562,1.562,0,0,0,6.56,19.4H23.435A1.562,1.562,0,0,0,25,17.837V6.56A1.562,1.562,0,0,0,23.435,5Zm.76,12.837a.761.761,0,0,1-.76.76H6.56a.761.761,0,0,1-.76-.76V6.56a.761.761,0,0,1,.76-.76H23.435a.761.761,0,0,1,.76.76Z" transform="translate(-5 -5)" fill="#5064e3" stroke="#5064e3" stroke-width="0.5"/>
    <path id="Path_3322" data-name="Path 3322" d="M29.366,16.764l-5.049-3.541a.4.4,0,0,0-.63.327v7.077a.4.4,0,0,0,.63.327l5.049-3.537a.4.4,0,0,0,0-.655Zm-4.878,3.1v-5.54l3.952,2.771Z" transform="translate(-16.214 -9.891)" fill="#5064e3" stroke="#5064e3" stroke-width="0.5"/>
    <path id="Path_3323" data-name="Path 3323" d="M24.6,48.166H11.417a1.6,1.6,0,0,0-3.1,0H5.4a.4.4,0,0,0,0,.8H8.314a1.6,1.6,0,0,0,3.1,0H24.6a.4.4,0,0,0,0-.8ZM9.866,49.374a.808.808,0,1,1,.808-.808A.809.809,0,0,1,9.866,49.374Z" transform="translate(-5 -30.179)" fill="#5064e3" stroke="#5064e3" stroke-width="0.5"/>
  </g>
</svg>
