<svg xmlns="http://www.w3.org/2000/svg" width="180.097" height="92" viewBox="0 0 180.097 92">
  <g id="discussions" transform="translate(0 0)">
    <path id="Path_3528" data-name="Path 3528" d="M739.136,614.372l-1.491,2.344.868-3.051a21.046,21.046,0,0,0-4.371-3.312s-3.125,5.136-2.284,8.3,3.013,3.763,5.33,3.146,3.9-2.22,3.06-5.38A5.735,5.735,0,0,0,739.136,614.372Z" transform="translate(-615.127 -530.185)" fill="#f2f2f2"/>
    <path id="Path_3529" data-name="Path 3529" d="M752.991,615.557l.041.156a8.606,8.606,0,0,1,.209,4.461c0,.017-.01.033-.015.05l-.078-.023-.075-.023a8.512,8.512,0,0,0-.2-4.413c-.013-.051-.026-.1-.04-.154-.18-.668-.4-1.333-.642-1.973-.018-.05-.037-.1-.057-.15-.322-.842-.673-1.635-1-2.319-.023-.048-.046-.1-.07-.144-.556-1.155-1.027-1.973-1.133-2.154l-.021-.037.068-.04h0l.068-.041s.026.043.07.119c.164.283.6,1.055,1.1,2.092l.069.143c.265.555.546,1.178.813,1.84q.1.249.193.493c.02.05.039.1.057.15Q752.739,614.627,752.991,615.557Z" transform="translate(-631.451 -528.793)" fill="#fff"/>
    <path id="Path_3530" data-name="Path 3530" d="M742.962,621.362c-.05.021-.1.042-.152.061a4.4,4.4,0,0,1-.429.138,4.282,4.282,0,0,1-1.9.072l-.065.149a4.44,4.44,0,0,0,2-.067,4.554,4.554,0,0,0,.458-.148c.051-.019.1-.04.151-.062a4.4,4.4,0,0,0,1.131-.7l-.13-.1A4.268,4.268,0,0,1,742.962,621.362Z" transform="translate(-623.655 -539.192)" fill="#fff"/>
    <path id="Path_3531" data-name="Path 3531" d="M740.467,635.569q-.079.026-.158.047l-.049.014a4.3,4.3,0,0,1-3.889-.874c-.019.054-.037.107-.055.162a4.464,4.464,0,0,0,3.985.867l.065-.018.159-.047a4.44,4.44,0,0,0,2.073-1.41l-.111-.117A4.274,4.274,0,0,1,740.467,635.569Z" transform="translate(-619.595 -550.921)" fill="#fff"/>
    <path id="Path_3532" data-name="Path 3532" d="M738.951,646.687c-.053.019-.106.036-.159.053s-.115.035-.172.05a4.316,4.316,0,0,1-4.8-1.936c-.018.072-.036.143-.053.214a4.474,4.474,0,0,0,4.891,1.877c.058-.015.115-.032.172-.05s.107-.034.16-.052a4.461,4.461,0,0,0,2.475-2.146c-.031-.053-.065-.1-.1-.156A4.3,4.3,0,0,1,738.951,646.687Z" transform="translate(-617.113 -559.923)" fill="#fff"/>
    <path id="Path_3533" data-name="Path 3533" d="M680.136,204.371l-1.491,2.344.868-3.051a21.045,21.045,0,0,0-4.371-3.312s-3.125,5.136-2.284,8.3,3.013,3.763,5.33,3.146,3.9-2.22,3.06-5.38A5.735,5.735,0,0,0,680.136,204.371Z" transform="translate(-567.159 -200.143)" fill="#f2f2f2"/>
    <path id="Path_3534" data-name="Path 3534" d="M693.991,205.557l.041.156a8.606,8.606,0,0,1,.209,4.461c0,.017-.01.033-.015.05l-.078-.023-.075-.023a8.512,8.512,0,0,0-.2-4.413c-.013-.051-.026-.1-.04-.154-.18-.668-.4-1.333-.642-1.973-.018-.05-.037-.1-.056-.15-.322-.842-.673-1.636-1-2.319-.023-.048-.046-.1-.07-.144-.556-1.155-1.027-1.973-1.133-2.154l-.021-.037.068-.04h0l.068-.041s.026.043.07.119c.164.283.6,1.055,1.1,2.092l.069.144c.265.554.546,1.178.813,1.84q.1.249.193.493c.02.05.039.1.057.15Q693.739,204.627,693.991,205.557Z" transform="translate(-583.342 -198.751)" fill="#fff"/>
    <path id="Path_3535" data-name="Path 3535" d="M683.962,211.362c-.05.021-.1.042-.152.061a4.412,4.412,0,0,1-.429.138,4.282,4.282,0,0,1-1.9.072l-.065.149a4.44,4.44,0,0,0,2-.067,4.554,4.554,0,0,0,.458-.148c.051-.019.1-.04.151-.062a4.4,4.4,0,0,0,1.131-.7l-.13-.1A4.268,4.268,0,0,1,683.962,211.362Z" transform="translate(-575.551 -209.15)" fill="#fff"/>
    <path id="Path_3536" data-name="Path 3536" d="M681.467,225.569q-.079.026-.158.047l-.049.014a4.3,4.3,0,0,1-3.889-.874c-.019.054-.037.107-.055.162a4.464,4.464,0,0,0,3.985.867l.065-.018.159-.047a4.441,4.441,0,0,0,2.073-1.41l-.111-.117A4.275,4.275,0,0,1,681.467,225.569Z" transform="translate(-571.558 -220.88)" fill="#fff"/>
    <path id="Path_3537" data-name="Path 3537" d="M679.951,236.687c-.053.019-.106.036-.159.053s-.115.035-.172.05a4.316,4.316,0,0,1-4.8-1.936c-.018.072-.036.143-.053.214a4.474,4.474,0,0,0,4.891,1.877c.058-.015.115-.032.172-.05s.107-.034.16-.052a4.461,4.461,0,0,0,2.475-2.146c-.031-.053-.065-.1-.1-.156A4.3,4.3,0,0,1,679.951,236.687Z" transform="translate(-569.114 -229.882)" fill="#fff"/>
    <path id="Path_3538" data-name="Path 3538" d="M355.194,628.86l-2.778.013,3.036-.919a21.044,21.044,0,0,0,.424-5.468s-6.011.147-8.214,2.562-1.537,4.569.234,6.185,3.977,2.083,6.18-.333A5.736,5.736,0,0,0,355.194,628.86Z" transform="translate(-301.651 -540.74)" fill="#f2f2f2"/>
    <path id="Path_3539" data-name="Path 3539" d="M364.3,627.805l-.109.119a8.606,8.606,0,0,1-3.64,2.587l-.05.015-.023-.078-.021-.075a8.512,8.512,0,0,0,3.6-2.555c.036-.038.073-.077.108-.117.464-.513.9-1.058,1.313-1.606l.1-.129c.535-.726,1.012-1.45,1.411-2.094.028-.045.056-.091.084-.137.671-1.092,1.1-1.931,1.2-2.118l.02-.038.07.035h0l.071.036s-.022.046-.063.123c-.15.291-.564,1.074-1.166,2.057l-.084.135c-.323.523-.7,1.1-1.109,1.679q-.155.22-.311.429c-.031.044-.063.087-.1.129Q364.947,627.091,364.3,627.805Z" transform="translate(-313.38 -539.951)" fill="#fff"/>
    <path id="Path_3540" data-name="Path 3540" d="M400.75,625.922c-.044-.031-.089-.062-.134-.095a4.412,4.412,0,0,1-.348-.286,4.282,4.282,0,0,1-1.086-1.556l-.161.026a4.44,4.44,0,0,0,1.139,1.648,4.538,4.538,0,0,0,.372.3c.044.032.089.064.134.094a4.4,4.4,0,0,0,1.2.573q.006-.083.013-.163A4.268,4.268,0,0,1,400.75,625.922Z" transform="translate(-345.419 -542.043)" fill="#fff"/>
    <path id="Path_3541" data-name="Path 3541" d="M389.215,630.136q-.064-.052-.125-.108l-.038-.034a4.3,4.3,0,0,1-1.366-3.744l-.166.041a4.464,4.464,0,0,0,1.425,3.821l.05.045c.042.037.084.073.126.108a4.441,4.441,0,0,0,2.307.981c.013-.052.026-.1.038-.156A4.275,4.275,0,0,1,389.215,630.136Z" transform="translate(-335.875 -544.013)" fill="#fff"/>
    <path id="Path_3542" data-name="Path 3542" d="M377.753,633.953c-.044-.034-.088-.069-.131-.105s-.091-.078-.135-.118a4.316,4.316,0,0,1-.964-5.083c-.07.024-.14.047-.208.071a4.474,4.474,0,0,0,1.065,5.129c.044.04.089.08.135.117s.086.072.13.107a4.461,4.461,0,0,0,3.143.923c.027-.055.053-.111.078-.167A4.3,4.3,0,0,1,377.753,633.953Z" transform="translate(-326.332 -546.098)" fill="#fff"/>
    <path id="Path_3543" data-name="Path 3543" d="M235.819,448.309h1.6l.759-6.156h-2.355Z" transform="translate(-192.41 -358.009)" fill="#ffb6b6"/>
    <path id="Path_3544" data-name="Path 3544" d="M340.856,684.19H344a2,2,0,0,1,2,2v.065h-5.146Z" transform="translate(-297.738 -594.41)" fill="#2f2e41"/>
    <path id="Path_3545" data-name="Path 3545" d="M138.819,448.309h1.6l.759-6.156h-2.355Z" transform="translate(-120.748 -358.009)" fill="#ffb6b6"/>
    <path id="Path_3546" data-name="Path 3546" d="M243.856,684.19H247a2,2,0,0,1,2,2v.065h-5.146Z" transform="translate(-226.192 -594.41)" fill="#2f2e41"/>
    <path id="Path_3547" data-name="Path 3547" d="M138.872,295.2l-1.076.99-1.212,11.96-.816,9.524,2.466.333,5.982-16.272,4.377,16.2,2.951.077-1.959-21.14Z" transform="translate(-118.094 -230.186)" fill="#2f2e41"/>
    <circle id="Ellipse_302" data-name="Ellipse 302" cx="3.064" cy="3.064" r="3.064" transform="translate(32.692 21.17)" fill="#ffb9b9"/>
    <path id="Path_3548" data-name="Path 3548" d="M284.559,307.638s-.365.791,1.1.474c0,0,.548.316.548-.158,0,0,.731.791.913.316s.548.158.548.158l.365-.791.365.474h1.278s.365-3.162-4.018-2.846-2.227,5.326-2.227,5.326.035-.9.4-.425S284.559,307.638,284.559,307.638Z" transform="translate(-250.389 -285.245)" fill="#2f2e41"/>
    <path id="Path_3549" data-name="Path 3549" d="M268.121,363.971l-4.321-.27-3.85,1.021.584,9.921-1.021,7a14,14,0,0,0,11.964.73l-.6-1.589s-.021-2.432-.531-2.909-.47-4.4-.47-4.4l1.9-7.3Z" transform="translate(-230.955 -329.738)" fill="#3f3d56"/>
    <path id="Path_3550" data-name="Path 3550" d="M238.592,371.86l-1.028-.313a2.987,2.987,0,0,0-2.435,1.876,24.35,24.35,0,0,0-1.354,4.426l5.29.191Z" transform="translate(-217.423 -338.903)" fill="#3f3d56"/>
    <path id="Path_3551" data-name="Path 3551" d="M348.677,435.705l-.171-10.754-2.285.343.5,10.188a1.368,1.368,0,1,0,1.952.222Z" transform="translate(-302.36 -380.582)" fill="#ffb9b9"/>
    <path id="Path_3552" data-name="Path 3552" d="M332.874,383.691l1.286-.937a7.978,7.978,0,0,1,2.48,6.187l-3.449.836-1.95-2.8Z" transform="translate(-289.88 -347.895)" fill="#3f3d56"/>
    <path id="Path_3553" data-name="Path 3553" d="M768.567,448.262h1.6l.759-6.156h-2.355Z" transform="translate(-627.091 -357.968)" fill="#9e616a"/>
    <path id="Path_3554" data-name="Path 3554" d="M873.6,684.142h3.143a2,2,0,0,1,2,2v.065H873.6Z" transform="translate(-731.767 -594.369)" fill="#2f2e41"/>
    <path id="Path_3555" data-name="Path 3555" d="M696.005,439.752l1.522.481,2.581-5.64-2.246-.71Z" transform="translate(-567.358 -350.815)" fill="#9e616a"/>
    <path id="Path_3556" data-name="Path 3556" d="M798.226,672.961l3,.948h0a2,2,0,0,1,1.306,2.514l-.02.062-4.906-1.552Z" transform="translate(-669.887 -584.644)" fill="#2f2e41"/>
    <path id="Path_3557" data-name="Path 3557" d="M808.9,472.176l-.886,2.5-.025,13.485-2.512,9.233,3.083.86,3.406-8.706,1.092-7.647,1.439,7.691-.2,9.141h3.235l.244-14.087a30.886,30.886,0,0,0-2.039-11.584h0Z" transform="translate(-673.891 -409.997)" fill="#2f2e41"/>
    <path id="Path_3558" data-name="Path 3558" d="M699.688,195.7h5.229l2.185,2.185.653,9.031-7.9,1.271-2.537-8.616,1.381-3.662Z" transform="translate(-566.378 -157.428)" fill="#6c63ff"/>
    <path id="Path_3559" data-name="Path 3559" d="M645.873,168.78l-8.05-3.029-.21-1.252,5.077-4.3,1.69,1.267-3.063,3.354,5.45.208Z" transform="translate(-518.278 -129.593)" fill="#6c63ff"/>
    <circle id="Ellipse_303" data-name="Ellipse 303" cx="1.302" cy="1.302" r="1.302" transform="translate(124.161 28.477)" fill="#9e616a"/>
    <path id="Path_3560" data-name="Path 3560" d="M815.39,338.261l.588-2.653a3.641,3.641,0,1,1,7.109,1.577l-.588,2.653a.49.49,0,0,1-.583.372l-6.154-1.365A.49.49,0,0,1,815.39,338.261Z" transform="translate(-683.472 -307.308)" fill="#2f2e41"/>
    <circle id="Ellipse_304" data-name="Ellipse 304" cx="2.669" cy="2.669" r="2.669" transform="translate(132.037 27)" fill="#9e616a"/>
    <path id="Path_3561" data-name="Path 3561" d="M813.087,339.794a2.883,2.883,0,0,1,3.435-2.188l.531.118a2.883,2.883,0,0,1,2.188,3.435l-.012.053-1.121-.249-.145-1.156-.314,1.054-.579-.129L817,340.15l-.158.532-3.763-.835Z" transform="translate(-682.107 -311.691)" fill="#2f2e41"/>
    <path id="Path_3562" data-name="Path 3562" d="M833.592,353.257a.482.482,0,0,1,.073-.508c.8-.945,2.025-2.746,1.25-4.2l-.056-.1,3.033.673-1.01,4.554-2.863-.125a.5.5,0,0,1-.086-.011A.487.487,0,0,1,833.592,353.257Z" transform="translate(-699.396 -320.353)" fill="#2f2e41"/>
    <path id="Path_3563" data-name="Path 3563" d="M288.041,699.177H108.38c-.12,0-.218-.069-.218-.155s.1-.155.218-.155H288.041c.12,0,.218.069.218.155S288.161,699.177,288.041,699.177Z" transform="translate(-108.162 -607.177)" fill="#cacaca"/>
    <path id="Path_3564" data-name="Path 3564" d="M312.16,406.472H270.852a2.388,2.388,0,0,0-2.388,2.388v9.935a2.388,2.388,0,0,0,2.388,2.388h.606v1.795a.551.551,0,0,0,.94.389l2.184-2.184H312.16a2.388,2.388,0,0,0,2.388-2.388V408.86A2.388,2.388,0,0,0,312.16,406.472Z" transform="translate(-234.347 -364.565)" fill="#e6e6e6"/>
    <path id="Path_3565" data-name="Path 3565" d="M310.488,428.209H279.115a1.152,1.152,0,0,1-1.151-1.151v-9.935a1.152,1.152,0,0,1,1.151-1.151h41.308a1.152,1.152,0,0,1,1.151,1.151A11.1,11.1,0,0,1,310.488,428.209Z" transform="translate(-242.236 -373.558)" fill="#fff"/>
    <rect id="Rectangle_3482" data-name="Rectangle 3482" width="19.006" height="1.562" rx="0.781" transform="translate(50.891 43.093)" fill="#6c63ff"/>
    <rect id="Rectangle_3483" data-name="Rectangle 3483" width="26.427" height="1.562" rx="0.781" transform="translate(46.481 47.518)" fill="#e6e6e6"/>
    <rect id="Rectangle_3484" data-name="Rectangle 3484" width="26.427" height="1.562" rx="0.781" transform="translate(46.481 51.944)" fill="#e6e6e6"/>
    <path id="Path_3566" data-name="Path 3566" d="M845.063,459.608H815.191a1.727,1.727,0,0,0-1.727,1.727v7.184a1.727,1.727,0,0,0,1.727,1.727h.438v1.3a.4.4,0,0,0,.68.282l1.58-1.58h27.175a1.727,1.727,0,0,0,1.727-1.727v-7.184A1.727,1.727,0,0,0,845.063,459.608Z" transform="translate(-669.606 -408.642)" fill="#e6e6e6"/>
    <path id="Path_3567" data-name="Path 3567" d="M850.918,475.225H821.046a.851.851,0,0,1-.85-.85V467.19a.851.851,0,0,1,.85-.85h22.688a8.044,8.044,0,0,1,8.035,8.035A.851.851,0,0,1,850.918,475.225Z" transform="translate(-675.461 -415.123)" fill="#fff"/>
    <rect id="Rectangle_3485" data-name="Rectangle 3485" width="13.745" height="1.13" rx="0.565" transform="translate(153.68 51.462)" fill="#6c63ff"/>
    <rect id="Rectangle_3486" data-name="Rectangle 3486" width="19.111" height="1.13" rx="0.565" transform="translate(150.997 54.655)" fill="#e6e6e6"/>
    <rect id="Rectangle_3487" data-name="Rectangle 3487" width="19.111" height="1.13" rx="0.565" transform="translate(150.997 57.849)" fill="#e6e6e6"/>
    <path id="Path_3568" data-name="Path 3568" d="M555.191,265.608h29.872a1.727,1.727,0,0,1,1.727,1.727v7.184a1.727,1.727,0,0,1-1.727,1.727h-.438v1.3a.4.4,0,0,1-.68.282l-1.58-1.58H555.191a1.727,1.727,0,0,1-1.727-1.727v-7.184A1.727,1.727,0,0,1,555.191,265.608Z" transform="translate(-463.647 -256.905)" fill="#e6e6e6"/>
    <path id="Path_3569" data-name="Path 3569" d="M590.918,281.225H568.23a8.044,8.044,0,0,1-8.035-8.035.851.851,0,0,1,.85-.851h29.872a.851.851,0,0,1,.851.85v7.184A.851.851,0,0,1,590.918,281.225Z" transform="translate(-469.608 -262.76)" fill="#fff"/>
    <rect id="Rectangle_3488" data-name="Rectangle 3488" width="13.745" height="1.13" rx="0.565" transform="translate(112.308 12.281) rotate(180)" fill="#6c63ff"/>
    <rect id="Rectangle_3489" data-name="Rectangle 3489" width="19.111" height="1.13" rx="0.565" transform="translate(115.228 20.086) rotate(180)" fill="#e6e6e6"/>
    <rect id="Rectangle_3490" data-name="Rectangle 3490" width="19.111" height="1.13" rx="0.565" transform="translate(115.228 23.28) rotate(180)" fill="#e6e6e6"/>
    <path id="Path_3570" data-name="Path 3570" d="M248.218,395.819a1.367,1.367,0,0,0-2.734,0c0,.013,0,.026,0,.04l-2.4,2.4.182-.419-2.734-.13-.4,2.886a1.3,1.3,0,0,0,2.185,1.106l4.726-4.529a1.366,1.366,0,0,0,1.169-1.351Z" transform="translate(-222.948 -357.259)" fill="#ffb9b9"/>
    <path id="Path_3571" data-name="Path 3571" d="M753.673,196.12l8.516,1.211.476,1.177L758.64,203.8l-1.924-.871,2.263-3.938-5.365.979Z" transform="translate(-612.605 -158.833)" fill="#6c63ff"/>
    <circle id="Ellipse_305" data-name="Ellipse 305" cx="1.302" cy="1.302" r="1.302" transform="translate(142.395 45.708)" fill="#9e616a"/>
  </g>
</svg>
