<svg xmlns="http://www.w3.org/2000/svg" width="149.686" height="81.678" viewBox="0 0 149.686 81.678">
  <g id="my-current-week" transform="translate(0.002)">
    <path id="Path_3572" data-name="Path 3572" d="M962.656,674.069a10.4,10.4,0,0,0-1.053-8.164l-.251.161a10.087,10.087,0,0,1,1.022,7.909Z" transform="translate(-832.72 -592.927)" fill="#e4e4e4"/>
    <path id="Path_3573" data-name="Path 3573" d="M950.278,645.152a1.952,1.952,0,0,0,3.82-.806c-.222-1.055-2.108-3.68-3.163-3.458S950.056,644.1,950.278,645.152Z" transform="translate(-823.151 -571.623)" fill="#e4e4e4"/>
    <path id="Path_3574" data-name="Path 3574" d="M949.1,687.342a1.569,1.569,0,1,0-.784-2.694A3.913,3.913,0,0,0,949.1,687.342Z" transform="translate(-821.613 -608.88)" fill="#e4e4e4"/>
    <path id="Path_3575" data-name="Path 3575" d="M1031.891,612.587c.034-.1,3.307-10.229-2.486-19.267l-.591.379c5.608,8.748,2.444,18.567,2.411,18.666Z" transform="translate(-890.14 -531.147)" fill="#e4e4e4"/>
    <path id="Path_3576" data-name="Path 3576" d="M1002.68,544.345a4.607,4.607,0,1,0,9.015-1.9c-.525-2.489-4.976-8.685-7.465-8.16S1002.155,541.856,1002.68,544.345Z" transform="translate(-867.557 -480.872)" fill="#e4e4e4"/>
    <path id="Path_3577" data-name="Path 3577" d="M999.889,643.91c2.222,2.4,6.2,2.336,6.2,2.336s.372-3.958-1.849-6.358-6.2-2.336-6.2-2.336S997.667,641.509,999.889,643.91Z" transform="translate(-863.927 -568.794)" fill="#e4e4e4"/>
    <path id="Path_3578" data-name="Path 3578" d="M521.108,650.135l-2.172-.915-1.49-10.889H497.6l-1.615,10.845-1.943.972a.461.461,0,0,0,.206.874h26.679a.461.461,0,0,0,.179-.887Z" transform="translate(-434.757 -569.458)" fill="#e6e6e6"/>
    <path id="Path_3579" data-name="Path 3579" d="M345.836,558.428H248.36a1.931,1.931,0,0,1-1.927-1.931V542.751h101.33V556.5A1.931,1.931,0,0,1,345.836,558.428Z" transform="translate(-224.222 -488.105)" fill="#ccc"/>
    <path id="Path_3580" data-name="Path 3580" d="M347.356,236.794H245.835V177.981a2.331,2.331,0,0,1,2.328-2.328h96.865a2.331,2.331,0,0,1,2.328,2.328Z" transform="translate(-223.714 -175.653)" fill="#3f3d56"/>
    <path id="Path_3581" data-name="Path 3581" d="M365.705,204.328h-89.4a1.8,1.8,0,0,0-1.794,1.8v49.014a1.8,1.8,0,0,0,1.794,1.8h89.4a1.8,1.8,0,0,0,1.794-1.8V206.123A1.8,1.8,0,0,0,365.705,204.328Z" transform="translate(-248.125 -200.06)" fill="#fff"/>
    <path id="Path_3582" data-name="Path 3582" d="M292.156,204.328v52.6H276.31a1.8,1.8,0,0,1-1.794-1.8V206.123a1.8,1.8,0,0,1,1.794-1.8Z" transform="translate(-248.125 -200.06)" fill="#f0f0f0"/>
    <path id="Path_3583" data-name="Path 3583" d="M272.074,382.671a1.251,1.251,0,0,0-1.528,1.161l-4.265,1.257,1.766,1.491,3.78-1.423a1.258,1.258,0,0,0,.248-2.486Z" transform="translate(-241.116 -351.828)" fill="#ffb6b6"/>
    <path id="Path_3584" data-name="Path 3584" d="M179.263,395.886a1.779,1.779,0,0,1-.567-3.465l8.643-2.918,6.742-2.456.827,2.9-5.952,3.922-9.322,1.981A1.789,1.789,0,0,1,179.263,395.886Z" transform="translate(-165.539 -355.58)" fill="#6c63ff"/>
    <path id="Path_3585" data-name="Path 3585" d="M128.539,512.028h1.213l.577-4.681h-1.791Z" transform="translate(-109.406 -431.824)" fill="#ffb6b6"/>
    <path id="Path_3586" data-name="Path 3586" d="M223.68,711.783h2.39a1.523,1.523,0,0,1,1.523,1.523v.05H223.68Z" transform="translate(-204.856 -631.975)" fill="#2f2e41"/>
    <path id="Path_3587" data-name="Path 3587" d="M66.032,512.028h1.213l.577-4.681H66.032Z" transform="translate(-56.204 -431.824)" fill="#ffb6b6"/>
    <path id="Path_3588" data-name="Path 3588" d="M161.172,711.783h2.39a1.523,1.523,0,0,1,1.523,1.523v.05h-3.913Z" transform="translate(-151.653 -631.975)" fill="#2f2e41"/>
    <path id="Path_3589" data-name="Path 3589" d="M159.209,525.829a6.518,6.518,0,0,0-.346,4.1l-.346,23.219h2.665l1.492-12.769,2.475-8.414,2.673,6.533v13.616l2.574-.154,1.386-14.452L170.2,527.215Z" transform="translate(-149.393 -473.702)" fill="#2f2e41"/>
    <path id="Path_3590" data-name="Path 3590" d="M170.94,393.717l-2.277-.693-.594-1.188h-2.924l-.738,1.287s-2.97,1.089-3.069,6.335-.495,13.66-.495,13.66l11.709,1.669Z" transform="translate(-151.374 -359.656)" fill="#6c63ff"/>
    <path id="Path_3591" data-name="Path 3591" d="M234.179,504.435a1.251,1.251,0,0,0-.818-1.736l-.343-4.434-1.825,1.417.606,3.993a1.258,1.258,0,0,0,2.381.759Z" transform="translate(-211.251 -450.242)" fill="#ffb6b6"/>
    <path id="Path_3592" data-name="Path 3592" d="M215.475,421.743l-2.6-6.637v-9.53a1.779,1.779,0,0,1,3.546-.206l1.057,9.061,1,7.105Z" transform="translate(-195.661 -369.835)" fill="#6c63ff"/>
    <circle id="Ellipse_306" data-name="Ellipse 306" cx="2.922" cy="2.922" r="2.922" transform="translate(12.872 24.795)" fill="#ffb9b9"/>
    <path id="Path_3593" data-name="Path 3593" d="M178.394,336.383c-.137.176-.324.334-.354.554a2.819,2.819,0,0,0,.056.49.653.653,0,0,1-.611.654.725.725,0,0,0-.466-.267.43.43,0,0,0-.443.256c-.087.245.114.494.146.752a1.556,1.556,0,0,1-.091.561,4.721,4.721,0,0,1-.224.886.709.709,0,0,1-.718.453.722.722,0,0,1-.492-.542c-.07-.247-.067-.509-.118-.76-.165-.817-.869-1.423-1.145-2.21a3,3,0,0,1,.8-2.94,2.393,2.393,0,0,1,1.115-.722,9.879,9.879,0,0,1,1.407-.082,9.828,9.828,0,0,0,1.458-.386,2.019,2.019,0,0,1,1.473.063,9.3,9.3,0,0,1,.819.659,1.719,1.719,0,0,0,1.129.3l-.478.209a1.535,1.535,0,0,0,.644.353,1.113,1.113,0,0,1-.686.241.784.784,0,0,0,.494.38,2.266,2.266,0,0,1-1.147.306c-.2-.019-.382-.088-.575-.124a3.383,3.383,0,0,0-1.245.082c-.216.041-.481.081-.59.289C178.464,336.011,178.533,336.2,178.394,336.383Z" transform="translate(-162.408 -309.554)" fill="#2f2e41"/>
    <circle id="Ellipse_307" data-name="Ellipse 307" cx="4.662" cy="4.662" r="4.662" transform="translate(30.548 25.909)" fill="#6c63ff"/>
    <path id="Path_3594" data-name="Path 3594" d="M223.35,190.976h-2.517v-2.518h-.56v2.518h-2.518v.559h2.518v2.518h.56v-2.518h2.517Z" transform="translate(-185.342 -160.405)" fill="#fff"/>
    <path id="Path_3595" data-name="Path 3595" d="M597.374,245.661a.543.543,0,0,0-.542.542v9.08a.543.543,0,0,0,.542.542h36.6a.543.543,0,0,0,.542-.542V246.2a.543.543,0,0,0-.542-.542Z" transform="translate(-522.461 -235.24)" fill="#fff"/>
    <path id="Path_3596" data-name="Path 3596" d="M597.374,245.661a.543.543,0,0,0-.542.542v9.08a.543.543,0,0,0,.542.542h36.6a.543.543,0,0,0,.542-.542V246.2a.543.543,0,0,0-.542-.542Z" transform="translate(-522.461 -235.24)" fill="#e6e6e6"/>
    <path id="Path_3597" data-name="Path 3597" d="M600.93,258.7H637.4v-8.944H600.93Z" transform="translate(-525.95 -238.728)" fill="#fff"/>
    <path id="Path_3598" data-name="Path 3598" d="M626.071,267.053a.475.475,0,1,0,0,.949h28.175a.475.475,0,1,0,0-.949Z" transform="translate(-546.945 -253.447)" fill="#e4e4e4"/>
    <path id="Path_3599" data-name="Path 3599" d="M626.071,286.178a.475.475,0,1,0,0,.949h28.175a.475.475,0,1,0,0-.949Z" transform="translate(-546.945 -269.726)" fill="#e4e4e4"/>
    <path id="Path_3600" data-name="Path 3600" d="M426.374,349.161a.543.543,0,0,0-.542.542v9.08a.543.543,0,0,0,.542.542h36.6a.543.543,0,0,0,.542-.542V349.7a.543.543,0,0,0-.542-.542Z" transform="translate(-376.916 -323.333)" fill="#fff"/>
    <path id="Path_3601" data-name="Path 3601" d="M426.374,349.161a.543.543,0,0,0-.542.542v9.08a.543.543,0,0,0,.542.542h36.6a.543.543,0,0,0,.542-.542V349.7a.543.543,0,0,0-.542-.542Z" transform="translate(-376.916 -323.333)" fill="#e6e6e6"/>
    <path id="Path_3602" data-name="Path 3602" d="M429.93,362.2H466.4v-8.944H429.93Z" transform="translate(-380.404 -326.821)" fill="#fff"/>
    <path id="Path_3603" data-name="Path 3603" d="M455.071,370.553a.475.475,0,1,0,0,.949h28.175a.475.475,0,1,0,0-.949Z" transform="translate(-401.399 -341.54)" fill="#e4e4e4"/>
    <path id="Path_3604" data-name="Path 3604" d="M455.071,389.678a.475.475,0,1,0,0,.949h28.175a.475.475,0,0,0,0-.949Z" transform="translate(-401.399 -357.819)" fill="#e4e4e4"/>
    <path id="Path_3605" data-name="Path 3605" d="M722.013,487.181a1.122,1.122,0,0,0,.953-1.432l3.244-2.317-1.933-.744L721.493,485a1.128,1.128,0,0,0,.52,2.179Z" transform="translate(-627.937 -436.983)" fill="#ffb7b7"/>
    <path id="Path_3606" data-name="Path 3606" d="M735.157,430.824l-1.076-1.838.023-.026,4.342-4.943,3.371-5.749,2.928.373.043.885-.009.013-4.651,6.992,0,0Z" transform="translate(-639.28 -382.152)" fill="#3f3d56"/>
    <path id="Path_3607" data-name="Path 3607" d="M726.5,499.4h-1.655l-.788-6.386H726.5Z" transform="translate(-616.274 -419.625)" fill="#ffb7b7"/>
    <path id="Path_3608" data-name="Path 3608" d="M810,710.08h-5.338v-.068a2.078,2.078,0,0,1,2.078-2.078H810Z" transform="translate(-699.354 -628.7)" fill="#2f2e41"/>
    <path id="Path_3609" data-name="Path 3609" d="M635.54,496.791l-1.61-.384.717-6.394,2.377.567Z" transform="translate(-539.566 -417.07)" fill="#ffb7b7"/>
    <path id="Path_3610" data-name="Path 3610" d="M712.533,705.759l-5.192-1.24.016-.066a2.078,2.078,0,0,1,2.5-1.538h0l3.171.757Z" transform="translate(-616.521 -624.379)" fill="#2f2e41"/>
    <path id="Path_3611" data-name="Path 3611" d="M785.191,361.368v-2.787a3.734,3.734,0,1,1,7.469,0v2.787a.5.5,0,0,1-.5.5h-6.465A.5.5,0,0,1,785.191,361.368Z" transform="translate(-682.782 -328.172)" fill="#2f2e41"/>
    <circle id="Ellipse_308" data-name="Ellipse 308" cx="2.738" cy="2.738" r="2.738" transform="translate(102.484 28.179)" fill="#ffb7b7"/>
    <path id="Path_3612" data-name="Path 3612" d="M779.256,364.54a2.957,2.957,0,0,1,2.954-2.954h.557a2.957,2.957,0,0,1,2.954,2.954v.056h-1.178l-.4-1.125-.08,1.125h-.609l-.2-.568-.041.568h-3.953Z" transform="translate(-677.731 -333.909)" fill="#2f2e41"/>
    <path id="Path_3613" data-name="Path 3613" d="M771.418,419.358l-6.971-.265-.39-4.561a2.656,2.656,0,0,1-.014-2.13,2.132,2.132,0,0,1,1.177-1.017l1.525-1.842a2.076,2.076,0,0,1,1.612-.751l3.963.027c.1-.057.675-.352,1.818.143,1.24.537.952,2.4.949,2.422l0,.018-.014.012-2.636,2.22Z" transform="translate(-664.599 -373.991)" fill="#3f3d56"/>
    <path id="Path_3614" data-name="Path 3614" d="M637.991,299.694l-3.3,6.012-2.5,27.351,2.825.863,5-21.4,5.8,20.788,3.386.085-2.305-23.99-2.015-9.288Z" transform="translate(-538.088 -255.082)" fill="#2f2e41"/>
    <path id="Path_3615" data-name="Path 3615" d="M604.928,445.259a.543.543,0,0,0-.683.349l-2.8,8.638a.543.543,0,0,0,.349.683l34.821,11.288a.543.543,0,0,0,.683-.349l2.8-8.638a.543.543,0,0,0-.349-.683Z" transform="translate(-526.365 -405.104)" fill="#fff"/>
    <path id="Path_3616" data-name="Path 3616" d="M604.928,445.259a.543.543,0,0,0-.683.349l-2.8,8.638a.543.543,0,0,0,.349.683l34.821,11.288a.543.543,0,0,0,.683-.349l2.8-8.638a.543.543,0,0,0-.349-.683Z" transform="translate(-526.365 -405.104)" fill="#e6e6e6"/>
    <path id="Path_3617" data-name="Path 3617" d="M605.635,457.958,640.326,469.2l2.758-8.509L608.393,449.45Z" transform="translate(-529.954 -408.693)" fill="#fff"/>
    <path id="Path_3618" data-name="Path 3618" d="M641.778,474.357a.475.475,0,0,0-.293.9l26.8,8.688a.474.474,0,1,0,.293-.9h0Z" transform="translate(-560.189 -429.872)" fill="#6c63ff"/>
    <path id="Path_3619" data-name="Path 3619" d="M635.88,492.55a.474.474,0,1,0-.293.9l26.8,8.688a.474.474,0,0,0,.295-.9h0Z" transform="translate(-555.169 -445.358)" fill="#6c63ff"/>
    <path id="Path_3620" data-name="Path 3620" d="M816.75,509.324a1.122,1.122,0,0,0-.059-1.719l1.287-3.773-2.005.521-.915,3.5a1.128,1.128,0,0,0,1.692,1.468Z" transform="translate(-708.038 -454.98)" fill="#ffb7b7"/>
    <path id="Path_3621" data-name="Path 3621" d="M820.278,436.789l-1.945-.867.654-6.582-.608-6.637,2.6-1.4.551.694v.016l.292,8.393,0,.006Z" transform="translate(-710.991 -384.735)" fill="#3f3d56"/>
    <path id="Path_3622" data-name="Path 3622" d="M518.19,721.749H416.454a.233.233,0,0,1-.229-.169.228.228,0,0,1,.22-.286H518.172a.24.24,0,0,1,.241.178.228.228,0,0,1-.222.277Z" transform="translate(-368.733 -640.071)" fill="#ccc"/>
    <path id="Path_3623" data-name="Path 3623" d="M131.46,721.749H97.454a.233.233,0,0,1-.229-.169.228.228,0,0,1,.22-.286h34a.24.24,0,0,1,.241.178.227.227,0,0,1-.222.277Z" transform="translate(-97.219 -640.071)" fill="#ccc"/>
  </g>
</svg>
