<svg xmlns="http://www.w3.org/2000/svg" width="78.203" height="92.408" viewBox="0 0 78.203 92.408">
  <g id="my-courses" transform="translate(-0.002)">
    <path id="Path_3415" data-name="Path 3415" d="M474.626,664.725l-.246,1.078.059.065c-.013.033-.026.066-.042.1a7.591,7.591,0,0,1-.448.859c-.221.368-.469.722-.726,1.07-.141.192-.286.383-.431.573a.147.147,0,0,1-.013.018.119.119,0,0,1,.007-.02l-.047-.011-.273-1.183-.083.187h0l-.134.31c.011.057.021.112.034.167,0,0,0,0,0-.005s0,0,0,0c-.017-.037-.036-.072-.053-.109l-.206.472-.416-.095c-.219-.113-.437-.228-.655-.346a20.575,20.575,0,0,1-7.57-6.467,12.763,12.763,0,0,1-1.648-3.627,10.091,10.091,0,0,1,.7-7.6h0q.047-.087.1-.174c.025.066.049.132.075.2h0a17.948,17.948,0,0,0,1.24,2.589c.037.065.074.129.113.192a18.572,18.572,0,0,0,4.521,5.13l.016.013.02.014q.6.474,1.25.892h0c.336.219.681.425,1.031.622a23.663,23.663,0,0,1,2.258,1.316,4.167,4.167,0,0,1,1.555,1.83c.024.062.046.124.066.186l-.543,1.674Z" transform="translate(-440.604 -577.008)" fill="#f0f0f0"/>
    <path id="Path_3416" data-name="Path 3416" d="M479.779,667.028h0l-.134.31c-.2-1.128.038-2.32-.129-3.462-.018-.128-.042-.256-.072-.382a2.422,2.422,0,0,0-1.258-1.721,2.88,2.88,0,0,0-.635-.2c-.432-.092-.883-.112-1.319-.163-.109-.013-.217-.028-.323-.047a3.963,3.963,0,0,1-1.578-.61,6.287,6.287,0,0,1-1.5-1.51,13.49,13.49,0,0,1-.758-1.141c-.032-.05-.061-.1-.091-.153a15.984,15.984,0,0,1-1.334-2.977,15.609,15.609,0,0,1-.443-1.612,15.99,15.99,0,0,1-.378-3.628h0c0-.055,0-.111,0-.166,0-.113.178-.088.175.025,0,.055,0,.109,0,.165h0a15.921,15.921,0,0,0,.352,3.478c.013.058.026.116.038.174a15.771,15.771,0,0,0,1.775,4.5c.009.016.018.032.029.047.191.325.4.642.613.951a6.837,6.837,0,0,0,1.446,1.57,3.777,3.777,0,0,0,1.6.694l.175.03c.046.008.094.014.141.02.444.055.9.076,1.341.161a3.545,3.545,0,0,1,.589.165,2.391,2.391,0,0,1,1.359,1.407,4.161,4.161,0,0,1,.24.955c.015.107.025.213.034.321h0c.013.174.02.349.022.524,0,.219,0,.437-.007.655A11.235,11.235,0,0,0,479.779,667.028Z" transform="translate(-448 -576.576)" fill="#fff"/>
    <path id="Path_3417" data-name="Path 3417" d="M467.628,708.927a2.374,2.374,0,0,1-2.99-.713c-.067-.092.073-.2.14-.108a2.2,2.2,0,0,0,2.782.658C467.662,708.711,467.729,708.876,467.628,708.927Z" transform="translate(-443.51 -627.441)" fill="#fff"/>
    <path id="Path_3418" data-name="Path 3418" d="M514.348,715.84a4.575,4.575,0,0,0-.162-3.33c-.047-.1.117-.171.164-.067a4.759,4.759,0,0,1,.161,3.466C514.475,716.016,514.311,715.948,514.348,715.84Z" transform="translate(-486.484 -631.193)" fill="#fff"/>
    <path id="Path_3419" data-name="Path 3419" d="M473.081,671.877a1.344,1.344,0,0,0,.925-.877c.035-.108.2-.039.163.068a1.506,1.506,0,0,1-1.021.973.092.092,0,0,1-.115-.048A.089.089,0,0,1,473.081,671.877Z" transform="translate(-450.803 -595.207)" fill="#fff"/>
    <path id="Path_3420" data-name="Path 3420" d="M548.3,790.435l.008-.01a.5.5,0,0,0-.014.049Z" transform="translate(-516.063 -698.947)" fill="#f0f0f0"/>
    <path id="Path_3421" data-name="Path 3421" d="M532.351,646.347l-.184.646-1.133-.212-.375,1.158-.065.2-.257.792-.543,1.674.5.082-.246,1.078.059.065.018.02.123.134.746.814-2.039,1.745-.327-.075-.167-.038-.013.018a.121.121,0,0,1,.007-.02l-.047-.01-.273-1.183-.083.187h0l-.134.31c.011.057.021.112.034.167,0,0,0,0,0-.005s0,0,0,0c-.017-.037-.036-.072-.053-.109-.261-.544-.51-1.1-.74-1.655a24.3,24.3,0,0,1-1.332-4.164c-.013-.062-.028-.124-.038-.187h0a17.289,17.289,0,0,1-.352-2.8h0a15.156,15.156,0,0,1,.016-1.545,12.7,12.7,0,0,1,.866-3.877l.008-.018a10.172,10.172,0,0,1,4.84-5.505c.094-.047.19-.092.286-.134h0l.18-.078c-.02.068-.041.137-.059.207a17.623,17.623,0,0,0-.569,2.813h0c-.01.072-.02.148-.028.221h0a18.651,18.651,0,0,0,.53,6.845c0,.007,0,.012.005.018A17.907,17.907,0,0,0,532.351,646.347Z" transform="translate(-496.202 -562.968)" fill="#f0f0f0"/>
    <path id="Path_3422" data-name="Path 3422" d="M550.2,770.829c-.1.14-.211.275-.319.411l-.312.393a7.558,7.558,0,0,0-.726,1.07,3.743,3.743,0,0,0-.263.611l-.167-.038-.013.018a.112.112,0,0,1,.007-.02,8.777,8.777,0,0,1,1.611-2.5c.021-.026.041-.053.061-.079Z" transform="translate(-516.151 -681.816)" fill="#fff"/>
    <path id="Path_3423" data-name="Path 3423" d="M549.435,633.347c-.034.043-.07.088-.1.133q-.385.5-.729,1.032a15.546,15.546,0,0,0-1.083,1.956c-.025.053-.05.107-.074.161a15.712,15.712,0,0,0-1.3,4.669c0,.016,0,.03-.005.046q-.065.565-.084,1.134a6.82,6.82,0,0,0,.209,2.124c.026.091.055.18.087.267a3.6,3.6,0,0,0,.3.613,3.68,3.68,0,0,0,.282.407c.062.079.127.157.2.232l.121.13c.034.033.067.067.1.1.356.345.748.665,1.07,1.046l-.065.2a10.666,10.666,0,0,0-1.068-1.06,5,5,0,0,1-.614-.7c-.024-.034-.049-.068-.071-.1a3.527,3.527,0,0,1-.315-.565c-.045-.1-.086-.2-.122-.306a6.309,6.309,0,0,1-.29-2.108,13.619,13.619,0,0,1,.082-1.369c.005-.059.012-.117.02-.177a16.148,16.148,0,0,1,2.54-6.893q.326-.5.692-.968c.032-.043.065-.086.1-.129C549.38,633.132,549.5,633.257,549.435,633.347Z" transform="translate(-513.954 -562.426)" fill="#fff"/>
    <path id="Path_3424" data-name="Path 3424" d="M534.243,679.353a2.373,2.373,0,0,1-1.958-2.37.089.089,0,0,1,.177,0,2.2,2.2,0,0,0,1.825,2.2C534.4,679.2,534.355,679.372,534.243,679.353Z" transform="translate(-502.178 -600.374)" fill="#fff"/>
    <path id="Path_3425" data-name="Path 3425" d="M554.807,712.983a4.575,4.575,0,0,0,1.876-2.756c.025-.111.2-.066.171.045a4.759,4.759,0,0,1-1.958,2.864C554.8,713.2,554.713,713.047,554.807,712.983Z" transform="translate(-521.67 -629.258)" fill="#fff"/>
    <path id="Path_3426" data-name="Path 3426" d="M557.244,656.87a1.344,1.344,0,0,0,1.267-.143c.094-.065.182.088.089.153a1.506,1.506,0,0,1-1.4.162.092.092,0,0,1-.063-.108A.089.089,0,0,1,557.244,656.87Z" transform="translate(-523.724 -583.017)" fill="#fff"/>
    <path id="Path_3427" data-name="Path 3427" d="M698.625,117.939c-1-5.338.573-11.411,4.937-14.642a25.02,25.02,0,0,0,5.216,16.367c1.4,1.8,3.146,3.647,3.092,5.924a5.593,5.593,0,0,1-1.81,3.731,16.61,16.61,0,0,1-3.482,2.417l-.191.3C702.785,127.97,699.623,123.277,698.625,117.939Z" transform="translate(-646.055 -103.194)" fill="#f0f0f0"/>
    <path id="Path_3428" data-name="Path 3428" d="M724.744,102.7a21.386,21.386,0,0,0-1.412,13.082,9.21,9.21,0,0,0,.975,2.716,5.282,5.282,0,0,0,2,1.935,10.933,10.933,0,0,1,2.233,1.42,3.234,3.234,0,0,1,.952,2.468,8.4,8.4,0,0,1-.931,3.211,8.251,8.251,0,0,0-1.033,3.57c0,.154-.235.151-.239,0-.058-2.213,1.542-3.99,1.9-6.113a3.275,3.275,0,0,0-.661-2.805,8.482,8.482,0,0,0-2.24-1.484,5.637,5.637,0,0,1-2.022-1.82,8.515,8.515,0,0,1-1.076-2.668,20.749,20.749,0,0,1-.47-6.467,21.766,21.766,0,0,1,1.825-7.164C724.6,102.436,724.807,102.56,724.744,102.7Z" transform="translate(-667.18 -102.515)" fill="#fff"/>
    <path id="Path_3429" data-name="Path 3429" d="M702.938,175.4a3.208,3.208,0,0,1-3.347-2.461c-.035-.15.2-.211.231-.061a2.971,2.971,0,0,0,3.118,2.283C703.094,175.148,703.091,175.388,702.938,175.4Z" transform="translate(-647.22 -163.533)" fill="#fff"/>
    <path id="Path_3430" data-name="Path 3430" d="M747.08,208.57a6.184,6.184,0,0,0,1.55-4.232c0-.154.236-.151.239,0a6.432,6.432,0,0,1-1.622,4.4C747.145,208.857,746.978,208.685,747.08,208.57Z" transform="translate(-688.38 -190.825)" fill="#fff"/>
    <path id="Path_3431" data-name="Path 3431" d="M726.015,135.458a1.816,1.816,0,0,0,1.613-.606c.1-.117.268.055.167.171a2.035,2.035,0,0,1-1.783.674.124.124,0,0,1-.118-.121.12.12,0,0,1,.121-.118Z" transform="translate(-670.037 -130.559)" fill="#fff"/>
    <path id="Path_3432" data-name="Path 3432" d="M773.254,136.812c-.061.075-.122.149-.183.226a23.915,23.915,0,0,0-2.189,3.2c-.051.086-.1.174-.15.262a25.215,25.215,0,0,0-2.942,8.8,24.479,24.479,0,0,0-.224,3.714,15.941,15.941,0,0,1-.333,5.15,4.173,4.173,0,0,1-.189.484l-8.436,2.688-.066-.009-.332.123c-.005-.064-.01-.13-.015-.194,0-.037,0-.075-.008-.112s0-.05-.006-.072,0-.017,0-.023c0-.022,0-.044-.005-.064q-.038-.557-.068-1.117s0,0,0,0a36,36,0,0,1,.472-8.5c.016-.083.031-.169.051-.254a23.369,23.369,0,0,1,1.033-3.67,20.636,20.636,0,0,1,.833-1.917,17.176,17.176,0,0,1,3.118-4.373,13.639,13.639,0,0,1,9.369-4.344C773.073,136.812,773.162,136.811,773.254,136.812Z" transform="translate(-697.76 -132.294)" fill="#f0f0f0"/>
    <path id="Path_3433" data-name="Path 3433" d="M774.131,136.111a21.385,21.385,0,0,0-9,9.595,9.21,9.21,0,0,0-.856,2.755,5.282,5.282,0,0,0,.428,2.747,10.934,10.934,0,0,1,.928,2.478,3.234,3.234,0,0,1-.726,2.543,8.4,8.4,0,0,1-2.677,2,8.251,8.251,0,0,0-2.974,2.228c-.09.125-.279-.021-.19-.146,1.286-1.8,3.633-2.257,5.2-3.738a3.275,3.275,0,0,0,1.161-2.638,8.48,8.48,0,0,0-.895-2.534,5.636,5.636,0,0,1-.518-2.67,8.516,8.516,0,0,1,.747-2.778,20.75,20.75,0,0,1,3.518-5.447,21.767,21.767,0,0,1,5.77-4.621c.135-.074.224.148.09.222Z" transform="translate(-698.622 -131.48)" fill="#fff"/>
    <path id="Path_3434" data-name="Path 3434" d="M799.733,173.595a3.208,3.208,0,0,1-1.191-3.98c.062-.141.284-.051.222.09a2.971,2.971,0,0,0,1.115,3.7C800.009,173.488,799.862,173.677,799.733,173.595Z" transform="translate(-732.687 -160.714)" fill="#fff"/>
    <path id="Path_3435" data-name="Path 3435" d="M799.628,232.894a6.184,6.184,0,0,0,3.785-2.446c.09-.125.279.021.19.146a6.432,6.432,0,0,1-3.944,2.537C799.508,233.162,799.478,232.924,799.628,232.894Z" transform="translate(-733.779 -213.391)" fill="#fff"/>
    <path id="Path_3436" data-name="Path 3436" d="M841.376,158.981a1.816,1.816,0,0,0,1.653.488c.151-.032.181.205.031.237a2.035,2.035,0,0,1-1.83-.536.124.124,0,0,1-.022-.168.12.12,0,0,1,.168-.022Z" transform="translate(-769.947 -151.521)" fill="#fff"/>
    <path id="Path_3437" data-name="Path 3437" d="M396.942,161.695a2.71,2.71,0,0,0-1.546-.658c-1.381.033-2.125,2.057-3.5,1.986-.879-.045-1.463-.939-2.282-1.263a1.953,1.953,0,0,0-2.539,1.544l.137-.125a33.057,33.057,0,0,0,12.665.585Z" transform="translate(-376.379 -153.326)" fill="#f0f0f0"/>
    <circle id="Ellipse_289" data-name="Ellipse 289" cx="4.79" cy="4.79" r="4.79" transform="translate(18.551 1.222)" fill="#ff6582"/>
    <path id="Path_3438" data-name="Path 3438" d="M483.811,135.672a3.453,3.453,0,0,0-1.971-.839c-1.759.042-2.708,2.621-4.465,2.531-1.121-.058-1.865-1.2-2.909-1.609a2.488,2.488,0,0,0-3.236,1.967l.174-.16a42.129,42.129,0,0,0,16.14.746Z" transform="translate(-449.195 -130.575)" fill="#f0f0f0"/>
    <path id="Path_3439" data-name="Path 3439" d="M384.1,316.077l-5.131-27.219a2.029,2.029,0,0,0-1.933-1.632h-.124l-3.5.124-.376.014-1.745.062-.376.013-1.122.04-22.626.8c-.034,0-.069,0-.1,0L342,288.18l-1.876-.038h-.06l-1.385-.029-12.067-.248-3.2-.067-1.578-.032-.378-.008-1.8-.037-.377-.008-1.84-.037-.377-.008-2.022-.042-.317-.006-1.8-.037-.285-.005h-.042a2.024,2.024,0,0,0-1.993,1.679L305.958,317.5a1.987,1.987,0,0,0,.454,1.617,2.026,2.026,0,0,0,1.538.7H334.6a1.858,1.858,0,0,1,1.09.356l.505.371a2.05,2.05,0,0,0,1.2.393H353.1a2.016,2.016,0,0,0,1.428-.586,1.84,1.84,0,0,1,1.2-.529l26.492-1.383a2.025,2.025,0,0,0,1.481-.76,1.986,1.986,0,0,0,.4-1.6Z" transform="translate(-305.93 -262.532)" fill="#ccc"/>
    <path id="Path_3440" data-name="Path 3440" d="M404.233,265.111l-2.863-28.074c0-.012,0-.025,0-.037a1.778,1.778,0,0,0-.626-1.152l-6.159-5.078a1.644,1.644,0,0,0-.95-.375c-2.818-.179-17.144-.842-22.431,3.7a1.466,1.466,0,0,1-1.183.336,1.483,1.483,0,0,1-1.026-.681A6.032,6.032,0,0,0,367.259,232a9.22,9.22,0,0,0-.969-.582c-.3-.154-.618-.3-.969-.449-.3-.124-.624-.244-.969-.358a27.8,27.8,0,0,0-7.379-1.182c-1.326-.062-2.768-.07-4.284-.026-1.385.04-2.856.123-4.372.248h-.022l-10.261,6.2a1.767,1.767,0,0,0-.832,1.312l-.021.186-3.258,28.813a1.8,1.8,0,0,0,.42,1.371,1.682,1.682,0,0,0,1.273.588H360.9a1.5,1.5,0,0,1,.924.324l1.1.875a1.679,1.679,0,0,0,1.013.364l11.117.18h.027a1.671,1.671,0,0,0,.8-.206l2.144-1.178a1.491,1.491,0,0,1,.637-.183l23.961-1.252a1.671,1.671,0,0,0,1.208-.612,1.775,1.775,0,0,0,.4-1.326Z" transform="translate(-330.223 -212.386)" fill="#e6e6e6"/>
    <path id="Path_3441" data-name="Path 3441" d="M476.308,270.707l-.332-4.37-1.4-18.425-.208-2.726a2.888,2.888,0,0,0-2.814-2.676c-5.131-.132-14.423.1-18.982,3.155a2.528,2.528,0,0,1-3.308-.408,7.352,7.352,0,0,0-2.232-1.666,12.589,12.589,0,0,0-1.918-.772,28.689,28.689,0,0,0-7.306-1.124l-6.979-.041h-.012a1.9,1.9,0,0,0-1.9,1.782l-.3,4.791-1.324,21.012a2.895,2.895,0,0,0,2.849,3.077c11.715.174,16.833,2.647,19.065,4.689a2.894,2.894,0,0,0,3.544.287c4.051-2.653,10.785-3.391,16.146-3.506,1.641-.034,3.154-.012,4.421.033a2.895,2.895,0,0,0,2.99-3.114Z" transform="translate(-410.891 -223.043)" fill="#fff"/>
    <path id="Path_3442" data-name="Path 3442" d="M356.684,318.4h-.013a.186.186,0,0,1-.173-.2l2.016-28.462a.184.184,0,0,1,.2-.173.186.186,0,0,1,.173.2l-2.016,28.462A.186.186,0,0,1,356.684,318.4Z" transform="translate(-349.834 -264.585)" fill="#fff"/>
    <path id="Path_3443" data-name="Path 3443" d="M375.1,309.9h-.013a.187.187,0,0,1-.173-.2l2.016-28.462a.184.184,0,0,1,.2-.173.186.186,0,0,1,.173.2l-2.016,28.462A.186.186,0,0,1,375.1,309.9Z" transform="translate(-365.822 -257.221)" fill="#fff"/>
    <path id="Path_3444" data-name="Path 3444" d="M392.094,305.649h-.013a.187.187,0,0,1-.173-.2l2.016-28.462a.184.184,0,0,1,.2-.173.187.187,0,0,1,.173.2l-2.016,28.462A.186.186,0,0,1,392.094,305.649Z" transform="translate(-380.579 -253.539)" fill="#fff"/>
    <path id="Path_3445" data-name="Path 3445" d="M409.091,297.151h-.013a.186.186,0,0,1-.173-.2l2.016-28.462a.184.184,0,0,1,.2-.173.186.186,0,0,1,.173.2l-2.016,28.462A.186.186,0,0,1,409.091,297.151Z" transform="translate(-395.206 -246.176)" fill="#fff"/>
    <path id="Path_3446" data-name="Path 3446" d="M830.644,319.814h.013a.186.186,0,0,0,.173-.2l-2.016-28.462a.186.186,0,1,0-.372.026l2.016,28.462A.186.186,0,0,0,830.644,319.814Z" transform="translate(-758.882 -265.812)" fill="#fff"/>
    <path id="Path_3447" data-name="Path 3447" d="M812.23,307.066h.013a.187.187,0,0,0,.173-.2L810.4,278.4a.184.184,0,0,0-.2-.173.186.186,0,0,0-.173.2l2.016,28.462A.186.186,0,0,0,812.23,307.066Z" transform="translate(-742.895 -254.767)" fill="#fff"/>
    <path id="Path_3448" data-name="Path 3448" d="M795.233,292.9h.013a.186.186,0,0,0,.173-.2L793.4,264.24a.184.184,0,0,0-.2-.173.186.186,0,0,0-.173.2l2.016,28.462A.186.186,0,0,0,795.233,292.9Z" transform="translate(-728.137 -242.494)" fill="#fff"/>
    <path id="Path_3449" data-name="Path 3449" d="M459.882,281.447a17.767,17.767,0,0,1,12.883.9,16.963,16.963,0,0,1,3.2,1.972c.28.22.679-.174.4-.4a18.336,18.336,0,0,0-12.871-3.775,17.613,17.613,0,0,0-3.758.755C459.392,281.017,459.538,281.557,459.882,281.447Z" transform="translate(-439.06 -256.459)" fill="#3f3d56"/>
    <path id="Path_3450" data-name="Path 3450" d="M635.044,297.278a17.765,17.765,0,0,1,12.845-1.337,16.932,16.932,0,0,1,3.493,1.389c.318.17.6-.313.283-.483a18.355,18.355,0,0,0-13.342-1.455,17.606,17.606,0,0,0-3.561,1.4C634.443,296.963,634.725,297.446,635.044,297.278Z" transform="translate(-590.8 -269.183)" fill="#3f3d56"/>
    <path id="Path_3451" data-name="Path 3451" d="M635.044,325.606a17.765,17.765,0,0,1,12.845-1.337,16.929,16.929,0,0,1,3.493,1.389c.318.17.6-.314.283-.483a18.355,18.355,0,0,0-13.342-1.455,17.608,17.608,0,0,0-3.561,1.4C634.443,325.291,634.725,325.774,635.044,325.606Z" transform="translate(-590.8 -293.743)" fill="#3f3d56"/>
    <path id="Path_3452" data-name="Path 3452" d="M651.816,353.74a.24.24,0,0,0-.138-.232,18.357,18.357,0,0,0-10.568-1.98l-.068.007h0a.551.551,0,0,0-.067.01,17.682,17.682,0,0,0-6.2,1.91.282.282,0,0,0-.138.243v6.962a.282.282,0,0,0,.354.269c.086-.025.172-.048.26-.071a27.746,27.746,0,0,1,5.974-.935l.131-.005a31.3,31.3,0,0,1,4.928.177c.034,0,.068.006.1.011l.254.03c.034,0,.066.007.1.013.327.041.651.088.977.138q.7.112,1.409.25l.09.018c.754.15,1.5.323,2.25.515a.284.284,0,0,0,.354-.27v-7.049A.024.024,0,0,0,651.816,353.74Z" transform="translate(-590.814 -318.282)" fill="#3f3d56"/>
    <path id="Path_3453" data-name="Path 3453" d="M678.859,354.55a.921.921,0,0,0-.66-.058.782.782,0,0,0-.439.413,1.985,1.985,0,0,0-.145.568c-.012.077-.012.174.065.21a.164.164,0,0,0,.166-.033.49.49,0,0,0,.1-.136,1.477,1.477,0,0,1,1.248-.679l.207.082a2.448,2.448,0,0,0-.54-.369Z" transform="translate(-628.176 -320.952)" fill="#ff6582"/>
    <path id="Path_3454" data-name="Path 3454" d="M676.139,363.466a1.213,1.213,0,0,0-.648-.565,1.383,1.383,0,0,0-1,.263,29.193,29.193,0,0,0-2.591,1.7v.009l1.933-.119a3.682,3.682,0,0,0,1.359-.257,1.281,1.281,0,0,1,.485-.181.811.811,0,0,1,.562.271c.891.845,1.149,2.136,2.148,2.878a27.141,27.141,0,0,0-2.251-4Z" transform="translate(-623.196 -328.24)" fill="#fff"/>
    <path id="Path_3455" data-name="Path 3455" d="M660.16,411.112l-.131.006c-.312-.112-.631-.211-.953-.3-.209-.056-.422-.106-.634-.149-.241-.052-.483-.093-.726-.129a11.609,11.609,0,0,0-1.394-.118.025.025,0,1,1,0-.05c.06,0,.119,0,.177.006a11.643,11.643,0,0,1,1.4.136c.241.039.481.086.72.138.216.048.433.1.646.162Q659.717,410.945,660.16,411.112Z" transform="translate(-609.682 -369.436)" fill="#fff"/>
    <path id="Path_3456" data-name="Path 3456" d="M664.821,400.669c-.032-.006-.063-.009-.1-.013-.129-.106-.259-.207-.4-.306-.17-.123-.345-.239-.524-.347a9.313,9.313,0,0,0-1.239-.631,12.357,12.357,0,0,0-2.094-.661,20.837,20.837,0,0,0-2.476-.388c-.832-.086-1.668-.138-2.5-.19-.035,0-.037-.054,0-.052l.315.021c.845.052,1.69.112,2.53.207a19.284,19.284,0,0,1,2.472.429,12.027,12.027,0,0,1,2.026.7,9.213,9.213,0,0,1,1.09.58c.222.14.437.289.642.448C664.653,400.529,664.739,400.6,664.821,400.669Z" transform="translate(-608.927 -358.77)" fill="#fff"/>
    <path id="Path_3457" data-name="Path 3457" d="M663.921,401.77a1.019,1.019,0,0,0-.1-.011c-.039-.032-.08-.062-.121-.091a8.521,8.521,0,0,0-.9-.562,9.5,9.5,0,0,0-.868-.416,12.191,12.191,0,0,0-2.094-.661,20.826,20.826,0,0,0-2.476-.388c-.832-.086-1.668-.138-2.5-.19-.035,0-.035-.054,0-.052l.315.021c.845.052,1.691.112,2.53.207a19.281,19.281,0,0,1,2.472.429,11.963,11.963,0,0,1,2.026.7c.246.112.487.233.722.366A7.64,7.64,0,0,1,663.921,401.77Z" transform="translate(-608.381 -359.913)" fill="#fff"/>
    <path id="Path_3458" data-name="Path 3458" d="M667.467,366.874l-.09-.019c-.034-.035-.065-.073-.1-.11q-.241-.277-.476-.56c-.618-.735-1.2-1.493-1.756-2.265q-.711-.991-1.349-2.021c-.2-.325-.4-.653-.592-.985q-.224-.386-.437-.774c-.041-.075-.08-.149-.119-.224-.091-.175-.183-.353-.28-.526a1.487,1.487,0,0,0-.452-.537.66.66,0,0,0-.321-.11.97.97,0,0,0-.463.119,15.078,15.078,0,0,0-2.935,1.8,14.189,14.189,0,0,0-2.385,2.357c-.022.026-.071,0-.05-.026.084-.1.17-.209.256-.312a14.3,14.3,0,0,1,2.256-2.144l.007-.006c.073-.058.146-.114.22-.168a15.256,15.256,0,0,1,1.441-.94q.38-.221.778-.42c.065-.034.132-.067.2-.1s.134-.065.2-.1a1.1,1.1,0,0,1,.427-.118c.519-.007.786.515.97.868.058.11.118.22.175.33.224.416.457.83.7,1.239.147.254.3.506.455.756.222.356.45.709.687,1.06h0c.274.414.56.821.855,1.226q.758,1.038,1.59,2.03Q667.172,366.542,667.467,366.874Z" transform="translate(-609.08 -324.596)" fill="#fff"/>
    <path id="Path_3459" data-name="Path 3459" d="M729.073,389.689v.086c-.185-.216-.373-.431-.56-.646l-.235-.269q-.5-.565-1-1.127c-.338-.373-.675-.746-1.017-1.118-.082-.09-.164-.179-.248-.269a1.925,1.925,0,0,0-.218-.209.81.81,0,0,0-.267-.147.669.669,0,0,0-.343,0c-.129.03-.252.077-.377.116s-.256.084-.384.125l-.771.252a.026.026,0,0,1-.02,0,.026.026,0,0,1-.014-.015.026.026,0,0,1,0-.022.026.026,0,0,1,.018-.013l.194-.062c.259-.086.517-.17.776-.254.129-.043.257-.084.386-.125a1.155,1.155,0,0,1,.373-.075.844.844,0,0,1,.549.258c.08.075.153.153.226.233l.258.28q.518.565,1.028,1.134t1.015,1.144l.073.084C728.7,389.26,728.887,389.474,729.073,389.689Z" transform="translate(-668.036 -348.216)" fill="#fff"/>
    <path id="Path_3460" data-name="Path 3460" d="M676.634,353.5l-.052.023a1.408,1.408,0,0,0-1.138-.689,1.351,1.351,0,0,0-1.5,1.135,1.123,1.123,0,0,0,.227.782l-.048.028a1.17,1.17,0,0,1-.237-.815,1.407,1.407,0,0,1,1.558-1.182A1.467,1.467,0,0,1,676.634,353.5Z" transform="translate(-624.942 -319.499)" fill="#ff6582"/>
    <path id="Path_3461" data-name="Path 3461" d="M657.816,367.948a1.378,1.378,0,0,0-1.255.08,19.788,19.788,0,0,1,2.036.423C658.319,368.306,658.1,368.079,657.816,367.948Z" transform="translate(-609.925 -332.553)" fill="#fff"/>
    <path id="Path_3462" data-name="Path 3462" d="M656.034,369.3l-.076.055c.026-.019.052-.037.079-.054Z" transform="translate(-609.414 -333.829)" fill="#fff"/>
    <path id="Path_3463" data-name="Path 3463" d="M737.436,388.892a.631.631,0,0,0-.272-.2l-.106,0a11.2,11.2,0,0,0,3.205,3.262Z" transform="translate(-679.707 -350.626)" fill="#fff"/>
    <path id="Path_3464" data-name="Path 3464" d="M643.129,366.138l-.09-.09a2.621,2.621,0,0,0-.823-.6,1.317,1.317,0,0,0-.5-.1,1.578,1.578,0,0,0-.52.1c-.078.028-.155.059-.23.093s-.171.08-.255.121q-.237.117-.468.244-.459.253-.89.544-.223.151-.437.312t-.39.307c-.027.022-.068-.014-.041-.036l.1-.083q.144-.116.292-.227.271-.2.555-.391.443-.292.916-.544.236-.126.479-.241c.049-.023.1-.046.148-.067a2.538,2.538,0,0,1,.353-.128,1.4,1.4,0,0,1,.533-.047,1.5,1.5,0,0,1,.492.151,3.224,3.224,0,0,1,.815.65C643.194,366.126,643.154,366.162,643.129,366.138Z" transform="translate(-594.231 -330.345)" fill="#fff"/>
    <path id="Path_3465" data-name="Path 3465" d="M459.882,309.776a17.767,17.767,0,0,1,12.883.9,16.963,16.963,0,0,1,3.2,1.972c.28.22.679-.174.4-.4a18.336,18.336,0,0,0-12.871-3.775,17.612,17.612,0,0,0-3.758.755c-.342.109-.2.65.149.54Z" transform="translate(-439.06 -281.018)" fill="#3f3d56"/>
    <path id="Path_3466" data-name="Path 3466" d="M459.882,338.1a17.767,17.767,0,0,1,12.883.9,16.964,16.964,0,0,1,3.2,1.972c.28.22.679-.173.4-.4a18.336,18.336,0,0,0-12.871-3.775,17.613,17.613,0,0,0-3.758.755C459.392,337.673,459.538,338.214,459.882,338.1Z" transform="translate(-439.06 -305.578)" fill="#3f3d56"/>
    <path id="Path_3467" data-name="Path 3467" d="M459.882,366.432a17.767,17.767,0,0,1,12.883.9,16.966,16.966,0,0,1,3.2,1.972c.28.22.679-.173.4-.4a18.336,18.336,0,0,0-12.871-3.774,17.612,17.612,0,0,0-3.758.755C459.392,366,459.538,366.542,459.882,366.432Z" transform="translate(-439.06 -330.138)" fill="#3f3d56"/>
    <path id="Path_3468" data-name="Path 3468" d="M459.882,394.76a17.767,17.767,0,0,1,12.883.9,16.966,16.966,0,0,1,3.2,1.972c.28.22.679-.174.4-.4a18.336,18.336,0,0,0-12.871-3.774,17.612,17.612,0,0,0-3.758.755C459.392,394.33,459.538,394.87,459.882,394.76Z" transform="translate(-439.06 -354.698)" fill="#3f3d56"/>
    <path id="Path_3469" data-name="Path 3469" d="M459.882,423.088a17.767,17.767,0,0,1,12.883.9,16.964,16.964,0,0,1,3.2,1.972c.28.22.679-.174.4-.4a18.336,18.336,0,0,0-12.871-3.775,17.612,17.612,0,0,0-3.758.755C459.392,422.658,459.538,423.2,459.882,423.088Z" transform="translate(-439.06 -379.258)" fill="#3f3d56"/>
    <path id="Path_3470" data-name="Path 3470" d="M564.531,239.567v10.46c0,.178-.311.327-.73.367-.073.007-.15.011-.229.011a1.911,1.911,0,0,1-.678-.111.873.873,0,0,1-.117-.056c-.1-.061-.164-.133-.164-.212V238.76c.342.114.66.234.959.358C563.919,239.262,564.238,239.412,564.531,239.567Z" transform="translate(-528.473 -220.619)" fill="#6c63ff"/>
    <rect id="Rectangle_3479" data-name="Rectangle 3479" width="0.274" height="33.834" transform="translate(39.851 22.672)" fill="#e6e6e6"/>
    <path id="Path_3471" data-name="Path 3471" d="M749.694,423.888a2.9,2.9,0,0,1-2.193.889c-1.267-.045-2.78-.067-4.421-.033l-.009-.008,7.114-9.222.307,6.148a2.9,2.9,0,0,1-.8,2.225Z" transform="translate(-684.886 -373.853)" fill="#f2f2f2"/>
    <path id="Path_3472" data-name="Path 3472" d="M336.937,621.21l-.379,3.08-.29,2.341-.116.945H334.5V621.21Z" transform="translate(-290.008 -538.519)" fill="#ffb6b6"/>
    <path id="Path_3473" data-name="Path 3473" d="M241.979,615.721l-.468,1.444-.375,1.158-.065.2-.257.792-.543,1.674-.27.834-1.5-.29-.12-.022.1-.5.059-.307.656-3.4.107-.548.017-.088.049-.254.221-1.147,1.6.308.184.036Z" transform="translate(-206.668 -533.353)" fill="#ffb6b6"/>
    <path id="Path_3474" data-name="Path 3474" d="M565.134,524.965c-.943,5.184-1.179,7.422-1.179,7.422s.707.825.236,1.3,0,1.414,0,1.414l-1.061,11.428-.854-.138-2.056-.331-.742-.12.472-10.721s-.472-.943-.236-1.179-.236-1.649-.236-1.649l-.589-11.192-3.653,12.253s.354.472,0,.825a11.612,11.612,0,0,0-1.059,2.121l-2.172,7.6-.184.646-1.133-.212-1.233-.232-.227-.042-.4-.076-.26-.049-.088-.016-.427-.08.129-.573.067-.3,1.838-8.162.042-.188.045-.2a.956.956,0,0,1,.117-.943.921.921,0,0,0,.236-.825.327.327,0,0,1-.032-.039.49.49,0,0,1-.084-.192.638.638,0,0,1,.234-.593,1,1,0,0,0,.167-.24,8.294,8.294,0,0,0,.539-2.116s.319-11.383,1.362-13.122a.562.562,0,0,1,.17-.191c1.178-.706,12.487,0,12.487,0s.016.082.041.237A26.557,26.557,0,0,1,565.134,524.965Z" transform="translate(-515.768 -460.616)" fill="#2f2e41"/>
    <path id="Path_2938" data-name="Path 2938" d="M674.917,412.634l.33-1.989,6.081,1.023,8.628.617a1.3,1.3,0,1,1-.221,1.4l-5.292.356Z" transform="translate(-625.582 -369.657)" fill="#ffb6b6"/>
    <path id="Path_2946" data-name="Path 2946" d="M640.41,402.295l.429-1.776a12.454,12.454,0,0,1,4.175-.019l6.935,1.331-.561,4.192Z" transform="translate(-595.862 -360.699)" fill="#6c63ff"/>
    <path id="Path_2948" data-name="Path 2948" d="M511.465,431.439l3.88-8.429,2.832-5.964,2.456,1.445-7.645,13.875a1.3,1.3,0,1,1-1.59-.911l.068-.016Z" transform="translate(-483.208 -375.136)" fill="#ffb6b6"/>
    <path id="Path_2949" data-name="Path 2949" d="M538.224,391.927l-1.883-.864s-.334-.116-1.054.881-6.915,10.406-6.915,10.406l3.934,1.778Z" transform="translate(-498.752 -352.633)" fill="#6c63ff"/>
    <path id="Path_3475" data-name="Path 3475" d="M639.8,767.515l-2.452-1.694v-1.105l-.349.021-1.765.105-.465.028-.321,3.849,0,.054H635.6l.01-.054.2-1.039.5,1.039.026.054h3.072a.7.7,0,0,0,.269-.054.69.69,0,0,0,.122-1.2Z" transform="translate(-590.726 -676.624)" fill="#2f2e41"/>
    <path id="Path_3476" data-name="Path 3476" d="M539.573,762.363,538.5,761.2l-.746-.814-.122-.134-.018-.02-.059-.065.246-1.078-.5-.082-1.734-.288-.094-.015-.184-.032-.042-.007-.592,1.864-.536,1.685-.058.184.713.162.416.095.206-.472.022-.05.134-.31h0l.083-.187.273,1.183.047.01h.007l.167.038.327.075,2.284.522.162.037a.69.69,0,0,0,.661-1.14Z" transform="translate(-503.711 -671.371)" fill="#2f2e41"/>
    <path id="Path_3477" data-name="Path 3477" d="M608.619,318.98a3.828,3.828,0,0,1-2.591,1.918c-.061.013-.121.024-.183.033a3.837,3.837,0,1,1,2.774-1.951Z" transform="translate(-562.083 -285.252)" fill="#ffb6b6"/>
    <path id="Path_3478" data-name="Path 3478" d="M558.607,292.863a3.87,3.87,0,0,0-3.269-.75,1.194,1.194,0,0,0-.478-.424,3.925,3.925,0,0,0-7.51,2.153c.217,1.179.959,2.2,1.258,3.361a4.8,4.8,0,0,1-3.036,5.547,4.683,4.683,0,0,0,5.134-2.849,9.891,9.891,0,0,0,.432-3.058,10.135,10.135,0,0,1,.261-2.118,4.523,4.523,0,0,1,.337-.9,3.085,3.085,0,0,1,1.477-1.433,1.178,1.178,0,0,0,.172,1.06,3.135,3.135,0,0,0-.756,1.674c-1.017,1.859.437,3.455,2.3,4.472a3.809,3.809,0,0,0,2.433.424l.078-.332.105.3.352,1q.609.294,1.207.646c-.151-.711-.274-1.421-.358-2.116a8.518,8.518,0,0,1,.584-3.207,5.048,5.048,0,0,0,.276-1.639v-.024l.286.918,1.041-.444C560.735,294.015,560.929,292.754,558.607,292.863Z" transform="translate(-513.633 -264.356)" fill="#2f2e41"/>
    <path id="Path_3479" data-name="Path 3479" d="M580.841,395.872a3.365,3.365,0,0,0,0-1.649,1.06,1.06,0,0,1,.236-1.178l.118-12.724c.5-.5,1.831-.506,2.577-.467v-.56a.778.778,0,0,1,.778-.778H588a.778.778,0,0,1,.778.778v.672l1.012.016a5.909,5.909,0,0,1,3.3,1.871l-1.532,5.891s.471,4.83,1.06,5.419.353.943.353.943-.353,1.3.353,1.767a.979.979,0,0,1,.236,1.3s-12.724.236-13.077-.118S580.841,395.872,580.841,395.872Z" transform="translate(-543.823 -341.729)" fill="#6c63ff"/>
    <path id="Path_3480" data-name="Path 3480" d="M516.349,795.262a.156.156,0,0,1-.157.157H479.267a.157.157,0,1,1,0-.313h36.925a.156.156,0,0,1,.157.157Z" transform="translate(-455.884 -703.01)" fill="#ccc"/>
  </g>
</svg>
