<svg id="my-llibrary" xmlns="http://www.w3.org/2000/svg" width="84" height="76.413" viewBox="0 0 100 92.413">
  <path id="Path_3500" data-name="Path 3500" d="M822.054,564.2l-7.967-11.834s12.066,4.212,10.7,11.834Z" transform="translate(-730.784 -490.216)" fill="#e5e5e5"/>
  <path id="Path_3501" data-name="Path 3501" d="M318.965,497.173l-.3-.006a70.143,70.143,0,0,1,1.074-10.024c1.308-7.09,3.483-11.746,6.464-13.839l.174.248C319.409,478.441,318.968,496.986,318.965,497.173Z" transform="translate(-312.135 -423.177)" fill="#e5e5e5"/>
  <path id="Path_3502" data-name="Path 3502" d="M343.965,572.2l-.3-.006c.006-.335.2-8.229,3.3-10.411l.174.247C344.157,564.124,343.966,572.118,343.965,572.2Z" transform="translate(-333.354 -498.199)" fill="#e5e5e5"/>
  <circle id="Ellipse_294" data-name="Ellipse 294" cx="1.512" cy="1.512" r="1.512" transform="translate(14.447 47.026)" fill="#6c63ff"/>
  <circle id="Ellipse_295" data-name="Ellipse 295" cx="1.512" cy="1.512" r="1.512" transform="translate(13.698 60.285)" fill="#6c63ff"/>
  <path id="Path_3503" data-name="Path 3503" d="M329.735,463.522a6.718,6.718,0,0,1-.457,3.439,6.121,6.121,0,0,1-1.029-6.574A6.717,6.717,0,0,1,329.735,463.522Z" transform="translate(-319.83 -412.511)" fill="#e5e5e5"/>
  <path id="Path_3504" data-name="Path 3504" d="M354.235,498.092a6.717,6.717,0,0,1-3.466.15,6.122,6.122,0,0,1,6.294-2.159A6.717,6.717,0,0,1,354.235,498.092Z" transform="translate(-339.387 -442.612)" fill="#e5e5e5"/>
  <path id="Path_3505" data-name="Path 3505" d="M360.423,577.812a4.71,4.71,0,0,1-2.429.1A4.291,4.291,0,0,1,362.4,576.4,4.709,4.709,0,0,1,360.423,577.812Z" transform="translate(-345.518 -510.589)" fill="#e5e5e5"/>
  <path id="Path_3506" data-name="Path 3506" d="M375.346,630.925H275.654a.151.151,0,1,1,0-.3h99.692a.151.151,0,1,1,0,.3Z" transform="translate(-275.5 -556.245)" fill="#cbcbcb"/>
  <path id="Path_3507" data-name="Path 3507" d="M329.833,501.817l-1.237,3.22-13.009-3.24,1.826-4.753Z" transform="translate(-266.807 -420.165)" fill="#ffb7b7"/>
  <path id="Path_3508" data-name="Path 3508" d="M669.3,672.223l-3.989,10.383-.131-.05a4.33,4.33,0,0,1-2.489-5.594h0l2.437-6.342Z" transform="translate(-602.704 -590.193)" fill="#2f2e41"/>
  <path id="Path_3509" data-name="Path 3509" d="M521.177,412.112l-5.669.531-.281,16.868a3.175,3.175,0,0,0,3.38,2.88l3.594-.248Z" transform="translate(-478.237 -371.528)" fill="#e5e5e5"/>
  <path id="Path_3510" data-name="Path 3510" d="M663.676,406.342l-3.879-.05-.23,20.043h0a6.243,6.243,0,0,0,6.446-6.481Z" transform="translate(-600.312 -366.613)" fill="#e5e5e5"/>
  <path id="Path_3511" data-name="Path 3511" d="M530.8,570.326a12.334,12.334,0,0,1-.4,1.718c-.2.55-.5,1.059-.677,1.615a5.4,5.4,0,0,0,1.483,5.117,8.35,8.35,0,0,0,4.071,2.417,16.606,16.606,0,0,0,3.5.368c3.252.11,6.587.209,9.668-.836a16.806,16.806,0,0,0,2.809-1.276,2.1,2.1,0,0,0,.729-.574,2,2,0,0,0,.263-1.177c-.007-1.379-.286-2.75-.22-4.127a16.37,16.37,0,0,0,.109-2.285,4.215,4.215,0,0,0-3.222-3.631,8.745,8.745,0,0,0-2.671,0,68.074,68.074,0,0,1-6.95.311c-2.371-.015-4.727-.377-7.087-.415-.7-.011-.684.2-.906.879A16.434,16.434,0,0,0,530.8,570.326Z" transform="translate(-490.178 -502.709)" fill="#2f2e41"/>
  <path id="Path_3512" data-name="Path 3512" d="M439.81,577.316a7.021,7.021,0,0,0-1.952-.208,4.871,4.871,0,0,0-4.522,5.742,8.18,8.18,0,0,0,.773,2.113,7.062,7.062,0,0,0,2.1,2.771,8.168,8.168,0,0,0,1.85.881l5.046,1.9c.742.28,1.485.559,2.235.819a43.7,43.7,0,0,0,11.671,2.32,12.642,12.642,0,0,0,3.624-.184,1.18,1.18,0,0,0,.742-.4,1.27,1.27,0,0,0,.166-.548l.311-2.174a1.82,1.82,0,0,0-.026-.916,1.755,1.755,0,0,0-.839-.791c-3.318-1.905-7.191-2.957-9.984-5.572-.657-.616-1.208-1.592-2.006-2.01-.906-.474-1.972-.745-2.909-1.182A32.192,32.192,0,0,0,439.81,577.316Z" transform="translate(-408.763 -510.819)" fill="#2f2e41"/>
  <path id="Path_3513" data-name="Path 3513" d="M497.223,595.078c1.784.559,9.314,4.431,10.6,5.783-.173.063-6.043-3.227-6.219-3.28a35.437,35.437,0,0,1-4.732-1.667c-.306-.141-1.987-.806-1.911-1.192C495.052,594.286,496.907,594.979,497.223,595.078Z" transform="translate(-461.054 -526.001)" opacity="0.1" style="isolation: isolate"/>
  <path id="Path_3514" data-name="Path 3514" d="M526.629,373.349l-4.8,3.646s-5.067.159-4.9,3.4,2.2,18.576,2.2,18.576l.44,5.277,8.347,2.378a27.309,27.309,0,0,0,13.835.3h0l-.992-5.294s4.016-24.044,1.6-25.1a7.211,7.211,0,0,0-3.932-.756l-3.033-2.647Z" transform="translate(-479.475 -338.369)" fill="#e5e5e5"/>
  <path id="Path_3515" data-name="Path 3515" d="M565.347,262.015c0,4.734-4.377,4.018-9.776,4.018s-9.776.716-9.776-4.018,2.138-13.124,9.776-13.124C563.473,248.891,565.347,257.282,565.347,262.015Z" transform="translate(-503.955 -233.606)" fill="#2f2e41"/>
  <circle id="Ellipse_296" data-name="Ellipse 296" cx="6.578" cy="6.578" r="6.578" transform="translate(42.753 25.387) rotate(-45)" fill="#ffb7b7"/>
  <path id="Path_3516" data-name="Path 3516" d="M559.964,275.337h2.6l1.148-3.214.229,3.214h1.244l.669-1.875.134,1.875h9.24a6.964,6.964,0,0,0-6.964-6.964h-1.339A6.964,6.964,0,0,0,559.964,275.337Z" transform="translate(-515.983 -250.125)" fill="#2f2e41"/>
  <rect id="Rectangle_3481" data-name="Rectangle 3481" width="13.157" height="15.879" transform="translate(45.058 35.501)" fill="#6c63ff"/>
  <path id="Path_3517" data-name="Path 3517" d="M296.381,500.817l1.237,3.22,13.009-3.24-1.826-4.753Z" transform="translate(-250.57 -419.317)" fill="#ffb7b7"/>
  <path id="Path_3518" data-name="Path 3518" d="M553.327,669.62l2.437,6.342h0a4.329,4.329,0,0,1-2.489,5.594l-.131.05-3.989-10.383Z" transform="translate(-506.93 -589.344)" fill="#2f2e41"/>
  <path id="Path_3519" data-name="Path 3519" d="M621.477,568.822a9.086,9.086,0,0,1,3.2-.219,3.373,3.373,0,0,1,3.386,3.807,9,9,0,0,1-1.957,5.751,5.218,5.218,0,0,1-1.119,1.077,7.363,7.363,0,0,1-1.456.7l-11.3,4.457a72.989,72.989,0,0,1-9.057,3.122.706.706,0,0,1-.943-.329l-.007-.016a23.413,23.413,0,0,1-2.477-4.531.305.305,0,0,1,.135-.481l7.993-4.593a8.086,8.086,0,0,0,1.627-1.121,4.041,4.041,0,0,0,.835-1.163c.166-.346.181-1.163.393-1.418s.916-.271,1.243-.369a11.292,11.292,0,0,0,1.354-.512c1.788-.8,3.38-1.962,5.094-2.9A13.067,13.067,0,0,1,621.477,568.822Z" transform="translate(-549.349 -503.558)" fill="#2f2e41"/>
  <path id="Path_3520" data-name="Path 3520" d="M641.861,588.12c-1.373,1.031-3.151,1.98-4.512,3.038-.465.361-8.208,4.715-8.318,5.293,1.27.214,9.358-5.445,10.516-6.009a18.7,18.7,0,0,0,3.2-2.151c.259-.2,1.357-.807.613-1.032C642.941,587.132,642.171,587.914,641.861,588.12Z" transform="translate(-574.382 -519.75)" opacity="0.1" style="isolation: isolate"/>
  <circle id="Ellipse_297" data-name="Ellipse 297" cx="4.725" cy="4.725" r="4.725" transform="translate(88.104 18.101)" fill="#f1f1f1" style="isolation: isolate"/>
  <circle id="Ellipse_298" data-name="Ellipse 298" cx="3.315" cy="3.315" r="3.315" transform="translate(80.769 21.83)" fill="#f1f1f1" style="isolation: isolate"/>
  <circle id="Ellipse_299" data-name="Ellipse 299" cx="2.658" cy="2.658" r="2.658" transform="translate(19.225 20.958)" fill="#f1f1f1" style="isolation: isolate"/>
  <circle id="Ellipse_300" data-name="Ellipse 300" cx="1.865" cy="1.865" r="1.865" transform="translate(24.49 24.391)" fill="#f1f1f1" style="isolation: isolate"/>
  <circle id="Ellipse_301" data-name="Ellipse 301" cx="2.032" cy="2.032" r="2.032" transform="translate(50.613 0)" fill="#f1f1f1" style="isolation: isolate"/>
  <path id="Path_3521" data-name="Path 3521" d="M537.087,438.754l.182-1.4s6.775.495,5.716,2.158-3.629,1.815-3.629,1.815Z" transform="translate(-496.732 -393.057)" fill="#2f2e41" opacity="0.17"/>
  <path id="Path_3522" data-name="Path 3522" d="M528.99,406.225a2.645,2.645,0,0,1,1.924,1.182h0a2.643,2.643,0,0,1-.859,3.715,2.537,2.537,0,0,1-.35.172l-4.164,12.737a2.116,2.116,0,0,1-3.8-1.852l4.429-12.6a2.64,2.64,0,0,1,2.825-3.358Z" transform="translate(-483.536 -366.556)" fill="#ffb7b7"/>
  <path id="Path_3523" data-name="Path 3523" d="M519.325,438.142s2.386,4.077,5.836,2.039l-3.343,12.793H519l-2.914-.544.816-5.286Z" transform="translate(-478.946 -393.602)" fill="#e5e5e5"/>
  <path id="Path_3524" data-name="Path 3524" d="M639.063,430.045l-1.977-2.714s.95-2.815,4.634-1.785C641.72,425.545,644.064,430.792,639.063,430.045Z" transform="translate(-581.315 -382.872)" fill="#e5e5e5"/>
  <path id="Path_3525" data-name="Path 3525" d="M639.063,430.045l-1.977-2.714s.95-2.815,4.634-1.785C641.72,425.545,644.064,430.792,639.063,430.045Z" transform="translate(-581.315 -382.872)" fill="#2f2e41" opacity="0.17"/>
  <path id="Path_3526" data-name="Path 3526" d="M632.471,392.457a2.625,2.625,0,0,1,1.412,3.122l4.428,12.6a2.116,2.116,0,1,1-3.8,1.852l-4.164-12.737a2.55,2.55,0,0,1-.35-.172,2.643,2.643,0,0,1-.859-3.715h0a2.645,2.645,0,0,1,1.924-1.182A2.613,2.613,0,0,1,632.471,392.457Z" transform="translate(-574.168 -354.721)" fill="#ffb7b7"/>
  <path id="Path_3527" data-name="Path 3527" d="M637.087,428.6a3.024,3.024,0,0,0,4.634-1.785l4.6,12.1L644.95,441.3l-.2.016a5.051,5.051,0,0,1-4.323-1.828h0a10.032,10.032,0,0,1-2.1-4.457Z" transform="translate(-581.265 -384.031)" fill="#e5e5e5"/>
</svg>
