<svg xmlns="http://www.w3.org/2000/svg" width="110" height="61.682" viewBox="0 0 110 61.682">
  <g id="my-projects" transform="translate(0 0)">
    <path id="Path_133" data-name="Path 133" d="M194.243,497.214a18.475,18.475,0,0,0,3.351,3.95c.03.027.06.053.09.079l2.769-1.645-.067-.093c-1.446-2.013-7.975-15.4-8.015-18.368C192.366,481.382,190.022,490.6,194.243,497.214Z" transform="translate(-185.063 -446.258)" fill="#e6e6e6"/>
    <path id="Path_134" data-name="Path 134" d="M179.666,593.926l.13.056,2.077-1.234-.114-.066c-.711-.415-2.827-1.664-4.91-3.023-2.238-1.461-4.441-3.05-4.823-3.871C172.107,585.977,174.571,591.721,179.666,593.926Z" transform="translate(-167.669 -538.703)" fill="#e6e6e6"/>
    <path id="Path_133-2" data-name="Path 133" d="M939.853,553.336a18.475,18.475,0,0,1-.863,5.107c-.012.038-.025.076-.037.115h-3.221c0-.034.007-.073.01-.115.215-2.469-1.012-17.316-2.492-19.885C933.379,538.766,940.1,545.491,939.853,553.336Z" transform="translate(-838.656 -496.982)" fill="#e6e6e6"/>
    <path id="Path_134-2" data-name="Path 134" d="M968.857,626.5c-.027.038-.055.077-.084.115h-2.416l.064-.115c.4-.72,1.581-2.874,2.677-5.107,1.178-2.4,2.26-4.89,2.169-5.791C971.3,615.807,972.111,622,968.857,626.5Z" transform="translate(-867.902 -565.041)" fill="#e6e6e6"/>
    <path id="Path_3482" data-name="Path 3482" d="M275.431,250.548H238.184a3.356,3.356,0,0,1-3.33-3.374V192.436a3.356,3.356,0,0,1,3.33-3.374h37.246a3.356,3.356,0,0,1,3.33,3.374v54.738a3.356,3.356,0,0,1-3.33,3.374Z" transform="translate(-223.168 -189.062)" fill="#cacaca"/>
    <path id="Path_3483" data-name="Path 3483" d="M292.444,264.513H255.066a1.035,1.035,0,0,1-1.026-1.041V208.317a1.035,1.035,0,0,1,1.026-1.041h37.378a1.035,1.035,0,0,1,1.026,1.041v55.155a1.035,1.035,0,0,1-1.026,1.041Z" transform="translate(-240.116 -205.152)" fill="#fff"/>
    <circle id="Ellipse_290" data-name="Ellipse 290" cx="0.283" cy="0.283" r="0.283" transform="translate(33.659 0.736)" fill="#fff"/>
    <path id="Path_3484" data-name="Path 3484" d="M244.522,708.834H134.8a.139.139,0,1,1,0-.278H244.522a.139.139,0,1,1,0,.278Z" transform="translate(-134.662 -647.152)" fill="#cacaca"/>
    <circle id="Ellipse_291" data-name="Ellipse 291" cx="3.616" cy="3.616" r="3.616" transform="translate(30.452 38.404)" fill="#e4e4e4"/>
    <path id="Path_3485" data-name="Path 3485" d="M387.291,341.8h-4.528l-2.733-13.371a5.022,5.022,0,1,1,10-.006Z" transform="translate(-350.968 -306.996)" fill="#e4e4e4"/>
    <path id="Path_3486" data-name="Path 3486" d="M559.041,330.828h16.548a3.518,3.518,0,0,1,3.432,2.744l8.361,37.088a2.843,2.843,0,0,1-2.634,3.465l-17.012.838a3.756,3.756,0,0,1-3.881-3.083l-4.743-26.221-.9-4.96-1.324-7.319a2.166,2.166,0,0,1,2.149-2.551Z" transform="translate(-506.699 -313.481)" fill="#3f3d56"/>
    <path id="Path_3487" data-name="Path 3487" d="M585.779,337.683h1.932a2.431,2.431,0,0,1,2.375,1.913l8.026,36.785a1.506,1.506,0,0,1-1.373,1.824l-16.957,1.111a1.951,1.951,0,0,1-2.048-1.6l-6.849-38.021a1.709,1.709,0,0,1,1.682-2.012H574.4a.806.806,0,0,1,.779.6h0a.712.712,0,0,0,.687.527h8.7a1.217,1.217,0,0,0,1.213-1.124Z" transform="translate(-519.076 -319.537)" fill="#fff"/>
    <path id="Path_3488" data-name="Path 3488" d="M757.891,418.6a1.219,1.219,0,0,1,.154.117l5.605-1.429.382-1.352,2.116.31-.444,2.46a.933.933,0,0,1-.82.762l-6.545.689a1.224,1.224,0,1,1-.448-1.558Z" transform="translate(-682.47 -389.093)" fill="#ffb6b6"/>
    <circle id="Ellipse_292" data-name="Ellipse 292" cx="3.616" cy="3.616" r="3.616" transform="translate(67.693 27.374)" fill="#6c63ff"/>
    <path id="Path_3489" data-name="Path 3489" d="M702.082,248.653h-4.528l-2.733-13.371a5.022,5.022,0,1,1,10-.006Z" transform="translate(-628.503 -225.011)" fill="#6c63ff"/>
    <path id="Path_3490" data-name="Path 3490" d="M677.267,194.656l-1.444,1.246-2.02,1.741-.892-4.565-.093-.475-.073-.377,2.047-3.566,1.706.1.117.007,0,.026.027.239.35,3.147.008.076Z" transform="translate(-593.184 -166.312)" fill="#3f3d56"/>
    <path id="Path_3491" data-name="Path 3491" d="M614.623,465.963h-1.43l-.68-5.516h2.111Z" transform="translate(-540.099 -405.93)" fill="#ffb6b6"/>
    <path id="Path_3492" data-name="Path 3492" d="M733.475,694.647h-4.611v-.058a1.8,1.8,0,0,1,1.795-1.795h2.816Z" transform="translate(-658.592 -633.228)" fill="#2f2e41"/>
    <path id="Path_3493" data-name="Path 3493" d="M742.623,466.963h-1.43l-.68-5.516h2.111Z" transform="translate(-652.966 -406.813)" fill="#ffb6b6"/>
    <path id="Path_3494" data-name="Path 3494" d="M861.475,695.647h-4.611v-.058a1.8,1.8,0,0,1,1.795-1.795h2.816Z" transform="translate(-771.454 -634.111)" fill="#2f2e41"/>
    <path id="Path_3495" data-name="Path 3495" d="M753.779,409.757l-3.849.583-5.6-18.952-5.948,19.068-4.316-.583,5.6-22.162v-1.75l.758-2.624-.079-.71-.552-4.968-.239-2.154-.016-.139a.473.473,0,0,1,.372-.515h0l1.8-.378h2.936l1.732.477.119.033.054.015-.027.224-.406,3.4-.022.187-.392,3.281-.086.72c3.383,2.449,3.5,4.9,3.5,4.9Z" transform="translate(-663.014 -352.036)" fill="#2f2e41"/>
    <circle id="Ellipse_293" data-name="Ellipse 293" cx="2.865" cy="2.865" r="2.865" transform="translate(76.869 14.633)" fill="#ffb6b6"/>
    <rect id="Rectangle_3480" data-name="Rectangle 3480" width="5.715" height="0.816" transform="translate(77.079 30.45) rotate(-7.451)" fill="#3f3d56"/>
    <path id="Path_3496" data-name="Path 3496" d="M706.891,428.6a1.23,1.23,0,0,1,.154.117l5.605-1.429.382-1.352,2.116.31-.444,2.46a.933.933,0,0,1-.821.762l-6.545.689a1.224,1.224,0,1,1-.448-1.558Z" transform="translate(-637.506 -397.909)" fill="#ffb6b6"/>
    <path id="Path_3497" data-name="Path 3497" d="M771.657,378.074l-.991-.758c-.268-.1-.635.187-.7.467l-1.4,5.715,2.916,2.1.408-.642Z" transform="translate(-693.612 -355.001)" fill="#3f3d56"/>
    <g id="Group_2486" data-name="Group 2486" transform="translate(77.399 21.937)" opacity="0.2">
      <path id="Path_3498" data-name="Path 3498" d="M795.369,378.369a7.882,7.882,0,0,1-.756.257c-.082.025-.166.048-.248.07a7.7,7.7,0,0,1-1.673.271,5.268,5.268,0,0,1-.73-.02,4.113,4.113,0,0,1-.769-.152l-.026-.007a3.372,3.372,0,0,1-1.394-.792,2.746,2.746,0,0,1-.246-.274,2.477,2.477,0,0,1-.532-1.928,1.658,1.658,0,0,1,.04-.183,2.933,2.933,0,0,1,.174-.478c.031-.072.067-.143.1-.213l1.318-.446h2.51l1.732.477.117.007,0,.026.054.015-.027.224Z" transform="translate(-788.969 -374.473)"/>
    </g>
    <path id="Path_3499" data-name="Path 3499" d="M775.64,306.281a2.032,2.032,0,0,0-1.541.323.991.991,0,0,0-.157,1.421c.35.325.9.249,1.366.341a1.849,1.849,0,0,1,1.444,1.768c-.007,1.187-1.146,2.085-1.35,3.254a2.538,2.538,0,0,0,.779,2.2,3.673,3.673,0,0,0,2.187.951,6.76,6.76,0,0,0,2.4-.251,6.684,6.684,0,0,0,2.22-.978,3.608,3.608,0,0,0,1.412-1.931,2.488,2.488,0,0,0-.486-2.288c-.625-.69-1.665-.928-2.206-1.686-.606-.85-.382-2.061-.872-2.982a2.788,2.788,0,0,0-1.609-1.256,7.176,7.176,0,0,0-2.064-.286,2.734,2.734,0,0,0-1.085.118.98.98,0,0,0-.659.8A.478.478,0,0,0,775.64,306.281Z" transform="translate(-698.065 -291.144)" fill="#2f2e41"/>
  </g>
</svg>
