<svg id="notes-saved-lessions" xmlns="http://www.w3.org/2000/svg" width="230.042" height="120" viewBox="0 0 230.042 120">
  <path id="Path_3624" data-name="Path 3624" d="M431.275,231.79a9.432,9.432,0,0,1,5.574-6.241c2.731-.936,6.73.49,8.783,2.536,3.756,3.743,4.672,16.6,2.092,20.664-.513-.027-2.284-.047-2.8-.067l-.735-2.449v2.425c-4.054-.125-8.275-.047-12.5.034C431.308,245.815,430.407,234.557,431.275,231.79Z" transform="translate(-361.031 -225.256)" fill="#2f2e41"/>
  <path id="Path_3625" data-name="Path 3625" d="M557.3,382.109a2.517,2.517,0,0,1-2.064-3.262l-7.156-5.368,4.376-1.569,6.125,5.338a2.531,2.531,0,0,1-1.281,4.861Z" transform="translate(-446.922 -332.758)" fill="#9e616a"/>
  <path id="Path_3626" data-name="Path 3626" d="M476.136,297.886l.685-2.422s1.707-.557,4.621,1.556,20.9,20.974,20.9,20.974l-5.354.749-16.364-11.69Z" transform="translate(-394.183 -276.671)" fill="#e6e6e6"/>
  <path id="Path_3627" data-name="Path 3627" d="M795.938,571.363c10.952-5.593,19.672-16.806,19.431-29.1A56.659,56.659,0,0,1,778.8,555.54c-5.157-.03-10.891-.6-14.9,2.646a12.666,12.666,0,0,0-4.188,8.4,37.615,37.615,0,0,0,.481,9.587l-.269.755C772.2,577.774,784.986,576.956,795.938,571.363Z" transform="translate(-601.947 -457.631)" fill="#f0f0f0"/>
  <path id="Path_3628" data-name="Path 3628" d="M816.928,541.732a48.428,48.428,0,0,1-21.508,20.621,20.854,20.854,0,0,1-6.219,2.006,11.961,11.961,0,0,1-6.23-.9,24.76,24.76,0,0,0-5.634-2.042,7.324,7.324,0,0,0-5.742,1.7,19.03,19.03,0,0,0-4.472,6.11c-1.317,2.487-2.646,5.09-4.973,6.789-.282.206.054.631.335.426,4.048-2.955,5.023-8.281,8.338-11.856a7.417,7.417,0,0,1,5.946-2.693c2.046.164,3.9,1.181,5.759,1.964a12.764,12.764,0,0,0,6.059,1.109,19.281,19.281,0,0,0,6.273-1.76,46.981,46.981,0,0,0,12.249-8.1,49.287,49.287,0,0,0,10.324-13.179C817.6,541.624,817.092,541.428,816.928,541.732Z" transform="translate(-603.762 -457.131)" fill="#fff"/>
  <path id="Path_3629" data-name="Path 3629" d="M898.292,613.454a7.266,7.266,0,0,0,9.042,2.6c.317-.145.107-.644-.21-.5a6.728,6.728,0,0,1-8.406-2.436C898.526,612.827,898.1,613.164,898.292,613.454Z" transform="translate(-703.601 -509.489)" fill="#fff"/>
  <path id="Path_3630" data-name="Path 3630" d="M842.25,600.405a14,14,0,0,1,5.446-8.631c.281-.207-.055-.632-.335-.426a14.567,14.567,0,0,0-5.649,8.993C841.647,600.685,842.185,600.747,842.25,600.405Z" transform="translate(-662.157 -493.572)" fill="#fff"/>
  <path id="Path_3631" data-name="Path 3631" d="M939.152,565.974a4.113,4.113,0,0,1-1.145-3.731c.069-.342-.469-.4-.538-.064a4.609,4.609,0,0,0,1.257,4.13.28.28,0,0,0,.381.045A.272.272,0,0,0,939.152,565.974Z" transform="translate(-732.292 -472.065)" fill="#fff"/>
  <path id="Path_3632" data-name="Path 3632" d="M762.5,445.236c-.049.213-.1.425-.152.639a54.157,54.157,0,0,1-2.718,8.355c-.084.211-.172.423-.262.631a57.1,57.1,0,0,1-11.722,17.451,55.451,55.451,0,0,1-6.35,5.538c-3.113,2.323-6.673,4.594-8.775,7.718a9.52,9.52,0,0,0-.607,1.009l6.845,18.845c.037.035.07.072.107.107l.239.765c.122-.079.247-.163.37-.241.071-.045.141-.095.212-.14.047-.032.094-.063.138-.089l.043-.03c.044-.026.082-.054.122-.079q1.051-.7,2.1-1.423s0,0,.007-.007a81.532,81.532,0,0,0,14.589-12.6c.128-.144.26-.289.385-.441a52.918,52.918,0,0,0,5.154-6.928,46.776,46.776,0,0,0,2.286-4.145,38.9,38.9,0,0,0,3.53-11.639c1.114-8.055-.361-16.377-5.165-22.808C762.75,445.56,762.628,445.4,762.5,445.236Z" transform="translate(-581.677 -386.508)" fill="#f0f0f0"/>
  <path id="Path_3633" data-name="Path 3633" d="M780.676,444.784a48.429,48.429,0,0,1-4.758,29.414,20.856,20.856,0,0,1-3.757,5.346,11.962,11.962,0,0,1-5.518,3.031,24.756,24.756,0,0,0-5.728,1.762,7.324,7.324,0,0,0-3.558,4.818,19.029,19.029,0,0,0,.108,7.571c.445,2.779.952,5.657.117,8.415-.1.334.423.472.524.138,1.453-4.8-.975-9.636-.481-14.487a7.417,7.417,0,0,1,3.126-5.73c1.733-1.1,3.825-1.405,5.781-1.9a12.763,12.763,0,0,0,5.505-2.762,19.28,19.28,0,0,0,3.949-5.182,46.986,46.986,0,0,0,4.9-13.842,49.287,49.287,0,0,0,.308-16.738C781.145,444.295,780.623,444.442,780.676,444.784Z" transform="translate(-600.076 -385.926)" fill="#fff"/>
  <path id="Path_3634" data-name="Path 3634" d="M833.544,534.932a7.266,7.266,0,0,0,8.785-3.368c.166-.307-.3-.579-.469-.272a6.728,6.728,0,0,1-8.178,3.116c-.328-.117-.465.408-.138.524Z" transform="translate(-656.037 -449.491)" fill="#fff"/>
  <path id="Path_3635" data-name="Path 3635" d="M791.451,557.965a14,14,0,0,1-.849-10.171c.1-.334-.424-.472-.524-.138a14.567,14.567,0,0,0,.9,10.582C791.138,558.551,791.6,558.277,791.451,557.965Z" transform="translate(-623.873 -461.444)" fill="#fff"/>
  <path id="Path_3636" data-name="Path 3636" d="M837.73,481.109a4.113,4.113,0,0,1-3.16-2.29c-.151-.315-.618-.04-.468.273a4.609,4.609,0,0,0,3.49,2.541.28.28,0,0,0,.331-.193A.272.272,0,0,0,837.73,481.109Z" transform="translate(-656.562 -411.023)" fill="#fff"/>
  <path id="Path_3637" data-name="Path 3637" d="M308.087,293.568c-9.382-7.95-23.09-11.674-34.342-6.713a56.659,56.659,0,0,1,26.345,28.621c1.961,4.77,3.645,10.28,8.185,12.728a12.666,12.666,0,0,0,9.369.626,37.616,37.616,0,0,0,8.661-4.139l.8-.042C323.152,313,317.469,301.518,308.087,293.568Z" transform="translate(-245.824 -268.766)" fill="#f0f0f0"/>
  <path id="Path_3638" data-name="Path 3638" d="M273.285,292.449a48.428,48.428,0,0,1,27.317,11.9,20.854,20.854,0,0,1,4.248,4.965,11.961,11.961,0,0,1,1.569,6.1,24.756,24.756,0,0,0,.288,5.985,7.324,7.324,0,0,0,3.786,4.641,19.028,19.028,0,0,0,7.362,1.771c2.8.257,5.717.48,8.181,1.972.3.181.562-.293.264-.474-4.288-2.6-9.578-1.443-14.154-3.124a7.417,7.417,0,0,1-4.777-4.448c-.638-1.951-.414-4.054-.408-6.071a12.763,12.763,0,0,0-1.312-6.018,19.28,19.28,0,0,0-4.042-5.11,46.984,46.984,0,0,0-12.2-8.18,49.287,49.287,0,0,0-16.14-4.446c-.346-.034-.333.508.011.542Z" transform="translate(-245.293 -274.112)" fill="#fff"/>
  <path id="Path_3639" data-name="Path 3639" d="M363.354,303.975a7.266,7.266,0,0,0-1.086-9.346c-.256-.237-.636.149-.38.387a6.728,6.728,0,0,1,.993,8.7C362.685,304,363.16,304.263,363.354,303.975Z" transform="translate(-310.373 -276.054)" fill="#fff"/>
  <path id="Path_3640" data-name="Path 3640" d="M369.885,371.382a14,14,0,0,1-10.064-1.7c-.3-.18-.562.294-.264.474a14.567,14.567,0,0,0,10.476,1.746c.342-.072.191-.593-.149-.521Z" transform="translate(-308.631 -331.097)" fill="#fff"/>
  <path id="Path_3641" data-name="Path 3641" d="M306.513,301.918a4.113,4.113,0,0,1-3,2.494c-.343.068-.192.589.149.521a4.609,4.609,0,0,0,3.327-2.752.28.28,0,0,0-.105-.369.272.272,0,0,0-.369.105Z" transform="translate(-267.502 -281.349)" fill="#fff"/>
  <path id="Path_3642" data-name="Path 3642" d="M231.281,400.859c.215-.036.43-.073.649-.106a54.162,54.162,0,0,1,8.757-.713c.227,0,.457,0,.683,0a57.1,57.1,0,0,1,20.621,4.09,55.449,55.449,0,0,1,7.557,3.724c3.343,1.977,6.811,4.386,10.5,5.122a9.516,9.516,0,0,0,1.165.171l14.75-13.579c.018-.048.039-.092.057-.14l.614-.515c-.12-.083-.246-.166-.365-.248-.069-.048-.142-.093-.211-.141-.047-.031-.095-.062-.135-.093l-.044-.028c-.041-.031-.082-.055-.12-.083q-1.054-.7-2.121-1.386s0,0-.009,0a81.535,81.535,0,0,0-17.249-8.606c-.182-.062-.367-.129-.556-.185a52.913,52.913,0,0,0-8.379-2.085,46.782,46.782,0,0,0-4.705-.512,38.9,38.9,0,0,0-12.1,1.228c-7.862,2.077-14.972,6.646-19.055,13.557C231.483,400.505,231.382,400.679,231.281,400.859Z" transform="translate(-214.697 -342.707)" fill="#f0f0f0"/>
  <path id="Path_3643" data-name="Path 3643" d="M230.813,422.673a48.428,48.428,0,0,1,28.975-6.947,20.855,20.855,0,0,1,6.381,1.406,11.961,11.961,0,0,1,4.923,3.923,24.757,24.757,0,0,0,3.833,4.606,7.324,7.324,0,0,0,5.817,1.426,19.029,19.029,0,0,0,6.945-3.018c2.392-1.482,4.854-3.059,7.72-3.351.347-.035.272-.572-.075-.537-4.986.508-8.516,4.614-13.182,6.028a7.417,7.417,0,0,1-6.492-.676c-1.684-1.174-2.771-2.988-3.981-4.6a12.763,12.763,0,0,0-4.671-4.015,19.279,19.279,0,0,0-6.3-1.647,46.984,46.984,0,0,0-14.662.811,49.287,49.287,0,0,0-15.564,6.167C230.181,422.429,230.518,422.853,230.813,422.673Z" transform="translate(-214.024 -364.364)" fill="#fff"/>
  <path id="Path_3644" data-name="Path 3644" d="M309.749,397.278a7.266,7.266,0,0,0-6.494-6.808c-.347-.035-.418.5-.071.538a6.728,6.728,0,0,1,6.028,6.345C309.23,397.7,309.767,397.624,309.749,397.278Z" transform="translate(-267.237 -346.362)" fill="#fff"/>
  <path id="Path_3645" data-name="Path 3645" d="M355.537,434.032a14,14,0,0,1-9.058,4.7c-.347.037-.272.573.075.537a14.566,14.566,0,0,0,9.415-4.913C356.2,434.1,355.765,433.77,355.537,434.032Z" transform="translate(-298.975 -378.224)" fill="#fff"/>
  <path id="Path_3646" data-name="Path 3646" d="M267.4,424.646a4.113,4.113,0,0,1-.895,3.8c-.233.261.2.586.432.327a4.609,4.609,0,0,0,1-4.2.28.28,0,0,0-.306-.231A.272.272,0,0,0,267.4,424.646Z" transform="translate(-240.467 -371.19)" fill="#fff"/>
  <path id="Path_3647" data-name="Path 3647" d="M575.131,475.9a2.9,2.9,0,0,0-2.576-2.719l-41.93-4.731a2.9,2.9,0,0,0-1.2.114l-9.619,3.012-5.519,1.73-10.185,3.188a2.911,2.911,0,0,0-2.034,2.923l1.719,40.867A2.923,2.923,0,0,0,506.234,523l42.813.093a2.828,2.828,0,0,0,.608.032,2.9,2.9,0,0,0,.867-.177l25.088-.173a2.9,2.9,0,0,0,1.89-2.9Z" transform="translate(-413.192 -403.507)" fill="#fff"/>
  <path id="Path_3648" data-name="Path 3648" d="M513.624,527.479l42.813.093a.366.366,0,0,0,.186-.017l25.085-.172a.359.359,0,0,0,.237-.363l-2.366-43.986a.368.368,0,0,0-.321-.34l-.282-.033-41.65-4.695a.275.275,0,0,0-.057,0,.36.36,0,0,0-.093.015l-23.461,7.347-1.862.581a.367.367,0,0,0-.253.365l1.72,40.865a.365.365,0,0,0,.305.342Z" transform="translate(-420.178 -410.498)" fill="#6c63ff"/>
  <path id="Path_3649" data-name="Path 3649" d="M519.522,485.326l23.461-7.347a.36.36,0,0,1,.092-.015.274.274,0,0,1,.057,0l41.65,4.695-10.031,3.264L571,487.145l-10.682,3.474a.778.778,0,0,1-.1.019l-.066,0Z" transform="translate(-425.987 -410.498)" fill="#2f2e41"/>
  <path id="Path_3650" data-name="Path 3650" d="M506.236,523l42.813.093a2.736,2.736,0,0,0,.609.029,2.937,2.937,0,0,0,.869-.173l25.085-.172a2.9,2.9,0,0,0,1.892-2.9l-2.37-43.985a2.925,2.925,0,0,0-.48-1.444c-.039-.057-.079-.114-.121-.166a2.843,2.843,0,0,0-1.129-.882,2.9,2.9,0,0,0-.845-.227l-.05-.007-41.879-4.726a3.643,3.643,0,0,0-.514-.015,2.882,2.882,0,0,0-.685.132l-9.618,3.008-5.518,1.733-10.187,3.188a2.885,2.885,0,0,0-1.117.652.544.544,0,0,0-.07.065.48.48,0,0,0-.043.05,2.908,2.908,0,0,0-.8,2.151l1.716,40.87A2.927,2.927,0,0,0,506.236,523ZM502.8,479.374a2.156,2.156,0,0,1,.28-1.17,1.892,1.892,0,0,1,.213-.319,2.163,2.163,0,0,1,.833-.628,1.653,1.653,0,0,1,.2-.072l17.152-5.368,8.174-2.565c.055-.019.107-.029.159-.043a2.037,2.037,0,0,1,.383-.052,1.688,1.688,0,0,1,.353.009l41.929,4.732.1.014a2.18,2.18,0,0,1,1.84,2.021l2.367,43.99a2.176,2.176,0,0,1-1.414,2.172l-25.089.173a2.2,2.2,0,0,1-1.11.106l-42.812-.089a2.2,2.2,0,0,1-1.831-2.043Z" transform="translate(-413.194 -403.507)" fill="#3f3d56"/>
  <path id="Path_3651" data-name="Path 3651" d="M673.276,562.995a.364.364,0,0,1-.381-.342l-2.359-39.561a.364.364,0,0,1,.341-.385h0a.364.364,0,0,1,.381.341l2.359,39.561a.364.364,0,0,1-.341.385Z" transform="translate(-536.683 -443.296)" fill="#3f3d56"/>
  <path id="Path_3652" data-name="Path 3652" d="M714.265,547.37l-4.108-.028-3.9-40.585s4.934-2.018,5.15-1.675C711.542,505.287,714.25,547.118,714.265,547.37Z" transform="translate(-562.871 -430.348)" fill="#3f3d56"/>
  <path id="Path_3653" data-name="Path 3653" d="M649.548,450.89l-.3-.243a2.032,2.032,0,0,0-1.07-.451l-41.928-4.732a2.113,2.113,0,0,0-.692.038l-.157.039-.032-.627,6.953-7.692a4,4,0,0,1,3.306-1.3l28.345,2.508a3.965,3.965,0,0,1,3.541,3.121Z" transform="translate(-488.917 -379.672)" fill="#3f3d56"/>
  <path id="Path_3654" data-name="Path 3654" d="M532.059,607.937a.617.617,0,0,1,.135-.007l12.9.782a.61.61,0,1,1-.074,1.218l-12.9-.782a.61.61,0,0,1-.062-1.212Z" transform="translate(-434.802 -505.767)" fill="#fff"/>
  <path id="Path_3655" data-name="Path 3655" d="M532.869,624.918a.617.617,0,0,1,.135-.007l12.9.782a.61.61,0,0,1-.074,1.218l-12.9-.782a.61.61,0,0,1-.062-1.212Z" transform="translate(-435.395 -518.214)" fill="#fff"/>
  <path id="Path_3656" data-name="Path 3656" d="M669.044,370.605l-24.892,13.553-10.227-18.784,24.892-13.553Z" transform="translate(-509.847 -318.032)" fill="#fff"/>
  <path id="Path_3657" data-name="Path 3657" d="M669.044,370.605l-24.892,13.553-10.227-18.784,24.892-13.553ZM644.36,383.451,668.337,370.4l-9.728-17.868-23.977,13.054Z" transform="translate(-509.847 -318.032)" fill="#e6e6e6"/>
  <rect id="Rectangle_342" data-name="Rectangle 342" width="20.866" height="1.391" transform="translate(130.146 50.67) rotate(-28.567)" fill="#6c63ff"/>
  <rect id="Rectangle_343" data-name="Rectangle 343" width="20.866" height="1.391" transform="translate(132.141 54.335) rotate(-28.567)" fill="#6c63ff"/>
  <rect id="Rectangle_344" data-name="Rectangle 344" width="20.866" height="1.391" transform="translate(134.137 58.001) rotate(-28.567)" fill="#6c63ff"/>
  <path id="Path_3658" data-name="Path 3658" d="M650.879,455.981" transform="translate(-522.275 -394.384)" fill="#6c63ff"/>
  <path id="Path_3659" data-name="Path 3659" d="M512.738,359.4c-.257-.288-.345-.318-.436-.255l-14.165,9.773c-.09.062-.1.154.08.493.463.717,1.029,1.563,1.648,2.461l18.226,26.416a29.468,29.468,0,0,0,3.308,4.346l14.165-9.773a29.471,29.471,0,0,0-2.888-4.635L514.45,361.813C513.832,360.917,513.243,360.09,512.738,359.4Z" transform="translate(-410.265 -323.383)" fill="#fff"/>
  <path id="Path_3660" data-name="Path 3660" d="M514.625,361.876c-.322-.452-.629-.87-.9-1.235-.33-.437-.6-.783-.806-1.031-.068-.081-.126-.15-.178-.206-.257-.288-.345-.318-.436-.255l-14.165,9.773c-.09.062-.1.154.08.493q.054.1.133.245c.158.279.386.655.678,1.119.489.774,1.132,1.74,1.81,2.723l17.307,25.085c.786,1.139,1.548,2.2,2.145,2.977.995,1.3,1.068,1.25,1.178,1.174l14.165-9.773c.111-.076.184-.127-.679-1.518-.518-.836-1.236-1.923-2.022-3.062L515.625,363.3C515.286,362.808,514.947,362.326,514.625,361.876ZM501.04,373.363c-.676-.98-1.318-1.945-1.8-2.714-.291-.461-.516-.835-.672-1.11a3.373,3.373,0,0,1-.229-.454l14.048-9.692a3.375,3.375,0,0,1,.343.376q.153.182.354.439t.446.583c.547.728,1.22,1.669,1.9,2.65l17.307,25.085a38.19,38.19,0,0,1,2.706,4.278l-14.05,9.694a38.185,38.185,0,0,1-3.039-4.048Z" transform="translate(-410.265 -323.383)" fill="#e4e4e4"/>
  <path id="Path_3661" data-name="Path 3661" d="M533.56,390.314l-2.682,1.85a.616.616,0,0,0-.157.857l1.6,2.323a.617.617,0,0,0,.857.157l2.682-1.85a.618.618,0,0,0,.157-.857l-1.6-2.323A.617.617,0,0,0,533.56,390.314Z" transform="translate(-434.116 -346.168)" fill="#6c63ff"/>
  <path id="Path_3662" data-name="Path 3662" d="M540.686,400.049l-9.347,6.449a.28.28,0,1,0,.318.461L541,400.509a.28.28,0,0,0-.318-.461Z" transform="translate(-434.56 -353.348)" fill="#e4e4e4"/>
  <path id="Path_3663" data-name="Path 3663" d="M537.678,419.073l-3.55,2.449a.28.28,0,1,0,.318.461l3.55-2.449a.28.28,0,0,0-.318-.461Z" transform="translate(-436.604 -367.293)" fill="#e4e4e4"/>
  <path id="Path_3664" data-name="Path 3664" d="M559.513,427.929l-2.682,1.85a.616.616,0,0,0-.157.857l1.6,2.323a.617.617,0,0,0,.857.157l2.682-1.85a.618.618,0,0,0,.157-.857l-1.6-2.323A.617.617,0,0,0,559.513,427.929Z" transform="translate(-453.14 -373.741)" fill="#6c63ff"/>
  <path id="Path_3665" data-name="Path 3665" d="M566.638,437.664l-9.347,6.449a.28.28,0,1,0,.318.461l9.347-6.449a.28.28,0,0,0-.318-.461Z" transform="translate(-453.584 -380.921)" fill="#e4e4e4"/>
  <path id="Path_3666" data-name="Path 3666" d="M563.63,456.688l-3.55,2.45a.28.28,0,1,0,.318.461l3.55-2.449a.28.28,0,1,0-.318-.461Z" transform="translate(-455.628 -394.866)" fill="#e4e4e4"/>
  <path id="Path_3667" data-name="Path 3667" d="M585.465,465.544l-2.682,1.85a.616.616,0,0,0-.157.857l1.6,2.323a.617.617,0,0,0,.857.157l2.682-1.85a.618.618,0,0,0,.157-.857l-1.6-2.323a.617.617,0,0,0-.857-.157Z" transform="translate(-472.164 -401.314)" fill="#6c63ff"/>
  <path id="Path_3668" data-name="Path 3668" d="M592.591,475.279l-9.347,6.449a.28.28,0,1,0,.318.461l9.347-6.449a.28.28,0,1,0-.318-.461Z" transform="translate(-472.608 -408.494)" fill="#e4e4e4"/>
  <path id="Path_3669" data-name="Path 3669" d="M589.583,494.3l-3.55,2.449a.28.28,0,0,0,.318.461l3.55-2.449a.28.28,0,0,0-.318-.461Z" transform="translate(-474.652 -422.439)" fill="#e4e4e4"/>
  <path id="Path_3670" data-name="Path 3670" d="M610.3,398.139a7.379,7.379,0,0,0-.24-2.261H573.909a7.376,7.376,0,0,0-.24,2.261c-.037.958-.061,2.154-.061,3.449v25.186l.147.019,5.943.774,6.194.812,2.83.368,6.052.79,5.027.657.067.005c.032-.005.064-.011.093-.019l1.978-.643,2.283-.742,5.991-1.949.147-.048v-25.21C610.358,400.294,610.334,399.1,610.3,398.139Z" transform="translate(-465.633 -350.327)" fill="#fff"/>
  <path id="Path_3671" data-name="Path 3671" d="M610.014,397.141c-.019-.358-.037-.646-.059-.876a4.543,4.543,0,0,0-.1-.713c-.059-.224-.125-.224-.2-.224H573.506c-.075,0-.142,0-.2.224a5.262,5.262,0,0,0-.1.747c-.019.224-.037.5-.056.841-.059,1.081-.091,2.518-.091,4.045V426.35l.147.021.147.019v-25.2c0-1.33.024-2.456.059-3.345a15.573,15.573,0,0,1,.179-2.221h35.985a15.5,15.5,0,0,1,.179,2.219c.032.889.056,2.016.056,3.348v25.258l.294-.1V401.185C610.1,399.658,610.07,398.222,610.014,397.141Z" transform="translate(-465.229 -349.924)" fill="#e4e4e4"/>
  <path id="Path_3672" data-name="Path 3672" d="M601.291,424.638H596.68a.871.871,0,0,0-.873.87V429.5a.872.872,0,0,0,.873.873h4.611a.873.873,0,0,0,.873-.873v-3.994A.873.873,0,0,0,601.291,424.638Z" transform="translate(-481.906 -371.409)" fill="#6c63ff"/>
  <path id="Path_3673" data-name="Path 3673" d="M642.374,430.428H626.3a.4.4,0,0,0,0,.79h16.072a.4.4,0,1,0,0-.79Z" transform="translate(-503.97 -375.653)" fill="#e4e4e4"/>
  <path id="Path_3674" data-name="Path 3674" d="M632.405,437.378h-6.1a.4.4,0,0,0,0,.79h6.1a.4.4,0,0,0,0-.79Z" transform="translate(-503.97 -380.748)" fill="#e4e4e4"/>
  <path id="Path_3675" data-name="Path 3675" d="M601.291,468.918H596.68a.873.873,0,0,0-.873.873v3.994a.873.873,0,0,0,.873.873h4.611a.875.875,0,0,0,.873-.873v-3.994a.875.875,0,0,0-.873-.873Z" transform="translate(-481.906 -403.867)" fill="#6c63ff"/>
  <path id="Path_3676" data-name="Path 3676" d="M642.37,474.708H626.3a.4.4,0,0,0,0,.793H642.37a.4.4,0,0,0,0-.793Z" transform="translate(-503.966 -408.112)" fill="#e4e4e4"/>
  <path id="Path_3677" data-name="Path 3677" d="M632.4,481.658h-6.1a.4.4,0,0,0,0,.793h6.1a.4.4,0,0,0,0-.793Z" transform="translate(-503.966 -413.206)" fill="#e4e4e4"/>
  <path id="Path_3678" data-name="Path 3678" d="M602.486,513.633a.868.868,0,0,0-.748-.424h-4.611a.869.869,0,0,0-.71.366l6.194.812v-.307A.849.849,0,0,0,602.486,513.633Z" transform="translate(-482.353 -436.333)" fill="#6c63ff"/>
  <path id="Path_3679" data-name="Path 3679" d="M645.533,519H630.217l6.052.79h7.165l2.283-.742A.358.358,0,0,0,645.533,519Z" transform="translate(-507.129 -440.578)" fill="#e4e4e4"/>
  <path id="Path_3680" data-name="Path 3680" d="M576.2,491.09a.43.43,0,0,1-.093.045l-1.327.43-10.738,3.495-3.754,1.217-.139.045-.294.1-5.991,1.949-2.283.742-1.978.643a.946.946,0,0,1-.093.019l-.067-.005-5.027-.657-6.052-.79-2.83-.368-6.194-.812-5.943-.774-.147-.019-.147-.021-17.729-2.315-.15-.021a.264.264,0,0,1-.1-.029.367.367,0,0,1-.214-.379.354.354,0,0,1,.072-.179c.016-.016.029-.032.045-.045s.029-.024.045-.032a.35.35,0,0,1,.246-.059l.886.117,16.9,2.208.147.019.147.019,8.754,1.145,3.257.424,8.572,1.121,5.476.715,2.2-.715,7.005-2.277,1.191-.387.147-.048.147-.048,3.666-1.191,10.9-3.548.977-.318.19-.061a.364.364,0,0,1,.432.179.348.348,0,0,1,.024.056.367.367,0,0,1-.142.414Z" transform="translate(-415.273 -419.632)" fill="#3f3d56"/>
  <path id="Path_3681" data-name="Path 3681" d="M539.735,525.561a4.544,4.544,0,0,1-.7-.054l-26.8-4.186a4.6,4.6,0,0,1-3.779-3.6l-2.992-14.52.184.022,44.81,5.417L543.9,522.894a4.6,4.6,0,0,1-4.167,2.666Z" transform="translate(-415.678 -428.997)" fill="#3f3d56"/>
  <path id="Path_3682" data-name="Path 3682" d="M283.189,387.387l3.264-.681-1.071-12.915-4.818,1Z" transform="translate(-205.662 -274.001)" fill="#9e616a"/>
  <path id="Path_3683" data-name="Path 3683" d="M454.157,641l.976,7.929,0,.016.076-.016,2.241-.468-.042-2.273,1.514,1.968,1.45-.3v0l2.927-.61.237-.048.9-.189.626-.13a1.413,1.413,0,0,0,.823-2.251,1.45,1.45,0,0,0-.409-.355l-.06-.032h0c-.03-.016-.06-.03-.092-.044l-.054-.024-.958-.4,0,0-2.528-1.064-2.068-.871-.46-2.211-.552.151-3.453.936Z" transform="translate(-378.072 -528.998)" fill="#2f2e41"/>
  <path id="Path_3684" data-name="Path 3684" d="M206.364,358.375l2.535,2.166,9.562-8.747-3.741-3.2Z" transform="translate(-151.271 -255.532)" fill="#9e616a"/>
  <path id="Path_3685" data-name="Path 3685" d="M356.808,610.214l1.773-1.424-.629,2.4,4.77,4.077a1.379,1.379,0,0,0,.476.268,1.427,1.427,0,0,0,.408.069,1.41,1.41,0,0,0,1.4-1.771l-1.562-5.887,1.468-1.716-.457-.344-2.853-2.16-.9-.682-5.687,5.632Z" transform="translate(-305.394 -502.185)" fill="#2f2e41"/>
  <path id="Path_3686" data-name="Path 3686" d="M254.4,146.621l15.715-.6.591-15.945-13.279.426Z" transform="translate(-186.479 -95.347)" fill="#9e616a"/>
  <circle id="Ellipse_309" data-name="Ellipse 309" cx="5.985" cy="5.985" r="5.985" transform="translate(73.681 3.736)" fill="#9e616a"/>
  <path id="Path_3687" data-name="Path 3687" d="M448.223,232.507l6.891-3.45h0a8.661,8.661,0,0,1,5.073,7.176l.172,2.057-2.886-.735-.316-2.631-.49,2.426-1.332-.339.013-4.084-1.333,4.081-4.756-1.093Z" transform="translate(-373.722 -228.042)" fill="#2f2e41"/>
  <path id="Path_3688" data-name="Path 3688" d="M411.994,396.968s5.236,9.1.181,22.908L405.027,438.1l-12.42,12.569-6.675-3.946,12.41-10.522-5.534-18.761a32.607,32.607,0,0,1-1.155-13.128c.4-3.3,3.376-5.874,5.413-8.987C403.867,399.715,411.7,399.009,411.994,396.968Z" transform="translate(-328.061 -349.924)" fill="#2f2e41"/>
  <path id="Path_3689" data-name="Path 3689" d="M272.072,313.032l4.66,21.648-6.741,1.271-3.839-18.2Z" transform="translate(-195.097 -229.462)" fill="#2f2e41"/>
  <path id="Path_3690" data-name="Path 3690" d="M432.58,291.582l7.738.1,2.518,3.2h0a6.3,6.3,0,0,1,4.764,5.061l.238,1.373a12.3,12.3,0,0,1-1.474,8.258h0l-4.724,4.459.2.372a.853.853,0,0,1-.257,1.109h0a1.742,1.742,0,0,1,.048,1.146l-.1.33s2.648.7-13.691-1.721a1.611,1.611,0,0,1-1.36-1.384h0a1.2,1.2,0,0,1-.223-1.386l.033-.067-.168-.2a1.294,1.294,0,0,1-.065-1.591h0l-.043-9.363a5.984,5.984,0,0,1,4.147-6.542h0Z" transform="translate(-357.3 -273.875)" fill="#e6e6e6"/>
  <path id="Path_3691" data-name="Path 3691" d="M507.414,413.5a2.517,2.517,0,0,0-2.986-2.446l-4.454-7.758-2.091,4.152,4.55,6.73a2.531,2.531,0,0,0,4.981-.678Z" transform="translate(-410.124 -355.764)" fill="#9e616a"/>
  <path id="Path_3692" data-name="Path 3692" d="M434.694,322.966l-2.488.384s-.761,1.627.981,4.776,18.266,23.3,18.266,23.3l1.4-5.223-9.6-17.669Z" transform="translate(-361.86 -296.88)" fill="#e6e6e6"/>
  <path id="Path_3693" data-name="Path 3693" d="M398.886,673H169.48a.318.318,0,1,1,0-.636H398.886a.318.318,0,1,1,0,.636Z" transform="translate(-169.162 -552.999)" fill="#ccc"/>
</svg>
