<svg xmlns="http://www.w3.org/2000/svg" width="120.949" height="108" viewBox="0 0 120.949 108">
  <g id="search-blank-illustration" transform="translate(17351.998 4187.964)">
    <g id="Group_3260" data-name="Group 3260" transform="translate(-17351.998 -4187.964)">
      <path id="Path_3928" data-name="Path 3928" d="M294.39,173.431v13.658h-.359v-.146H173.8v.146h-.359V173.431a5.936,5.936,0,0,1,5.931-5.931H288.459A5.936,5.936,0,0,1,294.39,173.431Z" transform="translate(-173.441 -167.5)" fill="#2d43aa"/>
      <path id="Path_3929" data-name="Path 3929" d="M288.459,167.5H179.372a5.936,5.936,0,0,0-5.931,5.931v78a5.936,5.936,0,0,0,5.931,5.931H288.459a5.936,5.936,0,0,0,5.931-5.931v-78A5.936,5.936,0,0,0,288.459,167.5Zm5.571,83.928A5.578,5.578,0,0,1,288.459,257H179.372a5.578,5.578,0,0,1-5.571-5.571v-78a5.578,5.578,0,0,1,5.571-5.571H288.459a5.578,5.578,0,0,1,5.571,5.571Z" transform="translate(-173.441 -167.5)" fill="#abb4dd"/>
      <circle id="Ellipse_350" data-name="Ellipse 350" cx="3.594" cy="3.594" r="3.594" transform="translate(20.847 6.2)" fill="#fff"/>
      <circle id="Ellipse_351" data-name="Ellipse 351" cx="3.594" cy="3.594" r="3.594" transform="translate(92.914 6.2)" fill="#fff"/>
      <path id="Path_3930" data-name="Path 3930" d="M254.037,367.686H232.655a3.421,3.421,0,0,1-3.417-3.417V354.163a3.421,3.421,0,0,1,3.417-3.417h21.382a3.421,3.421,0,0,1,3.417,3.417v10.106A3.421,3.421,0,0,1,254.037,367.686Z" transform="translate(-219.211 -317.814)" fill="#2d43aa"/>
      <path id="Path_3931" data-name="Path 3931" d="M456.435,367.686H435.053a3.421,3.421,0,0,1-3.417-3.417V354.163a3.42,3.42,0,0,1,3.417-3.417h21.382a3.421,3.421,0,0,1,3.417,3.417v10.106A3.421,3.421,0,0,1,456.435,367.686Z" transform="translate(-385.235 -317.814)" fill="#2d43aa"/>
      <path id="Path_3932" data-name="Path 3932" d="M455.963,512.031H434.581a3.524,3.524,0,0,1-3.52-3.52V498.405a3.524,3.524,0,0,1,3.52-3.52h21.382a3.524,3.524,0,0,1,3.52,3.52v10.106a3.524,3.524,0,0,1-3.52,3.52Z" transform="translate(-384.762 -436.049)" fill="#e7e8ee"/>
      <path id="Path_3933" data-name="Path 3933" d="M253.174,512.031H231.792a3.524,3.524,0,0,1-3.52-3.52V498.405a3.524,3.524,0,0,1,3.52-3.52h21.382a3.524,3.524,0,0,1,3.52,3.52v10.106A3.524,3.524,0,0,1,253.174,512.031Z" transform="translate(-218.418 -436.049)" fill="#e7e8ee"/>
      <path id="Path_3934" data-name="Path 3934" d="M658.362,512.031H636.98a3.524,3.524,0,0,1-3.52-3.52V498.405a3.524,3.524,0,0,1,3.52-3.52h21.382a3.524,3.524,0,0,1,3.52,3.52v10.106A3.524,3.524,0,0,1,658.362,512.031Z" transform="translate(-550.787 -436.049)" fill="#e7e8ee"/>
      <path id="Path_3935" data-name="Path 3935" d="M658.362,366.853H636.98a3.524,3.524,0,0,1-3.52-3.52V353.227a3.524,3.524,0,0,1,3.52-3.52h21.382a3.524,3.524,0,0,1,3.52,3.52v10.106A3.524,3.524,0,0,1,658.362,366.853Z" transform="translate(-550.787 -316.961)" fill="#e7e8ee"/>
      <circle id="Ellipse_352" data-name="Ellipse 352" cx="5.798" cy="5.798" r="5.798" transform="translate(18.337 35.604)" fill="#fff"/>
      <path id="Path_3936" data-name="Path 3936" d="M295.557,390.054a.6.6,0,0,1-.362-.12l-.006,0-1.363-1.043a.605.605,0,0,1,.736-.961l.883.677,2.086-2.72a.605.605,0,0,1,.849-.112l-.013.018.013-.017a.606.606,0,0,1,.112.849l-2.453,3.2A.606.606,0,0,1,295.557,390.054Z" transform="translate(-271.996 -346.44)" fill="#2d43aa"/>
      <circle id="Ellipse_353" data-name="Ellipse 353" cx="5.798" cy="5.798" r="5.798" transform="translate(54.815 35.521)" fill="#fff"/>
      <path id="Path_3937" data-name="Path 3937" d="M498.532,389.591a.6.6,0,0,1-.362-.12l-.007,0-1.363-1.043a.605.605,0,1,1,.736-.961l.883.677,2.086-2.72a.605.605,0,0,1,.849-.112l-.013.018.013-.017a.606.606,0,0,1,.112.849l-2.453,3.2A.606.606,0,0,1,498.532,389.591Z" transform="translate(-438.493 -346.061)" fill="#2d43aa"/>
      <path id="Path_3948" data-name="Path 3948" d="M658.362,366.853H636.98a3.524,3.524,0,0,1-3.52-3.52V353.227a3.524,3.524,0,0,1,3.52-3.52h21.382a3.524,3.524,0,0,1,3.52,3.52v10.106A3.524,3.524,0,0,1,658.362,366.853Z" transform="translate(-587.265 -316.961)" fill="#e7e8ee"/>
      <path id="Path_3949" data-name="Path 3949" d="M658.362,366.853H636.98a3.524,3.524,0,0,1-3.52-3.52V353.227a3.524,3.524,0,0,1,3.52-3.52h21.382a3.524,3.524,0,0,1,3.52,3.52v10.106A3.524,3.524,0,0,1,658.362,366.853Z" transform="translate(-623.432 -316.961)" fill="#e7e8ee"/>
    </g>
    <g id="Group_3259" data-name="Group 3259" transform="translate(-17314 -4143.733)">
      <path id="Path_3913" data-name="Path 3913" d="M620.408,324.956v0s0,0,0,0ZM615.2,309.023c-.008.052-.019.1-.027.157.008-.052.019-.1.029-.157Zm-.259,1.931c-.006.08-.013.159-.017.239q.006-.119.019-.239a.31.31,0,0,1,0-.044C614.938,310.925,614.938,310.94,614.936,310.954Zm5.471,14s0,0,0,0l0,0ZM615.2,309.023c-.008.052-.019.1-.027.157.008-.052.019-.1.029-.157Zm-.276,2.17q.006-.119.019-.239a.311.311,0,0,1,0-.044c0,.015,0,.029,0,.044C614.93,311.034,614.924,311.113,614.919,311.193Zm64.641,38.491a1.419,1.419,0,0,0-.13-.121l0,0-10.361-8.744-.268-.226-1.019-.86-.255-.216-1.452-1.226-.4-.335-.822-.695-.42-.356-3.967-3.346-2.275-1.919-.306-.257-6.7-5.656c.1-.146.2-.293.3-.441l.239-.368c.008-.015.019-.029.027-.044.046-.071.09-.144.134-.216q.038-.056.069-.113c.033-.052.067-.107.1-.161s.063-.107.094-.161c.147-.245.285-.492.418-.741l.013-.023.107-.2c.067-.123.132-.249.194-.375a.015.015,0,0,0,0-.01c.065-.128.13-.257.19-.387,0,0,0-.006,0-.008.077-.161.153-.322.226-.488.019-.038.036-.075.052-.113.069-.159.138-.32.2-.481s.136-.333.2-.5.13-.337.19-.5q.173-.48.324-.963a.547.547,0,0,1,.017-.054c.052-.172.1-.341.153-.513.031-.111.061-.22.09-.331.021-.08.042-.159.061-.239.011-.031.017-.061.025-.092.027-.107.052-.211.078-.318l.012-.052c.05-.216.1-.433.142-.649.023-.109.044-.218.065-.326.04-.218.08-.435.113-.653.017-.1.031-.205.046-.308s.027-.184.04-.274c.017-.117.031-.232.044-.349.054-.462.094-.923.119-1.385.008-.138.015-.276.021-.416.006-.161.01-.32.013-.481,0-.134,0-.27,0-.4,0-.4-.01-.806-.031-1.209q-.05-.97-.182-1.931a23.027,23.027,0,0,0-45.567-.419c-.021.138-.042.278-.061.419q-.1.753-.155,1.513c-.01.14-.019.278-.025.418a23,23,0,0,0,8.145,18.787q.76.64,1.557,1.205l.006,0c.178.126.356.249.536.37.287.188.575.372.866.548l.069.04c.251.151.5.295.757.435h0a22.626,22.626,0,0,0,2.927,1.347,23.1,23.1,0,0,0,9.254,1.452h.006a22.965,22.965,0,0,0,10.443-3.09c.462-.268.918-.554,1.364-.86.111-.075.224-.153.333-.23.134-.094.268-.193.4-.291,0,0,0,0,0,0l.031-.023.27-.205c.023-.017.046-.033.069-.052a.1.1,0,0,0,.017-.015c.052-.038.1-.079.155-.119s.1-.082.155-.123a.206.206,0,0,0,.025-.019l.176-.142c.061-.048.119-.1.176-.146s.115-.1.174-.146.1-.086.153-.132c.017-.013.031-.027.048-.042a.147.147,0,0,1,.021-.017c.069-.059.136-.119.2-.18l.048-.044c.1-.092.205-.184.306-.28l.071-.065.067-.063c.029-.029.061-.057.09-.086.075-.071.149-.144.224-.218l.247.209.09.075h0l.027.025.1.082,1.46,1.235.031.027.025.019.165.14.331.28.331.278.048.04,1.538,1.3.213.18,1.484,1.251,7.679,6.48.268.226,10.51,8.867,2.7,2.274,1,.845a2.12,2.12,0,0,0,2.99-.251,2.056,2.056,0,0,0,.354-.594A2.111,2.111,0,0,0,679.56,349.684Zm-60.609-48.5a17.251,17.251,0,0,1,30.119,7.842c.027.14.052.278.075.418.086.5.148,1.006.186,1.513.01.14.021.278.027.419.019.314.027.63.027.944a17.173,17.173,0,0,1-.933,5.595v0a17.158,17.158,0,0,1-3.132,5.52c-.029.033-.059.069-.09.1-.276.326-.567.64-.866.939l-.006.008c-.1.1-.207.207-.312.3-.213.207-.431.4-.653.592q-.5.436-1.023.818c-.117.086-.234.169-.354.253s-.236.163-.356.243c-.239.159-.481.312-.726.456-.121.073-.247.144-.37.213s-.249.138-.375.2-.251.132-.379.195c-.253.128-.509.247-.768.358q-.195.088-.389.163c-.082.034-.161.067-.243.1a.786.786,0,0,1-.1.038c-.044.019-.088.036-.132.05a.369.369,0,0,1-.044.017c-.09.036-.178.067-.27.1-.132.048-.264.092-.4.134s-.266.086-.4.123-.27.08-.4.115-.27.073-.406.1-.289.071-.435.1c-.128.029-.253.054-.381.077s-.241.046-.36.067c-.167.029-.335.056-.5.08-.092.015-.182.027-.274.036-.04.006-.078.01-.115.015-.117.017-.234.029-.349.04l-.09.008c-.128.013-.257.023-.385.034-.274.019-.546.031-.82.038-.138,0-.278,0-.416,0s-.276,0-.414-.006c0,0,0,0,0,0s0,0,0,0h0a.036.036,0,0,1-.021,0c-.1,0-.2,0-.293-.01-.071,0-.144,0-.218-.01q-.147-.006-.295-.019c-.031,0-.063,0-.094-.006a.314.314,0,0,1-.044,0c-.1-.008-.2-.017-.3-.027-.05,0-.1-.008-.153-.015-.153-.017-.306-.036-.456-.056-.172-.021-.343-.046-.513-.077-.079-.01-.157-.025-.234-.04q-.154-.025-.307-.056c-.107-.021-.213-.042-.32-.067-.086-.019-.174-.038-.26-.059-.042-.008-.084-.019-.123-.029-.22-.052-.437-.109-.653-.172-.136-.038-.272-.077-.406-.119-.184-.057-.366-.117-.548-.182-.071-.023-.14-.048-.211-.075s-.14-.05-.211-.077-.13-.048-.193-.073c-.1-.04-.207-.082-.31-.123-.211-.086-.418-.176-.625-.272-.117-.056-.234-.111-.349-.167q-.681-.329-1.341-.732c-.109-.065-.218-.134-.326-.2-.136-.084-.268-.172-.4-.259-.073-.05-.144-.1-.216-.149-.132-.092-.262-.186-.389-.28-.067-.048-.134-.1-.2-.149-.232-.176-.46-.36-.684-.548-.107-.09-.214-.182-.318-.276-.044-.038-.088-.077-.132-.117s-.1-.09-.148-.138l0,0c-.073-.065-.146-.134-.218-.2-.111-.1-.22-.211-.324-.32s-.214-.218-.316-.326-.205-.22-.3-.333-.2-.224-.3-.339-.186-.222-.274-.333q-.32-.4-.611-.806c-.09-.126-.176-.251-.259-.379s-.176-.262-.257-.393-.167-.266-.247-.4a.043.043,0,0,0-.008-.013c-.157-.266-.307-.534-.448-.806s-.28-.555-.408-.837c-.065-.14-.128-.282-.186-.425-.121-.287-.234-.573-.339-.864-.052-.14-.1-.28-.148-.423a.111.111,0,0,0-.008-.027c-.1-.289-.184-.58-.262-.872,0,0,0-.008,0-.013-.04-.144-.077-.289-.111-.435-.034-.128-.063-.255-.09-.385s-.063-.289-.09-.435c-.015-.075-.029-.151-.042-.226s-.023-.128-.034-.19-.021-.128-.031-.192q-.031-.191-.057-.383c-.021-.151-.038-.3-.054-.454-.019-.182-.036-.364-.05-.548-.01-.123-.017-.249-.023-.375s-.013-.23-.015-.345a.029.029,0,0,1,0-.019v0s0,0,0,0v0c0-.046,0-.092,0-.138q-.006-.2-.006-.408c0-.123,0-.245,0-.368q.006-.257.019-.515c0-.038,0-.073.006-.111s0-.073.006-.111q.006-.119.019-.239a.3.3,0,0,1,0-.044c.006-.09.015-.18.023-.27.017-.18.038-.362.061-.542.013-.09.023-.18.038-.27.008-.063.019-.128.029-.192s.019-.13.031-.195c.015-.086.029-.174.046-.262.008-.052.019-.1.029-.157q.06-.314.132-.628c.048-.211.1-.421.161-.63s.119-.423.186-.634c.031-.107.065-.211.1-.316.069-.211.142-.421.224-.628.038-.1.077-.207.121-.31.084-.207.172-.414.262-.617.046-.1.092-.205.142-.308.094-.2.193-.406.3-.6s.213-.4.326-.6.23-.393.354-.588c.056-.1.119-.195.184-.289.126-.192.257-.385.391-.573C618.353,301.92,618.644,301.545,618.951,301.181Zm-4.015,9.773c-.006.08-.013.159-.017.239q.006-.119.019-.239a.311.311,0,0,1,0-.044C614.938,310.925,614.938,310.94,614.936,310.954Zm.259-1.931c-.008.052-.019.1-.027.157.008-.052.019-.1.029-.157Zm5.212,15.933v0s0,0,0,0Z" transform="translate(-609.266 -289.536)" fill="#e3b419"/>
      <path id="Path_3914" data-name="Path 3914" d="M635.348,373.731a17.252,17.252,0,0,1-2.927-23.191q-.495.5-.957,1.044a17.251,17.251,0,1,0,26.37,22.251q.461-.546.868-1.119A17.252,17.252,0,0,1,635.348,373.731Z" transform="translate(-623.604 -337.775)" fill="#e3b419" opacity="0.3"/>
    </g>
  </g>
</svg>
