<svg xmlns="http://www.w3.org/2000/svg" width="121.949" height="90.858" viewBox="0 0 121.949 90.858">
  <g id="Group_3260" data-name="Group 3260" transform="translate(0.5 0.5)">
    <path id="Path_3928" data-name="Path 3928" d="M294.39,173.431v13.658h-.359v-.146H173.8v.146h-.359V173.431a5.936,5.936,0,0,1,5.931-5.931H288.459A5.936,5.936,0,0,1,294.39,173.431Z" transform="translate(-173.441 -167.5)" fill="#2d43aa"/>
    <path id="Path_3929" data-name="Path 3929" d="M288.459,167.5H179.372a5.936,5.936,0,0,0-5.931,5.931v78a5.936,5.936,0,0,0,5.931,5.931H288.459a5.936,5.936,0,0,0,5.931-5.931v-78A5.936,5.936,0,0,0,288.459,167.5Zm5.571,83.928A5.578,5.578,0,0,1,288.459,257H179.372a5.578,5.578,0,0,1-5.571-5.571v-78a5.578,5.578,0,0,1,5.571-5.571H288.459a5.578,5.578,0,0,1,5.571,5.571Z" transform="translate(-173.441 -167.5)" fill="#d5d9ee" stroke="#d5d9ee" stroke-width="1"/>
    <circle id="Ellipse_350" data-name="Ellipse 350" cx="3.594" cy="3.594" r="3.594" transform="translate(20.847 6.2)" fill="#fff"/>
    <circle id="Ellipse_351" data-name="Ellipse 351" cx="3.594" cy="3.594" r="3.594" transform="translate(92.914 6.2)" fill="#fff"/>
    <path id="Path_3930" data-name="Path 3930" d="M254.037,367.686H232.655a3.421,3.421,0,0,1-3.417-3.417V354.163a3.421,3.421,0,0,1,3.417-3.417h21.382a3.421,3.421,0,0,1,3.417,3.417v10.106A3.421,3.421,0,0,1,254.037,367.686Z" transform="translate(-219.211 -317.814)" fill="#3ddf87"/>
    <path id="Path_3931" data-name="Path 3931" d="M456.435,367.686H435.053a3.421,3.421,0,0,1-3.417-3.417V354.163a3.42,3.42,0,0,1,3.417-3.417h21.382a3.421,3.421,0,0,1,3.417,3.417v10.106A3.421,3.421,0,0,1,456.435,367.686Z" transform="translate(-385.235 -317.814)" fill="#3ddf87"/>
    <path id="Path_3932" data-name="Path 3932" d="M455.963,512.031H434.581a3.524,3.524,0,0,1-3.52-3.52V498.405a3.524,3.524,0,0,1,3.52-3.52h21.382a3.524,3.524,0,0,1,3.52,3.52v10.106a3.524,3.524,0,0,1-3.52,3.52Z" transform="translate(-384.762 -436.049)" fill="#e2e4ef"/>
    <path id="Path_3933" data-name="Path 3933" d="M253.174,512.031H231.792a3.524,3.524,0,0,1-3.52-3.52V498.405a3.524,3.524,0,0,1,3.52-3.52h21.382a3.524,3.524,0,0,1,3.52,3.52v10.106A3.524,3.524,0,0,1,253.174,512.031Z" transform="translate(-218.418 -436.049)" fill="#e2e4ef"/>
    <path id="Path_3934" data-name="Path 3934" d="M658.362,512.031H636.98a3.524,3.524,0,0,1-3.52-3.52V498.405a3.524,3.524,0,0,1,3.52-3.52h21.382a3.524,3.524,0,0,1,3.52,3.52v10.106A3.524,3.524,0,0,1,658.362,512.031Z" transform="translate(-550.787 -436.049)" fill="#e2e4ef"/>
    <path id="Path_3935" data-name="Path 3935" d="M658.362,366.853H636.98a3.524,3.524,0,0,1-3.52-3.52V353.227a3.524,3.524,0,0,1,3.52-3.52h21.382a3.524,3.524,0,0,1,3.52,3.52v10.106A3.524,3.524,0,0,1,658.362,366.853Z" transform="translate(-550.787 -316.961)" fill="#e2e4ef"/>
    <circle id="Ellipse_352" data-name="Ellipse 352" cx="5.798" cy="5.798" r="5.798" transform="translate(18.337 35.604)" fill="#fff"/>
    <path id="Path_3936" data-name="Path 3936" d="M295.557,390.054a.6.6,0,0,1-.362-.12l-.006,0-1.363-1.043a.605.605,0,0,1,.736-.961l.883.677,2.086-2.72a.605.605,0,0,1,.849-.112l-.013.018.013-.017a.606.606,0,0,1,.112.849l-2.453,3.2A.606.606,0,0,1,295.557,390.054Z" transform="translate(-271.996 -346.44)" fill="#3ddf87"/>
    <circle id="Ellipse_353" data-name="Ellipse 353" cx="5.798" cy="5.798" r="5.798" transform="translate(54.815 35.521)" fill="#fff"/>
    <path id="Path_3937" data-name="Path 3937" d="M498.532,389.591a.6.6,0,0,1-.362-.12l-.007,0-1.363-1.043a.605.605,0,1,1,.736-.961l.883.677,2.086-2.72a.605.605,0,0,1,.849-.112l-.013.018.013-.017a.606.606,0,0,1,.112.849l-2.453,3.2A.606.606,0,0,1,498.532,389.591Z" transform="translate(-438.493 -346.061)" fill="#3ddf87"/>
  </g>
</svg>
