<svg xmlns="http://www.w3.org/2000/svg" width="40.004" height="39.999" viewBox="0 0 40.004 39.999">
  <path id="Union_15" data-name="Union 15" d="M21313-6208a20,20,0,0,1,20-20,20,20,0,0,1,20,20,20,20,0,0,1-20,20A20,20,0,0,1,21313-6208Zm12.609-17.507a18.969,18.969,0,0,0-6.045,4.073,19.049,19.049,0,0,0-4.072,6.04,18.946,18.946,0,0,0-1.49,7.4,18.948,18.948,0,0,0,1.49,7.4,19.055,19.055,0,0,0,4.072,6.04,18.969,18.969,0,0,0,6.045,4.073A18.852,18.852,0,0,0,21333-6189a18.857,18.857,0,0,0,7.395-1.49,18.926,18.926,0,0,0,6.045-4.073,18.979,18.979,0,0,0,4.068-6.04,18.881,18.881,0,0,0,1.494-7.4,18.879,18.879,0,0,0-1.494-7.4,18.974,18.974,0,0,0-4.068-6.04,18.926,18.926,0,0,0-6.045-4.073,18.862,18.862,0,0,0-7.395-1.5A18.857,18.857,0,0,0,21325.607-6225.507Zm7.895,23.086-6.5,3.794V-6214a2,2,0,0,1,2-2h9a2.007,2.007,0,0,1,2,2v15.375Zm5.5,2.053V-6214a1,1,0,0,0-1-1h-9a1,1,0,0,0-1,1v13.633l5.5-3.21Zm-3.709-6.345-1.789-1.275-1.791,1.275a.277.277,0,0,1-.154.059.232.232,0,0,1-.135-.059.247.247,0,0,1-.086-.273l.707-2.047-1.838-1.3a.241.241,0,0,1-.1-.171v-.038a.245.245,0,0,1,.242-.247h2.244l.682-2.02a.231.231,0,0,1,.23-.161.237.237,0,0,1,.23.161l.68,2.02h2.23a.259.259,0,0,1,.256.247.243.243,0,0,1-.08.161l-.043.038-1.816,1.308.7,2.047a.251.251,0,0,1-.08.273.232.232,0,0,1-.139.059A.277.277,0,0,1,21335.291-6206.714Z" transform="translate(-21312.998 6227.999)" fill="#5064e3"/>
</svg>
