<svg xmlns="http://www.w3.org/2000/svg" width="26.492" height="24.283" viewBox="0 0 26.492 24.283">
  <g id="Group_1540" data-name="Group 1540" transform="translate(-755.277 146.618)">
    <path id="Rectangle_807" data-name="Rectangle 807" d="M.849-.75H24.143a1.6,1.6,0,0,1,1.6,1.6v17.88a1.6,1.6,0,0,1-1.6,1.6H.849a1.6,1.6,0,0,1-1.6-1.6V.849A1.6,1.6,0,0,1,.849-.75ZM24.143,18.828a.1.1,0,0,0,.1-.1V.849a.1.1,0,0,0-.1-.1H.849a.1.1,0,0,0-.1.1v17.88a.1.1,0,0,0,.1.1Z" transform="translate(756.027 -142.663)" fill="#5064e3"/>
    <path id="Path_3053" data-name="Path 3053" d="M773.774-141.913a.75.75,0,0,1-.75-.75v-2.24a.249.249,0,0,0-.268-.215h-7.32a.249.249,0,0,0-.268.215v2.24a.75.75,0,0,1-.75.75.75.75,0,0,1-.75-.75v-2.24a1.744,1.744,0,0,1,1.768-1.715h7.32a1.744,1.744,0,0,1,1.768,1.715v2.24A.75.75,0,0,1,773.774-141.913Z" transform="translate(-0.898)" fill="#5064e3"/>
    <path id="Rectangle_808" data-name="Rectangle 808" d="M.812-.75h2.9A1.564,1.564,0,0,1,5.276.812v1.71A1.564,1.564,0,0,1,3.714,4.085H.812A1.564,1.564,0,0,1-.75,2.523V.812A1.564,1.564,0,0,1,.812-.75Zm2.9,3.335a.062.062,0,0,0,.062-.062V.812A.062.062,0,0,0,3.714.75H.812A.062.062,0,0,0,.75.812v1.71a.062.062,0,0,0,.062.062Z" transform="translate(766.314 -136.209)" fill="#5064e3"/>
    <path id="Line_375" data-name="Line 375" d="M10.287.75H0A.75.75,0,0,1-.75,0,.75.75,0,0,1,0-.75H10.287a.75.75,0,0,1,.75.75A.75.75,0,0,1,10.287.75Z" transform="translate(756.027 -134.455)" fill="#5064e3"/>
    <path id="Line_376" data-name="Line 376" d="M10.179.75H0A.75.75,0,0,1-.75,0,.75.75,0,0,1,0-.75H10.179a.75.75,0,0,1,.75.75A.75.75,0,0,1,10.179.75Z" transform="translate(770.84 -134.455)" fill="#5064e3"/>
  </g>
</svg>
