<svg xmlns="http://www.w3.org/2000/svg" width="12.82" height="9.017" viewBox="0 0 12.82 9.017">
  <g id="Group_572" data-name="Group 572" transform="translate(-1243.5 -199.192)">
    <path id="Line_295" data-name="Line 295" d="M9,1H0A1,1,0,0,1-1,0,1,1,0,0,1,0-1H9a1,1,0,0,1,1,1A1,1,0,0,1,9,1Z" transform="translate(1244.5 203.5)" fill="#fff"/>
    <path id="Path_2996" data-name="Path 2996" d="M-17651.187,975.209a1,1,0,0,1-.707-.293,1,1,0,0,1,0-1.414l2.8-2.8-2.8-2.8a1,1,0,0,1,0-1.414,1,1,0,0,1,1.414,0l3.508,3.509a1,1,0,0,1,0,1.414l-3.508,3.509A1,1,0,0,1-17651.187,975.209Z" transform="translate(18903 -767)" fill="#fff"/>
  </g>
</svg>
