<svg xmlns="http://www.w3.org/2000/svg" width="16.809" height="13.155" viewBox="0 0 16.809 13.155">
  <path id="Path_2988" data-name="Path 2988" d="M15.362,12.309a.49.49,0,0,1,0,.7.534.534,0,0,1-.729,0,.489.489,0,0,1,0-.7A.552.552,0,0,1,15.362,12.309ZM8.141.067a.557.557,0,0,1,.528,0h0L16.537,4.33a.5.5,0,0,1,0,.9h0l-1.1.595,0,.035v5.154a.538.538,0,0,1-1.068.07l0-.07V6.4l-1.031.559V10.67a.463.463,0,0,1-.27.416,10.945,10.945,0,0,1-9.323,0,.466.466,0,0,1-.265-.351l0-.065V6.959L.272,5.225A.5.5,0,0,1,.2,4.373L.272,4.33Zm4.226,7.417-3.7,2a.557.557,0,0,1-.528,0h0l-3.7-2v2.891l.236.1a9.952,9.952,0,0,0,7.456,0l.235-.1ZM8.4,1.1,1.627,4.777,8.4,8.449,13.292,5.8,9.235,4.272a.51.51,0,0,1-.325-.6l.022-.067a.542.542,0,0,1,.626-.312l.07.021L14.5,5.148l.686-.371Z" fill="#2D43AA"/>
</svg>
