<svg xmlns="http://www.w3.org/2000/svg" width="39" height="39" viewBox="0 0 39 39">
  <g id="Group_866" data-name="Group 866" transform="translate(-33.563 -32.448)">
    <rect id="Rectangle_602" data-name="Rectangle 602" width="39" height="39" rx="7" transform="translate(33.563 32.448)" fill="#f1f8ff"/>
    <path id="Path_3004" data-name="Path 3004" d="M51.95,52.254a.5.5,0,0,1-.354-.146l-2.489-2.489a.5.5,0,0,1-.146-.354V45.352a.5.5,0,0,1,1,0v3.706L52.3,51.4a.5.5,0,0,1-.354.854Z" transform="translate(3.387 1.945)" fill="#5064e3"/>
    <path id="Ellipse_132" data-name="Ellipse 132" d="M8.737-.5A9.237,9.237,0,1,1-.5,8.737,9.247,9.247,0,0,1,8.737-.5Zm0,17.474A8.237,8.237,0,1,0,.5,8.737,8.246,8.246,0,0,0,8.737,16.974Z" transform="translate(44.435 42.554)" fill="#5064e3"/>
    <path id="Line_299" data-name="Line 299" d="M0,3.111a.5.5,0,0,1-.354-.146.5.5,0,0,1,0-.707L2.257-.354a.5.5,0,0,1,.707,0,.5.5,0,0,1,0,.707L.354,2.964A.5.5,0,0,1,0,3.111Z" transform="translate(43.966 41.813)" fill="#5064e3"/>
    <path id="Line_305" data-name="Line 305" d="M0,2.355a.5.5,0,0,1-.333-.127.5.5,0,0,1-.039-.706L1.288-.333a.5.5,0,0,1,.706-.039.5.5,0,0,1,.039.706L.373,2.189A.5.5,0,0,1,0,2.355Z" transform="translate(47.272 59.343)" fill="#5064e3"/>
    <path id="Line_306" data-name="Line 306" d="M1.661,2.355a.5.5,0,0,1-.373-.167L-.373.333A.5.5,0,0,1-.333-.373a.5.5,0,0,1,.706.039L2.033,1.522a.5.5,0,0,1-.372.834Z" transform="translate(57.794 59.343)" fill="#5064e3"/>
    <path id="Line_300" data-name="Line 300" d="M2.306,2.806a.5.5,0,0,1-.354-.146L-.354.354a.5.5,0,0,1,0-.707.5.5,0,0,1,.707,0L2.66,1.953a.5.5,0,0,1-.354.854Z" transform="translate(59.932 41.813)" fill="#5064e3"/>
  </g>
</svg>
