<svg id="Group_2503" data-name="Group 2503" xmlns="http://www.w3.org/2000/svg" width="15.926" height="15.926" viewBox="0 0 15.926 15.926">
  <path id="Path_3035" data-name="Path 3035" d="M18.727,17.8l-2.158-2.158,2.158-2.158a.654.654,0,0,0-.925-.925l-2.158,2.158-2.158-2.158a.654.654,0,0,0-.925.925l2.158,2.158L12.561,17.8a.633.633,0,0,0,0,.925.65.65,0,0,0,.925,0l2.158-2.158L17.8,18.725a.657.657,0,0,0,.925,0A.65.65,0,0,0,18.727,17.8Z" transform="translate(-7.682 -7.68)" fill="#2D43AA"/>
  <path id="Path_3036" data-name="Path 3036" d="M11.338,4.447A6.888,6.888,0,1,1,6.464,6.464a6.845,6.845,0,0,1,4.873-2.018m0-1.072A7.963,7.963,0,1,0,19.3,11.338a7.962,7.962,0,0,0-7.963-7.963Z" transform="translate(-3.375 -3.375)" fill="#2D43AA"/>
</svg>
