<svg xmlns="http://www.w3.org/2000/svg" xmlns:xlink="http://www.w3.org/1999/xlink" width="107.973" height="93.703" viewBox="0 0 107.973 93.703">
  <defs>
    <filter id="Path_3245" x="12.497" y="6.052" width="77.508" height="77.508" filterUnits="userSpaceOnUse">
      <feOffset dy="3" input="SourceAlpha"/>
      <feGaussianBlur stdDeviation="3" result="blur"/>
      <feFlood flood-opacity="0.161"/>
      <feComposite operator="in" in2="blur"/>
      <feComposite in="SourceGraphic"/>
    </filter>
  </defs>
  <g id="noun_reward_3623949" transform="translate(4.589 8.052)">
    <path id="Path_3243" data-name="Path 3243" d="M21.586,60.074l2.127,8.017,12.82-22.134a5.63,5.63,0,0,0-1.689-.93,9.17,9.17,0,0,0-3.2.07,8.577,8.577,0,0,1-5.463-.492,8.629,8.629,0,0,1-3.161-4.549c-.037-.091-.074-.177-.112-.268L10.284,61.526l9.483-2.513a1.488,1.488,0,0,1,1.819,1.061Z" transform="translate(4.04 17.454)" fill="#5246cc"/>
    <g id="Path_3244" data-name="Path 3244" transform="translate(9.267 4.389)" fill="#f8d165">
      <path d="M 37.36660003662109 47.22965621948242 L 37.3657112121582 47.22965621948242 L 37.36483001708984 47.22965621948242 C 34.95375061035156 47.22965621948242 32.61399841308594 46.75710678100586 30.41057014465332 45.82513809204102 C 28.28306007385254 44.92526626586914 26.3726806640625 43.63735580444336 24.73249053955078 41.99716567993164 C 23.09230041503906 40.35697555541992 21.80438041687012 38.44659805297852 20.90452003479004 36.31908798217773 C 19.97254943847656 34.11564636230469 19.5 31.7758960723877 19.5 29.36482620239258 C 19.5 26.95375633239746 19.97254943847656 24.61400604248047 20.90452003479004 22.41056632995605 C 21.80438041687012 20.28305625915527 23.09230041503906 18.37267684936523 24.73249053955078 16.73248672485352 C 26.3726806640625 15.0922966003418 28.28306007385254 13.80438613891602 30.41057014465332 12.90451622009277 C 32.61399841308594 11.97254657745361 34.95375061035156 11.49999618530273 37.36483001708984 11.49999618530273 C 39.77590179443359 11.49999618530273 42.11565017700195 11.97254657745361 44.3190803527832 12.90451622009277 C 46.44659042358398 13.80438613891602 48.35697937011719 15.0922966003418 49.99716949462891 16.73248672485352 C 51.63735961914062 18.37267684936523 52.92527008056641 20.28305625915527 53.82513046264648 22.41056632995605 C 54.75709915161133 24.61400604248047 55.22964859008789 26.95375633239746 55.22964859008789 29.36482620239258 C 55.22681045532227 31.77637672424316 54.7524299621582 34.11465454101562 53.8196907043457 36.31649780273438 C 52.91901016235352 38.44265747070312 51.63101959228516 40.35201644897461 49.99151992797852 41.99151611328125 C 48.35202026367188 43.63102722167969 46.44266891479492 44.91900634765625 44.31650161743164 45.81969451904297 C 42.11465835571289 46.75243759155273 39.7763786315918 47.2268180847168 37.36660003662109 47.22965621948242 Z" stroke="none"/>
      <path d="M 37.36483001708984 12.99999618530273 C 28.32677841186523 12.99999618530273 21 20.32678604125977 21 29.36482620239258 C 21 38.40286636352539 28.32677841186523 45.72965621948242 37.36483001708984 45.72965621948242 C 46.39846038818359 45.718994140625 53.71900177001953 38.39845657348633 53.72966003417969 29.36481666564941 L 53.72965240478516 29.36482620239258 C 53.72965240478516 20.32678604125977 46.40287017822266 12.99999618530273 37.36483001708984 12.99999618530273 M 37.36483001708984 9.999996185302734 C 39.97774124145508 9.999996185302734 42.51409149169922 10.51241683959961 44.90341186523438 11.52301788330078 C 47.20972061157227 12.49849700927734 49.28035736083984 13.89436721801758 51.05783081054688 15.67182540893555 C 52.83528900146484 17.44928741455078 54.23114776611328 19.51993560791016 55.20663070678711 21.82624435424805 C 56.21723175048828 24.2155647277832 56.72965240478516 26.75191688537598 56.72965240478516 29.36482620239258 C 56.72657012939453 31.97965621948242 56.21221160888672 34.51420593261719 55.20087051391602 36.90158843994141 C 54.22457122802734 39.20624542236328 52.82875061035156 41.27560424804688 51.05217742919922 43.05217742919922 C 49.27561187744141 44.8287467956543 47.20624923706055 46.22456741333008 44.90158843994141 47.20086669921875 C 42.51420974731445 48.21221542358398 39.97967147827148 48.72657775878906 37.36837005615234 48.72965621948242 C 34.75191116333008 48.72965621948242 32.21556854248047 48.21723556518555 29.82624053955078 47.20663452148438 C 27.51993179321289 46.23115539550781 25.44929122924805 44.83528518676758 23.67182922363281 43.05782699584961 C 21.89435958862305 41.28036499023438 20.49850082397461 39.209716796875 19.52302169799805 36.90340423583984 C 18.51242065429688 34.51408386230469 18 31.97773551940918 18 29.36482620239258 C 18 26.75191688537598 18.51242065429688 24.2155647277832 19.52302169799805 21.82624435424805 C 20.49850082397461 19.51993560791016 21.89435958862305 17.44928741455078 23.67182922363281 15.67182540893555 C 25.44929122924805 13.89436721801758 27.51993179321289 12.49849700927734 29.82624053955078 11.52301788330078 C 32.21556854248047 10.51241683959961 34.75191116333008 9.999996185302734 37.36483001708984 9.999996185302734 Z" stroke="none" fill="#f7b234"/>
    </g>
    <g transform="matrix(1, 0, 0, 1, -4.59, -8.05)" filter="url(#Path_3245)">
      <path id="Path_3245-2" data-name="Path 3245" d="M41.7,63.508h0a6.564,6.564,0,0,0,3.282-1.748,10.911,10.911,0,0,1,3.663-2.12,11.207,11.207,0,0,1,4.35.013,6.512,6.512,0,0,0,3.6-.092,6.546,6.546,0,0,0,1.921-3.1,14.027,14.027,0,0,1,1.6-3.069c.018-.025.366-.475.547-.655A11.109,11.109,0,0,1,64.4,50.606,6.512,6.512,0,0,0,67.508,48.7a6.473,6.473,0,0,0,.113-3.594,11.32,11.32,0,0,1,.007-4.35,10.9,10.9,0,0,1,2.136-3.648,6.534,6.534,0,0,0,1.764-3.273,6.527,6.527,0,0,0-1.747-3.285,10.9,10.9,0,0,1-2.116-3.661,11.272,11.272,0,0,1,.013-4.352,6.479,6.479,0,0,0-.094-3.591,6.53,6.53,0,0,0-3.1-1.922,11.1,11.1,0,0,1-3.727-2.153,11.109,11.109,0,0,1-2.132-3.737,6.507,6.507,0,0,0-1.906-3.117A6.469,6.469,0,0,0,53.129,7.9a11.29,11.29,0,0,1-4.35-.009A10.86,10.86,0,0,1,45.13,5.76,6.546,6.546,0,0,0,41.853,4h0a6.564,6.564,0,0,0-3.282,1.748,10.926,10.926,0,0,1-3.663,2.12,11.244,11.244,0,0,1-4.352-.013,6.485,6.485,0,0,0-3.593.092,6.546,6.546,0,0,0-1.922,3.1,11.089,11.089,0,0,1-2.153,3.728,11.122,11.122,0,0,1-3.737,2.133,6.507,6.507,0,0,0-3.109,1.906,6.47,6.47,0,0,0-.113,3.59,11.277,11.277,0,0,1-.009,4.353,10.872,10.872,0,0,1-2.135,3.649,6.546,6.546,0,0,0-1.764,3.273,6.546,6.546,0,0,0,1.754,3.285,10.926,10.926,0,0,1,2.116,3.658,11.307,11.307,0,0,1-.013,4.352,6.489,6.489,0,0,0,.094,3.594,6.519,6.519,0,0,0,3.1,1.921,11.1,11.1,0,0,1,3.721,2.16c.18.182.525.632.543.656a13.913,13.913,0,0,1,1.589,3.081,6.509,6.509,0,0,0,1.907,3.109,6.469,6.469,0,0,0,3.593.113,20.017,20.017,0,0,1,2.511-.213,7.025,7.025,0,0,1,1.839.222,10.872,10.872,0,0,1,3.649,2.135A6.546,6.546,0,0,0,41.7,63.508ZM22.4,33.754a19.34,19.34,0,1,1,19.34,19.34A19.34,19.34,0,0,1,22.4,33.754Z" transform="translate(9.48 8.05)" fill="#f8ca5e"/>
    </g>
    <path id="Path_3246" data-name="Path 3246" d="M50.887,60.154a1.488,1.488,0,0,1,1.822-1.041l9.469,2.553L49.668,39.857c-.037.089-.074.176-.113.266a8.642,8.642,0,0,1-3.182,4.533,8.577,8.577,0,0,1-5.469.472,9.182,9.182,0,0,0-3.2-.086,5.653,5.653,0,0,0-1.692.921l12.7,22.2Z" transform="translate(16.588 17.488)" fill="#5246cd"/>
    <circle id="Ellipse_236" data-name="Ellipse 236" cx="3.352" cy="3.352" r="3.352" transform="translate(91.455 0.648)" fill="#f77675"/>
    <circle id="Ellipse_237" data-name="Ellipse 237" cx="3.352" cy="3.352" r="3.352" transform="translate(2.022 18.747)" fill="#f6af31"/>
    <circle id="Ellipse_239" data-name="Ellipse 239" cx="2.262" cy="2.262" r="2.262" transform="translate(-1.536 67.718)" fill="none" stroke="#f7d84d" stroke-width="1"/>
    <rect id="Rectangle_3318" data-name="Rectangle 3318" width="2.975" height="2.975" transform="translate(85.312 29.291)" fill="#c09ffb"/>
    <rect id="Rectangle_3325" data-name="Rectangle 3325" width="2.975" height="2.975" transform="translate(7.239 48.316)" fill="#c09ffb"/>
    <rect id="Rectangle_3319" data-name="Rectangle 3319" width="2.975" height="2.975" transform="translate(88.287 32.267)" fill="#c09ffb"/>
    <rect id="Rectangle_3324" data-name="Rectangle 3324" width="2.975" height="2.975" transform="translate(10.214 51.291)" fill="#c09ffb"/>
    <rect id="Rectangle_3320" data-name="Rectangle 3320" width="2.975" height="2.975" transform="translate(82.336 32.267)" fill="#c09ffb"/>
    <rect id="Rectangle_3322" data-name="Rectangle 3322" width="2.975" height="2.975" transform="translate(4.263 51.291)" fill="#c09ffb"/>
    <rect id="Rectangle_3321" data-name="Rectangle 3321" width="2.975" height="2.975" transform="translate(85.312 35.242)" fill="#c09ffb"/>
    <rect id="Rectangle_3323" data-name="Rectangle 3323" width="2.975" height="2.975" transform="translate(7.239 54.266)" fill="#c09ffb"/>
    <path id="Path_3247" data-name="Path 3247" d="M2.975,0c.744,0,.744,2.232,0,2.975S.27,2.252.27,1.508,2.232,0,2.975,0Z" transform="translate(55.361 -4.491)" fill="#f87676"/>
    <path id="Icon_awesome-star" data-name="Icon awesome-star" d="M9.837.625,7.541,5.28,2.4,6.029a1.126,1.126,0,0,0-.622,1.92L5.5,11.57,4.62,16.685A1.124,1.124,0,0,0,6.251,17.87l4.6-2.415,4.6,2.415a1.125,1.125,0,0,0,1.631-1.185l-.879-5.115L19.91,7.949a1.126,1.126,0,0,0-.622-1.92L14.151,5.28,11.855.625A1.126,1.126,0,0,0,9.837.625Z" transform="translate(35.785 23.267)" fill="#f8e9b6"/>
    <path id="Icon_weather-stars" data-name="Icon weather-stars" d="M6.444,15.72a2.177,2.177,0,0,0,2.075-2.164,2.161,2.161,0,0,0,2.066,2.164,2.161,2.161,0,0,0-2.066,2.164,2.057,2.057,0,0,0-.606-1.5A2.1,2.1,0,0,0,6.444,15.72ZM8.519,9.307A4.093,4.093,0,0,0,11.378,8a4.077,4.077,0,0,0,1.176-2.921A4.077,4.077,0,0,0,13.73,8,4.134,4.134,0,0,0,16.6,9.307a4.128,4.128,0,0,0-2.04.632,4.28,4.28,0,0,0-1.47,1.541,4.188,4.188,0,0,0-.534,2.075A4.265,4.265,0,0,0,8.519,9.307ZM11.476,18.9a3.181,3.181,0,0,0,3.037-3.18,3.182,3.182,0,0,0,3.028,3.18,3.182,3.182,0,0,0-3.028,3.18,3.067,3.067,0,0,0-.882-2.2A3.12,3.12,0,0,0,11.476,18.9Zm6.066-4.222a3.166,3.166,0,0,0,3.019-3.189,3.181,3.181,0,0,0,3.037,3.18,3.181,3.181,0,0,0-3.037,3.18,3.15,3.15,0,0,0-3.019-3.171Z" transform="translate(-11.033 -13.128)" fill="#f87577"/>
    <path id="Icon_weather-stars-2" data-name="Icon weather-stars" d="M6.444,15.72a2.177,2.177,0,0,0,2.075-2.164,2.161,2.161,0,0,0,2.066,2.164,2.161,2.161,0,0,0-2.066,2.164,2.057,2.057,0,0,0-.606-1.5A2.1,2.1,0,0,0,6.444,15.72ZM8.519,9.307A4.093,4.093,0,0,0,11.378,8a4.077,4.077,0,0,0,1.176-2.921A4.077,4.077,0,0,0,13.73,8,4.134,4.134,0,0,0,16.6,9.307a4.128,4.128,0,0,0-2.04.632,4.28,4.28,0,0,0-1.47,1.541,4.188,4.188,0,0,0-.534,2.075A4.265,4.265,0,0,0,8.519,9.307ZM11.476,18.9a3.181,3.181,0,0,0,3.037-3.18,3.182,3.182,0,0,0,3.028,3.18,3.182,3.182,0,0,0-3.028,3.18,3.067,3.067,0,0,0-.882-2.2A3.12,3.12,0,0,0,11.476,18.9Zm6.066-4.222a3.166,3.166,0,0,0,3.019-3.189,3.181,3.181,0,0,0,3.037,3.18,3.181,3.181,0,0,0-3.037,3.18,3.15,3.15,0,0,0-3.019-3.171Z" transform="translate(79.785 52.27)" fill="#f87577"/>
  </g>
</svg>
