<svg xmlns="http://www.w3.org/2000/svg" width="15.852" height="10.627" viewBox="0 0 15.852 10.627">
  <g id="Group_1948" data-name="Group 1948" transform="translate(0.5 0.501)" stroke="#2D43AA" stroke-width="0.4">
    <path id="Path_3156" data-name="Path 3156" d="M-19897.664,1033.661a.5.5,0,0,1-.354-.146l-3.781-3.782a.5.5,0,0,1,0-.707l3.781-3.782a.5.5,0,0,1,.707,0,.5.5,0,0,1,0,.707l-3.428,3.428,3.428,3.429a.5.5,0,0,1,0,.707A.5.5,0,0,1-19897.664,1033.661Z" transform="translate(19901.445 -1024.713)" fill="#2D43AA"/>
    <path id="Path_3157" data-name="Path 3157" d="M-19901.445,1033.661a.5.5,0,0,1-.354-.146.5.5,0,0,1,0-.707l3.428-3.429-3.428-3.428a.5.5,0,0,1,0-.707.5.5,0,0,1,.707,0l3.781,3.782a.5.5,0,0,1,0,.707l-3.781,3.782A.5.5,0,0,1-19901.445,1033.661Z" transform="translate(19912.516 -1024.713)" fill="#2D43AA"/>
    <path id="Path_3158" data-name="Path 3158" d="M-19896.225,1035a.5.5,0,0,1-.109-.012.5.5,0,0,1-.379-.6l2.152-9.626a.5.5,0,0,1,.6-.379.5.5,0,0,1,.379.6l-2.152,9.626A.5.5,0,0,1-19896.225,1035Z" transform="translate(19902.646 -1024.878)" fill="#2D43AA"/>
  </g>
</svg>
