<svg xmlns="http://www.w3.org/2000/svg" width="14.728" height="14.728" viewBox="0 0 14.728 14.728">
  <g id="Icon_ionic-ios-help-circle-outline" data-name="Icon ionic-ios-help-circle-outline" transform="translate(-3.375 -3.375)">
    <path id="Path_3273" data-name="Path 3273" d="M10.739,4.366A6.37,6.37,0,1,1,6.232,6.232a6.33,6.33,0,0,1,4.507-1.866m0-.991A7.364,7.364,0,1,0,18.1,10.739a7.363,7.363,0,0,0-7.364-7.364Z"/>
    <path id="Path_3274" data-name="Path 3274" d="M15.791,11.25c1.328,0,2.241.736,2.241,1.795a1.732,1.732,0,0,1-.995,1.572c-.616.358-.825.62-.825,1.073v.28H14.983l-.011-.3a1.474,1.474,0,0,1,.836-1.558c.6-.358.85-.584.85-1.023a.859.859,0,0,0-.952-.761.9.9,0,0,0-.949.871H13.5A2.021,2.021,0,0,1,15.791,11.25Zm-.931,6.068a.76.76,0,1,1,.758.729A.741.741,0,0,1,14.859,17.318Z" transform="translate(-5.027 -3.91)"/>
  </g>
</svg>
