<svg xmlns="http://www.w3.org/2000/svg" width="18.145" height="17.146" viewBox="0 0 18.145 17.146">
  <path id="Union_14" data-name="Union 14" d="M21088.7-6229.854a.5.5,0,0,1-.5-.5.5.5,0,0,1,.5-.5h17a.5.5,0,0,1,.5.5.5.5,0,0,1-.5.5Zm-.449-4.709a.5.5,0,0,1-.09-.7l5.254-6.823a.5.5,0,0,1,.7-.09l3.762,2.86,6.193-6.685h-3.34a.5.5,0,0,1-.5-.5.5.5,0,0,1,.5-.5h4.594a.5.5,0,0,1,.5.5v4.465a.5.5,0,0,1-.5.5.5.5,0,0,1-.5-.5v-3.3l-6.521,7.033a.5.5,0,0,1-.672.058l-3.729-2.833-4.947,6.425a.472.472,0,0,1-.346.191.479.479,0,0,1-.061,0A.477.477,0,0,1,21088.248-6234.563Z" transform="translate(-21088.055 6247)" fill="#2D43AA"/>
</svg>
