<svg xmlns="http://www.w3.org/2000/svg" width="21.212" height="25.489" viewBox="0 0 21.212 25.489">
  <g id="Group_1275" data-name="Group 1275" transform="translate(-18.437 -16.558)">
    <path id="Rectangle_697" data-name="Rectangle 697" d="M1.665-.75H18.047a2.418,2.418,0,0,1,2.415,2.415V22.324a2.418,2.418,0,0,1-2.415,2.415H1.665A2.418,2.418,0,0,1-.75,22.324V1.665A2.418,2.418,0,0,1,1.665-.75ZM18.047,23.239a.916.916,0,0,0,.915-.915V1.665A.916.916,0,0,0,18.047.75H1.665a.916.916,0,0,0-.915.915V22.324a.916.916,0,0,0,.915.915Z" transform="translate(38.898 41.296) rotate(-180)" fill="#5064e3"/>
    <path id="Line_356" data-name="Line 356" d="M0,24.069a.75.75,0,0,1-.75-.75V0A.75.75,0,0,1,0-.75.75.75,0,0,1,.75,0V23.319A.75.75,0,0,1,0,24.069Z" transform="translate(22.162 17.568)" fill="#5064e3"/>
    <path id="Rectangle_698" data-name="Rectangle 698" d="M-.75-.75h11.1v6.6H-.75Zm9.6,1.5H.75v3.6h8.1Z" transform="translate(35.254 26.792) rotate(180)" fill="#5064e3"/>
    <path id="Line_357" data-name="Line 357" d="M6.876.75H0A.75.75,0,0,1-.75,0,.75.75,0,0,1,0-.75H6.876a.75.75,0,0,1,.75.75A.75.75,0,0,1,6.876.75Z" transform="translate(27.076 33.809)" fill="#5064e3"/>
    <path id="Line_358" data-name="Line 358" d="M6.876.75H0A.75.75,0,0,1-.75,0,.75.75,0,0,1,0-.75H6.876a.75.75,0,0,1,.75.75A.75.75,0,0,1,6.876.75Z" transform="translate(27.076 36.851)" fill="#5064e3"/>
  </g>
</svg>
