<svg xmlns="http://www.w3.org/2000/svg" width="21.826" height="19.116" viewBox="0 0 21.826 19.116">
  <g id="Data_Cases_" data-name="Data Cases " transform="translate(-39.715 -40.986)">
    <g id="Group_1406" data-name="Group 1406" transform="translate(40.465 41.736)">
      <path id="Path_3051" data-name="Path 3051" d="M58.758,45.124H51.527a.677.677,0,0,1-.625-.416l-.729-1.729A2.027,2.027,0,0,0,48.3,41.736H42.5a2.035,2.035,0,0,0-2.033,2.033V57.32A2.035,2.035,0,0,0,42.5,59.352H58.758a2.035,2.035,0,0,0,2.033-2.033V47.157A2.034,2.034,0,0,0,58.758,45.124Z" transform="translate(-40.465 -41.736)" fill="none" stroke="#5064e3" stroke-miterlimit="10" stroke-width="1.5"/>
    </g>
    <g id="Group_1334" data-name="Group 1334" transform="translate(45.131 48.867)">
      <path id="Path_3001" data-name="Path 3001" d="M47.854,54.5l-2.648-2.649L47.854,49.2" transform="translate(-45.206 -48.58)" fill="none" stroke="#5064e3" stroke-linecap="round" stroke-linejoin="round" stroke-width="1.5"/>
      <path id="Path_3002" data-name="Path 3002" d="M51.939,54.5l2.648-2.649L51.939,49.2" transform="translate(-44.185 -48.58)" fill="none" stroke="#5064e3" stroke-linecap="round" stroke-linejoin="round" stroke-width="1.5"/>
      <path id="Path_3003" data-name="Path 3003" d="M50.619,48.662l-1.508,6.743" transform="translate(-44.614 -48.662)" fill="none" stroke="#5064e3" stroke-linecap="round" stroke-width="1.5"/>
    </g>
  </g>
</svg>
