<svg xmlns="http://www.w3.org/2000/svg" width="21.213" height="25.488" viewBox="0 0 21.213 25.488">
  <path id="Union_12" data-name="Union 12" d="M10593.415,8835.489a2.419,2.419,0,0,1-2.415-2.416v-20.659a2.416,2.416,0,0,1,2.415-2.413h16.382a2.416,2.416,0,0,1,2.416,2.413v20.659a2.419,2.419,0,0,1-2.416,2.416Zm-.916-23.075v20.659a.918.918,0,0,0,.916.916h16.382a.916.916,0,0,0,.914-.916v-20.659a.915.915,0,0,0-.914-.914h-16.382A.918.918,0,0,0,10592.5,8812.414Zm5.141,19.629a.75.75,0,0,1,0-1.5h6.876a.75.75,0,0,1,0,1.5Zm0-3.042a.75.75,0,0,1,0-1.5h6.876a.75.75,0,0,1,0,1.5Zm10.392-1.391-4.85-4.854a5.564,5.564,0,1,1,1.121-1.124l4.855,4.853a.8.8,0,0,1-1.127,1.126Zm-8.187-13.289a3.555,3.555,0,1,0,.02,0Zm-.152,4.759a.791.791,0,0,1-.287-.122.679.679,0,0,1-.123-.1,1.1,1.1,0,0,1-.1-.122.855.855,0,0,1-.071-.136.734.734,0,0,1-.046-.149.782.782,0,0,1,0-.309.681.681,0,0,1,.046-.149.884.884,0,0,1,.071-.139,1.2,1.2,0,0,1,.1-.122,1.3,1.3,0,0,1,.123-.1,1.117,1.117,0,0,1,.136-.072.937.937,0,0,1,.151-.045.751.751,0,0,1,.31,0,1,1,0,0,1,.148.045.986.986,0,0,1,.139.072.827.827,0,0,1,.12.1.8.8,0,0,1,.231.564.752.752,0,0,1-.016.154.734.734,0,0,1-.046.149.781.781,0,0,1-.071.136.843.843,0,0,1-.1.122.66.66,0,0,1-.12.1.837.837,0,0,1-.287.122.883.883,0,0,1-.31,0Zm1.987,0a.775.775,0,0,1-.288-.119.685.685,0,0,1-.218-.219.793.793,0,0,1-.12-.285.879.879,0,0,1,0-.312.714.714,0,0,1,.048-.146.623.623,0,0,1,.072-.139.7.7,0,0,1,.1-.122,1.047,1.047,0,0,1,.119-.1,1.559,1.559,0,0,1,.139-.072.976.976,0,0,1,.149-.045.794.794,0,0,1,.95.78.752.752,0,0,1-.016.154.976.976,0,0,1-.045.149,1.2,1.2,0,0,1-.072.136,1,1,0,0,1-.1.122.8.8,0,0,1-.564.232A.754.754,0,0,1,10601.68,8819.077Zm-4.384-.216a.749.749,0,0,1-.1-.122.793.793,0,0,1-.12-.285.761.761,0,0,1,0-.312.714.714,0,0,1,.048-.146.623.623,0,0,1,.072-.139.749.749,0,0,1,.1-.122.8.8,0,0,1,.716-.216.976.976,0,0,1,.149.045,1.239,1.239,0,0,1,.139.072,1.057,1.057,0,0,1,.12.1.805.805,0,0,1,.234.564.754.754,0,0,1-.017.154.976.976,0,0,1-.045.149,1.057,1.057,0,0,1-.072.136.857.857,0,0,1-.1.122.7.7,0,0,1-.12.1.81.81,0,0,1-.288.122.985.985,0,0,1-.154.014A.794.794,0,0,1,10597.3,8818.861Z" transform="translate(-10591 -8810.001)" fill="#5064e3"/>
</svg>
