<svg xmlns="http://www.w3.org/2000/svg" width="12.892" height="14.132" viewBox="0 0 12.892 14.132">
  <g id="Group_2496" data-name="Group 2496" transform="translate(-29.929 -102.434)">
    <path id="noun_database_652731" d="M14.856,2.109C14.569,1.046,12.433,0,8.7,0S2.823,1.046,2.536,2.109a.243.243,0,0,0-.036.121V11.4a.233.233,0,0,0,.029.112c.293,1.213,2.911,2.119,6.167,2.119s5.863-.9,6.165-2.111a.245.245,0,0,0,.031-.12V2.231A.243.243,0,0,0,14.856,2.109Zm-.479,6.314a.61.61,0,0,1-.029.09.712.712,0,0,1-.035.074.84.84,0,0,1-.057.091c-.016.023-.035.046-.054.069s-.057.065-.09.1-.042.039-.064.058c-.041.035-.083.071-.13.106l-.064.045c-.056.039-.115.077-.179.115l-.053.03c-.074.042-.151.083-.234.123l-.033.015c-.093.044-.19.087-.294.129l-.009,0a9.608,9.608,0,0,1-2.122.538l-.013,0q-.245.036-.5.064l-.086.008c-.15.016-.3.03-.458.041-.071.005-.146.008-.219.012-.117.007-.234.015-.354.019-.2.006-.4.01-.6.01s-.406,0-.6-.011c-.12,0-.237-.012-.354-.019-.073,0-.147-.007-.219-.012-.156-.011-.308-.026-.458-.041l-.086-.008q-.258-.028-.5-.064l-.013,0A9.608,9.608,0,0,1,4.34,9.467l-.009,0c-.1-.042-.2-.085-.294-.129L4,9.32c-.083-.04-.16-.081-.234-.123l-.053-.03c-.064-.038-.123-.076-.179-.115l-.064-.045c-.047-.035-.09-.07-.13-.106-.022-.019-.044-.039-.064-.058a1.294,1.294,0,0,1-.09-.1c-.019-.023-.038-.046-.054-.069a.924.924,0,0,1-.057-.091.767.767,0,0,1-.035-.074.6.6,0,0,1-.029-.09A.536.536,0,0,1,3,8.3.529.529,0,0,1,3,8.219.247.247,0,0,0,3,8.109V6.269l.023.019c.054.048.109.095.171.141.934.706,2.8,1.255,5.507,1.255s4.557-.544,5.495-1.246a2.523,2.523,0,0,0,.206-.168h0v1.84a.247.247,0,0,0-.008.11A.5.5,0,0,1,14.4,8.3.536.536,0,0,1,14.377,8.423Zm.02-5.128v1.84a.247.247,0,0,0-.008.11.5.5,0,0,1,.008.084.536.536,0,0,1-.02.12.61.61,0,0,1-.029.09.712.712,0,0,1-.035.074.84.84,0,0,1-.057.091c-.016.023-.035.046-.054.069s-.057.065-.09.1-.042.039-.064.058c-.041.035-.083.071-.13.106l-.064.045c-.056.039-.115.077-.179.115l-.053.03c-.074.042-.151.083-.234.123l-.033.015c-.093.044-.19.087-.294.129l-.009,0a9.608,9.608,0,0,1-2.122.538l-.013,0q-.245.036-.5.064l-.086.008c-.15.016-.3.03-.458.041-.071.005-.146.008-.219.012-.117.007-.234.015-.354.019-.2.006-.4.01-.6.01s-.406,0-.6-.011c-.12,0-.237-.012-.354-.019-.073,0-.147-.007-.219-.012-.156-.011-.308-.026-.458-.041L6.977,7.1q-.258-.028-.5-.064l-.013,0A9.608,9.608,0,0,1,4.34,6.493l-.009,0c-.1-.042-.2-.085-.294-.129L4,6.345c-.083-.04-.16-.081-.234-.123l-.053-.03c-.064-.038-.123-.076-.179-.115l-.064-.045c-.047-.035-.09-.07-.13-.106-.022-.019-.044-.039-.064-.058a1.293,1.293,0,0,1-.09-.1c-.019-.023-.038-.046-.054-.069a.924.924,0,0,1-.057-.091.767.767,0,0,1-.035-.074.6.6,0,0,1-.029-.09A.536.536,0,0,1,3,5.329.529.529,0,0,1,3,5.245.247.247,0,0,0,3,5.135V3.295c.03.027.064.054.1.08l.053.045c.074.058.155.116.242.173l.057.035q.109.068.231.133l.091.048q.136.069.285.134l.048.022c.116.049.24.1.368.142l.109.037q.153.052.317.1l.118.034c.145.04.295.078.452.114L5.53,4.4c.139.03.282.058.43.085l.152.026q.211.035.434.063l.113.015c.184.022.375.041.571.058l.148.01q.235.017.481.028l.18.008c.214.007.431.012.657.012s.443-.005.657-.012l.18-.008q.246-.011.481-.028l.148-.01c.2-.016.387-.035.571-.058l.113-.015q.223-.029.434-.063l.152-.026c.148-.026.291-.054.43-.085l.067-.014c.157-.035.307-.074.452-.114l.118-.034q.164-.048.317-.1l.109-.037c.128-.046.252-.093.368-.142l.048-.022q.15-.065.285-.134l.091-.048q.122-.065.231-.133l.057-.035c.087-.056.167-.114.242-.173l.053-.045C14.333,3.348,14.367,3.322,14.4,3.295ZM8.7.5c3.36,0,5.7.979,5.7,1.859S12.056,4.213,8.7,4.213,3,3.234,3,2.355,5.337.5,8.7.5Zm5.7,10.832a.253.253,0,0,0-.008.033c-.141.857-2.462,1.775-5.693,1.775S3.144,12.218,3,11.361A.27.27,0,0,0,3,11.328V9.243l.023.019c.054.048.109.095.171.141.934.706,2.8,1.255,5.507,1.255s4.557-.544,5.495-1.246a2.523,2.523,0,0,0,.206-.168h0Z" transform="translate(27.679 102.684)" fill="#727a9d"/>
    <path id="noun_database_652731_-_Outline" data-name="noun_database_652731 - Outline" d="M8.7-.25c3.961,0,6.058,1.133,6.393,2.265a.473.473,0,0,1,.053.215V11.4a.5.5,0,0,1-.046.209c-.183.668-.919,1.24-2.132,1.656a13.637,13.637,0,0,1-4.268.616,13.623,13.623,0,0,1-4.276-.618c-1.215-.418-1.949-.993-2.127-1.664a.484.484,0,0,1-.043-.2V2.231A.473.473,0,0,1,2.3,2.015C2.638.883,4.735-.25,8.7-.25ZM4.189.979a11.121,11.121,0,0,1,3.3-.69,10.875,10.875,0,0,0-3.077.6Q4.3.933,4.189.979Zm9.012,0q-.107-.045-.22-.088A10.874,10.874,0,0,0,9.9.289,11.124,11.124,0,0,1,13.2.978ZM8.7,3.963c3.277,0,5.451-.968,5.451-1.609S11.973.746,8.7.746s-5.451.968-5.451,1.609S5.42,3.963,8.7,3.963Zm-1.388.442a10.87,10.87,0,0,1-3.129-.68l.016.007c.106.045.222.09.355.137l.065.022.041.014c.1.032.2.064.307.1L5,4.014l.075.022c.154.043.3.079.441.111l.031.006.034.007c.129.028.271.056.421.083l.149.025c.134.022.277.043.425.062l.052.007.06.008c.175.021.364.04.562.057Zm2.781,0,.053,0c.191-.016.38-.035.562-.057l.06-.008.052-.007c.147-.019.29-.04.425-.062l.148-.025c.15-.027.292-.055.421-.083l.037-.008.03-.006c.137-.031.281-.067.439-.11l.078-.022L12.43,4c.109-.032.21-.064.307-.1l.04-.014.065-.022c.135-.048.251-.093.354-.137l.018-.008A10.864,10.864,0,0,1,10.089,4.405Zm4.058.7V3.8l-.005,0-.041.025-.02.012c-.075.047-.157.094-.245.141l-.1.05c-.094.048-.194.1-.3.141l-.015.007-.036.016c-.112.047-.237.1-.381.147l-.074.025-.038.013c-.1.035-.211.068-.327.1l-.037.011-.086.025c-.166.046-.318.084-.464.116l-.04.008-.028.006c-.135.029-.282.058-.439.086l-.155.026c-.141.023-.29.045-.442.065l-.046.006-.069.009c-.188.023-.384.043-.581.059l-.086.006-.063,0c-.159.012-.324.021-.489.029h-.01l-.172.007c-.255.009-.466.013-.666.013s-.411,0-.665-.013l-.177-.008H7.848c-.165-.007-.33-.017-.488-.029l-.049,0L7.21,4.9c-.2-.017-.4-.037-.581-.059L6.56,4.832l-.046-.006c-.154-.02-.3-.042-.442-.065l-.155-.026c-.156-.028-.3-.057-.439-.086l-.024,0-.046-.009c-.15-.034-.3-.072-.462-.116L4.86,4.493l-.037-.011c-.118-.034-.224-.068-.327-.1l-.038-.013-.075-.025c-.142-.051-.267-.1-.382-.147l-.035-.016L3.95,4.171c-.1-.044-.2-.091-.3-.14l-.1-.05c-.087-.047-.169-.094-.245-.141l-.02-.012L3.251,3.8l-.005,0V5.1a.488.488,0,0,1,0,.181.287.287,0,0,0,0,.043.459.459,0,0,0,.011.054l0,.009a.354.354,0,0,0,.017.053.52.52,0,0,0,.023.048.672.672,0,0,0,.041.066c.013.018.029.038.042.052a1.038,1.038,0,0,0,.073.079c.017.016.033.031.05.045l.005,0c.043.037.078.066.114.092l.037.026.022.015c.059.041.111.074.162.1l.027.016.023.013c.076.043.147.081.219.115l.007,0,.027.013c.093.044.185.084.277.121h0l.008,0A9.42,9.42,0,0,0,6.5,6.783l.012,0c.164.024.33.045.493.063l.037,0,.048,0c.172.018.315.031.45.041l.131.007.085,0,.088.005c.086.005.172.01.26.013.2.007.4.011.594.011s.38,0,.595-.01c.095,0,.187-.009.284-.015l.063,0L9.733,6.9,9.854,6.9c.135-.01.278-.023.45-.041l.047,0,.038,0c.168-.018.333-.04.49-.063l.018,0a9.416,9.416,0,0,0,2.063-.522l.009,0c.09-.036.182-.076.279-.122l.01,0,.02-.009c.07-.034.14-.071.221-.116L13.517,6l.028-.016c.054-.032.106-.065.166-.106l.015-.01.042-.029c.037-.027.072-.056.115-.093.019-.017.037-.033.054-.049s.047-.048.074-.08c.013-.015.029-.034.041-.052a.6.6,0,0,0,.042-.066.469.469,0,0,0,.023-.048.36.36,0,0,0,.017-.053l0-.009a.45.45,0,0,0,.011-.055.258.258,0,0,0,0-.042A.49.49,0,0,1,14.147,5.1Zm-9.9,1.622L4.235,6.72c-.1-.04-.2-.084-.3-.133L3.9,6.573a9.654,9.654,0,0,0,3.567.82c-.13-.01-.268-.023-.431-.039L7,7.349l-.048,0c-.169-.019-.34-.04-.509-.065l-.018,0A9.929,9.929,0,0,1,4.251,6.726Zm5.768.659a9.591,9.591,0,0,0,3.45-.8l-.006,0-.006,0c-.1.049-.2.093-.3.133l-.01,0a9.92,9.92,0,0,1-2.178.553l-.013,0c-.163.024-.335.046-.511.065l-.049,0-.038,0C10.232,7.367,10.122,7.377,10.02,7.386Zm4.127.693V6.773A10.594,10.594,0,0,1,8.7,7.933a10.6,10.6,0,0,1-5.451-1.16V8.079a.488.488,0,0,1,0,.181.287.287,0,0,0,0,.043.459.459,0,0,0,.011.054l0,.009a.354.354,0,0,0,.017.053.52.52,0,0,0,.023.048.672.672,0,0,0,.041.066c.013.018.029.038.042.052a1.042,1.042,0,0,0,.073.079c.016.016.033.031.049.045l.006.005c.042.037.078.066.114.092l.037.026.022.015c.059.041.111.074.162.1l.027.016.023.013c.076.043.147.081.219.115l.007,0,.027.013c.093.044.185.084.277.121h0l.008,0A9.42,9.42,0,0,0,6.5,9.757l.012,0c.164.024.33.045.493.063l.037,0,.047,0c.172.018.315.031.45.041l.131.007.085,0,.088.005c.086.005.172.01.26.013.2.007.4.011.594.011s.38,0,.595-.01c.095,0,.187-.009.284-.015l.063,0,.095-.005.121-.007c.135-.01.278-.023.45-.041l.047,0,.038,0c.168-.018.333-.04.49-.063l.018,0a9.416,9.416,0,0,0,2.063-.522l.009,0c.09-.036.182-.076.279-.122l.01,0,.02-.009c.07-.034.14-.071.221-.116l.018-.01.029-.016c.054-.032.106-.065.166-.106l.015-.01.042-.029c.037-.027.072-.056.115-.093.019-.017.037-.033.054-.049s.047-.048.074-.08c.013-.015.029-.034.041-.052a.6.6,0,0,0,.042-.066.469.469,0,0,0,.023-.048.36.36,0,0,0,.017-.053l0-.009a.45.45,0,0,0,.011-.055.258.258,0,0,0,0-.042A.49.49,0,0,1,14.147,8.079ZM4.251,9.7l-.016-.007c-.1-.04-.2-.084-.3-.133L3.9,9.547a9.654,9.654,0,0,0,3.567.82c-.13-.01-.268-.023-.431-.039l-.038,0-.048,0c-.169-.019-.34-.04-.509-.065l-.018,0A9.929,9.929,0,0,1,4.251,9.7Zm5.768.659a9.591,9.591,0,0,0,3.45-.8l-.006,0-.005,0c-.1.049-.2.093-.3.133l-.01,0a9.92,9.92,0,0,1-2.178.553l-.013,0c-.163.024-.335.046-.511.065l-.049,0-.038,0C10.232,10.341,10.122,10.351,10.02,10.36Zm4.127.937V9.747A10.594,10.594,0,0,1,8.7,10.908a10.6,10.6,0,0,1-5.451-1.16V11.3l0,.021c.093.565,1.991,1.569,5.446,1.569s5.354-1,5.446-1.566Z" transform="translate(27.679 102.684)" fill="#727a9d"/>
  </g>
</svg>
