<svg xmlns="http://www.w3.org/2000/svg" width="21.826" height="19.116" viewBox="0 0 21.826 19.116">
  <g id="Group_1407" data-name="Group 1407" transform="translate(-39.715 -40.986)">
    <g id="Group_1406" data-name="Group 1406" transform="translate(40.465 41.736)">
      <path id="Path_3051" data-name="Path 3051" d="M42.5,40.986h5.8a2.775,2.775,0,0,1,2.564,1.7l.711,1.685h7.182a2.786,2.786,0,0,1,2.783,2.783V57.32A2.786,2.786,0,0,1,58.758,60.1H42.5a2.786,2.786,0,0,1-2.783-2.783V43.769A2.786,2.786,0,0,1,42.5,40.986ZM58.758,58.6a1.284,1.284,0,0,0,1.283-1.283V47.157a1.284,1.284,0,0,0-1.283-1.283H51.527A1.426,1.426,0,0,1,50.212,45l-.729-1.729a1.279,1.279,0,0,0-1.182-.785H42.5a1.284,1.284,0,0,0-1.283,1.283V57.32A1.284,1.284,0,0,0,42.5,58.6Z" transform="translate(-40.465 -41.736)" fill="#5064e3"/>
    </g>
    <g id="Group_1334" data-name="Group 1334" transform="translate(45.131 48.867)">
      <path id="Path_3001" data-name="Path 3001" d="M47.854,55.248a.748.748,0,0,1-.53-.22l-2.648-2.649a.75.75,0,0,1,0-1.06l2.648-2.649a.75.75,0,0,1,1.061,1.06l-2.118,2.119,2.118,2.119a.75.75,0,0,1-.53,1.28Z" transform="translate(-45.206 -48.58)" fill="#5064e3"/>
      <path id="Path_3002" data-name="Path 3002" d="M51.939,55.248a.75.75,0,0,1-.53-1.28l2.118-2.119L51.409,49.73a.75.75,0,0,1,1.061-1.06l2.648,2.649a.75.75,0,0,1,0,1.06l-2.648,2.649A.748.748,0,0,1,51.939,55.248Z" transform="translate(-44.185 -48.58)" fill="#5064e3"/>
      <path id="Path_3003" data-name="Path 3003" d="M49.112,56.155a.751.751,0,0,1-.733-.914L49.887,48.5a.75.75,0,0,1,1.464.327l-1.508,6.743A.75.75,0,0,1,49.112,56.155Z" transform="translate(-44.614 -48.662)" fill="#5064e3"/>
    </g>
  </g>
</svg>
