<svg xmlns="http://www.w3.org/2000/svg" width="20.132" height="16.73" viewBox="0 0 20.132 16.73">
  <g id="Group_2501" data-name="Group 2501" transform="translate(-1.934 -3.635)">
    <path id="Path_3290" data-name="Path 3290" d="M15.1,14.676l-2.721-2.721a.543.543,0,0,0-.769,0L8.894,14.676a.544.544,0,0,0,.77.769l1.792-1.792v6.168a.544.544,0,1,0,1.088,0V13.653l1.792,1.792a.544.544,0,1,0,.769-.769Z" fill="#5064e3"/>
    <path id="Path_3291" data-name="Path 3291" d="M17.963,9.1A5.985,5.985,0,0,0,6.015,9.62a5.824,5.824,0,0,0,.059.821c-.065,0-.13-.005-.2-.005a3.945,3.945,0,0,0,0,7.89h3.4a.544.544,0,0,0,0-1.088h-3.4a2.857,2.857,0,1,1,.747-5.611.545.545,0,0,0,.666-.674,4.9,4.9,0,1,1,9.6-1.334.544.544,0,0,0,.544.544,3.537,3.537,0,1,1,0,7.074H14.72a.544.544,0,0,0,0,1.088h2.721a4.625,4.625,0,0,0,.522-9.22Z" fill="#5064e3"/>
  </g>
</svg>
