<svg xmlns="http://www.w3.org/2000/svg" width="14.602" height="11.729" viewBox="0 0 14.602 11.729">
  <g id="Group_2500" data-name="Group 2500" transform="translate(0.25 0.25)">
    <path id="Path_3292" data-name="Path 3292" d="M14.1,1.332C14.1.033,10.749,0,10.368,0A7.554,7.554,0,0,0,7.051.651,7.55,7.55,0,0,0,3.733,0C3.351,0,0,.038,0,1.332v9.488H0a.414.414,0,0,0,.821.057,5.233,5.233,0,0,1,2.913-.556,5.14,5.14,0,0,1,2.908.559.414.414,0,0,0,.819,0,5.2,5.2,0,0,1,2.908-.558,5.179,5.179,0,0,1,2.91.559.414.414,0,0,0,.822-.062h0V1.355C14.1,1.348,14.1,1.342,14.1,1.332ZM6.635,10.819h0v.027a.123.123,0,0,1,0-.027Zm.832.027v-.027h0a.123.123,0,0,1,0,.032Zm2.9-1.358a9.272,9.272,0,0,0-2.9.433,5.186,5.186,0,0,1-.832,0,9.2,9.2,0,0,0-2.9-.436,9.231,9.231,0,0,0-2.9.434V1.38a5.312,5.312,0,0,1,2.9-.548,5.308,5.308,0,0,1,2.9.551V1.4q0,.017,0,.035a.4.4,0,0,0,.013.042l.013.032a.406.406,0,0,0,.02.038l.018.028.027.033.023.025.035.028.027.02.042.022.028.013.05.015h.027a.408.408,0,0,0,.166,0h.027l.05-.015.028-.013.042-.022.027-.02.035-.028.023-.025.027-.033L7.4,1.55a.4.4,0,0,0,.02-.038l.013-.032a.406.406,0,0,0,.013-.042V1.383A5.394,5.394,0,0,1,10.368.832a5.312,5.312,0,0,1,2.9.548V9.922A9.237,9.237,0,0,0,10.368,9.488Z" fill="#727a9d"/>
    <path id="Path_3293" data-name="Path 3293" d="M34.7,11.455a.294.294,0,0,0-.044-.036l-.021-.011-.029-.015-.028-.009-.025-.008a.29.29,0,0,0-.115,0l-.025.008-.028.009-.029.015-.021.011a.288.288,0,0,0-.079.079c0,.007-.008.014-.011.021a.272.272,0,0,0-.015.029.285.285,0,0,0-.009.029.037.037,0,0,1-.007.025.3.3,0,0,0,0,.056v3.921a.3.3,0,0,0,0,.056.036.036,0,0,0,.007.025.285.285,0,0,0,.009.029.272.272,0,0,0,.015.029.042.042,0,0,0,.011.021.288.288,0,0,0,.079.079l.021.011.029.015.029.009.025.007a.282.282,0,0,0,.115,0l.025-.007.029-.009.029-.015.021-.011a.3.3,0,0,0,.044-.036l1.957-1.962a.287.287,0,0,0,0-.407Zm1.35,2.163-1.264,1.264V12.354Z" transform="translate(-28.432 -7.969)" fill="#727a9d"/>
    <g id="Group_2499" data-name="Group 2499">
      <path id="Path_3292_-_Outline" data-name="Path 3292 - Outline" d="M3.733-.25A8.209,8.209,0,0,1,7.051.356,8.212,8.212,0,0,1,10.368-.25c.934,0,3.983.114,3.983,1.582,0,.013,0,.024,0,.034v9.461a.665.665,0,0,1-1.3.188,5.986,5.986,0,0,0-2.686-.442,6.012,6.012,0,0,0-2.683.441.665.665,0,0,1-1.27,0,5.977,5.977,0,0,0-2.682-.442,6.033,6.033,0,0,0-2.691.442A.664.664,0,0,1-.25,10.833v-9.5C-.25.652.4.182,1.676-.065A11.987,11.987,0,0,1,3.733-.25ZM7.051.955l-.142-.1A7.407,7.407,0,0,0,3.733.25C2.333.25.25.538.25,1.332v9.479a.164.164,0,0,0,.325.017l.011-.059.037-.047c.246-.316,1.42-.652,3.11-.652s2.861.338,3.106.657l.039.051.01.063a.164.164,0,0,0,.325,0l0-.025v0H7.28l-.059-.026,0-.016.039-.051,0-.006-.012-.008,0,0,.012.008a5.211,5.211,0,0,1,3.1-.644c1.7,0,2.873.34,3.11.66l.035.047.01.058a.164.164,0,0,0,.326-.022V1.355c0-.01,0-.02,0-.031C13.838.536,11.764.25,10.368.25A7.411,7.411,0,0,0,7.193.857ZM3.733.582a5.306,5.306,0,0,1,3.094.637l.061.07V1.4l.005.013,0,.009.026.034.024.019.024.012h.015l.025.005a.159.159,0,0,0,.064,0L7.1,1.484l.02,0,.026-.015.023-.02.021-.029,0-.009L7.2,1.4V1.285l.067-.072a5.479,5.479,0,0,1,3.1-.63,5.362,5.362,0,0,1,3.088.632l.063.071v9.009l-.345-.141a9.1,9.1,0,0,0-2.807-.416,9.279,9.279,0,0,0-2.767.4.583.583,0,0,1-.324.058l-.121,0,.24.314-.856-.351a9.064,9.064,0,0,0-2.806-.417,9.1,9.1,0,0,0-2.807.416l-.345.141V1.288l.06-.07A5.292,5.292,0,0,1,3.733.582ZM6.4,1.51a6.223,6.223,0,0,0-2.665-.428A6.337,6.337,0,0,0,1.082,1.5V9.569a10.413,10.413,0,0,1,2.651-.332,9.509,9.509,0,0,1,2.947.435l.156.007c.131.006.311.015.44.015l.089,0,.008,0a9.415,9.415,0,0,1,3-.451,10.413,10.413,0,0,1,2.651.332V1.5a6.336,6.336,0,0,0-2.651-.42,6.265,6.265,0,0,0-2.679.431c-.005.019-.011.037-.018.055l-.02.047a.658.658,0,0,1-.032.062l-.038.057-.039.048-.049.049L7.407,1.9l-.114.057-.1.031H7.15a.66.66,0,0,1-.212,0H6.9l-.1-.031L6.681,1.9l-.1-.077-.048-.052-.041-.054-.024-.037a.661.661,0,0,1-.032-.062l-.02-.046C6.41,1.549,6.4,1.53,6.4,1.51Z" fill="#727a9d"/>
      <path id="Path_3293_-_Outline" data-name="Path 3293 - Outline" d="M34.5,11.12a.541.541,0,0,1,.107.011l.026.007.079.027a.525.525,0,0,1,.051.026l.035.02a.544.544,0,0,1,.081.066l1.96,1.96a.537.537,0,0,1,0,.761l-1.956,1.961a.551.551,0,0,1-.082.067l-.035.021a.538.538,0,0,1-.05.026l-.026.01-.079.023a.534.534,0,0,1-.217,0l-.05-.014-.049-.016-.092-.05a.536.536,0,0,1-.141-.138.293.293,0,0,1-.041-.07l-.013-.026L34,15.778l-.008-.022a.281.281,0,0,1-.024-.109.549.549,0,0,1,0-.078v-3.9a.549.549,0,0,1,0-.09l.007-.07.014-.019.01-.03.005-.013,0-.01v-.013l.042-.063a.536.536,0,0,1,.148-.148l.035-.021a.526.526,0,0,1,.051-.026l.023-.009.082-.025A.541.541,0,0,1,34.5,11.12Zm0,.5h0l-.024.01-.006.01V15.6l.006.01h0l.023.009h.005l.024-.01,0,0,1.956-1.96a.037.037,0,0,0,0-.053l-1.959-1.959h0Zm.039.13,1.868,1.868-1.868,1.868Zm1.16,1.868-.66-.66v1.321Z" transform="translate(-28.432 -7.969)" fill="#727a9d"/>
    </g>
  </g>
</svg>
