<svg xmlns="http://www.w3.org/2000/svg" width="23.953" height="20.387" viewBox="0 0 23.953 20.387">
  <g id="noun_discussion_1451321" transform="translate(-1.5 -10.699)">
    <path id="Path_3074" data-name="Path 3074" d="M18.325,44.568a2.348,2.348,0,0,0-.038-.364,3.49,3.49,0,0,0-1.38-2.338,3.607,3.607,0,0,0-2.185-.728h-3.43a4.384,4.384,0,0,0,.153.537,4.09,4.09,0,0,0,.441.8h2.836a2.255,2.255,0,0,1,1.38.46,2.229,2.229,0,0,1,.824,1.265,2.907,2.907,0,0,1,.057.4,8.148,8.148,0,0,1-.345,3.373.019.019,0,0,1-.019.019,5.239,5.239,0,0,1-.747,1.265,5.377,5.377,0,0,1-2.625,1.82,5.847,5.847,0,0,1-2.28.211c-.326-.019-.69-.019-1.111-.019H5.141a1.814,1.814,0,0,0-1.284.537l-.077.077c-.268.268-.613.594-.977.958v-8.2a2.067,2.067,0,0,1,.652-1.552,2.321,2.321,0,0,1,1.571-.652h.038c.939.019,1.82.019,2.664.019a8.313,8.313,0,0,1-.268-1.341c-.766,0-1.533-.019-2.376-.019A3.537,3.537,0,0,0,1.5,44.625V55.414a.245.245,0,0,0,.422.172c.69-.69,2.05-2.05,2.817-2.8l.077-.077a.551.551,0,0,1,.345-.134H9.874a10.864,10.864,0,0,0,3.775-.23,6.652,6.652,0,0,0,3.3-2.28,7.083,7.083,0,0,0,.939-1.61c.057-.153.115-.326.172-.479A11.315,11.315,0,0,0,18.325,44.568Z" transform="translate(0 -24.575)" fill="#5064e3"/>
    <path id="Path_3075" data-name="Path 3075" d="M38.9,39.8c.019.153.038.307.057.441-.019-.1-.019-.192-.038-.287Z" transform="translate(-30.233 -23.525)" fill="#5064e3"/>
    <path id="Path_3076" data-name="Path 3076" d="M51.86,10.7c-3.526.057-6.113.019-9.658.019a3.607,3.607,0,0,0-2.185.728,3.533,3.533,0,0,0-1.4,2.7,18.644,18.644,0,0,0,.019,2.07v.038l.019.172c.019.1.019.192.038.287v.019a1.5,1.5,0,0,1,.038.268l.057.23c0,.019.019.038.019.077l.057.23v.019c.057.172.115.326.172.5a6.623,6.623,0,0,0,6.611,4.158,7.441,7.441,0,0,0,.077-1.341,6,6,0,0,1-2.07-.211,5.308,5.308,0,0,1-2.4-1.533c-.077-.1-.153-.172-.23-.268-.057-.077-.134-.172-.192-.249-.019-.019-.019-.038-.038-.057-.038-.057-.057-.1-.1-.153a1.07,1.07,0,0,0-.1-.153c-.019-.038-.057-.1-.077-.134a.019.019,0,0,0-.019-.019c-.038-.057-.057-.115-.1-.172a2.715,2.715,0,0,1-.153-.345l-.057-.172-.057-.172c-.019-.057-.038-.115-.057-.192-.019-.057-.019-.115-.038-.172V16.85a7.611,7.611,0,0,1-.134-1.495c0-.383,0-.766.019-1.15a2.21,2.21,0,0,1,.881-1.686,2.255,2.255,0,0,1,1.38-.46h3.143c2.108,0,4.1.019,6.515-.019H51.9a2.321,2.321,0,0,1,1.571.652,2.218,2.218,0,0,1,.652,1.552v8.182c-.364-.364-.709-.69-.977-.958l-.077-.077a1.879,1.879,0,0,0-1.284-.517H49.542c0,.441,0,.881-.038,1.341h2.28a.551.551,0,0,1,.345.134l.077.077c.747.747,2.127,2.108,2.817,2.8a.249.249,0,0,0,.422-.172V14.263A3.545,3.545,0,0,0,51.86,10.7Z" transform="translate(-29.991)" fill="#5064e3"/>
  </g>
</svg>
