<svg xmlns="http://www.w3.org/2000/svg" width="28" height="28" viewBox="0 0 28 28">
  <g id="Group_2497" data-name="Group 2497" transform="translate(-1348 -265)">
    <rect id="Rectangle_701" data-name="Rectangle 701" width="28" height="28" rx="14" transform="translate(1348 265)" fill="#fff"/>
    <path id="Rectangle_701_-_Outline" data-name="Rectangle 701 - Outline" d="M14,1A13,13,0,0,0,4.808,23.192,13,13,0,0,0,23.192,4.808,12.915,12.915,0,0,0,14,1m0-1A14,14,0,1,1,0,14,14,14,0,0,1,14,0Z" transform="translate(1348 265)" fill="#5064e3"/>
    <path id="Union_17" data-name="Union 17" d="M.475,12.007A.475.475,0,0,1,0,11.531V9.31a.476.476,0,1,1,.953,0V11.05H9.069V9.158a.478.478,0,0,1,.956,0v2.373a.478.478,0,0,1-.475.476ZM4.828,8.864l-2.6-2.6a.478.478,0,0,1,.675-.675L4.731,7.419V.476a.478.478,0,0,1,.956,0V7.328L7.426,5.591a.478.478,0,0,1,.675.675l-2.6,2.6a.476.476,0,0,1-.675,0Z" transform="translate(1356.988 272.996)" fill="#5064e3"/>
  </g>
</svg>
