<svg xmlns="http://www.w3.org/2000/svg" width="15.756" height="18.87" viewBox="0 0 15.756 18.87">
  <path id="Union_17" data-name="Union 17" d="M19489.033,15238.872a.748.748,0,0,1-.748-.749v-3.49a.749.749,0,1,1,1.5,0v2.736h12.756v-2.976a.751.751,0,0,1,1.5,0v3.729a.752.752,0,0,1-.748.749Zm6.84-4.939-4.084-4.082a.751.751,0,0,1,1.063-1.062l2.869,2.873v-10.91a.751.751,0,0,1,1.5,0v10.769l2.732-2.731a.751.751,0,0,1,1.063,1.063l-4.084,4.082a.747.747,0,0,1-1.061,0Z" transform="translate(-19488.285 -15220.002)" fill="#fff"/>
</svg>
