<svg xmlns="http://www.w3.org/2000/svg" width="19.277" height="20.385" viewBox="0 0 19.277 20.385">
  <g id="Group_866" data-name="Group 866" transform="translate(-43.463 -41.315)">
    <path id="Union_13" data-name="Union 13" d="M20479.18-6283.334l-1.66-1.856a.489.489,0,0,1-.088-.139,9.186,9.186,0,0,1-4.164.992,9.181,9.181,0,0,1-3.867-.851l-1.658,1.853a.494.494,0,0,1-.375.169.522.522,0,0,1-.334-.128.509.509,0,0,1-.037-.709l1.5-1.668a9.244,9.244,0,0,1-4.459-7.9,9.247,9.247,0,0,1,9.232-9.237,9.247,9.247,0,0,1,9.238,9.237,9.237,9.237,0,0,1-4.215,7.75l1.635,1.822a.509.509,0,0,1-.041.709.518.518,0,0,1-.334.128A.492.492,0,0,1,20479.18-6283.334Zm-14.146-10.24a8.243,8.243,0,0,0,8.234,8.235,8.244,8.244,0,0,0,8.24-8.235,8.247,8.247,0,0,0-8.24-8.235A8.246,8.246,0,0,0,20465.033-6293.574Zm10.045,2.761-2.488-2.488a.5.5,0,0,1-.145-.354v-3.912a.5.5,0,0,1,.5-.5.5.5,0,0,1,.5.5v3.707l2.344,2.344a.5.5,0,0,1,0,.7.5.5,0,0,1-.355.149A.51.51,0,0,1,20475.078-6290.813Zm-11.371-9.273a.5.5,0,0,1,0-.709l2.611-2.606a.5.5,0,0,1,.709,0,.5.5,0,0,1,0,.7l-2.611,2.612a.5.5,0,0,1-.355.144A.5.5,0,0,1,20463.707-6300.087Zm18.273-.3-2.307-2.308a.5.5,0,0,1,0-.7.5.5,0,0,1,.709,0l2.309,2.3a.5.5,0,0,1,0,.709.5.5,0,0,1-.355.144A.5.5,0,0,1,20481.98-6300.391Z" transform="translate(-20420.098 6344.865)" fill="#2D43AA"/>
  </g>
</svg>
