<svg xmlns="http://www.w3.org/2000/svg" width="18.003" height="17.996" viewBox="0 0 18.003 17.996">
  <g id="noun_extract_3377977" transform="translate(0.25 0.198)">
    <path id="Path_3288" data-name="Path 3288" d="M17.394,44.055a.273.273,0,0,0-.383.055l-1.559,2.078H2.051L.492,44.109a.273.273,0,0,0-.438.328l1.586,2.115v8.66a.273.273,0,0,0,.273.273H15.589a.273.273,0,0,0,.273-.273v-8.66l1.586-2.115A.273.273,0,0,0,17.394,44.055Zm-7,2.68v4.054L8.929,49.535a.273.273,0,0,0-.356,0L7.111,50.789V46.735Zm4.923,8.2H2.188v-8.2H6.564v4.649a.273.273,0,0,0,.451.208L8.751,50.1l1.737,1.489a.273.273,0,0,0,.178.066.284.284,0,0,0,.115-.025.273.273,0,0,0,.159-.249V46.735h4.376Z" transform="translate(0 -37.939)" fill="#5064e3"/>
    <path id="Path_3288_-_Outline" data-name="Path 3288 - Outline" d="M.273,43.75a.526.526,0,0,1,.419.209l1.484,1.979H15.327l1.484-1.979a.523.523,0,0,1,.838.628l-1.536,2.049v8.577a.524.524,0,0,1-.523.523H1.914a.524.524,0,0,1-.523-.523V46.636L-.145,44.587a.524.524,0,0,1,.419-.838Zm15.3,2.688H1.926L.292,44.259a.023.023,0,0,0-.019-.009.022.022,0,0,0-.014,0,.024.024,0,0,0,0,.033L1.891,46.47v8.743a.024.024,0,0,0,.023.023H15.589a.024.024,0,0,0,.023-.023V46.47l1.636-2.182a.024.024,0,0,0,0-.033.022.022,0,0,0-.014,0,.023.023,0,0,0-.019.009Zm-13.639.047H6.814v4.9a.024.024,0,0,0,.014.021.021.021,0,0,0,.025,0l1.9-1.628,1.9,1.629a.027.027,0,0,0,.028,0,.023.023,0,0,0,.01-.02v-4.9h4.876v8.7H1.938Zm4.376.5H2.438v7.7H15.065v-7.7H11.189v4.4a.525.525,0,0,1-.3.476.535.535,0,0,1-.219.048.524.524,0,0,1-.341-.126l-1.574-1.35-1.574,1.35a.531.531,0,0,1-.56.078.525.525,0,0,1-.3-.475Zm.547-.5h3.782v4.848L8.767,49.725a.024.024,0,0,0-.03,0L6.861,51.333Zm3.282.5H7.361v3.261l1.05-.9a.523.523,0,0,1,.681,0l1.051.9Z" transform="translate(0 -37.939)" fill="#5064e3"/>
    <path id="Path_3289" data-name="Path 3289" d="M39.621,3.635,42.278.979v5.9a.273.273,0,0,0,.547,0V.979l2.657,2.657a.274.274,0,1,0,.387-.387L42.746.125A.245.245,0,0,0,42.7.091L42.688.08,42.661.065,42.633.057H42.61a.274.274,0,0,0-.107,0H42.48l-.027.008L42.415.08a.075.075,0,0,0-.021.011.245.245,0,0,0-.042.034L39.234,3.248a.274.274,0,0,0,.387.387Z" transform="translate(-33.8)" fill="#5064e3"/>
    <path id="Path_3289_-_Outline" data-name="Path 3289 - Outline" d="M42.551,7.405a.524.524,0,0,1-.523-.523v-5.3L39.8,3.812a.524.524,0,0,1-.741-.741L42.175-.051a.492.492,0,0,1,.078-.064.325.325,0,0,1,.073-.038l.082-.029.035-.011h.039a.525.525,0,0,1,.148,0h.039l.088.026.051.028a.327.327,0,0,1,.045.03.5.5,0,0,1,.07.059l3.122,3.122a.523.523,0,0,1-.369.894.527.527,0,0,1-.372-.154l-2.23-2.23v5.3A.524.524,0,0,1,42.551,7.405ZM42.528.375V6.882a.023.023,0,0,0,.047,0V.375l3.084,3.084a.024.024,0,0,0,.039-.007.023.023,0,0,0-.005-.026L42.571.3l-.009,0-.024,0h-.014L39.411,3.425a.024.024,0,1,0,.033.034Z" transform="translate(-33.8)" fill="#5064e3"/>
  </g>
</svg>
