<svg xmlns="http://www.w3.org/2000/svg" width="15.002" height="8.741" viewBox="0 0 15.002 8.741">
  <g id="Group_1776" data-name="Group 1776" transform="translate(-1180.999 -443.737)">
    <path id="Path_3075" data-name="Path 3075" d="M12,27.082c4,0,7.14,3.593,7.271,3.746a.963.963,0,0,1,0,1.249C19.14,32.23,16,35.823,12,35.823s-7.14-3.593-7.271-3.746a.963.963,0,0,1,0-1.249C4.86,30.675,8,27.082,12,27.082Zm6.489,4.37c-.307-.348-3.071-3.37-6.489-3.37a7.86,7.86,0,0,0-4.525,1.639,12.141,12.141,0,0,0-1.963,1.731c.307.348,3.072,3.37,6.489,3.37a7.86,7.86,0,0,0,4.525-1.639A12.146,12.146,0,0,0,18.489,31.452Z" transform="translate(1176.5 416.655)" fill="#7183cc"/>
    <circle id="Ellipse_213" data-name="Ellipse 213" cx="2.485" cy="2.485" r="2.485" transform="translate(1186 445.737)" fill="#fff"/>
    <path id="Ellipse_213_-_Outline" data-name="Ellipse 213 - Outline" d="M2.485,1A1.485,1.485,0,1,0,3.97,2.485,1.487,1.487,0,0,0,2.485,1m0-1A2.485,2.485,0,1,1,0,2.485,2.485,2.485,0,0,1,2.485,0Z" transform="translate(1186 445.737)" fill="#7183cc"/>
  </g>
</svg>
