<svg xmlns="http://www.w3.org/2000/svg" width="14.999" height="15" viewBox="0 0 14.999 15">
  <path id="Icon_awesome-filter" data-name="Icon awesome-filter" d="M.657-.5H13.343a1.157,1.157,0,0,1,.818,1.974L9.25,6.385v6.958A1.159,1.159,0,0,1,8.091,14.5a1.146,1.146,0,0,1-.66-.21L5.243,12.76a1.157,1.157,0,0,1-.493-.947V6.385L-.161,1.474A1.157,1.157,0,0,1,.657-.5Zm7.434,14a.158.158,0,0,0,.159-.157V5.971l5.2-5.2A.147.147,0,0,0,13.487.6a.146.146,0,0,0-.144-.1H.657A.147.147,0,0,0,.513.6a.146.146,0,0,0,.033.17l5.2,5.2v5.842a.156.156,0,0,0,.067.128L8,13.471A.148.148,0,0,0,8.091,13.5Z" transform="translate(0.499 0.5)" fill="#2D43AA"/>
</svg>
