<svg xmlns="http://www.w3.org/2000/svg" width="12.392" height="12.535" viewBox="0 0 12.392 12.535">
  <g id="Math_Function" data-name="Math, Function" transform="translate(-7 -6.828)">
    <path id="Path_3065" data-name="Path 3065" d="M13.366,8.869c-.826.83-1.042,2.607-1.251,4.326-.241,1.967-.49,4-1.675,5.181a4.22,4.22,0,0,1-2.71.947.731.731,0,1,1,0-1.463,2.863,2.863,0,0,0,1.678-.516c.826-.83,1.042-2.607,1.251-4.326.241-1.967.49-4,1.675-5.181,1.316-1.313,3.975-.984,4.275-.947a.738.738,0,1,1-.2,1.463C15.834,8.266,14.046,8.189,13.366,8.869ZM17.542,16.4l1.675-1.678a.731.731,0,0,0-1.031-1.031l-1.678,1.675-1.678-1.675A.731.731,0,0,0,13.8,14.719L15.472,16.4,13.8,18.076a.731.731,0,1,0,1.031,1.031l1.678-1.675,1.678,1.675a.731.731,0,0,0,1.031-1.031Z" transform="translate(0 0)" fill="#727a9d"/>
  </g>
</svg>
