<svg xmlns="http://www.w3.org/2000/svg" width="34.876" height="31.16" viewBox="0 0 34.876 31.16">
  <g id="GOOGLE" transform="translate(936.823 -745.98)">
    <path id="Path_13151" data-name="Path 13151" d="M-926.659,745.98l.131,0h14.28A3.181,3.181,0,0,1-909.3,747.7c.539.893,1.064,1.812,1.572,2.7q.326.571.654,1.141,1.8,3.117,3.6,6.239l.37.642c.245.427.5.869.753,1.3a2.867,2.867,0,0,1,.371,1.127l.037.01v1.021l-.007.042a2.279,2.279,0,0,0-.031.328l0,.047a2.744,2.744,0,0,1-.425,1.176c-.727,1.266-1.466,2.546-2.2,3.8h0a.627.627,0,0,1-.29.32c-.366.642-.74,1.293-1.113,1.94l-3.316,5.745a3.526,3.526,0,0,1-2.318,1.741,2.265,2.265,0,0,1-.335.06.621.621,0,0,1-.269.059.908.908,0,0,1-.091-.005H-914.4l-3.363,0-3.361,0c-2.017,0-3.659,0-5.165.011l-.13,0a3.5,3.5,0,0,1-3.128-1.909c-1.2-2.067-2.386-4.128-3.539-6.127q-.62-1.077-1.241-2.15c-.7-1.214-1.426-2.468-2.135-3.706l0,0a2.715,2.715,0,0,1-.337-1.163,7.085,7.085,0,0,1,.027-1.346l.006-.036a3.241,3.241,0,0,1,.495-1.2l4.236-7.337c.843-1.465,1.714-2.981,2.58-4.467a3.622,3.622,0,0,1,1.707-1.508l.023-.009A3.066,3.066,0,0,1-926.659,745.98Zm14.43,1h-14.333a2.076,2.076,0,0,0-.807.123,2.627,2.627,0,0,0-1.226,1.088c-.864,1.483-1.735,3-2.577,4.461l-.221.384-4.044,7a2.246,2.246,0,0,0-.347.828,6.082,6.082,0,0,0-.021,1.141v.011a1.71,1.71,0,0,0,.211.733c.707,1.236,1.431,2.489,2.131,3.7q.621,1.074,1.242,2.151c1.154,2,2.347,4.067,3.544,6.137l.013.024a2.506,2.506,0,0,0,2.342,1.373h.017c1.51-.008,3.156-.011,5.179-.011l3.362,0,3.362,0h1.938l.021-.035.268-.008a1.26,1.26,0,0,0,.281-.041l.019,0a2.526,2.526,0,0,0,1.669-1.252l.005-.01,3.319-5.749c.413-.717.827-1.44,1.232-2.149l.272-.477.079.056c.674-1.161,1.354-2.338,2.023-3.5l.016-.027a1.739,1.739,0,0,0,.273-.733,3.284,3.284,0,0,1,.037-.4v-.445a.617.617,0,0,1-.02-.177,1.86,1.86,0,0,0-.251-.948c-.255-.431-.51-.876-.757-1.305l-.369-.64q-1.8-3.123-3.6-6.239-.33-.572-.656-1.144c-.507-.888-1.032-1.806-1.568-2.693l-.017-.03a2.18,2.18,0,0,0-2.036-1.188ZM-919.423,755a6.435,6.435,0,0,1,.817.052,6.456,6.456,0,0,1,3.844,1.84,5.8,5.8,0,0,1,.469.531c.066.082.129.159.193.234.017.02.031.038.04.051l.023.025.043.075c.018.031.041.065.065.1l.058.09a6.477,6.477,0,0,1,.738,5.509,6.421,6.421,0,0,1-.868,1.78l.444.445.364.364.4.4c.278.277.565.563.845.85l.006.006a1.1,1.1,0,0,1,.194.276l.742-.086-.937,1c-.156.166-.3.313-.448.448a.784.784,0,0,1-.586.262.783.783,0,0,1-.583-.258c-.044-.04-.083-.08-.118-.116l-.011-.011-1.942-1.94a6.481,6.481,0,0,1-3.617,1.165h-.134a6.579,6.579,0,0,1-3.237-.853l-.005,0a7.268,7.268,0,0,1-.667-.439l-.006,0-.026-.014-.03-.023a6.684,6.684,0,0,1-.925-.865,6.424,6.424,0,0,1-1.588-5.1,6.262,6.262,0,0,1,2.177-4.149A6.39,6.39,0,0,1-919.423,755Zm4.56,3.3c-.072-.084-.14-.168-.206-.25a4.941,4.941,0,0,0-.39-.444l-.006-.006a5.452,5.452,0,0,0-3.254-1.557h-.01a5.425,5.425,0,0,0-.694-.045,5.392,5.392,0,0,0-3.607,1.382l-.01.009a5.267,5.267,0,0,0-1.836,3.5l0,.013a5.426,5.426,0,0,0,1.342,4.316,5.687,5.687,0,0,0,.766.72c.026.016.05.033.074.052a6.266,6.266,0,0,0,.567.373,5.578,5.578,0,0,0,2.858.721,5.494,5.494,0,0,0,3.193-1.078l0,0a.788.788,0,0,1,.48-.2.744.744,0,0,1,.539.281l2.074,2.072c.07-.068.142-.14.216-.216-.244-.249-.495-.5-.738-.741l-.4-.4-.363-.363q-.3-.3-.6-.6a.733.733,0,0,1-.256-.451.715.715,0,0,1,.177-.514l0-.005a5.435,5.435,0,0,0,.847-1.664,5.483,5.483,0,0,0-.625-4.669l0-.006-.049-.075c-.029-.043-.061-.093-.092-.145l0-.007Z" fill="#ffffff"/>
    <path id="Path_13152" data-name="Path 13152" d="M-559.969,1061.18a4.666,4.666,0,0,0-4.651,4.654,4.667,4.667,0,0,0,4.662,4.66,4.666,4.666,0,0,0,4.651-4.655A4.665,4.665,0,0,0-559.969,1061.18Zm-1.77,7.452c-.051.034-.092-.017-.13-.044a3.333,3.333,0,0,1-.944-.98.392.392,0,0,1-.062-.218v-1.6c0-.146.05-.193.191-.188.269.008.54.006.809,0,.122,0,.163.046.162.166v2.741c0,.041.013.1-.026.123Zm2.316.28c0,.224,0,.233-.226.254a3.366,3.366,0,0,1-.775-.014.156.156,0,0,1-.123-.054.156.156,0,0,1-.036-.129v-4.728c0-.25,0-.25.245-.251h.678c.233,0,.236,0,.237.244v4.677Zm2.4-1.592a.379.379,0,0,1-.06.2,3.347,3.347,0,0,1-.94,1.027c-.038.027-.077.081-.129.052s-.028-.09-.028-.137v-1.9c0-.13.047-.174.174-.172q.413.009.825,0c.123,0,.165.048.162.167,0,.254,0,.507,0,.761Z" transform="translate(-359.415 -304.29)" fill="#ffffff"/>
  </g>
</svg>
