<svg xmlns="http://www.w3.org/2000/svg" width="26.729" height="26.728" viewBox="0 0 26.729 26.728">
  <g id="GREENPLUM" transform="translate(-607.974 -421.578)">
    <path id="Path_13135" data-name="Path 13135" d="M621.546,421.58a13.233,13.233,0,1,0,9.367,3.962,13.364,13.364,0,0,0-9.367-3.962Zm8.161,10.157a7.674,7.674,0,0,1-.992.98,39.471,39.471,0,0,0-8.635,9.532c-2.2,3.246-3.955,3.278-6.664.426A11.282,11.282,0,0,1,629.7,427.054c1.582,1.659,1.57,2.966.009,4.683Z" fill="#ffffff"/>
    <path id="Path_13136" data-name="Path 13136" d="M636.9,444.922a25.066,25.066,0,0,0-4.461,5.027c-1.04,1.573-1.9,1.5-3-.08a5.494,5.494,0,0,1-.944-2.983A5.551,5.551,0,0,1,636.458,442c1.742.891,1.892,1.656.442,2.922Z" transform="translate(-12.347 -11.939)" fill="#ffffff"/>
  </g>
</svg>
