<svg xmlns="http://www.w3.org/2000/svg" width="27.73" height="30.035" viewBox="0 0 27.73 30.035">
  <g id="Group_2632" data-name="Group 2632" transform="translate(-756.401 150.07)">
    <path id="Path_3054" data-name="Path 3054" d="M780.45-120.035h-23.3a.75.75,0,0,1-.75-.75V-146.35a3.724,3.724,0,0,1,3.72-3.72,3.724,3.724,0,0,1,3.719,3.72,3.723,3.723,0,0,1-3.719,3.719.75.75,0,0,1-.75-.75.75.75,0,0,1,.75-.75,2.222,2.222,0,0,0,2.219-2.219,2.222,2.222,0,0,0-2.219-2.22,2.222,2.222,0,0,0-2.22,2.22v24.815h21.8v-21.547a.75.75,0,0,1,.75-.75.75.75,0,0,1,.75.75v22.3A.75.75,0,0,1,780.45-120.035Z" fill="#5064e3"/>
    <path id="Path_3055" data-name="Path 3055" d="M780.412-142.631H760.6a.75.75,0,0,1-.75-.75.75.75,0,0,1,.75-.75h19.808a2.222,2.222,0,0,0,2.219-2.219,2.222,2.222,0,0,0-2.219-2.22h-19.7a.75.75,0,0,1-.75-.75.75.75,0,0,1,.75-.75h19.7a3.724,3.724,0,0,1,3.719,3.72A3.723,3.723,0,0,1,780.412-142.631Z" fill="#5064e3"/>
    <path id="Line_377" data-name="Line 377" d="M11.333.75H0A.75.75,0,0,1-.75,0,.75.75,0,0,1,0-.75H11.333a.75.75,0,0,1,.75.75A.75.75,0,0,1,11.333.75Z" transform="translate(763.213 -136.863)" fill="#5064e3"/>
    <path id="Line_378" data-name="Line 378" d="M11.333.75H0A.75.75,0,0,1-.75,0,.75.75,0,0,1,0-.75H11.333a.75.75,0,0,1,.75.75A.75.75,0,0,1,11.333.75Z" transform="translate(763.213 -132.042)" fill="#5064e3"/>
    <path id="Line_379" data-name="Line 379" d="M11.333.75H0A.75.75,0,0,1-.75,0,.75.75,0,0,1,0-.75H11.333a.75.75,0,0,1,.75.75A.75.75,0,0,1,11.333.75Z" transform="translate(763.213 -127.221)" fill="#5064e3"/>
  </g>
</svg>
