<svg xmlns="http://www.w3.org/2000/svg" width="25.375" height="25.299" viewBox="0 0 25.375 25.299">
  <g id="Group_913" data-name="Group 913" transform="translate(-42.131 -32.911)">
    <path id="Path_3024" data-name="Path 3024" d="M54.818,37.612a14.319,14.319,0,0,0-11.937-3.847V54.589s7.442.318,11.937,2.87" transform="translate(0 0)" fill="#fff"/>
    <path id="Path_3024_-_Outline" data-name="Path 3024 - Outline" d="M54.818,58.21a.746.746,0,0,1-.37-.1c-4.282-2.432-11.526-2.77-11.6-2.773a.75.75,0,0,1-.718-.749V33.765a.75.75,0,0,1,.667-.745A15.928,15.928,0,0,1,52.1,34.7a12.55,12.55,0,0,1,3.278,2.41.75.75,0,0,1-1.117,1h0A11.358,11.358,0,0,0,51.339,36a14.171,14.171,0,0,0-7.708-1.548V53.885c2.01.15,7.737.753,11.558,2.923a.75.75,0,0,1-.371,1.4Z" transform="translate(0 0)" fill="#727A9D"/>
    <path id="Path_3025" data-name="Path 3025" d="M50.176,37.612a14.319,14.319,0,0,1,11.937-3.847V54.589s-7.444.318-11.937,2.87" transform="translate(4.642 0)" fill="#fff"/>
    <path id="Path_3025_-_Outline" data-name="Path 3025 - Outline" d="M50.177,58.21a.75.75,0,0,1-.371-1.4c3.819-2.17,9.548-2.773,11.558-2.923V34.449A14.172,14.172,0,0,0,53.655,36a11.358,11.358,0,0,0-2.921,2.116.75.75,0,0,1-1.117-1,12.55,12.55,0,0,1,3.278-2.41,15.928,15.928,0,0,1,9.3-1.683.75.75,0,0,1,.667.745V54.589a.75.75,0,0,1-.718.749c-.073,0-7.318.341-11.6,2.773A.747.747,0,0,1,50.177,58.21Z" transform="translate(4.642 0)" fill="#727A9D"/>
    <path id="Line_340" data-name="Line 340" d="M0,19.984a.75.75,0,0,1-.75-.75V0A.75.75,0,0,1,0-.75.75.75,0,0,1,.75,0V19.234A.75.75,0,0,1,0,19.984Z" transform="translate(54.754 37.918)" fill="#727A9D"/>
    <path id="Path_3026" data-name="Path 3026" d="M556.521,940.232a.75.75,0,0,1-.547-1.263,8.178,8.178,0,0,1,5.263-2.443h.013a.75.75,0,0,1,.012,1.5,6.689,6.689,0,0,0-4.193,1.969A.748.748,0,0,1,556.521,940.232Z" transform="translate(-498.136 -896.883)" fill="#727A9D"/>
    <path id="Path_3027" data-name="Path 3027" d="M561.25,940.232A.748.748,0,0,1,560.7,940a6.747,6.747,0,0,0-4.194-1.97.75.75,0,0,1,.012-1.5h.013a8.178,8.178,0,0,1,5.263,2.443.75.75,0,0,1-.547,1.263Z" transform="translate(-509.676 -896.883)" fill="#727A9D"/>
    <path id="Path_3028" data-name="Path 3028" d="M556.521,940.232a.75.75,0,0,1-.547-1.263,8.178,8.178,0,0,1,5.263-2.443h.013a.75.75,0,0,1,.012,1.5,6.689,6.689,0,0,0-4.193,1.969A.748.748,0,0,1,556.521,940.232Z" transform="translate(-498.136 -890.759)" fill="#727A9D"/>
    <path id="Path_3029" data-name="Path 3029" d="M561.25,940.232A.748.748,0,0,1,560.7,940a6.747,6.747,0,0,0-4.194-1.97.75.75,0,0,1,.012-1.5h.013a8.178,8.178,0,0,1,5.263,2.443.75.75,0,0,1-.547,1.263Z" transform="translate(-509.676 -890.759)" fill="#727A9D"/>
  </g>
</svg>
