<svg xmlns="http://www.w3.org/2000/svg" width="15.228" height="15.228" viewBox="0 0 15.228 15.228"><defs><style>.a{fill:#8daac5;}</style></defs><path class="a" d="M18.327,18h0V12.411c0-2.732-.588-4.837-3.782-4.837a3.316,3.316,0,0,0-2.987,1.641h-.044V7.829H8.489V18h3.153V12.962c0-1.325.251-2.607,1.893-2.607,1.617,0,1.641,1.513,1.641,2.692V18Z" transform="translate(-3.103 -2.768)"/><path class="a" d="M.4,7.977H3.553V18.144H.4Z" transform="translate(-0.145 -2.916)"/><path class="a" d="M1.829,0A1.837,1.837,0,1,0,3.657,1.829,1.829,1.829,0,0,0,1.829,0Z"/></svg>