<svg xmlns="http://www.w3.org/2000/svg" width="36" height="36" viewBox="0 0 36 36">
  <g id="Group_2491" data-name="Group 2491" transform="translate(-493 -578)">
    <rect id="Rectangle_418" data-name="Rectangle 418" width="36" height="36" rx="18" transform="translate(493 578)" fill="#eef0f8"/>
    <path id="Icon_awesome-linkedin-in" data-name="Icon awesome-linkedin-in" d="M3.308,14.778H.244V4.912H3.308ZM1.774,3.566A1.783,1.783,0,1,1,3.549,1.775,1.789,1.789,0,0,1,1.774,3.566Zm13,11.212H11.717v-4.8c0-1.145-.023-2.612-1.593-2.612-1.593,0-1.837,1.244-1.837,2.53v4.885H5.227V4.912H8.165V6.258h.043a3.219,3.219,0,0,1,2.9-1.593c3.1,0,3.671,2.042,3.671,4.694v5.419Z" transform="translate(504 589)" fill="#0077b5"/>
  </g>
</svg>
