<svg id="Component_22_1" data-name="Component 22 – 1" xmlns="http://www.w3.org/2000/svg" width="330.605" height="204.529" viewBox="0 0 330.605 204.529">
  <path id="Path_3145" data-name="Path 3145" d="M-5565.877,11266H-5824.4s-25.947-40.576-4.048-56.393,53.111.627,41.763-43.18,2.8-79.16,42.79-82.737,65.695,25.548,100.976,0,40.98,7.731,67.118,27.776,12.264,52.309,24.8,66.912,31.187,7.209,39.869,27.146,4.793,37.49-11.451,50.389C-5541.945,11267.818-5565.877,11266-5565.877,11266Z" transform="translate(5837.234 -11062.088)" fill="rgba(38,58,185,0.5)"/>
  <g id="Group_4" data-name="Group 4" transform="translate(45.787 43.529)">
    <path id="Path_2" data-name="Path 2" d="M1043.1,1701.293s.456,7.443,1.905,7.557c.2.016,7.312.016,7.312.016l9.087-.049a2.965,2.965,0,0,0-2.72-2.655c-2.655-.456-7.1-2.329-8.713-5.83C1048.279,1696.619,1043.1,1701.293,1043.1,1701.293Z" transform="translate(-982.062 -1548.29)" fill="#17181a"/>
    <path id="Path_3" data-name="Path 3" d="M1012.619,1180.1s3.958,1.01,6.465.26c2.508-.765,6.84.489,7.54,1.4s.44,1.287-.8,1.6-5.651,2.2-8.55,1.107a22.915,22.915,0,0,0-6.677-1.124Z" transform="translate(-954.854 -1113.98)" fill="#f1b86f"/>
    <path id="Path_4" data-name="Path 4" d="M813,946.4s4.446,31.594,11.807,34.411c3.632,1.4,19.673,4.56,24.428,4.886,0,0,1.156-.945.879-4.788,0,0-16.807-6.172-19.2-9.527-3.55-5,2.215-20.406-2.247-25.1C824.2,941.579,816.681,939.56,813,946.4Z" transform="translate(-789.435 -914.643)" fill="#5abdff"/>
    <path id="Path_5" data-name="Path 5" d="M734.795,1457.973v-6.889h-10.83a.542.542,0,0,1-.537-.537v-1.107a.542.542,0,0,1,.537-.537h10.846v-39.2a2,2,0,0,1,2-2h2.133a2,2,0,0,1,2,2v39.2H751.8a.542.542,0,0,1,.537.537v1.107a.542.542,0,0,1-.537.537H740.951v6.889c7.85.586,14.136,3.42,15.895,7.068H718.9C720.675,1461.393,726.961,1458.56,734.795,1457.973Z" transform="translate(-710.66 -1304.515)" fill="#b7bedb"/>
    <path id="Path_6" data-name="Path 6" d="M793.075,1282.312a54.783,54.783,0,0,0,4.348,6.2c4.772,6.026,9.983,11.009,10.879,15.7a21.338,21.338,0,0,0,.847,3.013c.375,1.075.847,2.215,1.384,3.371a105.793,105.793,0,0,0,8.078,13.826c5.228,7.752,10.146,14.217,10.146,14.217l9.022-.391c-.358-.912-4.3-11.612-9.56-24.689-2.133-5.309-4.413-10.96-6.6-16.4-.293-.733-.586-1.449-.879-2.166-.668-1.661-1.335-3.306-1.971-4.9-4.951-12.279-8.876-22.067-8.876-22.067s-19.754-7.491-21.806-2.638C786.4,1269.4,787.782,1273.306,793.075,1282.312Z" transform="translate(-768.011 -1184.012)" fill="#23263d"/>
    <path id="Path_7" data-name="Path 7" d="M885.458,1583s-6.27,4.039-5.667,5.342c.081.179,3.55,6.384,3.55,6.384l4.479,7.9a2.945,2.945,0,0,0,.993-3.664c-.9-2.541-1.433-7.329.847-10.439C892.053,1585.247,885.458,1583,885.458,1583Z" transform="translate(-845.314 -1451.266)" fill="#17181a"/>
    <path id="Path_8" data-name="Path 8" d="M816.483,1268.2s24.8,15.439,27.571,25.829c2.768,10.374-32.978,32.522-32.978,32.522s-3.925-3.453-4.609-5.993c0,0,16.155-19.364,19.673-23.7,2.15-2.671-31.838-9.234-35.991-15.683-4.153-6.465-2.671-11.889-2.671-11.889Z" transform="translate(-767.855 -1187.733)" fill="#4b506d"/>
    <path id="Path_9" data-name="Path 9" d="M670.14,1390h50.746a1.849,1.849,0,0,1,1.84,1.84v10.146a1.849,1.849,0,0,1-1.84,1.84H670.14a1.849,1.849,0,0,1-1.84-1.84V1391.84A1.849,1.849,0,0,1,670.14,1390Z" transform="translate(-668.3 -1289.697)" fill="#5064e3"/>
    <path id="Path_10" data-name="Path 10" d="M834.8,870.335a14,14,0,0,1,3.778,3.42c-5.944,1.531-15.781-3.974-15.781-3.974a14.585,14.585,0,0,0,5.244-8.208q.1-.415.2-.879a19.827,19.827,0,0,0,.326-3.094l2.736,2.443,4.544,4.071a37.769,37.769,0,0,1-.668,4.593C835.047,869.212,834.933,869.765,834.8,870.335Z" transform="translate(-797.639 -844.002)" fill="#f1b86f"/>
    <path id="Path_11" data-name="Path 11" d="M783.5,948.832c.847,11.449-.586,28.842.391,31.854.831,2.606,10.634,1.059,14.429.2,1.4-.326,3.094-.782,4.853-1.319,4.886-1.515,10.227-3.68,10.8-5.293a1,1,0,0,0,.049-.179,1.322,1.322,0,0,0-.016-.668,11.23,11.23,0,0,1-1.01-3.729c-.1-2.264-.081-4.935-.163-7.8,0-.326-.016-.668-.049-.993v-.293c-.081-3.192-.244-6.563-.44-9.885-.13-2.1-.261-4.169-.423-6.156a83.443,83.443,0,0,0-1.759-12.573,20.238,20.238,0,0,0-6.482-10.016l-1.808-1.547a10.389,10.389,0,0,1-6.547-.879c-2.329-1.107-3.143-1.905-3.55-1.6C786.363,922.107,782.5,934.843,783.5,948.832Z" transform="translate(-764.605 -894.471)" fill="#91d3ff"/>
    <path id="Path_12" data-name="Path 12" d="M859.108,1156.144c4.886-1.515,10.227-3.681,10.8-5.293a1,1,0,0,0,.049-.179c0-.228,0-.456-.016-.668a11.23,11.23,0,0,1-1.01-3.729c-.1-2.264-.081-4.934-.163-7.8,0-.326-.016-.668-.049-.993v-.293l-18.484-8.387S849.174,1143.7,859.108,1156.144Z" transform="translate(-820.576 -1071.035)" fill="#5abdff"/>
    <path id="Path_13" data-name="Path 13" d="M861.361,876.671a37.769,37.769,0,0,1-.668,4.593c-4.43-1.433-6.449-5.439-7.117-7.133a6.819,6.819,0,0,1-.277-.782s.179-.033.472-.1c.619-.13,1.791-.375,3.045-.651Z" transform="translate(-823.172 -856.559)" fill="#dca053"/>
    <path id="Path_14" data-name="Path 14" d="M857.392,814.247s-9.739,1.091-10.325-4.967c-.586-6.074-2.247-10.016,3.941-10.976s7.622,1.238,8.322,3.225C860.014,803.482,859.9,813.807,857.392,814.247Z" transform="translate(-817.411 -794.167)" fill="#f1b86f"/>
    <path id="Path_15" data-name="Path 15" d="M833.939,789.62a10,10,0,0,1,9.478-8.892c6.075-.57,2.687-5.8,2.036-6.628,0,0-4.658.635-9.413,1.433C826.04,777.178,832.962,788.366,833.939,789.62Z" transform="translate(-804.25 -774.1)"/>
    <g id="Group_2" data-name="Group 2" transform="translate(53.05 51.711)">
      <rect id="Rectangle_2" data-name="Rectangle 2" width="0.896" height="23.467" transform="translate(24.6 22.597) rotate(-162.002)" fill="#23263d"/>
      <rect id="Rectangle_3" data-name="Rectangle 3" width="24.624" height="1.466" transform="translate(24.619 22.599) rotate(-178.776)" fill="#23263d"/>
    </g>
    <path id="Path_16" data-name="Path 16" d="M998.361,1209.9s3.827,1.449,6.4.977c2.589-.472,6.742,1.238,7.345,2.231.586.993.293,1.319-.977,1.5s-5.863,1.563-8.615.163a23.043,23.043,0,0,0-6.514-1.857Z" transform="translate(-942.632 -1138.927)" fill="#f1b86f"/>
    <path id="Path_17" data-name="Path 17" d="M825.1,958.085s.928,31.887,7.931,35.5c3.453,1.792,19.054,6.71,23.744,7.54,0,0,1.254-.814,1.4-4.658,0,0-16.025-8-18.028-11.6-2.98-5.358,4.446-20.047.521-25.194C836.76,954.535,829.513,951.7,825.1,958.085Z" transform="translate(-799.564 -925.041)" fill="#91d3ff"/>
  </g>
  <path id="Path_18" data-name="Path 18" d="M1287.92,354.268h106.956a13.521,13.521,0,0,0,13.52-13.52V194.52a13.521,13.521,0,0,0-13.52-13.52H1287.92a13.521,13.521,0,0,0-13.52,13.52V340.748A13.512,13.512,0,0,0,1287.92,354.268Z" transform="translate(-1138.976 -181)"/>
  <rect id="Rectangle_4" data-name="Rectangle 4" width="119.11" height="146.925" transform="translate(262.535 160.414) rotate(180)" fill="#c5cdff"/>
  <g id="Group_6" data-name="Group 6" transform="translate(156.833 22.534)">
    <path id="Path_24" data-name="Path 24" d="M1572.9,493.5h9.64a1,1,0,1,1,0,2h-9.64a1,1,0,1,1,0-2Z" transform="translate(-1549.319 -457.183)" fill="#a6c7f9"/>
    <path id="Path_25" data-name="Path 25" d="M1627.2,519.9h2.194a1,1,0,1,1,0,2H1627.2a1,1,0,1,1,0-2Z" transform="translate(-1596.173 -479.963)" fill="#a6c7f9"/>
    <path id="Path_26" data-name="Path 26" d="M1862.6,381.8h9.64a1,1,0,0,1,0,2h-9.64a1,1,0,0,1,0-2Z" transform="translate(-1806.295 -370.8)" fill="#a6c7f9"/>
    <path id="Path_27" data-name="Path 27" d="M1916.9,408.3h2.194a1.007,1.007,0,0,1,1,1h0a1.007,1.007,0,0,1-1,1H1916.9a1.007,1.007,0,0,1-1-1h0A1.007,1.007,0,0,1,1916.9,408.3Z" transform="translate(-1853.149 -393.666)" fill="#a6c7f9"/>
    <path id="Path_28" data-name="Path 28" d="M2003.2,564.8h9.64a1,1,0,0,1,0,2h-9.64a1,1,0,1,1,0-2Z" transform="translate(-1930.615 -539.707)" fill="#a6c7f9"/>
    <path id="Path_29" data-name="Path 29" d="M2057.5,591.3h2.194a1.007,1.007,0,0,1,1,1h0a1.007,1.007,0,0,1-1,1H2057.5a1.007,1.007,0,0,1-1-1h0A1,1,0,0,1,2057.5,591.3Z" transform="translate(-1977.469 -562.573)" fill="#a6c7f9"/>
    <path id="Path_30" data-name="Path 30" d="M1719.7,723.7h9.64a1,1,0,1,1,0,2h-9.64a1,1,0,1,1,0-2Z" transform="translate(-1678.989 -676.818)" fill="#a6c7f9"/>
    <path id="Path_31" data-name="Path 31" d="M1774,750.2h2.194a1.006,1.006,0,0,1,1,1h0a1.007,1.007,0,0,1-1,1H1774a1.007,1.007,0,0,1-1-1h0A1.007,1.007,0,0,1,1774,750.2Z" transform="translate(-1725.844 -699.684)" fill="#a6c7f9"/>
    <path id="Path_32" data-name="Path 32" d="M1430.1,820.9h9.64a1,1,0,1,1,0,2h-9.64a1,1,0,1,1,0-2Z" transform="translate(-1424.1 -763.689)" fill="#a6c7f9"/>
    <path id="Path_33" data-name="Path 33" d="M1484.4,847.4h2.194a1,1,0,1,1,0,2H1484.4a1,1,0,1,1,0-2Z" transform="translate(-1470.954 -786.556)" fill="#a6c7f9"/>
  </g>
  <g id="Group_7" data-name="Group 7" transform="translate(103.192 45.557)">
    <path id="Path_34" data-name="Path 34" d="M1449.338,755.676a3.538,3.538,0,1,1,3.538-3.538A3.546,3.546,0,0,1,1449.338,755.676Zm0-5.7a2.167,2.167,0,1,0,2.167,2.167A2.171,2.171,0,0,0,1449.338,749.971Z" transform="translate(-1349.526 -737.754)" fill="#fff"/>
    <path id="Path_35" data-name="Path 35" d="M842,681.718a.643.643,0,0,1-.48-.206l-10.641-10.641h-86.5a.686.686,0,0,1,0-1.371h87.045l11.052,11.052a.679.679,0,0,1-.48,1.165Z" transform="translate(-743.7 -669.5)" fill="#fff"/>
  </g>
  <g id="Group_8" data-name="Group 8" transform="translate(201.946 155.125)">
    <path id="Path_36" data-name="Path 36" d="M1597.938,1300.375a3.538,3.538,0,1,1,3.538-3.538A3.546,3.546,0,0,1,1597.938,1300.375Zm0-5.7a2.167,2.167,0,1,0,2.167,2.167A2.171,2.171,0,0,0,1597.938,1294.671Z" transform="translate(-1594.4 -1293.3)" fill="#fff"/>
    <path id="Path_37" data-name="Path 37" d="M1723.032,1347.031h-85.674l-11.052-11.052a.688.688,0,1,1,.974-.974l10.641,10.641h85.112a.679.679,0,0,1,.686.685A.691.691,0,0,1,1723.032,1347.031Z" transform="translate(-1621.753 -1329.109)" fill="#fff"/>
  </g>
  <path id="Path_54" data-name="Path 54" d="M761.042,1757.879h-305.3a.441.441,0,0,1-.439-.439h0a.441.441,0,0,1,.439-.439h305.3a.441.441,0,0,1,.439.439h0A.45.45,0,0,1,761.042,1757.879Z" transform="translate(-453.527 -1553.35)" fill="#23263d"/>
  <g id="Group_1811" data-name="Group 1811" transform="translate(-551.576 -271.471)">
    <g id="Group_1803" data-name="Group 1803" transform="translate(715 396.292)">
      <ellipse id="Ellipse_223" data-name="Ellipse 223" cx="10.577" cy="10.577" rx="10.577" ry="10.577" transform="translate(0.176 2.055)" fill="#7fb773"/>
      <path id="Path_3129" data-name="Path 3129" d="M8.936,0A8.939,8.939,0,0,1,15.3,15.21L8.936,8.936.586,12.125A8.941,8.941,0,0,1,8.936,0Z" transform="translate(10.755 0) rotate(45)" fill="#fff"/>
    </g>
    <g id="Group_1804" data-name="Group 1804" transform="translate(743 395.439)">
      <ellipse id="Ellipse_224" data-name="Ellipse 224" cx="10.578" cy="10.577" rx="10.578" ry="10.577" transform="translate(1.128 22.229) rotate(-87.145)" fill="#7fb773"/>
      <path id="Path_3134" data-name="Path 3134" d="M0,8.936a8.935,8.935,0,1,1,3.518,7.106L8.936,8.936.586,12.125A9.005,9.005,0,0,1,0,8.936Z" transform="translate(0 8.936) rotate(-30)" fill="#fff"/>
    </g>
    <g id="Group_1805" data-name="Group 1805" transform="translate(772 396.292)">
      <ellipse id="Ellipse_225" data-name="Ellipse 225" cx="10.578" cy="10.577" rx="10.578" ry="10.577" transform="translate(0 21.13) rotate(-87.145)" fill="#7fb773"/>
      <path id="Subtraction_1" data-name="Subtraction 1" d="M1.152,16.007A8.934,8.934,0,0,1,0,15.932L1.139,7.069,6.611,0A8.889,8.889,0,0,1,8.878,2.6,8.934,8.934,0,0,1,5.607,14.807,8.92,8.92,0,0,1,1.152,16.007Z" transform="translate(9.94 4.039)" fill="#fff"/>
    </g>
  </g>
  <g id="Group_1806" data-name="Group 1806" transform="translate(5173.424 -11051.943)">
    <path id="Line_404" data-name="Line 404" d="M19,.75H0A.75.75,0,0,1-.75,0,.75.75,0,0,1,0-.75H19a.75.75,0,0,1,.75.75A.75.75,0,0,1,19,.75Z" transform="translate(-5069.5 11092.5)" fill="#fff"/>
    <path id="Line_405" data-name="Line 405" d="M42,.75H0A.75.75,0,0,1-.75,0,.75.75,0,0,1,0-.75H42a.75.75,0,0,1,.75.75A.75.75,0,0,1,42,.75Z" transform="translate(-5069.5 11086.342)" fill="#fff"/>
    <path id="Line_406" data-name="Line 406" d="M42,.75H0A.75.75,0,0,1-.75,0,.75.75,0,0,1,0-.75H42a.75.75,0,0,1,.75.75A.75.75,0,0,1,42,.75Z" transform="translate(-5069.5 11080.184)" fill="#fff"/>
  </g>
  <g id="Group_1808" data-name="Group 1808" transform="translate(5352.871 -10926.059)">
    <path id="Line_404-2" data-name="Line 404" d="M19,.75H0A.75.75,0,0,1-.75,0,.75.75,0,0,1,0-.75H19a.75.75,0,0,1,.75.75A.75.75,0,0,1,19,.75Z" transform="translate(-5069.5 11092.5)" fill="#fff"/>
    <path id="Line_405-2" data-name="Line 405" d="M19.583.75H0A.75.75,0,0,1-.75,0,.75.75,0,0,1,0-.75H19.583a.75.75,0,0,1,.75.75A.75.75,0,0,1,19.583.75Z" transform="translate(-5069.5 11086.342)" fill="#fff"/>
    <path id="Line_406-2" data-name="Line 406" d="M19.583.75H0A.75.75,0,0,1-.75,0,.75.75,0,0,1,0-.75H19.583a.75.75,0,0,1,.75.75A.75.75,0,0,1,19.583.75Z" transform="translate(-5069.5 11080.184)" fill="#fff"/>
  </g>
  <g id="Group_1810" data-name="Group 1810" transform="translate(-530.866 -241.179)">
    <rect id="Rectangle_3159" data-name="Rectangle 3159" width="9" height="45" rx="3" transform="translate(713.29 310.708)" fill="#5064e3"/>
    <rect id="Rectangle_3160" data-name="Rectangle 3160" width="9" height="25" rx="3" transform="translate(697.29 330.708)" fill="#5064e3"/>
    <rect id="Rectangle_3161" data-name="Rectangle 3161" width="9" height="71" rx="3" transform="translate(745.29 284.708)" fill="#5064e3"/>
    <rect id="Rectangle_3162" data-name="Rectangle 3162" width="10" height="34" rx="3" transform="translate(729.29 321.708)" fill="#5064e3"/>
    <rect id="Rectangle_3163" data-name="Rectangle 3163" width="9" height="54" rx="3" transform="translate(761.29 301.708)" fill="#5064e3"/>
  </g>
</svg>
