<svg xmlns="http://www.w3.org/2000/svg" width="36" height="36" viewBox="0 0 36 36">
  <g id="Group_2490" data-name="Group 2490" transform="translate(-393 -578)">
    <rect id="Rectangle_428" data-name="Rectangle 428" width="36" height="36" rx="18" transform="translate(393 578)" fill="#eef0f8"/>
    <path id="Icon_awesome-google-plus-g" data-name="Icon awesome-google-plus-g" d="M11.3,9.084a4.539,4.539,0,0,1,.088.891A4.936,4.936,0,0,1,6.251,15.2a5.351,5.351,0,0,1,0-10.7A5.111,5.111,0,0,1,9.835,5.9L8.382,7.3a3,3,0,0,0-2.132-.825,3.38,3.38,0,0,0,0,6.76,2.9,2.9,0,0,0,3.037-2.307H6.251V9.084H11.3Zm5.167.179V7.71H14.909V9.264H13.355v1.561h1.553v1.553h1.561V10.824h1.553V9.264H16.469Z" transform="translate(401.1 586.5)" fill="#db4a39"/>
  </g>
</svg>
