<svg xmlns="http://www.w3.org/2000/svg" width="15.563" height="15.563" viewBox="0 0 15.563 15.563">
  <path id="Union_24" data-name="Union 24" d="M1452.7,16216.562a.707.707,0,0,1-.7-.7V16201.7a.707.707,0,0,1,.7-.7h4a.7.7,0,0,1,0,1.408h-3.3v12.747h12.743v-3.293a.7.7,0,1,1,1.408,0v4a.687.687,0,0,1-.208.5.7.7,0,0,1-.5.208Zm7.944-8.648a.712.712,0,0,1,0-1l4.509-4.5h-2.307a.7.7,0,1,1,0-1.408h4.009a.744.744,0,0,1,.208.028l.016.008a.138.138,0,0,1,.049.021.6.6,0,0,1,.224.15.051.051,0,0,1,.02.021l.008.008.02.021a.683.683,0,0,1,.106.184.971.971,0,0,1,.033.1v0c0,.021,0,.037.008.049v.008a.275.275,0,0,1,.008.058c0,.012,0,.028,0,.045v4a.7.7,0,1,1-1.408,0v-2.308l-4.509,4.51a.713.713,0,0,1-1,0Z" transform="translate(-1451.998 -16200.998)" fill="#5064e3"/>
</svg>
