<svg xmlns="http://www.w3.org/2000/svg" width="15.564" height="15.561" viewBox="0 0 15.564 15.561">
  <path id="Union_25" data-name="Union 25" d="M3663.705,16879.563a.71.71,0,0,1-.708-.709v-14.148a.706.706,0,0,1,.708-.7h4a.7.7,0,1,1,0,1.406h-3.3v12.742h12.742v-3.291a.705.705,0,0,1,1.411,0v3.994a.7.7,0,0,1-.208.5.685.685,0,0,1-.5.209Zm8.443-8.443a.673.673,0,0,1-.208-.029l-.021-.01c-.017,0-.034-.012-.051-.016a.835.835,0,0,1-.22-.152c-.008-.01-.013-.018-.021-.021s0,0-.009-.01l-.017-.02a.718.718,0,0,1-.11-.187.567.567,0,0,1-.03-.1v0a.2.2,0,0,1-.009-.051v0a.357.357,0,0,1-.009-.059c0-.014,0-.025,0-.043v-4.008a.705.705,0,0,1,1.411,0v2.309l4.507-4.512a.712.712,0,0,1,1,0,.706.706,0,0,1,0,1l-4.507,4.508h2.309a.7.7,0,1,1,0,1.406Z" transform="translate(-3662.998 -16864.002)" fill="#5064e3"/>
</svg>
