<svg xmlns="http://www.w3.org/2000/svg" width="26" height="25" viewBox="0 0 26 25">
  <g id="Group_911" data-name="Group 911" transform="translate(-534 -1106)">
    <rect id="Rectangle_615" data-name="Rectangle 615" width="26" height="10" rx="2" transform="translate(534 1121)" fill="#fff"/>
    <path id="Rectangle_615_-_Outline" data-name="Rectangle 615 - Outline" d="M2,1.5a.5.5,0,0,0-.5.5V8a.5.5,0,0,0,.5.5H24a.5.5,0,0,0,.5-.5V2a.5.5,0,0,0-.5-.5H2M2,0H24a2,2,0,0,1,2,2V8a2,2,0,0,1-2,2H2A2,2,0,0,1,0,8V2A2,2,0,0,1,2,0Z" transform="translate(534 1121)" fill="#727A9D"/>
    <rect id="Rectangle_616" data-name="Rectangle 616" width="14" height="12" rx="2" transform="translate(534 1106)" fill="#fff"/>
    <path id="Rectangle_616_-_Outline" data-name="Rectangle 616 - Outline" d="M2,1.5a.5.5,0,0,0-.5.5v8a.5.5,0,0,0,.5.5H12a.5.5,0,0,0,.5-.5V2a.5.5,0,0,0-.5-.5H2M2,0H12a2,2,0,0,1,2,2v8a2,2,0,0,1-2,2H2a2,2,0,0,1-2-2V2A2,2,0,0,1,2,0Z" transform="translate(534 1106)" fill="#727A9D"/>
    <rect id="Rectangle_617" data-name="Rectangle 617" width="9" height="12" rx="2" transform="translate(551 1106)" fill="#fff"/>
    <path id="Rectangle_617_-_Outline" data-name="Rectangle 617 - Outline" d="M2,1.5a.5.5,0,0,0-.5.5v8a.5.5,0,0,0,.5.5H7a.5.5,0,0,0,.5-.5V2A.5.5,0,0,0,7,1.5H2M2,0H7A2,2,0,0,1,9,2v8a2,2,0,0,1-2,2H2a2,2,0,0,1-2-2V2A2,2,0,0,1,2,0Z" transform="translate(551 1106)" fill="#727A9D"/>
  </g>
</svg>
