<svg xmlns="http://www.w3.org/2000/svg" width="271.57" height="51.034" viewBox="0 0 271.57 51.034">
  <g id="mongodb_atlas-h0ai1yctwo" transform="translate(-0.046)">
    <path id="Path_3020" data-name="Path 3020" d="M22.545,20.322C19.832,8.446,14.253,5.272,12.819,3.071A21.9,21.9,0,0,1,11.233,0a2.97,2.97,0,0,1-1.126,2.508C8.315,4.1.688,10.34.074,23.8-.541,36.343,9.287,44.124,10.618,44.943a2.827,2.827,0,0,0,2.815-.461c4.709-3.225,11.21-11.927,9.111-24.161" fill="#10aa50"/>
    <path id="Path_3021" data-name="Path 3021" d="M21.675,74.7A24.641,24.641,0,0,1,20.6,81.406q.306,3.052.717,6.091H22.34a50.566,50.566,0,0,1,1.126-6.552C22.136,80.279,21.726,77.413,21.675,74.7Z" transform="translate(-10.033 -36.463)" fill="#b8c4c2"/>
    <path id="Path_3022" data-name="Path 3022" d="M24.248,44.726h0c-1.331-.614-1.74-3.532-1.792-6.245a121.928,121.928,0,0,0,.307-13.411C22.712,22.715,22.814,3.315,22.2.5c.256.563.87,1.843,1.433,2.815,1.433,2.252,7.013,5.375,9.726,17.25C35.406,32.8,29.008,41.45,24.248,44.726Z" transform="translate(-10.814 -0.244)" fill="#12924f"/>
    <g id="Group_760" data-name="Group 760" transform="translate(30.471 16.892)">
      <path id="Path_3023" data-name="Path 3023" d="M219.3,56.29a2.918,2.918,0,1,1,2.918-2.969A2.882,2.882,0,0,1,219.3,56.29m0-5.579a2.662,2.662,0,1,0,2.662,2.662,2.644,2.644,0,0,0-2.662-2.662m.717,4.5-.768-1.638h-.614v1.638h-.461V51.53h1.075c.819,0,1.126.358,1.126,1.024a.874.874,0,0,1-.717.973l.768,1.689h-.41Zm-1.331-2h.614c.512,0,.717-.2.717-.665s-.2-.614-.768-.614h-.563Zm-42.742.41a6.74,6.74,0,0,0,3.737.87,7.326,7.326,0,0,0,5.272-1.894c1.74-1.587,2.969-4.044,2.969-7.934,0-3.737-1.433-6.808-4.351-8.548a11.759,11.759,0,0,0-6.245-1.433,6.1,6.1,0,0,0-1.843.2.939.939,0,0,0-.358.512c-.051.665-.051,5.733-.051,8.753l.051,7.883a2.528,2.528,0,0,0,.819,1.587M168.471,33c.614,0,3.071.1,4.2.1,2.1,0,3.583-.1,7.525-.1a12,12,0,0,1,8.088,2.611,10.808,10.808,0,0,1,3.686,8.5,11.091,11.091,0,0,1-4.556,9.521c-2.3,1.689-5.272,2.662-9.47,2.662-2.252,0-6.091-.051-9.367-.1h-.051c-.154-.307.256-1.433.563-1.484a5.585,5.585,0,0,0,1.536-.307c.665-.256.819-.614.921-1.843.1-2.3.051-5.068.051-8.139l-.051-7.934c-.1-1.126-.614-1.433-1.587-1.689-.512-.1-1.177-.2-2.1-.358-.154-.2.41-1.177.614-1.433m32.709,1.894a.84.84,0,0,0-.358.614c-.051,1.331-.051,4.812-.051,7.217,0,.051.1.2.2.2.512.051,1.689.051,2.713.051a6.825,6.825,0,0,0,2.713-.41,3.566,3.566,0,0,0,1.74-3.327c0-3.225-2.252-4.453-5.579-4.453-.256.051-.87.051-1.382.1m8.548,14.844c0-3.276-2.406-5.119-6.808-5.119a12.015,12.015,0,0,0-1.894.051c-.1.051-.2.1-.2.2l.051,7.576a2.451,2.451,0,0,0,1.075,1.792,7.065,7.065,0,0,0,2.867.41c2.611-.051,4.914-1.484,4.914-4.914M194.423,33.051c.358,0,1.331.1,3.89.1l6.654-.051c2.867,0,6.859,1.024,6.859,5.324a5.232,5.232,0,0,1-3.43,4.658q-.154.077,0,.154c2.764.717,5.221,2.406,5.221,5.682,0,3.174-2,5.17-4.863,6.45a15.648,15.648,0,0,1-6.143,1.024c-1.689,0-6.194-.2-8.7-.154-.256-.1.256-1.28.461-1.484a9.63,9.63,0,0,0,1.689-.256c.921-.2,1.024-.512,1.126-1.843.051-1.126.051-5.272.051-8.19V36.43c-.051-1.024-.41-1.382-1.126-1.536-.563-.1-1.484-.2-2.252-.358-.2-.2.358-1.331.563-1.484M59.851,56.29a1.427,1.427,0,0,1-.1-.768.95.95,0,0,1,.1-.512,10.879,10.879,0,0,0,1.433-.307c.665-.154.921-.512.973-1.382.1-2,.1-5.733.051-8.395v-.1a.987.987,0,0,0-.358-.921,7.29,7.29,0,0,0-2-.87c-.307-.1-.512-.256-.461-.461,0-.2.2-.41.614-.512a21.223,21.223,0,0,0,5.068-1.331,1,1,0,0,1,.154.512.871.871,0,0,1-.051.358,9.461,9.461,0,0,0-.051,1.229.329.329,0,0,0,.256.256.389.389,0,0,0,.2-.1A9.19,9.19,0,0,1,70.7,40.729a4.344,4.344,0,0,1,3.839,2.355.2.2,0,0,0,.2.1.266.266,0,0,0,.2-.1,9.917,9.917,0,0,1,5.221-2.355c3.071,0,4.914,2.3,4.914,6.143V53.68a.992.992,0,0,0,.614.768,9.29,9.29,0,0,0,1.894.461h.051a2.806,2.806,0,0,1-.2,1.28,5.305,5.305,0,0,1-.819-.051c-.614-.051-1.536-.1-2.508-.1-2.048,0-3.122.051-4.146.1a2.486,2.486,0,0,1,0-1.229A8.437,8.437,0,0,0,81.2,54.6c.665-.2.819-.512.87-1.382,0-.614.154-5.989-.051-7.32a3.244,3.244,0,0,0-3.378-2.867,6.08,6.08,0,0,0-3.378,1.28c-.1.051-.1.2-.1.307h0a13.28,13.28,0,0,1,.154,2.713v6.091a.982.982,0,0,0,.768,1.024,2.253,2.253,0,0,0,.512.1c.307.051.614.154,1.075.2a2.707,2.707,0,0,1,0,.921q-.077.307-.154.307c-1.126-.051-2.3-.051-3.993-.051-.512,0-1.331,0-2.1.051-.614,0-1.177.051-1.484.051a1.407,1.407,0,0,1-.1-.665,1.47,1.47,0,0,1,.1-.614c.154-.051.307-.051.461-.1.41-.051.717-.154,1.075-.2.563-.154.768-.461.819-1.177a52.9,52.9,0,0,0-.051-7.576c-.41-1.894-1.484-2.867-3.225-2.867a6.321,6.321,0,0,0-3.378,1.28,1.173,1.173,0,0,0-.307.768v1.945l.051,6.654A1.014,1.014,0,0,0,66.3,54.5a6.651,6.651,0,0,0,.768.154c.2.051.41.051.614.1a2.78,2.78,0,0,1-.1,1.28,10.316,10.316,0,0,1-1.177-.051c-.717-.051-1.587-.051-2.559-.051-1.177,0-2,.051-2.662.051a2.452,2.452,0,0,1-1.331.307" transform="translate(-59.485 -33)" fill="#21313c"/>
      <path id="Path_3024" data-name="Path 3024" d="M127.064,49.936a2.958,2.958,0,0,0-1.792.512c-1.28.768-1.945,2.355-1.945,4.709,0,4.351,2.2,7.371,5.324,7.371a3.261,3.261,0,0,0,2.3-.819c.973-.768,1.484-2.355,1.484-4.607-.1-4.3-2.2-7.166-5.375-7.166m.563,14.23C122,64.166,120,60.02,120,56.181a7.25,7.25,0,0,1,3.276-6.3,9.7,9.7,0,0,1,5.068-1.484c4.3,0,7.32,3.071,7.32,7.525a7.683,7.683,0,0,1-3.481,6.859,9.746,9.746,0,0,1-4.556,1.382m56.818-14.23a2.958,2.958,0,0,0-1.792.512c-1.28.768-1.945,2.355-1.945,4.709,0,4.351,2.2,7.371,5.324,7.371a3.261,3.261,0,0,0,2.3-.819c.973-.768,1.484-2.355,1.484-4.607-.1-4.3-2.2-7.166-5.375-7.166m.614,14.23c-5.631,0-7.627-4.146-7.627-7.985a7.25,7.25,0,0,1,3.276-6.3,9.7,9.7,0,0,1,5.068-1.484c4.3,0,7.32,3.071,7.32,7.525a7.683,7.683,0,0,1-3.481,6.859,10.13,10.13,0,0,1-4.556,1.382" transform="translate(-89.024 -40.518)" fill="#21313c"/>
      <path id="Path_3025" data-name="Path 3025" d="M182.831,42.362c-1.74,0-2.867,1.382-2.867,3.481,0,2.15.973,4.658,3.686,4.658a2.659,2.659,0,0,0,1.74-.665,4.417,4.417,0,0,0,1.024-3.071c.051-2.764-1.331-4.4-3.583-4.4M182.626,57a3.054,3.054,0,0,0-1.433.358c-1.382.87-2,1.74-2,2.764a2.908,2.908,0,0,0,1.177,2.406,5.914,5.914,0,0,0,3.993,1.228c3.378,0,4.863-1.792,4.863-3.583a2.551,2.551,0,0,0-1.894-2.559A13.746,13.746,0,0,0,182.626,57m.2,8.65a7.078,7.078,0,0,1-4.709-1.382,4.3,4.3,0,0,1-1.74-3.276,2.617,2.617,0,0,1,.665-1.689,19.1,19.1,0,0,1,3.071-2.457c.051,0,.1-.1.1-.154,0-.1-.051-.154-.1-.154a3.2,3.2,0,0,1-2.15-2.1v-.1a.47.47,0,0,1,.2-.614,10.555,10.555,0,0,1,.921-.563,7.451,7.451,0,0,0,1.484-.973.308.308,0,0,0,.051-.2c0-.1-.051-.154-.1-.154a4.87,4.87,0,0,1-3.481-5.067,4.9,4.9,0,0,1,2.15-4.146,9.74,9.74,0,0,1,4.76-1.587h.1a9.977,9.977,0,0,1,3.634.819,5.572,5.572,0,0,0,2.15.358,2.855,2.855,0,0,0,2.3-.87,1.25,1.25,0,0,1,.1.665,2.58,2.58,0,0,1-.41,1.536,1.877,1.877,0,0,1-1.433.614h-.154a3.384,3.384,0,0,1-.87-.154l-.154.051c-.051.051,0,.154,0,.256v.051c.051.307.2,1.177.2,1.433a5.318,5.318,0,0,1-2.252,4.811,7.849,7.849,0,0,1-3.89,1.484h0a2.613,2.613,0,0,0-.461.051,3.97,3.97,0,0,0-.461.051h-.051c-.256.051-.921.409-.921.973,0,.461.307,1.075,1.74,1.177.307,0,.614.051.921.051a31.16,31.16,0,0,1,5.324.665,3.662,3.662,0,0,1,2.457,3.583c0,2.457-1.74,4.76-4.658,6.142a11.982,11.982,0,0,1-4.351.87m-8.6-10.544a6.069,6.069,0,0,1-2.15-.563.975.975,0,0,1-.256-.512c-.051-1.126-.051-4.5-.051-6.654a7.877,7.877,0,0,0-1.075-4.453,4.468,4.468,0,0,0-3.839-2c-1.484,0-3.43,1.024-5.016,2.355-.051.051-.307.256-.256-.1,0-.358.051-1.126.1-1.587a.7.7,0,0,0-.256-.665,22.862,22.862,0,0,1-5.119,1.331c-.819.154-1.024.921-.154,1.177a7.007,7.007,0,0,1,1.945.87c.358.256.307.614.307.921.051,2.508.051,6.3-.051,8.395-.051.819-.256,1.126-.87,1.28h.051a9.539,9.539,0,0,1-1.382.256,1.87,1.87,0,0,0,0,1.484c.358,0,2.3-.1,3.839-.1,2.2,0,3.327.1,3.839.1a2.176,2.176,0,0,0,.154-1.484,11.221,11.221,0,0,1-1.536-.2c-.614-.154-.768-.461-.768-1.126-.051-1.74-.051-5.477-.051-7.985a1.551,1.551,0,0,1,.409-1.228,5.019,5.019,0,0,1,3.071-1.126,3.633,3.633,0,0,1,2.3.768,3.341,3.341,0,0,1,1.075,2.1c.154,1.433.1,4.248.1,6.654,0,1.331-.1,1.689-.614,1.843a7.7,7.7,0,0,1-1.536.307,2.117,2.117,0,0,0,0,1.484c.973,0,2.1-.1,3.737-.1,2.048,0,3.378.1,3.89.1a2.347,2.347,0,0,0,.154-1.536m126.843,1.433-2.662-7.012H287.971l-2.662,7.012h-2.457L292.373,33.2h1.843l9.265,23.341Zm-7.832-20.73-4.556,11.926h9.06Zm14.947,17.4c0,.87.154,1.894,1.28,1.894a4.5,4.5,0,0,0,2.2-.973v2a4.409,4.409,0,0,1-2.611.717,2.449,2.449,0,0,1-2.508-1.433,9.619,9.619,0,0,1-.256-2.559V42.465h-3.327V40.827H306.3V34.121h1.894v6.705h3.481v1.638H308.19V53.214Zm6.091,3.327V33.251h2V56.592h-2Zm19.093,0c-2.611,0-3.839-.665-3.839-2.866-.358,1.177-2.15,3.225-5.579,3.225-3.327,0-4.965-2.047-4.965-4.3,0-3.122,2.662-4.248,7.883-5.426l2.662-.614V45.331c0-1.536-.768-3.225-3.686-3.225-3.225,0-4.249,1.28-4.249,3.788l-2.15-.358c.41-3.225,2.559-5.17,6.194-5.17,2.764,0,5.784.819,5.784,4.76v6.91c0,2.1.051,2.918,2,2.918h.307V56.49h-.358Zm-3.788-8.292-.973.256c-5.375,1.433-7.678,1.74-7.678,4.044,0,1.075.87,2.61,3.174,2.61a5.9,5.9,0,0,0,5.068-2.969,6.105,6.105,0,0,0,.41-2.764Zm7.576,3.788a4.275,4.275,0,0,0,4.4,3.122c3.02,0,4.044-1.689,4.044-3.071,0-1.331-.768-2.3-3.378-2.866l-1.843-.409c-2.457-.512-4.1-1.638-4.1-3.941a4.395,4.395,0,0,1,1.331-3.225,6.813,6.813,0,0,1,4.3-1.331,7.144,7.144,0,0,1,3.89,1.024,4.412,4.412,0,0,1,1.74,2.559l-1.843.512c-.358-1.843-2.252-2.355-3.839-2.355-3.225,0-3.634,1.689-3.634,2.662,0,1.843,1.945,2.3,3.327,2.559l1.638.307c2.764.563,4.351,2.15,4.351,4.607,0,1.792-1.433,4.709-5.887,4.709a6.431,6.431,0,0,1-6.347-4.248l1.843-.614Z" transform="translate(-106.408 -33.098)" fill="#21313c"/>
    </g>
  </g>
</svg>
