<svg xmlns="http://www.w3.org/2000/svg" width="39.998" height="39.999" viewBox="0 0 39.998 39.999">
  <path id="Union_16" data-name="Union 16" d="M21396-6208a20,20,0,0,1,20-20,20,20,0,0,1,20,20,20,20,0,0,1-20,20A20,20,0,0,1,21396-6208Zm12.605-17.506a18.928,18.928,0,0,0-6.041,4.073,18.95,18.95,0,0,0-4.074,6.042A18.894,18.894,0,0,0,21397-6208a18.92,18.92,0,0,0,1.494,7.4,19.01,19.01,0,0,0,4.074,6.042,18.928,18.928,0,0,0,6.041,4.073A18.857,18.857,0,0,0,21416-6189a18.916,18.916,0,0,0,7.4-1.49,19.014,19.014,0,0,0,6.041-4.073,19,19,0,0,0,4.072-6.042,18.881,18.881,0,0,0,1.49-7.4,18.855,18.855,0,0,0-1.49-7.392,18.944,18.944,0,0,0-4.072-6.042,19.014,19.014,0,0,0-6.041-4.073,18.916,18.916,0,0,0-7.4-1.49A18.857,18.857,0,0,0,21408.607-6225.508ZM21411-6200a3,3,0,0,1-3-3v-10a3,3,0,0,1,3-3h10a3,3,0,0,1,3,3v7.171a1.993,1.993,0,0,1-.586,1.415l-3.824,3.83a2.023,2.023,0,0,1-1.416.581Zm-2-13v10a2.008,2.008,0,0,0,2,2h7v-3a2,2,0,0,1,2-2h3v-7a2,2,0,0,0-2-2h-10A2,2,0,0,0,21409-6213Zm10,9v2.588l3.584-3.588H21420A1,1,0,0,0,21419-6204Zm-6.5-4a.5.5,0,0,1-.5-.5.5.5,0,0,1,.5-.5h7a.5.5,0,0,1,.5.5.5.5,0,0,1-.5.5Zm0-3a.5.5,0,0,1-.5-.5.5.5,0,0,1,.5-.5h7a.5.5,0,0,1,.5.5.5.5,0,0,1-.5.5Z" transform="translate(-21396.002 6227.999)" fill="#5064e3"/>
</svg>
