<svg xmlns="http://www.w3.org/2000/svg" width="26.016" height="23.988" viewBox="0 0 26.016 23.988">
  <path id="Union_11" data-name="Union 11" d="M10598.594,8833.988v-1.053h.242a3.082,3.082,0,0,0,3.083-3.083v-.935a.515.515,0,0,0-.515-.515h-9.891a.512.512,0,0,1-.514-.512v-17.378a.514.514,0,0,1,.514-.514h24.988a.514.514,0,0,1,.514.514v17.378a.514.514,0,0,1-.514.512h-9.891a.515.515,0,0,0-.515.515v.935a3.082,3.082,0,0,0,3.083,3.083h.242v1.053Zm-6.568-22.758v15.939a.208.208,0,0,0,.205.205h23.552a.207.207,0,0,0,.205-.205V8811.23a.205.205,0,0,0-.205-.205h-23.552A.206.206,0,0,0,10592.025,8811.23Zm3.4,12.989a.3.3,0,0,1,0-.594h5.4a.3.3,0,0,1,0,.594Zm16.76-1v-5.364h1.13v5.364Zm-2.611,0v-3.049h1.127v3.049Zm-2.611,0v-6.038h1.13v6.038Zm-2.611,0v-4.338h1.127v4.338Zm-8.926-.248a.294.294,0,1,1,0-.589h5.4a.294.294,0,1,1,0,.589Zm1.321-2.374a3.756,3.756,0,0,1,1.079-7.239v3.914l3.392,1.958a3.757,3.757,0,0,1-4.471,1.367Zm1.671-3.666v-3.573a3.757,3.757,0,0,1,3.1,5.36Zm11.9,1.639a1.19,1.19,0,0,1-.954-.55l-1.289-2.043a.59.59,0,0,0-.954-.062l-1.665,2-.453-.376,1.663-2a1.184,1.184,0,0,1,1.91.125l1.287,2.041a.594.594,0,0,0,.975.04l1.911-2.556-.285-.21,1.084-.362-.042,1.14-.283-.213-1.91,2.556a1.184,1.184,0,0,1-.945.473Z" transform="translate(-10591 -8810)" fill="#727A9D"/>
</svg>
