<svg xmlns="http://www.w3.org/2000/svg" width="27.37" height="27.586" viewBox="0 0 27.37 27.586">
  <g id="Group_2495" data-name="Group 2495" transform="translate(0.745 0.75)">
    <path id="Ellipse_147" data-name="Ellipse 147" d="M10-.75A10.75,10.75,0,0,1,17.6,17.6,10.75,10.75,0,0,1,2.4,2.4,10.679,10.679,0,0,1,10-.75Zm0,20A9.25,9.25,0,1,0,.75,10,9.26,9.26,0,0,0,10,19.25Z" transform="translate(5.875)" fill="#727A9D"/>
    <path id="Line_331" data-name="Line 331" d="M0,8.834a.75.75,0,0,1-.75-.75V0A.75.75,0,0,1,0-.75.75.75,0,0,1,.75,0V8.084A.75.75,0,0,1,0,8.834Z" transform="translate(15.896 6.039)" fill="#727A9D"/>
    <path id="Line_332" data-name="Line 332" d="M8.166.75H0A.75.75,0,0,1-.75,0,.75.75,0,0,1,0-.75H8.166a.75.75,0,0,1,.75.75A.75.75,0,0,1,8.166.75Z" transform="translate(11.861 10.134)" fill="#727A9D"/>
    <path id="Path_3019" data-name="Path 3019" d="M60.207,69.485h-.033a2.627,2.627,0,0,1-1.835-.773,2.653,2.653,0,0,1-.032-3.7l6.979-7.224a.75.75,0,0,1,1.079,1.042l-6.98,7.224a1.146,1.146,0,0,0,.014,1.6,1.134,1.134,0,0,0,1.593.02l7.185-6.839a.75.75,0,0,1,1.034,1.086l-7.185,6.839A2.627,2.627,0,0,1,60.207,69.485Z" transform="translate(-58.315 -42.649)" fill="#727A9D"/>
  </g>
</svg>
