<svg xmlns="http://www.w3.org/2000/svg" width="17.08" height="17.08" viewBox="0 0 17.08 17.08">
  <g id="Icon_feather-printer" data-name="Icon feather-printer" transform="translate(0.75 0.75)">
    <path id="Path_3038" data-name="Path 3038" d="M18.348,9.2a.75.75,0,0,1-.75-.75V3.75H9.75v4.7a.75.75,0,0,1-1.5,0V3A.75.75,0,0,1,9,2.25h9.348A.75.75,0,0,1,19.1,3V8.453A.75.75,0,0,1,18.348,9.2Z" transform="translate(-5.884 -3)" fill="#2D43AA"/>
    <path id="Path_3039" data-name="Path 3039" d="M17.022,21.261H15.464a.75.75,0,1,1,0-1.5h1.558a.809.809,0,0,0,.808-.808v-3.9a.809.809,0,0,0-.808-.808H4.558a.809.809,0,0,0-.808.808v3.9a.809.809,0,0,0,.808.808H6.116a.75.75,0,0,1,0,1.5H4.558A2.311,2.311,0,0,1,2.25,18.953v-3.9A2.311,2.311,0,0,1,4.558,12.75H17.022a2.311,2.311,0,0,1,2.308,2.308v3.9A2.311,2.311,0,0,1,17.022,21.261Z" transform="translate(-3 -8.047)" fill="#2D43AA"/>
    <path id="Path_3040" data-name="Path 3040" d="M9,20.25h9.348a.75.75,0,0,1,.75.75v6.232a.75.75,0,0,1-.75.75H9a.75.75,0,0,1-.75-.75V21A.75.75,0,0,1,9,20.25Zm8.6,1.5H9.75v4.732H17.6Z" transform="translate(-5.884 -11.652)" fill="#2D43AA"/>
  </g>
</svg>
