<svg xmlns="http://www.w3.org/2000/svg" width="39" height="39" viewBox="0 0 39 39">
  <g id="Group_2494" data-name="Group 2494" transform="translate(-829 -89)">
    <rect id="Rectangle_605" data-name="Rectangle 605" width="39" height="39" rx="7" transform="translate(829 89)" fill="#f1f8ff"/>
    <path id="Path_3022" data-name="Path 3022" d="M-10268.194,2751.5a.5.5,0,0,1-.345-.138.5.5,0,0,1-.018-.707l5.936-6.236a.5.5,0,0,1,.705-.02l3.446,3.24,7.565-6.617a.5.5,0,0,1,.705.047.5.5,0,0,1-.047.706l-7.906,6.916a.5.5,0,0,1-.672-.012l-3.415-3.21-5.593,5.876A.5.5,0,0,1-10268.194,2751.5Z" transform="matrix(0.995, -0.105, 0.105, 0.995, 10764.39, -3697.709)" fill="#5064e3"/>
    <path id="Path_3023" data-name="Path 3023" d="M-10249.141,2743.32a.5.5,0,0,1-.5-.5v-3.965h-4.092a.5.5,0,0,1-.5-.5.5.5,0,0,1,.5-.5h4.592a.5.5,0,0,1,.5.5v4.465A.5.5,0,0,1-10249.141,2743.32Z" transform="translate(11105.909 -2638.355)" fill="#5064e3"/>
    <path id="Line_335" data-name="Line 335" d="M17,.5H0A.5.5,0,0,1-.5,0,.5.5,0,0,1,0-.5H17a.5.5,0,0,1,.5.5A.5.5,0,0,1,17,.5Z" transform="translate(840.148 116.145)" fill="#5064e3"/>
  </g>
</svg>
