<svg id="Quiz" xmlns="http://www.w3.org/2000/svg" width="11.846" height="14" viewBox="0 0 11.846 14">
  <g id="Group_577" data-name="Group 577" transform="translate(0)">
    <g id="Rectangle_496" data-name="Rectangle 496" fill="none" stroke="#7183cc" stroke-linecap="round" stroke-width="1">
      <rect width="11.846" height="14" rx="2" stroke="none"/>
      <rect x="0.5" y="0.5" width="10.846" height="13" rx="1.5" fill="none"/>
    </g>
  </g>
  <path id="Path_3000" data-name="Path 3000" d="M68.478,69.771v-.347c0-.3.232-.468.564-.74a1.851,1.851,0,0,0,.887-1.493,1.556,1.556,0,0,0-1.712-1.582,1.73,1.73,0,0,0-1.732,1.7m1.927,4.477h0a.346.346,0,0,0,.347-.346h0a.347.347,0,0,0-.347-.347h0a.347.347,0,0,0-.347.347h0A.346.346,0,0,0,68.413,71.789Z" transform="translate(-62.715 -61.841)" fill="none" stroke="#7183cc" stroke-linecap="round" stroke-linejoin="round" stroke-width="1"/>
</svg>
