<svg xmlns="http://www.w3.org/2000/svg" width="19.635" height="21.725" viewBox="0 0 19.635 21.725">
  <g id="Quizzes_" data-name="Quizzes " transform="translate(-62.314 -62.745)">
    <path id="Path_3052" data-name="Path 3052" d="M78.583,63.495H66.029a2.947,2.947,0,0,0-2.965,2.789V78.141a2.947,2.947,0,0,0,2.965,2.79h3.836l1.883,2.509a.7.7,0,0,0,1.117,0l1.883-2.509h3.836a2.649,2.649,0,0,0,2.616-2.79V66.284A2.648,2.648,0,0,0,78.583,63.495Z" transform="translate(0 0)" fill="none" stroke="#5064e3" stroke-miterlimit="10" stroke-width="1.5"/>
    <path id="Path_3000" data-name="Path 3000" d="M69.646,72.819v-.582c0-.505.391-.788.95-1.245a3.114,3.114,0,0,0,1.492-2.513A2.618,2.618,0,0,0,69.527,65.8a2.661,2.661,0,0,0-.32.013,2.911,2.911,0,0,0-2.915,2.862m3.244,7.535h0a.581.581,0,0,0,.582-.58v0h0a.583.583,0,0,0-.582-.584h0a.583.583,0,0,0-.584.584h0a.58.58,0,0,0,.577.586h.007Z" transform="translate(2.702 1.931)" fill="none" stroke="#5064e3" stroke-linecap="round" stroke-linejoin="round" stroke-width="1.5"/>
  </g>
</svg>
