<svg xmlns="http://www.w3.org/2000/svg" width="12.424" height="12" viewBox="0 0 12.424 12">
  <g id="noun_U_Turn_1921180" data-name="noun_U Turn_1921180" transform="translate(0 12) rotate(-90)">
    <g id="Group_1701" data-name="Group 1701" transform="translate(0 0)">
      <path id="Path_3037" data-name="Path 3037" d="M11.745,9.678l-2.485,2.5a.87.87,0,0,1-.615.248.918.918,0,0,1-.615-.248l-2.485-2.5A.86.86,0,0,1,6.762,8.462l1.02,1.02V3.649A1.931,1.931,0,0,0,5.846,1.713H3.662A1.931,1.931,0,0,0,1.726,3.649v7.912a.862.862,0,0,1-.863.863A.854.854,0,0,1,0,11.561V3.649A3.65,3.65,0,0,1,3.649,0h2.2A3.65,3.65,0,0,1,9.5,3.649V9.482l1.02-1.02a.865.865,0,0,1,1.229,1.216Z" fill="#2d43aa"/>
    </g>
  </g>
</svg>
