<svg xmlns="http://www.w3.org/2000/svg" width="21.865" height="19.143" viewBox="0 0 21.865 19.143">
  <path id="Path_3778" data-name="Path 3778" d="M2.783,10.634,1.13,7.423a.733.733,0,0,1,1.3-.673l.863,1.682a9.64,9.64,0,0,1,17.963,1.4.731.731,0,0,1-1.4.4,8.177,8.177,0,0,0-15.271-1.1l2.4-.834a.732.732,0,1,1,.483,1.382l-3.8,1.346a.914.914,0,0,1-.234,0A.731.731,0,0,1,2.783,10.634Zm20.055,6.89-1.646-3.247a.731.731,0,0,0-.9-.329L16.5,15.278a.732.732,0,0,0,.483,1.382l2.406-.841A8.155,8.155,0,0,1,4.114,14.678a.731.731,0,0,0-1.4.395,9.61,9.61,0,0,0,17.963,1.412l.863,1.69a.728.728,0,0,0,1.3-.651Z" transform="translate(-1.048 -2.911)" fill="#4c4c4c"/>
</svg>
