<svg xmlns="http://www.w3.org/2000/svg" width="41.52" height="27.768" viewBox="0 0 41.52 27.768">
  <g id="SAP" transform="translate(-433.68 -1067.202)">
    <path id="Path_13146" data-name="Path 13146" d="M450.927,1074.97l-1.171,3.5h2.353Zm0,0-1.171,3.5h2.353ZM433.68,1067.2v20.45l27.1-.423L475.2,1067.2Zm8.172,14.842c-2.053,0-3.659-1.021-3.727-2.952H440.6a1.1,1.1,0,0,0,1.183,1.089c.679,0,1.115-.341,1.115-.9,0-1.768-4.775-.817-4.748-4.2,0-1.808,1.482-2.815,3.482-2.815,2.082,0,3.483,1.034,3.578,2.856H442.7a1.034,1.034,0,0,0-1.1-.993.847.847,0,0,0-.981.871c0,1.659,4.722.911,4.722,4.108C445.335,1080.711,444.083,1082.044,441.852,1082.044Zm11.428-.094-.573-1.688h-3.564l-.571,1.688h-2.434l3.454-9.55h2.694l3.455,9.55Zm7.278-3.429h-1.442v3.429H456.79v-9.55h3.768c2.34,0,3.509,1.319,3.509,3.074,0,1.577-1.074,3.047-3.51,3.047Zm-.177-4.244h-1.266v2.393h1.266c.925,0,1.319-.462,1.319-1.2S461.3,1074.277,460.381,1074.277Zm-10.625,4.189h2.353l-1.182-3.5Z" fill="#ffffff"/>
    <g id="Group_5148" data-name="Group 5148" transform="translate(433.68 1089.439)">
      <path id="Path_13147" data-name="Path 13147" d="M437.12,1216.46h-2.094v2.275H433.68v-5.526h1.346v2.165h2.094v-2.165h1.346v5.526H437.12Z" transform="translate(-433.68 -1213.205)" fill="#ffffff"/>
      <path id="Path_13148" data-name="Path 13148" d="M472.885,1217.76h-2.062l-.331.976h-1.409l2-5.526h1.559l2,5.526h-1.425Zm-1.031-3.062-.677,2.023h1.362Z" transform="translate(-463.691 -1213.205)" fill="#ffffff"/>
      <path id="Path_13149" data-name="Path 13149" d="M514.495,1213.2v5.526h-1.346l-2.251-3.409v3.409h-1.346V1213.2H510.9l2.251,3.424V1213.2Z" transform="translate(-497.995 -1213.205)" fill="#ffffff"/>
      <path id="Path_13150" data-name="Path 13150" d="M549.841,1217.76h-2.062l-.331.976h-1.409l2-5.526H549.6l2,5.526h-1.425Zm-1.031-3.062-.677,2.023h1.362Z" transform="translate(-528.925 -1213.205)" fill="#ffffff"/>
    </g>
  </g>
</svg>
