<svg xmlns="http://www.w3.org/2000/svg" width="40" height="40" viewBox="0 0 40 40">
  <g id="Group_1573" data-name="Group 1573" transform="translate(-1097 -281)">
    <g id="Group_966" data-name="Group 966" transform="translate(-73.939 265)">
      <g id="Group_970" data-name="Group 970" transform="translate(73.939 -265)">
        <rect id="Rectangle_701" data-name="Rectangle 701" width="40" height="40" rx="20" transform="translate(1097 281)" fill="#5064e3"/>
      </g>
    </g>
    <path id="Union_34" data-name="Union 34" d="M19496.5,3619.578l-6.5,3.793V3608a2,2,0,0,1,2-2h9a2,2,0,0,1,2,2v15.374Zm5.5,2.051V3608a1,1,0,0,0-1-1h-9a1,1,0,0,0-1,1v13.632l5.5-3.206Zm-3.705-6.339-1.791-1.277-1.791,1.277a.359.359,0,0,1-.152.054.238.238,0,0,1-.137-.059.247.247,0,0,1-.084-.274l.705-2.046-1.836-1.3a.241.241,0,0,1-.1-.171c0-.01-.006-.024-.006-.039a.249.249,0,0,1,.244-.245h2.248l.68-2.021a.238.238,0,0,1,.23-.161.245.245,0,0,1,.23.161l.68,2.021h2.227a.259.259,0,0,1,.26.245.242.242,0,0,1-.078.161l-.045.039-1.82,1.307.705,2.046a.244.244,0,0,1-.084.274.239.239,0,0,1-.131.059A.269.269,0,0,1,19498.293,3615.291Z" transform="translate(-18379 -3313)" fill="#fff"/>
  </g>
</svg>
