<svg xmlns="http://www.w3.org/2000/svg" width="11.092" height="11.833" viewBox="0 0 11.092 11.833">
  <g id="Group_1270" data-name="Group 1270" transform="translate(0.154 0)" opacity="0.5">
    <path id="Ellipse_124" data-name="Ellipse 124" d="M5,1.5A3.5,3.5,0,1,0,8.5,5,3.5,3.5,0,0,0,5,1.5M5,0A5,5,0,1,1,0,5,5,5,0,0,1,5,0Z" transform="translate(-0.154 0)" fill="#5f6a8a"/>
    <path id="Line_294" data-name="Line 294" d="M2.37,3.12a.748.748,0,0,1-.53-.22L-.53.53A.75.75,0,0,1-.53-.53.75.75,0,0,1,.53-.53L2.9,1.84a.75.75,0,0,1-.53,1.28Z" transform="translate(7.818 8.713)" fill="#5f6a8a"/>
  </g>
</svg>
