<svg xmlns="http://www.w3.org/2000/svg" width="11.535" height="11.522" viewBox="0 0 11.535 11.522">
  <g id="Icon_feather-link" data-name="Icon feather-link" transform="translate(-2.493 -2.509)">
    <path id="Path_3275" data-name="Path 3275" d="M17.109,10.352q-.112,0-.224-.008A3.131,3.131,0,0,1,14.6,9.1a.5.5,0,1,1,.8-.6,2.133,2.133,0,0,0,3.216.23l1.58-1.58A2.132,2.132,0,1,0,17.18,4.132l-.906.9a.5.5,0,0,1-.705-.709l.905-.9A3.132,3.132,0,0,1,20.9,7.855L19.323,9.434A3.13,3.13,0,0,1,17.109,10.352Z" transform="translate(-7.793)" fill="#2d43aa"/>
    <path id="Path_3276" data-name="Path 3276" d="M5.625,20.835A3.131,3.131,0,0,1,3.41,15.49L4.99,13.91a3.132,3.132,0,0,1,4.724.338.5.5,0,1,1-.8.6,2.133,2.133,0,0,0-3.216-.23L4.117,16.2a2.132,2.132,0,1,0,3.016,3.016l.9-.9a.5.5,0,0,1,.707.707l-.9.9A3.123,3.123,0,0,1,5.625,20.835Z" transform="translate(0 -6.805)" fill="#2d43aa"/>
  </g>
</svg>
