<svg xmlns="http://www.w3.org/2000/svg" width="16.459" height="9.618" viewBox="0 0 16.459 9.618">
  <g id="noun_filter_1620734" transform="translate(-16 -26)">
    <path id="Path_3048" data-name="Path 3048" d="M16.484,26.968H31.975a.484.484,0,1,0,0-.968H16.484a.484.484,0,1,0,0,.968Z" fill="#5064e3"/>
    <path id="Path_3049" data-name="Path 3049" d="M16.484,70.968h5.809a.484.484,0,0,0,0-.968H16.484a.484.484,0,1,0,0,.968Z" transform="translate(0 -35.35)" fill="#5064e3"/>
    <path id="Path_3050" data-name="Path 3050" d="M16.484,48.968h10.65a.484.484,0,0,0,0-.968H16.484a.484.484,0,0,0,0,.968Z" transform="translate(0 -17.675)" fill="#5064e3"/>
  </g>
</svg>
