<svg xmlns="http://www.w3.org/2000/svg" width="27.471" height="34.094" viewBox="0 0 27.471 34.094">
  <g id="MS_SQL" data-name="MS SQL" transform="translate(-1026.828 -339.476)">
    <path id="Path_13137" data-name="Path 13137" d="M1026.83,554.762a6,6,0,0,1,.26-1.114,9.737,9.737,0,0,1,1.7-2.755,4.333,4.333,0,0,1,1.624-1.234c1.846-.826,3.665-1.713,5.525-2.507,1.611-.687,3.274-1.236,4.933-1.792,1.434-.481,2.877-.934,4.32-1.383.16-.05.191-.013.211.14a10.135,10.135,0,0,1,.094,1.179,35.511,35.511,0,0,1-.213,4.745,30.658,30.658,0,0,1-1.989,7.867c-.4.983-.876,1.932-1.35,2.881h-.279a.734.734,0,0,0-.116-.028c-.469-.037-.937-.07-1.406-.107-1.747-.136-3.489-.309-5.218-.6a17.361,17.361,0,0,1-4.269-1.212,8.416,8.416,0,0,1-3.419-2.61,1.918,1.918,0,0,1-.367-.852c-.013-.078.009-.164-.043-.235Z" transform="translate(0 -187.219)" fill="#fff"/>
    <path id="Path_13138" data-name="Path 13138" d="M1093.91,402.322c3.574.829,7.111,1.6,10.662,2.287a.189.189,0,0,1-.044.138,36.83,36.83,0,0,1-2.044,3.355.192.192,0,0,1-.254.091,36.1,36.1,0,0,0-4.65-1.012c-.063-.009-.119-.013-.146-.093a8.966,8.966,0,0,0-2.13-3.246c-.446-.472-.884-.953-1.326-1.43a.637.637,0,0,1-.068-.09Z" transform="translate(-61.415 -57.542)" fill="#fff"/>
    <path id="Path_13139" data-name="Path 13139" d="M1101.87,345.743q-4.971-1.013-9.911-2.168c.025-.066.081-.077.124-.1l6.73-3.96c.118-.07.152-.046.2.073.531,1.291,1.04,2.592,1.659,3.845.351.712.731,1.409,1.1,2.113C1101.8,345.6,1101.827,345.657,1101.87,345.743Z" transform="translate(-59.625)" fill="#fff"/>
    <path id="Path_13140" data-name="Path 13140" d="M1267.84,458.122a.244.244,0,0,1-.122-.051q-1.217-.708-2.485-1.324c-.106-.052-.12-.084-.038-.179a35.465,35.465,0,0,0,2.792-3.731c.064-.1.112-.092.2-.045a10.776,10.776,0,0,1,2.843,2.269,19.331,19.331,0,0,1,1.4,1.661c.051.068.118.122-.032.162q-2.257.607-4.512,1.222Z" transform="translate(-218.191 -103.72)" fill="#fff"/>
    <path id="Path_13141" data-name="Path 13141" d="M1131.7,492.462c-.69.722-1.388,1.4-2.116,2.05q-.838.747-1.72,1.441a.728.728,0,0,1-.228.121,59.816,59.816,0,0,0-5.642,2.065c-.02.009-.041.014-.111.038.375-.314.714-.592,1.045-.877a36.333,36.333,0,0,0,5.474-5.866.223.223,0,0,1,.3-.093c.959.311,1.906.654,2.834,1.048.048.019.095.041.164.073Z" transform="translate(-87.026 -139.025)" fill="#fff"/>
    <path id="Path_13142" data-name="Path 13142" d="M1212.93,432.983c.412.094.825.186,1.237.283a25.519,25.519,0,0,1,2.588.742c.136.048.149.087.069.207a37.691,37.691,0,0,1-2.776,3.658.188.188,0,0,1-.261.061,31.521,31.521,0,0,0-3.019-1.152c-.147-.048-.145-.091-.066-.206a36.184,36.184,0,0,0,2.073-3.46C1212.808,433.056,1212.819,432.96,1212.93,432.983Z" transform="translate(-168.295 -85.611)" fill="#fff"/>
    <path id="Path_13143" data-name="Path 13143" d="M1085.32,485.386c.4-.411.786-.807,1.17-1.208.743-.775,1.483-1.553,2.166-2.383a6.068,6.068,0,0,0,1.351-4.547,2.374,2.374,0,0,0-.04-.345c-.04-.166.029-.182.168-.157q1.072.184,2.131.43c.412.1.82.207,1.232.3.138.032.165.065.067.19q-1.06,1.37-2.247,2.636a35.508,35.508,0,0,1-5.818,4.987c-.043.029-.086.059-.13.087-.007.008-.019.006-.05.01Z" transform="translate(-53.552 -125.674)" fill="#fff"/>
    <path id="Path_13144" data-name="Path 13144" d="M1231.26,513.769a.163.163,0,0,1,.074-.109q.885-.838,1.713-1.733c.059-.063.1-.11.2-.061.537.26,1.071.526,1.594.813a.418.418,0,0,1,.053.05c-1.222.332-2.428.671-3.634,1.04Z" transform="translate(-187.169 -157.818)" fill="#fff"/>
  </g>
</svg>
