<svg xmlns="http://www.w3.org/2000/svg" width="15.481" height="12.579" viewBox="0 0 15.481 12.579"><defs><style>.a{fill:#8daac5;}</style></defs><path class="a" d="M15.481,49.489a6.617,6.617,0,0,1-1.829.5,3.156,3.156,0,0,0,1.4-1.754A6.343,6.343,0,0,1,13.036,49a3.174,3.174,0,0,0-5.49,2.17,3.268,3.268,0,0,0,.074.724,8.984,8.984,0,0,1-6.542-3.32,3.175,3.175,0,0,0,.975,4.242A3.134,3.134,0,0,1,.619,52.43v.035a3.188,3.188,0,0,0,2.543,3.119,3.168,3.168,0,0,1-.832.1,2.806,2.806,0,0,1-.6-.054,3.2,3.2,0,0,0,2.966,2.211A6.377,6.377,0,0,1,.76,59.2,5.944,5.944,0,0,1,0,59.154a8.935,8.935,0,0,0,4.869,1.424A8.971,8.971,0,0,0,13.9,51.547c0-.14,0-.276-.012-.41A6.332,6.332,0,0,0,15.481,49.489Z" transform="translate(0 -48)"/></svg>