<svg xmlns="http://www.w3.org/2000/svg" width="12.375" height="12.813" viewBox="0 0 12.375 12.813">
  <path id="Path_3037" data-name="Path 3037" d="M16.212,5.332,13.649,2.756a.9.9,0,0,0-.634-.256.947.947,0,0,0-.634.256L9.819,5.332a.887.887,0,0,0,1.254,1.254l1.052-1.052V11.55a1.992,1.992,0,0,1-2,2H7.876a1.992,1.992,0,0,1-2-2V3.39a.89.89,0,1,0-1.78,0v8.16a3.764,3.764,0,0,0,3.763,3.763h2.266a3.764,3.764,0,0,0,3.763-3.763V5.535l1.052,1.052a.892.892,0,0,0,1.268-1.254Z" transform="translate(-4.1 -2.5)" fill="#5064e3"/>
</svg>
