<svg xmlns="http://www.w3.org/2000/svg" width="12.425" height="12" viewBox="0 0 12.425 12">
  <g id="noun_U_Turn_1921180" data-name="noun_U Turn_1921180" transform="translate(-2.5 16.1) rotate(-90)">
    <g id="Group_1701" data-name="Group 1701" transform="translate(4.1 2.5)">
      <path id="Path_3037" data-name="Path 3037" d="M15.845,5.247l-2.485-2.5a.87.87,0,0,0-.615-.249.918.918,0,0,0-.615.249l-2.485,2.5a.86.86,0,0,0,1.216,1.216l1.02-1.02v5.833a1.931,1.931,0,0,1-1.936,1.936H7.762a1.931,1.931,0,0,1-1.936-1.936V3.363a.863.863,0,0,0-1.726,0v7.913a3.651,3.651,0,0,0,3.649,3.649h2.2A3.651,3.651,0,0,0,13.6,11.276V5.443l1.02,1.02a.865.865,0,0,0,1.229-1.216Z" transform="translate(-4.1 -2.5)" fill="#2d43aa"/>
    </g>
  </g>
</svg>
