<svg xmlns="http://www.w3.org/2000/svg" width="14" height="14" viewBox="0 0 14 14">
  <path id="Union_19" data-name="Union 19" d="M19135-16169.17v-7.408a2.254,2.254,0,0,1,2.094-2.42c.494,0,.941.012,1.391.012a6.4,6.4,0,0,0,.154.922c-.49,0-1.006,0-1.557-.012h-.021a1.244,1.244,0,0,0-.916.445,1.535,1.535,0,0,0-.383,1.066v5.633c.213-.25.416-.475.57-.66l.047-.051a.984.984,0,0,1,.748-.367h2.758c.244,0,.457,0,.646.014a2.964,2.964,0,0,0,1.334-.148,3.154,3.154,0,0,0,1.537-1.252,3.732,3.732,0,0,0,.432-.865.013.013,0,0,0,.014-.014,6.588,6.588,0,0,0,.2-2.314c-.014-.094-.014-.186-.035-.279a1.586,1.586,0,0,0-.482-.867,1.186,1.186,0,0,0-.807-.316h-1.654a2.938,2.938,0,0,1-.262-.553c-.031-.117-.064-.236-.088-.367h2a1.934,1.934,0,0,1,1.279.5,2.521,2.521,0,0,1,.8,1.605,1.852,1.852,0,0,1,.021.25,9.211,9.211,0,0,1-.154,2.344c-.037.107-.07.225-.1.33a5.056,5.056,0,0,1-.547,1.1,3.944,3.944,0,0,1-1.928,1.568,5.419,5.419,0,0,1-2.205.156h-2.754a.289.289,0,0,0-.2.092.426.426,0,0,0-.049.055c-.445.512-1.242,1.445-1.643,1.918a.139.139,0,0,1-.107.053A.155.155,0,0,1,19135-16169.17Zm13.752-3.854c-.4-.479-1.209-1.412-1.646-1.924l-.045-.055a.294.294,0,0,0-.2-.088h-1.334c.023-.316.023-.621.023-.92h1.311a1.006,1.006,0,0,1,.748.354l.049.051c.152.186.357.41.57.658v-5.619a1.655,1.655,0,0,0-.381-1.064,1.253,1.253,0,0,0-.916-.447h-.025c-1.41.025-2.576.012-3.809.012h-1.834a1.2,1.2,0,0,0-.809.316,1.615,1.615,0,0,0-.516,1.158c-.008.262-.008.523-.008.791a6.071,6.071,0,0,0,.076,1.027v.012c.012.039.012.076.023.119s.021.092.031.129.021.082.035.121.023.078.033.115a2.2,2.2,0,0,0,.09.238c.021.037.033.08.057.117.01,0,.01.014.01.014.014.025.033.066.045.092a.99.99,0,0,1,.059.107c.02.037.031.063.053.105.012.012.012.025.025.037.031.055.074.119.111.174s.09.117.135.182a3.059,3.059,0,0,0,1.4,1.051,2.981,2.981,0,0,0,1.213.15,5.534,5.534,0,0,1-.049.92,3.426,3.426,0,0,1-1.387-.186,3.985,3.985,0,0,1-1.928-1.568,4.887,4.887,0,0,1-.547-1.1c-.035-.117-.066-.225-.1-.34v-.014c-.012-.055-.025-.107-.033-.16,0-.027-.014-.039-.014-.053-.01-.055-.021-.105-.031-.16a1.109,1.109,0,0,0-.023-.18v-.014c-.01-.068-.01-.131-.025-.2l-.008-.117v-.025c-.035-.475-.021-.947-.014-1.424a2.6,2.6,0,0,1,.816-1.855,1.942,1.942,0,0,1,1.281-.5c2.072,0,3.58.025,5.643-.014a2.265,2.265,0,0,1,2.1,2.447v7.41a.158.158,0,0,1-.15.166A.13.13,0,0,1,19148.752-16173.023Z" transform="translate(-19135 16183)" fill="#4c4c4c"/>
</svg>
