<svg xmlns="http://www.w3.org/2000/svg" width="26.123" height="30.144" viewBox="0 0 26.123 30.144">
  <g id="VERTICA" transform="translate(-15534.5 -9744.5)">
    <path id="Line_1971" data-name="Line 1971" d="M0,13.062a1,1,0,0,1-1-1V0A1,1,0,0,1,0-1,1,1,0,0,1,1,0V12.062A1,1,0,0,1,0,13.062Z" transform="translate(15543.54 9745.5)" fill="#ffffff"/>
    <path id="Line_1975" data-name="Line 1975" d="M8.042,17.082a1,1,0,0,1-.9-.553L-.894.447A1,1,0,0,1-.447-.894,1,1,0,0,1,.894-.447L8.935,15.635a1,1,0,0,1-.894,1.447Z" transform="translate(15535.5 9753.54)" fill="#ffffff"/>
    <path id="Line_1976" data-name="Line 1976" d="M0,17.082a1,1,0,0,1-.446-.106,1,1,0,0,1-.447-1.342L7.147-.447A1,1,0,0,1,8.488-.894,1,1,0,0,1,8.935.447L.894,16.529A1,1,0,0,1,0,17.082Z" transform="translate(15543.54 9753.54)" fill="#ffffff"/>
    <path id="Line_1974" data-name="Line 1974" d="M0,13.062a1,1,0,0,1-1-1V0A1,1,0,0,1,0-1,1,1,0,0,1,1,0V12.062A1,1,0,0,1,0,13.062Z" transform="translate(15559.623 9761.582)" fill="#ffffff"/>
    <path id="Line_1972" data-name="Line 1972" d="M16.082,1H0A1,1,0,0,1-1,0,1,1,0,0,1,0-1H16.082a1,1,0,0,1,1,1A1,1,0,0,1,16.082,1Z" transform="translate(15543.54 9745.5)" fill="#ffffff"/>
    <path id="Line_1973" data-name="Line 1973" d="M16.082,1H0A1,1,0,0,1-1,0,1,1,0,0,1,0-1H16.082a1,1,0,0,1,1,1A1,1,0,0,1,16.082,1Z" transform="translate(15543.54 9773.644)" fill="#ffffff"/>
  </g>
</svg>
