<svg id="Layer_1" data-name="Layer 1" xmlns="http://www.w3.org/2000/svg" viewBox="0 0 1080 480"><defs><style>.cls-1{fill:#001f45;}.cls-2{fill:#00c96d;}.cls-3{fill:#003a92;}.cls-4{fill:#004a9b;}.cls-5{fill:#009e5a;}.cls-6{fill:#002c6b;}.cls-7{fill:#00dc7c;}.cls-8{fill:#0067a9;}.cls-9{fill:#ffa442;}.cls-10{fill:#005da7;}</style></defs><path class="cls-1" d="M445.9,247.5c0-32,23.9-53.1,54.9-53.1a65.1,65.1,0,0,1,12.2,1.1c5.1.8,10.5,4.3,8.6,11.9l-1.6,7.5c-1.1,5.1-4.9,8.7-11.6,7.3a50.2,50.2,0,0,0-7.3-.5c-14.5,0-24,10.5-24,25.8v80.9c0,5.7-3.7,9.4-9.4,9.4H455.3c-5.7,0-9.4-3.7-9.4-9.4Z"/><path class="cls-1" d="M540.5,255.6c0-39.6,24.6-61.2,58-61.2s58.2,21.6,58.2,61.5v24c0,39.6-24.5,61.4-58.2,61.4s-58-21.8-58-61.4Zm58,58.5c17.8,0,27-11.6,27-35.6V257.2c0-23.9-9.2-35.5-27-35.5s-26.7,11.6-26.7,35.5v21.3C571.8,302.5,581,314.1,598.5,314.1Z"/><path class="cls-1" d="M690.8,151.8c0-5.6,2.9-9.9,8.9-10.8l11.8-2.4c6.5-.8,10.8,2.7,10.8,8.9V328.4c0,5.7-3.8,9.4-9.4,9.4H700.2c-5.7,0-9.4-3.7-9.4-9.4Z"/><path class="cls-1" d="M805.9,251.6H828v-5.2c0-15.8-7.8-24.7-22.1-24.7-10.8,0-21.8,2.4-28.8,4s-10-1.1-11.4-6.7l-1.8-6.8c-1.7-5.9,1.3-10.5,6.7-12.1s20.2-5.7,35.3-5.7c32.4,0,53.9,20.2,53.9,52v48.3c0,26.7-24.5,46.6-53.3,46.6s-53.4-20.2-53.4-46.6C753.1,266.1,774.6,251.6,805.9,251.6Zm.6,62.5c13.4,0,21.5-9.7,21.5-19.4V274.8H805.6c-15.1,0-20.5,9.1-20.5,19.4S792.2,314.1,806.5,314.1Z"/><path class="cls-1" d="M890.4,158.6c0-10.5,8.8-18.1,18.8-18.1s18.9,7.6,18.9,18.1-8.6,18.3-18.9,18.3S890.4,168.5,890.4,158.6Z"/><rect class="cls-1" x="893.6" y="197.9" width="31.5" height="139.91" rx="9.4"/><path class="cls-2" d="M333.1,239v32.6a34.3,34.3,0,0,1-2.9,13.9h0l-40-21.4h0Z"/><path class="cls-3" d="M333.1,207.6V239l-42.9-24.3v-.9l39.4-21.2A34,34,0,0,1,333.1,207.6Z"/><polygon class="cls-4" points="333.1 239 290.2 264.1 290.2 214.7 333.1 239"/><path class="cls-5" d="M290.2,264.1l40,21.4a34.5,34.5,0,0,1-14.5,16.2l-25.5,14.7Z"/><path class="cls-6" d="M329.6,192.6l-39.4,21.2V162.4l25.9,15.4A35,35,0,0,1,329.6,192.6Z"/><polygon class="cls-7" points="290.2 264.1 290.2 316.4 243.1 291.6 290.1 264.1 290.2 264.1"/><polygon class="cls-8" points="290.2 214.7 290.2 264.1 290.1 264.1 243.1 239 289.4 214.2 290.2 214.7"/><polygon class="cls-3" points="290.2 213.8 290.2 214.7 289.4 214.2 290.2 213.8"/><polygon class="cls-3" points="290.2 162.4 290.2 213.8 289.4 214.2 243.1 187.9 290.2 162.4"/><path class="cls-1" d="M290.2,162.4l-47.1,25.5V140.5a34.9,34.9,0,0,1,18.5,4.9Z"/><path class="cls-9" d="M290.2,316.4l-28.9,16.8a35,35,0,0,1-18.2,4.6V291.6Z"/><polygon class="cls-2" points="290.1 264.1 243.1 291.6 243.1 239 290.1 264.1"/><polygon class="cls-10" points="243.1 187.9 289.4 214.2 243.1 239 243.1 187.9"/><path class="cls-9" d="M243.1,291.6v46.2a33.6,33.6,0,0,1-16.3-4.5l-29.9-16.9Z"/><polygon class="cls-7" points="243.1 239 243.1 291.6 196.8 264.6 196.8 264.5 243.1 239"/><polygon class="cls-8" points="243.1 187.9 243.1 239 197 214 243.1 187.9"/><path class="cls-1" d="M243.1,140.5v47.4l-46.2-25.5,29.5-17.2A35.3,35.3,0,0,1,243.1,140.5Z"/><polygon class="cls-3" points="243.1 187.9 197 214 196.8 213.9 196.8 162.4 243.1 187.9"/><polygon class="cls-10" points="243.1 239 196.8 264.5 196.8 214.2 197 214 243.1 239"/><polygon class="cls-2" points="243.1 291.6 196.9 316.4 196.8 316.4 196.8 316.4 196.8 264.6 243.1 291.6"/><path class="cls-5" d="M196.9,264.6v51.8l-26.3-14.8a35,35,0,0,1-14-14.8l40.2-22.2Z"/><polygon class="cls-4" points="196.8 264.5 196.8 264.6 196.8 264.6 196.8 264.5"/><polygon class="cls-4" points="196.8 214.2 196.8 264.5 196.8 264.6 153 239 196.8 214.2"/><path class="cls-3" d="M196.9,213.9v.3L153,239V207.9a33.7,33.7,0,0,1,3.8-15.7Z"/><path class="cls-6" d="M196.9,162.4v51.5l-40.1-21.7a34.4,34.4,0,0,1,13.5-14.3Z"/><path class="cls-2" d="M153,239l43.8,25.6-40.2,22.2a35.2,35.2,0,0,1-3.6-15.4Z"/></svg>