<svg id="Layer_1" data-name="Layer 1" xmlns="http://www.w3.org/2000/svg" viewBox="0 0 483.9 480"><defs><style>.cls-1{fill:#00c96d;}.cls-2{fill:#003a92;}.cls-3{fill:#004a9b;}.cls-4{fill:#009e5a;}.cls-5{fill:#002c6b;}.cls-6{fill:#00dc7c;}.cls-7{fill:#0067a9;}.cls-8{fill:#001f45;}.cls-9{fill:#ffa442;}.cls-10{fill:#005da7;}</style></defs><path class="cls-1" d="M411.9,238.9V300a65.1,65.1,0,0,1-5.4,26h-.1l-74.9-40h0Z"/><path class="cls-2" d="M411.9,180v58.9l-80.4-45.6v-1.8l74-39.6A64,64,0,0,1,411.9,180Z"/><polygon class="cls-3" points="411.9 238.9 331.5 285.9 331.5 193.3 411.9 238.9"/><path class="cls-4" d="M331.5,286l74.9,40a64.7,64.7,0,0,1-27,30.4l-47.9,27.7Z"/><path class="cls-5" d="M405.5,151.9l-74,39.6V95.2l48.6,28.9A65.4,65.4,0,0,1,405.5,151.9Z"/><polygon class="cls-6" points="331.5 286 331.5 384.1 243 337.6 331.4 285.9 331.5 286"/><polygon class="cls-7" points="331.5 193.3 331.5 285.9 331.4 285.9 243 238.9 329.9 192.4 331.5 193.3"/><polygon class="cls-2" points="331.5 191.5 331.5 193.3 329.9 192.4 331.5 191.5"/><polygon class="cls-2" points="331.5 95.2 331.5 191.5 329.9 192.4 243 143 331.5 95.2"/><path class="cls-8" d="M331.5,95.2,243,143V54.2a64.7,64.7,0,0,1,34.9,9.1Z"/><path class="cls-9" d="M331.5,384.1l-54.3,31.4a63.8,63.8,0,0,1-34.2,8.6V337.6Z"/><polygon class="cls-1" points="331.4 285.9 243 337.6 243 238.9 331.4 285.9"/><polygon class="cls-10" points="243 143 329.9 192.4 243 238.9 243 143"/><path class="cls-9" d="M243,337.6v86.5a63.4,63.4,0,0,1-30.4-8.3l-56.1-31.7Z"/><polygon class="cls-6" points="243 238.9 243 337.6 156.4 286.9 156.4 286.7 243 238.9"/><polygon class="cls-7" points="243 143 243 238.9 156.8 192 243 143"/><path class="cls-8" d="M243,54.2V143L156.4,95.2,211.8,63A63.7,63.7,0,0,1,243,54.2Z"/><polygon class="cls-2" points="243 143 156.8 192 156.4 191.8 156.4 95.2 243 143"/><polygon class="cls-10" points="243 238.9 156.4 286.7 156.4 192.2 156.8 192 243 238.9"/><polygon class="cls-1" points="243 337.6 156.5 384.1 156.4 384.1 156.4 384 156.4 286.9 243 337.6"/><path class="cls-4" d="M156.4,286.9V384l-49.2-27.7a65.5,65.5,0,0,1-26.3-27.9l75.3-41.6Z"/><polygon class="cls-3" points="156.4 286.7 156.4 286.9 156.2 286.8 156.4 286.7"/><polygon class="cls-3" points="156.4 192.2 156.4 286.7 156.2 286.8 74.2 238.9 156.4 192.2"/><path class="cls-2" d="M156.4,191.8v.4L74.2,238.9V180.5A64.8,64.8,0,0,1,81.3,151Z"/><path class="cls-5" d="M156.4,95.2v96.6L81.3,151a64.6,64.6,0,0,1,25.3-26.8Z"/><path class="cls-1" d="M74.2,238.9l82,47.9L80.9,328.4a65.9,65.9,0,0,1-6.7-28.8Z"/></svg>