<svg xmlns="http://www.w3.org/2000/svg" width="13.432" height="12.003" viewBox="0 0 13.432 12.003">
  <path id="Union_51" data-name="Union 51" d="M23128.752-1400.5h3a1.5,1.5,0,0,1-1.5,1.5A1.5,1.5,0,0,1,23128.752-1400.5Zm5.76-.372-1.928-1.928a.3.3,0,0,1,0-.418l.424-.424a.305.305,0,0,1,.418,0l1.3,1.3,2.781-2.781a.294.294,0,0,1,.418,0l.418.418a.3.3,0,0,1,0,.424l-3.408,3.409a.3.3,0,0,1-.211.087A.3.3,0,0,1,23134.512-1400.872Zm-8.756-.377a.756.756,0,0,1-.756-.749.73.73,0,0,1,.2-.505.37.37,0,0,0,.047-.052l.041-.041a4.41,4.41,0,0,0,1.213-3.525,3.7,3.7,0,0,1,3-3.635v-.488a.753.753,0,0,1,.75-.755.753.753,0,0,1,.754.755v.488a3.723,3.723,0,0,1,2.945,2.979,4.01,4.01,0,0,0-2.689,3.78,3.994,3.994,0,0,0,.4,1.748Z" transform="translate(-23125 1411)" fill="#2ea765"/>
</svg>
