<svg xmlns="http://www.w3.org/2000/svg" width="18.713" height="15.927" viewBox="0 0 18.713 15.927">
  <g id="noun_discussion_1451321" transform="translate(-1.5 -10.699)">
    <path id="Path_3074" data-name="Path 3074" d="M14.644,43.809a1.834,1.834,0,0,0-.03-.284A2.726,2.726,0,0,0,13.536,41.7a2.818,2.818,0,0,0-1.707-.569H9.15a3.425,3.425,0,0,0,.12.419,3.2,3.2,0,0,0,.344.629H11.83a1.762,1.762,0,0,1,1.078.359,1.741,1.741,0,0,1,.644.988,2.271,2.271,0,0,1,.045.314,6.365,6.365,0,0,1-.269,2.635.015.015,0,0,1-.015.015,4.093,4.093,0,0,1-.584.988A4.2,4.2,0,0,1,10.677,48.9a4.568,4.568,0,0,1-1.781.165c-.254-.015-.539-.015-.868-.015H4.344a1.417,1.417,0,0,0-1,.419l-.06.06c-.21.21-.479.464-.763.749V43.869a1.615,1.615,0,0,1,.509-1.213,1.814,1.814,0,0,1,1.228-.509h.03c.734.015,1.422.015,2.081.015a6.494,6.494,0,0,1-.21-1.048c-.6,0-1.2-.015-1.856-.015a2.763,2.763,0,0,0-2.8,2.755v8.428a.191.191,0,0,0,.329.135c.539-.539,1.6-1.6,2.2-2.186l.06-.06a.43.43,0,0,1,.269-.1H8.042a8.487,8.487,0,0,0,2.949-.18,5.2,5.2,0,0,0,2.575-1.781,5.533,5.533,0,0,0,.734-1.258c.045-.12.09-.254.135-.374A8.839,8.839,0,0,0,14.644,43.809Z" transform="translate(0 -25.849)" fill="#2d43aa"/>
    <path id="Path_3075" data-name="Path 3075" d="M38.9,39.8c.015.12.03.24.045.344-.015-.075-.015-.15-.03-.225Z" transform="translate(-31.801 -24.744)" fill="#2d43aa"/>
    <path id="Path_3076" data-name="Path 3076" d="M48.959,10.7c-2.755.045-4.776.015-7.545.015a2.818,2.818,0,0,0-1.707.569,2.76,2.76,0,0,0-1.093,2.111,14.565,14.565,0,0,0,.015,1.617v.03l.015.135c.015.075.015.15.03.225v.015a1.174,1.174,0,0,1,.03.21l.045.18c0,.015.015.03.015.06l.045.18v.015c.045.135.09.254.135.389A5.174,5.174,0,0,0,44.109,19.7a5.813,5.813,0,0,0,.06-1.048,4.688,4.688,0,0,1-1.617-.165,4.147,4.147,0,0,1-1.871-1.2c-.06-.075-.12-.135-.18-.21s-.1-.135-.15-.195c-.015-.015-.015-.03-.03-.045-.03-.045-.045-.075-.075-.12a.836.836,0,0,0-.075-.12c-.015-.03-.045-.075-.06-.1a.015.015,0,0,0-.015-.015c-.03-.045-.045-.09-.075-.135a2.121,2.121,0,0,1-.12-.269l-.045-.135-.045-.135c-.015-.045-.03-.09-.045-.15s-.015-.09-.03-.135V15.5a5.946,5.946,0,0,1-.1-1.168c0-.3,0-.6.015-.9a1.727,1.727,0,0,1,.689-1.317,1.762,1.762,0,0,1,1.078-.359H43.87c1.647,0,3.2.015,5.09-.015h.03a1.814,1.814,0,0,1,1.228.509,1.733,1.733,0,0,1,.509,1.213v6.392c-.284-.284-.554-.539-.763-.749l-.06-.06a1.468,1.468,0,0,0-1-.4H47.148c0,.344,0,.689-.03,1.048H48.9a.43.43,0,0,1,.269.1l.06.06c.584.584,1.662,1.647,2.2,2.186a.2.2,0,0,0,.329-.135V13.484A2.769,2.769,0,0,0,48.959,10.7Z" transform="translate(-31.546 0)" fill="#2d43aa"/>
  </g>
</svg>
