<svg xmlns="http://www.w3.org/2000/svg" width="16.226" height="18" viewBox="0 0 16.226 18">
  <g id="Group_4017" data-name="Group 4017" transform="translate(4 -52)">
    <path id="Path_4047" data-name="Path 4047" d="M297.157,52A.129.129,0,0,1,297,52Z" transform="translate(-293.148)" fill="#ffffff"/>
    <path id="Path_4048" data-name="Path 4048" d="M310.157,52A.132.132,0,0,1,310,52Z" transform="translate(-305.809)" fill="#ffffff"/>
    <path id="Path_4049" data-name="Path 4049" d="M12.213,54.964a1.082,1.082,0,0,0-.189-.611,1.456,1.456,0,0,0-1.218-.616H6.7c-.056,0-.113,0-.169,0a.178.178,0,0,1-.2-.145,1.776,1.776,0,0,0-.21-.476,2.051,2.051,0,0,0-1.6-1.1c-.051,0-.1.012-.153-.016H4.348a.206.206,0,0,1-.157,0H4.009a.206.206,0,0,1-.157,0H3.826a.076.076,0,0,1-.049.013,1.843,1.843,0,0,0-1.26.568,2.333,2.333,0,0,0-.617,1,.2.2,0,0,1-.218.159c-.056,0-.113,0-.169,0h-4.08a1.414,1.414,0,0,0-.783.206,1.169,1.169,0,0,0-.627.917A.518.518,0,0,1-4,55.052v.209a1.949,1.949,0,0,0,.068.433,1.328,1.328,0,0,0,.58.666,1.873,1.873,0,0,0,1.006.217c.316,0,.319,0,.319.322q0,5.543,0,11.087c0,.091,0,.183,0,.274a1.867,1.867,0,0,0,1,1.592A2.064,2.064,0,0,0-.452,70h.078a.206.206,0,0,1,.157,0H8.443a.145.145,0,0,1,.13,0h.078a.144.144,0,0,1,.088-.014,1.45,1.45,0,0,0,.987-.494,1.847,1.847,0,0,0,.527-1.334q0-5.612,0-11.223c0-.069,0-.139,0-.209a.141.141,0,0,1,.149-.147c.1-.005.209,0,.313,0a1.662,1.662,0,0,0,.849-.21,1.2,1.2,0,0,0,.63-.874,1.177,1.177,0,0,1,.028-.23v-.183C12.2,55.042,12.216,55,12.213,54.964ZM2.886,53.7a1.33,1.33,0,0,1,1.233-.79,1.31,1.31,0,0,1,1.22.789c.044.091.021.108-.071.107-.382,0-.765,0-1.147,0s-.773,0-1.16,0C2.874,53.8,2.844,53.792,2.886,53.7Zm6.4,14.4a.9.9,0,0,1-.69.977,1.081,1.081,0,0,1-.3.03H-.071a.905.905,0,0,1-.961-.679,1.2,1.2,0,0,1-.024-.324q0-2.817,0-5.635,0-2.883,0-5.765c0-.194,0-.194.187-.194H9.1c.194,0,.194,0,.194.189Q9.29,62.391,9.289,68.091ZM10.9,55.6c-.052,0-.1,0-.156,0H4.1q-3.326,0-6.652,0a.5.5,0,0,1-.461-.212.444.444,0,0,1,.319-.682,1.494,1.494,0,0,1,.169-.006q6.639,0,13.278,0a.5.5,0,0,1,.494.222A.448.448,0,0,1,10.9,55.6Z" fill="#ffffff"/>
    <path id="Path_4050" data-name="Path 4050" d="M168.984,298.163q0-2,0-4a.451.451,0,0,1,.417-.491.441.441,0,0,1,.477.4,1.707,1.707,0,0,1,.008.182q0,3.912,0,7.825a.533.533,0,0,1-.213.514.449.449,0,0,1-.687-.331,1.509,1.509,0,0,1,0-.156Q168.984,300.132,168.984,298.163Z" transform="translate(-168.471 -235.363)" fill="#ffffff"/>
    <path id="Path_4051" data-name="Path 4051" d="M411.3,298.146q0,2,0,3.991a.449.449,0,0,1-.89.116,1.409,1.409,0,0,1-.011-.2q0-3.925,0-7.851a.516.516,0,0,1,.236-.514.449.449,0,0,1,.664.345c.005.052,0,.1,0,.156Q411.3,296.17,411.3,298.146Z" transform="translate(-403.583 -235.332)" fill="#ffffff"/>
    <path id="Path_4052" data-name="Path 4052" d="M290.71,298.1q0,2,0,4a.448.448,0,0,1-.892.09c0-.048,0-.1,0-.143q0-3.951,0-7.9a.556.556,0,0,1,.094-.37.445.445,0,0,1,.8.228c0,.056,0,.113,0,.169Q290.71,296.134,290.71,298.1Z" transform="translate(-286.149 -235.295)" fill="#ffffff"/>
  </g>
</svg>
