<svg id="noun_discussion_1451321" xmlns="http://www.w3.org/2000/svg" width="16.358" height="13.922" viewBox="0 0 16.358 13.922">
  <path id="Path_3074" data-name="Path 3074" d="M12.99,43.468a1.6,1.6,0,0,0-.026-.249,2.383,2.383,0,0,0-.942-1.6,2.464,2.464,0,0,0-1.492-.5H8.187a3,3,0,0,0,.1.366,2.8,2.8,0,0,0,.3.55h1.937a1.54,1.54,0,0,1,.942.314,1.522,1.522,0,0,1,.563.864,1.986,1.986,0,0,1,.039.275,5.564,5.564,0,0,1-.236,2.3.013.013,0,0,1-.013.013,3.578,3.578,0,0,1-.51.864,3.672,3.672,0,0,1-1.793,1.243,3.993,3.993,0,0,1-1.557.144c-.222-.013-.471-.013-.759-.013H3.986a1.239,1.239,0,0,0-.877.366l-.052.052c-.183.183-.419.406-.667.654v-5.6a1.412,1.412,0,0,1,.445-1.06,1.585,1.585,0,0,1,1.073-.445h.026c.641.013,1.243.013,1.819.013a5.678,5.678,0,0,1-.183-.916c-.523,0-1.047-.013-1.623-.013A2.415,2.415,0,0,0,1.5,43.507v7.367a.167.167,0,0,0,.288.118c.471-.471,1.4-1.4,1.924-1.911l.052-.052A.376.376,0,0,1,4,48.938H7.219A7.42,7.42,0,0,0,9.8,48.781a4.542,4.542,0,0,0,2.251-1.557,4.837,4.837,0,0,0,.641-1.1c.039-.1.079-.222.118-.327A7.727,7.727,0,0,0,12.99,43.468Z" transform="translate(-1.5 -37.121)" fill="#2d43aa"/>
  <path id="Path_3075" data-name="Path 3075" d="M38.9,39.8c.013.1.026.209.039.3-.013-.065-.013-.131-.026-.2Z" transform="translate(-34.006 -35.992)" fill="#2d43aa"/>
  <path id="Path_3076" data-name="Path 3076" d="M47.656,10.7c-2.408.039-4.174.013-6.6.013a2.464,2.464,0,0,0-1.492.5,2.413,2.413,0,0,0-.955,1.845,12.73,12.73,0,0,0,.013,1.413v.026l.013.118c.013.065.013.131.026.2v.013a1.025,1.025,0,0,1,.026.183l.039.157c0,.013.013.026.013.052l.039.157v.013c.039.118.079.222.118.34a4.523,4.523,0,0,0,4.515,2.84,5.081,5.081,0,0,0,.052-.916,4.1,4.1,0,0,1-1.413-.144,3.625,3.625,0,0,1-1.636-1.047c-.052-.065-.1-.118-.157-.183s-.092-.118-.131-.17c-.013-.013-.013-.026-.026-.039-.026-.039-.039-.065-.065-.1a.731.731,0,0,0-.065-.1c-.013-.026-.039-.065-.052-.092a.013.013,0,0,0-.013-.013c-.026-.039-.039-.079-.065-.118a1.851,1.851,0,0,1-.1-.236l-.039-.118-.039-.118c-.013-.039-.026-.079-.039-.131s-.013-.079-.026-.118V14.9a5.2,5.2,0,0,1-.092-1.021c0-.262,0-.523.013-.785a1.509,1.509,0,0,1,.6-1.152,1.54,1.54,0,0,1,.942-.314h2.146c1.439,0,2.8.013,4.449-.013h.026a1.585,1.585,0,0,1,1.073.445,1.515,1.515,0,0,1,.445,1.06v5.588c-.249-.249-.484-.471-.667-.654L48.48,18a1.283,1.283,0,0,0-.877-.353H46.072c0,.3,0,.6-.026.916H47.6a.376.376,0,0,1,.236.092l.052.052c.51.51,1.453,1.439,1.924,1.911A.17.17,0,0,0,50.1,20.5V13.133A2.421,2.421,0,0,0,47.656,10.7Z" transform="translate(-33.745 -10.699)" fill="#2d43aa"/>
</svg>
