<svg xmlns="http://www.w3.org/2000/svg" width="18.074" height="18" viewBox="0 0 18.074 18">
  <g id="Group_4016" data-name="Group 4016" transform="translate(-270.009 -344)">
    <path id="Subtraction_6" data-name="Subtraction 6" d="M12.539,18h0L1.01,18a.25.25,0,0,0-.053-.01A.491.491,0,0,0,.9,17.982a.911.911,0,0,1-.369-.117A1.067,1.067,0,0,1,0,16.922V1.08A1.107,1.107,0,0,1,.689.072.815.815,0,0,1,.883.029,1.176,1.176,0,0,0,1.029,0h8.3a.6.6,0,0,1,.357.2c.939.945,1.9,1.9,2.832,2.83l.6.6.434.428a.755.755,0,0,1,.223.551c0,2.027,0,4.088,0,6.08s0,4.055,0,6.082a1.259,1.259,0,0,1-.6,1.1.865.865,0,0,1-.352.113l-.02.006-.057.006a.4.4,0,0,0-.047.01H12.65a.169.169,0,0,0-.059-.014.106.106,0,0,0-.053.014ZM8.723.719c-2.477.008-5,.008-7.436.008A1.219,1.219,0,0,0,1.1.736a.537.537,0,0,0-.385.574V16.717a.5.5,0,0,0,.559.564H12.43a.5.5,0,0,0,.561-.564c0-1.963,0-3.957,0-5.885s0-3.922,0-5.883c0-.111-.041-.129-.135-.129h-2.67a2.2,2.2,0,0,1-.277-.012A1.266,1.266,0,0,1,8.855,3.563c-.006-.912-.006-1.8,0-2.709C8.855.748,8.828.719,8.723.719Zm.885.527V3.492a.569.569,0,0,0,.623.615h2.1a.275.275,0,0,1,.039,0,.171.171,0,0,0,.031,0A.035.035,0,0,0,12.43,4.1c-.975-.99-1.873-1.9-2.822-2.854Z" transform="translate(270.008 343.998)" fill="#72799c"/>
    <path id="Path_4041" data-name="Path 4041" d="M541.817,54.717c-.021-.009-.018-.03-.022-.048a.878.878,0,0,0-.661-.685,1.887,1.887,0,0,0-.518-.023c-.086,0-.11-.027-.108-.111.005-.184.005-.369,0-.554a.544.544,0,0,0-.522-.523,1.968,1.968,0,0,0-.26,0c-.091.008-.115-.026-.114-.114,0-.248.006-.5,0-.746a.355.355,0,0,0-.708.013c0,.192,0,.384,0,.576,0,.268,0,.268-.27.269a.56.56,0,0,0-.63.623q0,5.746,0,11.493a6,6,0,0,0,.154,1.276,8.416,8.416,0,0,0,.711,1.911.837.837,0,0,0,.22.319h.271a.368.368,0,0,0,.284-.213c.138-.28.283-.557.4-.847a6.884,6.884,0,0,0,.527-2.663c-.009-3.2,0-6.4,0-9.595a1.362,1.362,0,0,1,.005-.181c.008-.06.032-.115.094-.128.22-.047.387-.016.375.245,0,.038,0,.075,0,.113q0,.859,0,1.718c0,.5,0,1.01,0,1.514a.392.392,0,0,0,.251.38.422.422,0,0,0,.339-.01c.135-.051.157-.168.189-.282V58.4a.171.171,0,0,1-.011-.1q0-1.709,0-3.419a.171.171,0,0,1,.011-.1Zm-2.577,12.43a.1.1,0,0,1-.02.023c-.034-.011-.035-.042-.044-.064a6.317,6.317,0,0,1-.5-2.223c0-.074.023-.088.089-.088q.451,0,.9,0c.059,0,.087.011.086.08A5.794,5.794,0,0,1,539.241,67.147Zm.391-3.068c-.286-.007-.572,0-.859,0-.074,0-.1-.022-.1-.1,0-.267,0-.535,0-.8q0-4.169,0-8.339c0-.158,0-.158.158-.158.267,0,.535,0,.8,0,.1,0,.123.032.123.128q0,2.288,0,4.576t0,4.565C539.763,64.055,539.734,64.081,539.632,64.079Zm.1-10.14c-.068.069-.222.018-.339.019-.207,0-.414,0-.621,0-.073,0-.1-.023-.1-.1.005-.1,0-.2,0-.293,0-.059.022-.079.079-.078.154,0,.309,0,.463,0s.309,0,.463,0c.058,0,.085.019.077.078,0,0,0,.008,0,.011C539.75,53.7,539.813,53.86,539.734,53.939Z" transform="translate(-253.734 293.601)" fill="#ffffff"/>
    <path id="Path_4042" data-name="Path 4042" d="M-8.01,384.886h-4.666a.347.347,0,0,1-.383-.4.325.325,0,0,1,.272-.3.968.968,0,0,1,.18-.012H-3.4c.041,0,.083,0,.124,0a.338.338,0,0,1,.326.383.328.328,0,0,1-.35.334c-.727,0-1.454,0-2.181,0Z" transform="translate(284.865 -31.458)" fill="#ffffff"/>
    <path id="Path_4043" data-name="Path 4043" d="M-7.953,259.164h-4.61c-.049,0-.1,0-.147,0a.329.329,0,0,1-.31-.339.331.331,0,0,1,.291-.367,1.118,1.118,0,0,1,.158-.008h9.219a1.205,1.205,0,0,1,.135,0,.33.33,0,0,1,.309.374.328.328,0,0,1-.334.339c-.045,0-.09,0-.136,0Z" transform="translate(284.826 91.42)" fill="#ffffff"/>
    <path id="Path_4044" data-name="Path 4044" d="M-7.961,638.111h-4.6c-.049,0-.1,0-.147,0a.33.33,0,0,1-.317-.333.332.332,0,0,1,.285-.373,1.013,1.013,0,0,1,.158-.01h9.224a1.2,1.2,0,0,1,.124,0,.333.333,0,0,1,.321.374.327.327,0,0,1-.345.339c-.2,0-.392,0-.588,0Z" transform="translate(284.832 -278.96)" fill="#ffffff"/>
    <path id="Path_4045" data-name="Path 4045" d="M-7.964,511.724h4.589c.049,0,.1,0,.147,0a.328.328,0,0,1,.322.35.328.328,0,0,1-.312.36,1.434,1.434,0,0,1-.147,0h-9.2c-.045,0-.091,0-.135,0a.332.332,0,0,1-.317-.367.33.33,0,0,1,.329-.344c.049,0,.1,0,.147,0Z" transform="translate(284.824 -156.132)" fill="#ffffff"/>
    <path id="Path_4046" data-name="Path 4046" d="M-10.156,132.749q1.243,0,2.485,0a.348.348,0,0,1,.368.436.324.324,0,0,1-.279.272.992.992,0,0,1-.146.009h-4.846a1.1,1.1,0,0,1-.113,0,.355.355,0,0,1-.332-.384.329.329,0,0,1,.355-.33c.719,0,1.438,0,2.158,0Z" transform="translate(284.826 214.275)" fill="#ffffff"/>
  </g>
</svg>
