<svg xmlns="http://www.w3.org/2000/svg" width="18" height="13.5" viewBox="0 0 18 13.5">
  <g id="Group_3932" data-name="Group 3932" transform="translate(-274 -151)">
    <g id="Path_4026" data-name="Path 4026" transform="translate(274 151)" fill="none">
      <path d="M2.25,0h13.5A2.359,2.359,0,0,1,18,2.455v8.591A2.359,2.359,0,0,1,15.75,13.5H2.25A2.359,2.359,0,0,1,0,11.045V2.455A2.359,2.359,0,0,1,2.25,0Z" stroke="none"/>
      <path d="M 2.25 1 C 1.560749053955078 1 1 1.652509689331055 1 2.454549789428711 L 1 11.04545021057129 C 1 11.84749031066895 1.560749053955078 12.5 2.25 12.5 L 15.75 12.5 C 16.43925094604492 12.5 17 11.84749031066895 17 11.04545021057129 L 17 2.454549789428711 C 17 1.652509689331055 16.43925094604492 1 15.75 1 L 2.25 1 M 2.25 0 L 15.75 0 C 16.99263954162598 0 18 1.098939895629883 18 2.454549789428711 L 18 11.04545021057129 C 18 12.40106010437012 16.99263954162598 13.5 15.75 13.5 L 2.25 13.5 C 1.007360458374023 13.5 0 12.40106010437012 0 11.04545021057129 L 0 2.454549789428711 C 0 1.098939895629883 1.007360458374023 0 2.25 0 Z" stroke="none" fill="#727a9d"/>
    </g>
    <path id="Union_48" data-name="Union 48" d="M16.1,0,8.051,4.295ZM0,0,8.051,4.295Z" transform="translate(274.953 153.914)" fill="none" stroke="#727a9d" stroke-linecap="round" stroke-linejoin="round" stroke-width="1"/>
  </g>
</svg>
