<svg xmlns="http://www.w3.org/2000/svg" width="11.8" height="13" viewBox="0 0 11.8 13">
  <g id="Icon_feather-share-2" data-name="Icon feather-share-2" transform="translate(0.5 0.5)">
    <path id="Path_3807" data-name="Path 3807" d="M26.1,4.8A1.8,1.8,0,1,1,24.3,3,1.8,1.8,0,0,1,26.1,4.8Z" transform="translate(-15.3 -3)" fill="none" stroke="#2d43aa" stroke-linecap="round" stroke-linejoin="round" stroke-width="1"/>
    <path id="Path_3808" data-name="Path 3808" d="M8.1,15.3a1.8,1.8,0,1,1-1.8-1.8A1.8,1.8,0,0,1,8.1,15.3Z" transform="translate(-4.5 -9.3)" fill="none" stroke="#2d43aa" stroke-linecap="round" stroke-linejoin="round" stroke-width="1"/>
    <path id="Path_3809" data-name="Path 3809" d="M26.1,25.8A1.8,1.8,0,1,1,24.3,24,1.8,1.8,0,0,1,26.1,25.8Z" transform="translate(-15.3 -15.6)" fill="none" stroke="#2d43aa" stroke-linecap="round" stroke-linejoin="round" stroke-width="1"/>
    <path id="Path_3810" data-name="Path 3810" d="M12.885,20.265l4.1,2.388" transform="translate(-9.531 -13.359)" fill="none" stroke="#2d43aa" stroke-linecap="round" stroke-linejoin="round" stroke-width="1"/>
    <path id="Path_3811" data-name="Path 3811" d="M16.977,9.765l-4.092,2.388" transform="translate(-9.531 -7.059)" fill="none" stroke="#2d43aa" stroke-linecap="round" stroke-linejoin="round" stroke-width="1"/>
  </g>
</svg>
