<svg xmlns="http://www.w3.org/2000/svg" width="18" height="18" viewBox="0 0 18 18">
  <g id="Group_4018" data-name="Group 4018" transform="translate(56 -33.998)">
    <path id="Path_4053" data-name="Path 4053" d="M-38.355,50.646c-.371-.353-.727-.722-1.089-1.084-.141-.142-.151-.179,0-.308a.72.72,0,0,0,.062-.9,1.586,1.586,0,0,0-.269-.253c-.457-.34-.916-.679-1.371-1.022a1.893,1.893,0,0,1-.785-1.592q0-1.853,0-3.706a5.768,5.768,0,0,0-.049-.765,5.125,5.125,0,0,0-1.425-2.923,4.652,4.652,0,0,0-1.451-1.043.414.414,0,0,1-.28-.458,5.684,5.684,0,0,0-.014-.792,1.975,1.975,0,0,0-1.022-1.6,1.151,1.151,0,0,0-.474-.162c-.152-.016-.3-.014-.455-.039h-.074c-.034.024-.072.01-.108.012a1.648,1.648,0,0,0-.811.194A2.014,2.014,0,0,0-49,36.02c0,.235,0,.471,0,.706a.253.253,0,0,1-.161.263,5.12,5.12,0,0,0-.631.342,5.6,5.6,0,0,0-.906.727c-.1.1-.147.1-.251,0-.021-.02-.041-.04-.062-.061-1.217-1.218-2.437-2.432-3.649-3.655A.92.92,0,0,0-55.331,34h-.025a.675.675,0,0,1-.181.024.474.474,0,0,0-.439.44.513.513,0,0,1-.025.156v.074a.835.835,0,0,0,.271.577c.6.583,1.19,1.182,1.783,1.775l2.147,2.147c.151.151.156.186.068.381l-.021.045a4.845,4.845,0,0,0-.44,1.994c-.009,1.306,0,2.611,0,3.917a1.914,1.914,0,0,1-.082.562,2,2,0,0,1-.783,1.054c-.475.344-.938.7-1.41,1.053A.725.725,0,0,0-54.6,49.22a.749.749,0,0,0,.579.261q2.045,0,4.09,0c.045,0,.091,0,.136,0,.125.008.165.043.173.163a2.341,2.341,0,0,0,.3,1.012,2.366,2.366,0,0,0,2.154,1.327h.292a2.12,2.12,0,0,0,.645-.067A2.6,2.6,0,0,0-44.389,49.7c.03-.2.038-.219.245-.22.809,0,1.618,0,2.428,0a.473.473,0,0,1,.361.153c.707.711,1.42,1.418,2.125,2.131a.673.673,0,0,0,.453.221c.028,0,.058-.008.083.013h.05c.03-.022.064-.009.1-.013a.551.551,0,0,0,.471-.259A1.548,1.548,0,0,0-38,51.378v-.05A.889.889,0,0,0-38.355,50.646ZM-47.64,36.2q0-.124,0-.248a.627.627,0,0,1,.619-.652.633.633,0,0,1,.66.615c.009.206,0,.413,0,.619,0,.062-.012.086-.084.077a4.972,4.972,0,0,0-1.112,0c-.07.008-.088-.012-.086-.076C-47.638,36.425-47.64,36.313-47.64,36.2Zm-2.17,2.888a3.683,3.683,0,0,1,2.2-1.167,3.735,3.735,0,0,1,3.541,1.31,3.739,3.739,0,0,1,.915,2.543c0,1.165,0,2.33,0,3.5,0,.215.015.429.026.656a.25.25,0,0,1-.12-.091q-3.279-3.277-6.558-6.554C-49.883,39.207-49.884,39.169-49.81,39.09Zm4.085,10.442A1.284,1.284,0,0,1-47,50.694a1.28,1.28,0,0,1-1.275-1.162c-.008-.1.017-.12.111-.119.388,0,.776,0,1.164,0s.776,0,1.164,0C-45.743,49.412-45.717,49.435-45.725,49.532Zm2.91-1.408h-9.313a3.415,3.415,0,0,0,.468-.438,3.029,3.029,0,0,0,.79-1.87c.058-1.263.016-2.527.021-3.791a4.8,4.8,0,0,1,.154-1.373c.031-.1.035-.251.126-.29.055-.023.141.118.21.187l7.457,7.457a1.1,1.1,0,0,0,.107.084Z" transform="translate(0 0)" fill="#727a9c"/>
  </g>
</svg>
