<svg xmlns="http://www.w3.org/2000/svg" width="18" height="16.714" viewBox="0 0 18 16.714">
  <path id="Icon_ionic-ios-star-outline" data-name="Icon ionic-ios-star-outline" d="M19.567,9.161h-5.91l-1.8-5.36a.651.651,0,0,0-1.221,0l-1.8,5.36H2.893A.645.645,0,0,0,2.25,9.8a.472.472,0,0,0,.012.108.618.618,0,0,0,.269.454l4.858,3.423-1.864,5.42a.645.645,0,0,0,.221.723.622.622,0,0,0,.362.157.788.788,0,0,0,.4-.145l4.741-3.379,4.741,3.379a.753.753,0,0,0,.4.145.577.577,0,0,0,.358-.157.637.637,0,0,0,.221-.723l-1.864-5.42,4.817-3.455.117-.1a.674.674,0,0,0,.209-.43A.68.68,0,0,0,19.567,9.161Zm-5.111,3.717a1.128,1.128,0,0,0-.41,1.278l1.209,3.524a.161.161,0,0,1-.245.185L11.9,15.646a1.123,1.123,0,0,0-.655-.209,1.1,1.1,0,0,0-.651.209l-3.11,2.214a.161.161,0,0,1-.245-.185L8.45,14.151a1.132,1.132,0,0,0-.414-1.286L4.781,10.571a.162.162,0,0,1,.092-.293H8.839A1.123,1.123,0,0,0,9.9,9.51l1.189-3.544a.162.162,0,0,1,.305,0L12.588,9.51a1.123,1.123,0,0,0,1.065.767h3.909a.159.159,0,0,1,.092.289Z" transform="translate(-2.25 -3.375)" fill="#ffffff"/>
</svg>
