<svg xmlns="http://www.w3.org/2000/svg" width="20.008" height="18.578" viewBox="0 0 20.008 18.578">
  <path id="Icon_ionic-ios-star" data-name="Icon ionic-ios-star" d="M21.5,9.806H14.929l-2-5.958a.723.723,0,0,0-1.358,0l-2,5.958H2.965a.717.717,0,0,0-.715.715.525.525,0,0,0,.013.121.687.687,0,0,0,.3.5l5.4,3.805L5.89,20.975a.717.717,0,0,0,.246.8.691.691,0,0,0,.4.174.876.876,0,0,0,.447-.161l5.27-3.756,5.27,3.756a.837.837,0,0,0,.447.161.642.642,0,0,0,.4-.174.708.708,0,0,0,.246-.8l-2.072-6.025L21.9,11.11l.13-.112a.749.749,0,0,0,.232-.478A.756.756,0,0,0,21.5,9.806Z" transform="translate(-2.25 -3.375)" fill="#e3b419"/>
</svg>
