<svg xmlns="http://www.w3.org/2000/svg" width="12.69" height="16.5" viewBox="0 0 12.69 16.5">
  <path id="Path_4030" data-name="Path 4030" d="M14.667,6.333H13.9V4.81a3.81,3.81,0,1,0-7.619,0V6.333H5.524A1.528,1.528,0,0,0,4,7.857v7.619A1.528,1.528,0,0,0,5.524,17h9.143a1.528,1.528,0,0,0,1.524-1.524V7.857A1.528,1.528,0,0,0,14.667,6.333ZM7.81,4.81a2.286,2.286,0,1,1,4.571,0V6.333H7.81Zm6.857,10.667H5.524V7.857h9.143ZM10.1,13.19a1.524,1.524,0,1,0-1.524-1.524A1.528,1.528,0,0,0,10.1,13.19Z" transform="translate(-3.75 -0.75)" fill="#2d43aa" stroke="#fff" stroke-width="0.5"/>
</svg>
