<svg xmlns="http://www.w3.org/2000/svg" width="17.444" height="16.5" viewBox="0 0 17.444 16.5">
  <path id="Path_4031" data-name="Path 4031" d="M8.364,10.8a.8.8,0,1,1-.8.8.8.8,0,0,1,.8-.8m0-1.6a2.4,2.4,0,1,0,2.4,2.4,2.4,2.4,0,0,0-2.4-2.4Zm6.8-1.6.872-1.928L17.964,4.8l-1.928-.872L15.164,2l-.872,1.928L12.364,4.8l1.928.872Zm2.224,2.976L16.764,9.2l-.624,1.376-1.376.624,1.376.624.624,1.376.624-1.376,1.376-.624ZM13.364,11.6c0-.1,0-.2-.008-.3l1.552-1.176-2-3.464-1.792.752a5.337,5.337,0,0,0-.512-.3l-.24-1.92h-4l-.24,1.928c-.176.088-.344.192-.512.3L3.82,6.664l-2,3.464L3.372,11.3c-.008.1-.008.2-.008.3s0,.2.008.3L1.82,13.072l2,3.464,1.792-.752a5.337,5.337,0,0,0,.512.3L6.364,18h4l.24-1.928a4.709,4.709,0,0,0,.512-.3l1.792.752,2-3.464-1.552-1.176C13.364,11.8,13.364,11.7,13.364,11.6Zm-1.136,2.912-1.384-.584a3.365,3.365,0,0,1-1.7.984L8.948,16.4H7.78L7.6,14.912a3.365,3.365,0,0,1-1.7-.984l-1.384.584L3.924,13.5l1.192-.9a3.434,3.434,0,0,1,0-1.968l-1.192-.9L4.508,8.7l1.384.584A3.365,3.365,0,0,1,7.6,8.3L7.78,6.8H8.956L9.14,8.288a3.365,3.365,0,0,1,1.7.984l1.384-.584L12.812,9.7l-1.192.9a3.434,3.434,0,0,1,0,1.968l1.192.9Z" transform="translate(-1.57 -1.75)" fill="#2d43aa" stroke="#fff" stroke-linecap="round" stroke-linejoin="round" stroke-width="0.5"/>
</svg>
