<svg xmlns="http://www.w3.org/2000/svg" width="16" height="16" viewBox="0 0 16 16">
  <path id="noun_dashboard_3594375" d="M7,10.5a.5.5,0,0,1,.5.46h0v4.58A.5.5,0,0,1,7,16H.5a.5.5,0,0,1-.5-.46H0V10.96a.5.5,0,0,1,.5-.46Zm8.5-4A.5.5,0,0,1,16,7h0v8.5a.5.5,0,0,1-.5.5H9a.5.5,0,0,1-.5-.5h0V7A.5.5,0,0,1,9,6.5Zm-9,4.915H1v3.67H6.5ZM15,7.5H9.5V15H15ZM7,0a.5.5,0,0,1,.5.5h0V9a.5.5,0,0,1-.5.5H.5A.5.5,0,0,1,0,9H0V.5A.5.5,0,0,1,.5,0ZM6.5,1H1V8.5H6.5Zm9-1a.5.5,0,0,1,.5.46h0V5.04a.5.5,0,0,1-.5.46H9a.5.5,0,0,1-.5-.46h0V.46A.5.5,0,0,1,9,0ZM15,.915H9.5v3.67H15Z" fill="#2d43aa"/>
</svg>
