<svg xmlns="http://www.w3.org/2000/svg" width="16.2" height="12.013" viewBox="0 0 16.2 12.013">
  <g id="Group_3983" data-name="Group 3983" transform="translate(-24.9 -312.9)">
    <path id="Icon_awesome-user-alt" data-name="Icon awesome-user-alt" d="M10.217,10.469a.252.252,0,0,0,.252-.252V9.865A2.016,2.016,0,0,0,8.456,7.852H7.41a4.636,4.636,0,0,1-3.545,0H2.819A2.016,2.016,0,0,0,.805,9.865v.352a.252.252,0,0,0,.252.252h9.16M5.637,5.536A2.366,2.366,0,1,0,3.272,3.171,2.368,2.368,0,0,0,5.637,5.536m4.58,5.738H1.057A1.057,1.057,0,0,1,0,10.217V9.865A2.818,2.818,0,0,1,2.819,7.046H4.032a3.833,3.833,0,0,0,3.211,0H8.456a2.818,2.818,0,0,1,2.819,2.819v.352A1.057,1.057,0,0,1,10.217,11.274ZM5.637,6.342A3.171,3.171,0,1,1,8.808,3.171,3.172,3.172,0,0,1,5.637,6.342Z" transform="translate(25 313.539)" fill="#2d43aa" stroke="#2d43aa" stroke-width="0.2"/>
    <path id="Subtraction_5" data-name="Subtraction 5" d="M3.762,0H.956A.958.958,0,0,0,0,.958v.318A2.553,2.553,0,0,0,2.549,3.827h1.1a3.456,3.456,0,0,1,2.905,0h.7a4.026,4.026,0,0,1,.424-.4H7.384A3.6,3.6,0,0,1,5.216,2.7L5.1,2.7a4.259,4.259,0,0,0-1.62.32H2.549A1.747,1.747,0,0,1,.8,1.276V.958A.152.152,0,0,1,.956.806H3.9A3.588,3.588,0,0,1,3.762,0ZM5.1,4.465A2.869,2.869,0,1,0,7.286,9.193a3.989,3.989,0,0,1-.5-.668A2.064,2.064,0,1,1,5.1,5.268a2.045,2.045,0,0,1,1.211.394,3.925,3.925,0,0,1,.26-.792A2.866,2.866,0,0,0,5.1,4.465Z" transform="translate(41 323.203) rotate(180)" fill="#2d43aa" stroke="#2d43aa" stroke-width="0.2"/>
  </g>
</svg>
