<svg xmlns="http://www.w3.org/2000/svg" width="16.004" height="16.449" viewBox="0 0 16.004 16.449">
  <g id="noun_Calendar_684825" transform="translate(-2.392 -2.125)">
    <g id="Path_3347" data-name="Path 3347" transform="translate(0)" fill="#2D43AA">
      <path d="M 16.17354393005371 18.52423858642578 L 4.614933013916016 18.52423858642578 C 3.416773319244385 18.52423858642578 2.44200325012207 17.54945945739746 2.44200325012207 16.35129928588867 L 2.44200325012207 5.681368827819824 C 2.44200325012207 4.483209133148193 3.416773319244385 3.508428812026978 4.614933013916016 3.508428812026978 L 5.948363304138184 3.508428812026978 L 5.998363018035889 3.508428812026978 L 5.998363018035889 3.458428859710693 L 5.998363018035889 2.174998998641968 L 6.787873268127441 2.174998998641968 L 6.787873268127441 3.458428859710693 L 6.787873268127441 3.508428812026978 L 6.837873458862305 3.508428812026978 L 13.95061302185059 3.508428812026978 L 14.00061321258545 3.508428812026978 L 14.00061321258545 3.458428859710693 L 14.00061321258545 2.174998998641968 L 14.79011344909668 2.174998998641968 L 14.79011344909668 3.458428859710693 L 14.79011344909668 3.508428812026978 L 14.84011363983154 3.508428812026978 L 16.17354393005371 3.508428812026978 C 17.3717041015625 3.508428812026978 18.34648323059082 4.483209133148193 18.34648323059082 5.681368827819824 L 18.34648323059082 7.015628814697266 L 18.34648323059082 7.904308795928955 L 18.34648323059082 16.35129928588867 C 18.34648323059082 17.54945945739746 17.3717041015625 18.52423858642578 16.17354393005371 18.52423858642578 Z M 3.231513261795044 7.85430908203125 L 3.231513261795044 7.904308795928955 L 3.231513261795044 16.35129928588867 C 3.231513261795044 17.11412811279297 3.852113246917725 17.7347297668457 4.614933013916016 17.7347297668457 L 16.17438316345215 17.7347297668457 C 16.93721389770508 17.7347297668457 17.55781364440918 17.11412811279297 17.55781364440918 16.35129928588867 L 17.55781364440918 7.904308795928955 L 17.55781364440918 7.85430908203125 L 17.5078125 7.85430908203125 L 3.281513214111328 7.85430908203125 L 3.231513261795044 7.85430908203125 Z M 4.614103317260742 4.297938823699951 C 3.85127329826355 4.297938823699951 3.230673313140869 4.918539047241211 3.230673313140869 5.681368827819824 L 3.230673313140869 7.015628814697266 L 3.230673313140869 7.065629005432129 L 3.280673265457153 7.065629005432129 L 17.5078125 7.065629005432129 L 17.55781364440918 7.065629005432129 L 17.55781364440918 7.015628814697266 L 17.55781364440918 5.681368827819824 C 17.55781364440918 4.918539047241211 16.93721389770508 4.297938823699951 16.17438316345215 4.297938823699951 L 14.84095287322998 4.297938823699951 L 14.79095363616943 4.297938823699951 L 14.79095363616943 4.347939014434814 L 14.79095363616943 5.187448978424072 L 14.00144290924072 5.187448978424072 L 14.00144290924072 4.347939014434814 L 14.00144290924072 4.297938823699951 L 13.95144367218018 4.297938823699951 L 6.837873458862305 4.297938823699951 L 6.787873268127441 4.297938823699951 L 6.787873268127441 4.347939014434814 L 6.787873268127441 5.187448978424072 L 5.997533321380615 5.187448978424072 L 5.997533321380615 4.347939014434814 L 5.997533321380615 4.297938823699951 L 5.947533130645752 4.297938823699951 L 4.614103317260742 4.297938823699951 Z" stroke="none"/>
      <path d="M 6.04836368560791 2.224998474121094 L 6.04836368560791 3.558429718017578 L 4.614933013916016 3.558429718017578 C 3.444343566894531 3.558429718017578 2.492002487182617 4.510778427124023 2.492002487182617 5.681368827819824 L 2.492002487182617 16.35129928588867 C 2.492002487182617 17.52188873291016 3.444343566894531 18.47423934936523 4.614933013916016 18.47423934936523 L 16.17354393005371 18.47423934936523 C 17.3441333770752 18.47423934936523 18.29648399353027 17.52188873291016 18.29648399353027 16.35129928588867 L 18.29648399353027 5.681368827819824 C 18.29648399353027 4.510778427124023 17.3441333770752 3.558429718017578 16.17354393005371 3.558429718017578 L 14.74011325836182 3.558429718017578 L 14.74011325836182 2.224998474121094 L 14.05061340332031 2.224998474121094 L 14.05061340332031 3.558429718017578 L 6.737873077392578 3.558429718017578 L 6.737873077392578 2.224998474121094 L 6.04836368560791 2.224998474121094 M 6.04753303527832 5.137449264526367 L 6.737873077392578 5.137449264526367 L 6.737873077392578 4.24793815612793 L 14.05144309997559 4.24793815612793 L 14.05144309997559 5.137449264526367 L 14.74095344543457 5.137449264526367 L 14.74095344543457 4.24793815612793 L 16.17438316345215 4.24793815612793 C 16.96478271484375 4.24793815612793 17.60781288146973 4.890969276428223 17.60781288146973 5.681368827819824 L 17.60781288146973 7.115629196166992 L 3.180673599243164 7.115629196166992 L 3.180673599243164 5.681368827819824 C 3.180673599243164 4.890969276428223 3.823703765869141 4.24793815612793 4.614103317260742 4.24793815612793 L 6.04753303527832 4.24793815612793 L 6.04753303527832 5.137449264526367 M 16.17438316345215 17.78472900390625 L 4.614933013916016 17.78472900390625 C 3.824542999267578 17.78472900390625 3.181512832641602 17.14169883728027 3.181512832641602 16.35129928588867 L 3.181512832641602 7.804308891296387 L 17.60781288146973 7.804308891296387 L 17.60781288146973 16.35129928588867 C 17.60781288146973 17.14169883728027 16.96478271484375 17.78472900390625 16.17438316345215 17.78472900390625 M 5.948363304138184 2.124998092651367 L 6.837873458862305 2.124998092651367 L 6.837873458862305 3.458429336547852 L 13.95061302185059 3.458429336547852 L 13.95061302185059 2.124998092651367 L 14.84011268615723 2.124998092651367 L 14.84011268615723 3.458429336547852 L 16.17354393005371 3.458429336547852 C 17.39953231811523 3.458429336547852 18.39648246765137 4.456209182739258 18.39648246765137 5.681368827819824 L 18.39648246765137 16.35129928588867 C 18.39648246765137 17.57728958129883 17.39953231811523 18.57423973083496 16.17354393005371 18.57423973083496 L 4.614933013916016 18.57423973083496 C 3.388942718505859 18.57423973083496 2.392004013061523 17.57728958129883 2.392004013061523 16.35129928588867 L 2.392004013061523 5.681368827819824 C 2.392004013061523 4.455379486083984 3.388942718505859 3.458429336547852 4.614933013916016 3.458429336547852 L 5.948363304138184 3.458429336547852 L 5.948363304138184 2.124998092651367 Z M 6.837873458862305 5.237448692321777 L 5.94753360748291 5.237448692321777 L 5.94753360748291 4.347938537597656 L 4.614103317260742 4.347938537597656 C 3.878673553466797 4.347938537597656 3.280673980712891 4.945939064025879 3.280673980712891 5.681368827819824 L 3.280673980712891 7.015628814697266 L 17.5078125 7.015628814697266 L 17.5078125 5.681368827819824 C 17.5078125 4.945939064025879 16.90980339050293 4.347938537597656 16.17438316345215 4.347938537597656 L 14.8409538269043 4.347938537597656 L 14.8409538269043 5.237448692321777 L 13.95144271850586 5.237448692321777 L 13.95144271850586 4.347938537597656 L 6.837873458862305 4.347938537597656 L 6.837873458862305 5.237448692321777 Z M 16.17438316345215 17.68472862243652 C 16.90980339050293 17.68472862243652 17.5078125 17.08672904968262 17.5078125 16.35129928588867 L 17.5078125 7.904309272766113 L 3.281513214111328 7.904309272766113 L 3.281513214111328 16.35129928588867 C 3.281513214111328 17.08672904968262 3.879512786865234 17.68472862243652 4.614933013916016 17.68472862243652 L 16.17438316345215 17.68472862243652 Z" stroke="none" fill="#fff"/>
    </g>
    <g id="Path_3348" data-name="Path 3348" transform="translate(-1.249 -1.338)" fill="#2D43AA">
      <path d="M 12.53168964385986 13.6382007598877 L 10.75351047515869 13.6382007598877 C 10.29139041900635 13.6382007598877 9.914779663085938 13.26156139373779 9.914000511169434 12.79861164093018 L 9.914000511169434 11.02051162719727 C 9.914000511169434 10.55760097503662 10.29059982299805 10.18100166320801 10.75351047515869 10.18100166320801 L 12.53168964385986 10.18100166320801 C 12.99460029602051 10.18100166320801 13.37119960784912 10.55760097503662 13.37119960784912 11.02051162719727 L 13.37119960784912 12.79869079589844 C 13.37119960784912 13.26160144805908 12.99460029602051 13.6382007598877 12.53168964385986 13.6382007598877 Z M 10.70351028442383 10.9705114364624 L 10.70351028442383 11.02051162719727 L 10.70351028442383 12.79869079589844 L 10.70351028442383 12.8486909866333 L 10.75351047515869 12.8486909866333 L 12.53252983093262 12.8486909866333 L 12.58255004882812 12.8486909866333 L 12.58253002166748 12.79867076873779 L 12.58168983459473 11.02049160003662 L 12.58166980743408 10.9705114364624 L 12.53168964385986 10.9705114364624 L 10.75351047515869 10.9705114364624 L 10.70351028442383 10.9705114364624 Z" stroke="none"/>
      <path d="M 12.53168964385986 13.58820152282715 C 12.96703052520752 13.58820152282715 13.32120037078857 13.23403167724609 13.32120037078857 12.79869079589844 L 13.32120037078857 11.02051162719727 C 13.32120037078857 10.58517074584961 12.96703052520752 10.23100090026855 12.53168964385986 10.23100090026855 L 10.75351047515869 10.23100090026855 C 10.31816959381104 10.23100090026855 9.96399974822998 10.58517074584961 9.96399974822998 11.02051162719727 L 9.96399974822998 12.79852104187012 C 9.964739799499512 13.23395156860352 10.31890964508057 13.58820152282715 10.75351047515869 13.58820152282715 L 12.53168964385986 13.58820152282715 M 10.65351009368896 10.92051124572754 L 12.63164043426514 10.92051124572754 L 12.6325798034668 12.89869117736816 L 10.65351009368896 12.89869117736816 L 10.65351009368896 10.92051124572754 M 12.53168964385986 13.68820095062256 L 10.75351047515869 13.68820095062256 C 10.26377964019775 13.68820095062256 9.864830017089844 13.28925132751465 9.86400032043457 12.79869079589844 L 9.86400032043457 11.02051162719727 C 9.86400032043457 10.52995109558105 10.26294994354248 10.13100147247314 10.75351047515869 10.13100147247314 L 12.53168964385986 10.13100147247314 C 13.02225017547607 10.13100147247314 13.42119979858398 10.52995109558105 13.42119979858398 11.02051162719727 L 13.42119979858398 12.79869079589844 C 13.42119979858398 13.28925132751465 13.02225017547607 13.68820095062256 12.53168964385986 13.68820095062256 Z M 12.53252983093262 12.79869079589844 L 12.53168964385986 11.02051162719727 L 10.75351047515869 11.02051162719727 L 10.75351047515869 12.79869079589844 L 12.53252983093262 12.79869079589844 Z" stroke="none" fill="#fff"/>
    </g>
    <g id="Path_3349" data-name="Path 3349" transform="translate(-2.141 -1.338)" fill="#2D43AA">
      <path d="M 17.86969184875488 13.6382007598877 L 16.09151268005371 13.6382007598877 C 15.62939262390137 13.6382007598877 15.25278186798096 13.26156139373779 15.25200271606445 12.79861164093018 L 15.25200271606445 11.02051162719727 C 15.25200271606445 10.55760097503662 15.62860202789307 10.18100166320801 16.09151268005371 10.18100166320801 L 17.86969184875488 10.18100166320801 C 18.33260154724121 10.18100166320801 18.70920181274414 10.55760097503662 18.70920181274414 11.02051162719727 L 18.70920181274414 12.79869079589844 C 18.70920181274414 13.26160144805908 18.33260154724121 13.6382007598877 17.86969184875488 13.6382007598877 Z M 16.04151153564453 10.9705114364624 L 16.04151153564453 11.02051162719727 L 16.04151153564453 12.79869079589844 L 16.04151153564453 12.8486909866333 L 16.09151268005371 12.8486909866333 L 17.87052154541016 12.8486909866333 L 17.92054176330566 12.8486909866333 L 17.92052268981934 12.79867076873779 L 17.91969299316406 11.02049160003662 L 17.9196720123291 10.9705114364624 L 17.86969184875488 10.9705114364624 L 16.09151268005371 10.9705114364624 L 16.04151153564453 10.9705114364624 Z" stroke="none"/>
      <path d="M 17.86969184875488 13.58820152282715 C 18.30503273010254 13.58820152282715 18.65920257568359 13.23403167724609 18.65920257568359 12.79869079589844 L 18.65920257568359 11.02051162719727 C 18.65920257568359 10.58517074584961 18.30503273010254 10.23100090026855 17.86969184875488 10.23100090026855 L 16.09151268005371 10.23100090026855 C 15.65617179870605 10.23100090026855 15.302001953125 10.58517074584961 15.302001953125 11.02051162719727 L 15.302001953125 12.79852104187012 C 15.30274200439453 13.23395156860352 15.65691184997559 13.58820152282715 16.09151268005371 13.58820152282715 L 17.86969184875488 13.58820152282715 M 15.99151229858398 10.92051124572754 L 17.96964263916016 10.92051124572754 L 17.97057151794434 12.89869117736816 L 15.99151229858398 12.89869117736816 L 15.99151229858398 10.92051124572754 M 17.86969184875488 13.68820095062256 L 16.09151268005371 13.68820095062256 C 15.60178184509277 13.68820095062256 15.20283222198486 13.28925132751465 15.20200252532959 12.79869079589844 L 15.20200252532959 11.02051162719727 C 15.20200252532959 10.52995109558105 15.60094261169434 10.13100147247314 16.09151268005371 10.13100147247314 L 17.86969184875488 10.13100147247314 C 18.36025238037109 10.13100147247314 18.75920295715332 10.52995109558105 18.75920295715332 11.02051162719727 L 18.75920295715332 12.79869079589844 C 18.75920295715332 13.28925132751465 18.36025238037109 13.68820095062256 17.86969184875488 13.68820095062256 Z M 17.87052154541016 12.79869079589844 L 17.86969184875488 11.02051162719727 L 16.09151268005371 11.02051162719727 L 16.09151268005371 12.79869079589844 L 17.87052154541016 12.79869079589844 Z" stroke="none" fill="#fff"/>
    </g>
    <g id="Path_3350" data-name="Path 3350" transform="translate(-0.357 -2.23)" fill="#2D43AA">
      <path d="M 7.194690227508545 18.97619819641113 L 5.416510105133057 18.97619819641113 C 4.95359992980957 18.97619819641113 4.577000141143799 18.5995979309082 4.577000141143799 18.13668823242188 L 4.577000141143799 16.3585090637207 C 4.577000141143799 15.89559841156006 4.95359992980957 15.51899909973145 5.416510105133057 15.51899909973145 L 7.194690227508545 15.51899909973145 C 7.657600402832031 15.51899909973145 8.034199714660645 15.89559841156006 8.034199714660645 16.3585090637207 L 8.034199714660645 18.13668823242188 C 8.034199714660645 18.5995979309082 7.657600402832031 18.97619819641113 7.194690227508545 18.97619819641113 Z M 5.366510391235352 16.30850791931152 L 5.366510391235352 16.3585090637207 L 5.366510391235352 18.13668823242188 L 5.366510391235352 18.18668937683105 L 5.416510105133057 18.18668937683105 L 7.195520401000977 18.18668937683105 L 7.245540142059326 18.18668937683105 L 7.245520114898682 18.13666915893555 L 7.24468994140625 16.35848808288574 L 7.244670391082764 16.30850791931152 L 7.194690227508545 16.30850791931152 L 5.416510105133057 16.30850791931152 L 5.366510391235352 16.30850791931152 Z" stroke="none"/>
      <path d="M 7.194690227508545 18.92619895935059 C 7.630030155181885 18.92619895935059 7.984200000762939 18.57202911376953 7.984200000762939 18.13668823242188 L 7.984200000762939 16.3585090637207 C 7.984200000762939 15.92316818237305 7.630030155181885 15.56899833679199 7.194690227508545 15.56899833679199 L 5.416510105133057 15.56899833679199 C 4.981170177459717 15.56899833679199 4.627000331878662 15.92316818237305 4.627000331878662 16.3585090637207 L 4.627000331878662 18.13668823242188 C 4.627000331878662 18.57202911376953 4.981170177459717 18.92619895935059 5.416510105133057 18.92619895935059 L 7.194690227508545 18.92619895935059 M 5.316510200500488 16.25850868225098 L 7.294640064239502 16.25850868225098 L 7.295570373535156 18.2366886138916 L 5.316510200500488 18.2366886138916 L 5.316510200500488 16.25850868225098 M 7.194690227508545 19.02619934082031 L 5.416510105133057 19.02619934082031 C 4.925950050354004 19.02619934082031 4.526999950408936 18.62724876403809 4.526999950408936 18.13668823242188 L 4.526999950408936 16.3585090637207 C 4.526999950408936 15.86794853210449 4.925950050354004 15.46899890899658 5.416510105133057 15.46899890899658 L 7.194690227508545 15.46899890899658 C 7.685250282287598 15.46899890899658 8.084199905395508 15.86794853210449 8.084199905395508 16.3585090637207 L 8.084199905395508 18.13668823242188 C 8.084199905395508 18.62724876403809 7.685250282287598 19.02619934082031 7.194690227508545 19.02619934082031 Z M 7.195520401000977 18.13668823242188 L 7.194690227508545 16.3585090637207 L 5.416510105133057 16.3585090637207 L 5.416510105133057 18.13668823242188 L 7.195520401000977 18.13668823242188 Z" stroke="none" fill="#fff"/>
    </g>
    <g id="Path_3351" data-name="Path 3351" transform="translate(-1.249 -2.23)" fill="#2D43AA">
      <path d="M 12.53168964385986 18.97619819641113 L 10.75351047515869 18.97619819641113 C 10.29139041900635 18.97619819641113 9.914779663085938 18.59955787658691 9.914000511169434 18.1366081237793 L 9.914000511169434 16.3585090637207 C 9.914000511169434 15.89559841156006 10.29059982299805 15.51899909973145 10.75351047515869 15.51899909973145 L 12.53168964385986 15.51899909973145 C 12.99460029602051 15.51899909973145 13.37119960784912 15.89559841156006 13.37119960784912 16.3585090637207 L 13.37119960784912 18.13668823242188 C 13.37119960784912 18.5995979309082 12.99460029602051 18.97619819641113 12.53168964385986 18.97619819641113 Z M 10.70351028442383 16.30850791931152 L 10.70351028442383 16.3585090637207 L 10.70351028442383 18.13668823242188 L 10.70351028442383 18.18668937683105 L 10.75351047515869 18.18668937683105 L 12.53252983093262 18.18668937683105 L 12.58255004882812 18.18668937683105 L 12.58253002166748 18.13666915893555 L 12.58168983459473 16.35848808288574 L 12.58166980743408 16.30850791931152 L 12.53168964385986 16.30850791931152 L 10.75351047515869 16.30850791931152 L 10.70351028442383 16.30850791931152 Z" stroke="none"/>
      <path d="M 12.53168964385986 18.92619895935059 C 12.96703052520752 18.92619895935059 13.32120037078857 18.57202911376953 13.32120037078857 18.13668823242188 L 13.32120037078857 16.3585090637207 C 13.32120037078857 15.92316818237305 12.96703052520752 15.56899833679199 12.53168964385986 15.56899833679199 L 10.75351047515869 15.56899833679199 C 10.31816959381104 15.56899833679199 9.96399974822998 15.92316818237305 9.96399974822998 16.3585090637207 L 9.96399974822998 18.13651847839355 C 9.964739799499512 18.57194900512695 10.31890964508057 18.92619895935059 10.75351047515869 18.92619895935059 L 12.53168964385986 18.92619895935059 M 10.65351009368896 16.25850868225098 L 12.63164043426514 16.25850868225098 L 12.6325798034668 18.2366886138916 L 10.65351009368896 18.2366886138916 L 10.65351009368896 16.25850868225098 M 12.53168964385986 19.02619934082031 L 10.75351047515869 19.02619934082031 C 10.26377964019775 19.02619934082031 9.864830017089844 18.62724876403809 9.86400032043457 18.13668823242188 L 9.86400032043457 16.3585090637207 C 9.86400032043457 15.86794853210449 10.26294994354248 15.46899890899658 10.75351047515869 15.46899890899658 L 12.53168964385986 15.46899890899658 C 13.02225017547607 15.46899890899658 13.42119979858398 15.86794853210449 13.42119979858398 16.3585090637207 L 13.42119979858398 18.13668823242188 C 13.42119979858398 18.62724876403809 13.02225017547607 19.02619934082031 12.53168964385986 19.02619934082031 Z M 12.53252983093262 18.13668823242188 L 12.53168964385986 16.3585090637207 L 10.75351047515869 16.3585090637207 L 10.75351047515869 18.13668823242188 L 12.53252983093262 18.13668823242188 Z" stroke="none" fill="#fff"/>
    </g>
    <g id="Path_3352" data-name="Path 3352" transform="translate(-2.141 -2.23)" fill="#2D43AA">
      <path d="M 17.86969184875488 18.97619819641113 L 16.09151268005371 18.97619819641113 C 15.62939262390137 18.97619819641113 15.25278186798096 18.59955787658691 15.25200271606445 18.1366081237793 L 15.25200271606445 16.3585090637207 C 15.25200271606445 15.89559841156006 15.62860202789307 15.51899909973145 16.09151268005371 15.51899909973145 L 17.86969184875488 15.51899909973145 C 18.33260154724121 15.51899909973145 18.70920181274414 15.89559841156006 18.70920181274414 16.3585090637207 L 18.70920181274414 18.13668823242188 C 18.70920181274414 18.5995979309082 18.33260154724121 18.97619819641113 17.86969184875488 18.97619819641113 Z M 16.04151153564453 16.30850791931152 L 16.04151153564453 16.3585090637207 L 16.04151153564453 18.13668823242188 L 16.04151153564453 18.18668937683105 L 16.09151268005371 18.18668937683105 L 17.87052154541016 18.18668937683105 L 17.92054176330566 18.18668937683105 L 17.92052268981934 18.13666915893555 L 17.91969299316406 16.35848808288574 L 17.9196720123291 16.30850791931152 L 17.86969184875488 16.30850791931152 L 16.09151268005371 16.30850791931152 L 16.04151153564453 16.30850791931152 Z" stroke="none"/>
      <path d="M 17.86969184875488 18.92619895935059 C 18.30503273010254 18.92619895935059 18.65920257568359 18.57202911376953 18.65920257568359 18.13668823242188 L 18.65920257568359 16.3585090637207 C 18.65920257568359 15.92316818237305 18.30503273010254 15.56899833679199 17.86969184875488 15.56899833679199 L 16.09151268005371 15.56899833679199 C 15.65617179870605 15.56899833679199 15.302001953125 15.92316818237305 15.302001953125 16.3585090637207 L 15.302001953125 18.13651847839355 C 15.30274200439453 18.57194900512695 15.65691184997559 18.92619895935059 16.09151268005371 18.92619895935059 L 17.86969184875488 18.92619895935059 M 15.99151229858398 16.25850868225098 L 17.96964263916016 16.25850868225098 L 17.97057151794434 18.2366886138916 L 15.99151229858398 18.2366886138916 L 15.99151229858398 16.25850868225098 M 17.86969184875488 19.02619934082031 L 16.09151268005371 19.02619934082031 C 15.60178184509277 19.02619934082031 15.20283222198486 18.62724876403809 15.20200252532959 18.13668823242188 L 15.20200252532959 16.3585090637207 C 15.20200252532959 15.86794853210449 15.60094261169434 15.46899890899658 16.09151268005371 15.46899890899658 L 17.86969184875488 15.46899890899658 C 18.36025238037109 15.46899890899658 18.75920295715332 15.86794853210449 18.75920295715332 16.3585090637207 L 18.75920295715332 18.13668823242188 C 18.75920295715332 18.62724876403809 18.36025238037109 19.02619934082031 17.86969184875488 19.02619934082031 Z M 17.87052154541016 18.13668823242188 L 17.86969184875488 16.3585090637207 L 16.09151268005371 16.3585090637207 L 16.09151268005371 18.13668823242188 L 17.87052154541016 18.13668823242188 Z" stroke="none" fill="#fff"/>
    </g>
  </g>
</svg>
