<svg xmlns="http://www.w3.org/2000/svg" width="16.004" height="16.449" viewBox="0 0 16.004 16.449">
  <g id="noun_Calendar_684825" transform="translate(-2.392 -2.125)">
    <path id="Path_3347" data-name="Path 3347" d="M16.174,3.458H14.84V2.125h-.89V3.458H6.838V2.125h-.89V3.458H4.615A2.225,2.225,0,0,0,2.392,5.681v10.67a2.225,2.225,0,0,0,2.223,2.223H16.174A2.225,2.225,0,0,0,18.4,16.351V5.681A2.226,2.226,0,0,0,16.174,3.458Zm1.334,12.893a1.335,1.335,0,0,1-1.333,1.333H4.615a1.335,1.335,0,0,1-1.333-1.333V7.9H17.508Zm0-9.336H3.281V5.681A1.335,1.335,0,0,1,4.614,4.348H5.948v.89h.89v-.89h7.114v.89h.89v-.89h1.333a1.335,1.335,0,0,1,1.333,1.333Z" transform="translate(0)" fill="#727a9d"/>
    <path id="Path_3348" data-name="Path 3348" d="M10.754,13.688h1.778a.89.89,0,0,0,.89-.89V11.021a.89.89,0,0,0-.89-.89H10.754a.89.89,0,0,0-.89.89V12.8A.891.891,0,0,0,10.754,13.688Zm0-2.668h1.778V12.8H10.754V11.021Z" transform="translate(-1.249 -1.338)" fill="#727a9d"/>
    <path id="Path_3349" data-name="Path 3349" d="M16.092,13.688H17.87a.89.89,0,0,0,.89-.89V11.021a.89.89,0,0,0-.89-.89H16.092a.89.89,0,0,0-.89.89V12.8A.891.891,0,0,0,16.092,13.688Zm0-2.668H17.87V12.8H16.092Z" transform="translate(-2.141 -1.338)" fill="#727a9d"/>
    <path id="Path_3350" data-name="Path 3350" d="M5.417,19.026H7.195a.89.89,0,0,0,.89-.89V16.359a.89.89,0,0,0-.89-.89H5.417a.89.89,0,0,0-.89.89v1.778A.89.89,0,0,0,5.417,19.026Zm0-2.668H7.195v1.778H5.417Z" transform="translate(-0.357 -2.23)" fill="#727a9d"/>
    <path id="Path_3351" data-name="Path 3351" d="M10.754,19.026h1.778a.89.89,0,0,0,.89-.89V16.359a.89.89,0,0,0-.89-.89H10.754a.89.89,0,0,0-.89.89v1.778A.891.891,0,0,0,10.754,19.026Zm0-2.668h1.778v1.778H10.754V16.359Z" transform="translate(-1.249 -2.23)" fill="#727a9d"/>
    <path id="Path_3352" data-name="Path 3352" d="M16.092,19.026H17.87a.89.89,0,0,0,.89-.89V16.359a.89.89,0,0,0-.89-.89H16.092a.89.89,0,0,0-.89.89v1.778A.891.891,0,0,0,16.092,19.026Zm0-2.668H17.87v1.778H16.092Z" transform="translate(-2.141 -2.23)" fill="#727a9d"/>
  </g>
</svg>
