<svg xmlns="http://www.w3.org/2000/svg" width="16.1" height="16.1" viewBox="0 0 16.1 16.1">
  <g id="noun_dashboard_3120275" transform="translate(-2.95 -2.95)">
    <path id="Path_3395" data-name="Path 3395" d="M8.238,10.619H5.381A2.385,2.385,0,0,1,3,8.238V5.381A2.385,2.385,0,0,1,5.381,3H8.238a2.385,2.385,0,0,1,2.381,2.381V8.238a2.385,2.385,0,0,1-2.381,2.381ZM5.381,3.762A1.619,1.619,0,0,0,3.762,5.381V8.238A1.619,1.619,0,0,0,5.381,9.857H8.238A1.619,1.619,0,0,0,9.857,8.238V5.381A1.619,1.619,0,0,0,8.238,3.762Zm11.238,6.857H13.762a2.385,2.385,0,0,1-2.381-2.381V5.381A2.385,2.385,0,0,1,13.762,3h2.857A2.385,2.385,0,0,1,19,5.381V8.238a2.385,2.385,0,0,1-2.381,2.381ZM13.762,3.762a1.619,1.619,0,0,0-1.619,1.619V8.238a1.619,1.619,0,0,0,1.619,1.619h2.857a1.619,1.619,0,0,0,1.619-1.619V5.381a1.619,1.619,0,0,0-1.619-1.619ZM8.238,19H5.381A2.385,2.385,0,0,1,3,16.619V13.762a2.385,2.385,0,0,1,2.381-2.381H8.238a2.385,2.385,0,0,1,2.381,2.381v2.857A2.385,2.385,0,0,1,8.238,19ZM5.381,12.143a1.619,1.619,0,0,0-1.619,1.619v2.857a1.619,1.619,0,0,0,1.619,1.619H8.238a1.619,1.619,0,0,0,1.619-1.619V13.762a1.619,1.619,0,0,0-1.619-1.619ZM16.619,19H13.762a2.385,2.385,0,0,1-2.381-2.381V13.762a2.385,2.385,0,0,1,2.381-2.381h2.857A2.385,2.385,0,0,1,19,13.762v2.857A2.385,2.385,0,0,1,16.619,19Zm-2.857-6.857a1.619,1.619,0,0,0-1.619,1.619v2.857a1.619,1.619,0,0,0,1.619,1.619h2.857a1.619,1.619,0,0,0,1.619-1.619V13.762a1.619,1.619,0,0,0-1.619-1.619Z" fill="#727a9d" stroke="#727a9d" stroke-width="0.1"/>
  </g>
</svg>
