<svg xmlns="http://www.w3.org/2000/svg" width="16.004" height="12.206" viewBox="0 0 16.004 12.206">
  <g id="noun_Inbox_2149537" transform="translate(-20 -76)">
    <path id="Path_3353" data-name="Path 3353" d="M208.684,76a.408.408,0,0,0-.407.407v4.147l-.563-.546a.408.408,0,0,0-.566.587l1.255,1.214a.4.4,0,0,0,.285.115.4.4,0,0,0,.285-.115l1.255-1.214a.408.408,0,1,0-.566-.587l-.57.546V76.407A.406.406,0,0,0,208.684,76Z" transform="translate(-180.682)" fill="#2D43AA"/>
    <path id="Path_3354" data-name="Path 3354" d="M32.735,127.159A.406.406,0,0,0,32.41,127H30.036a.407.407,0,0,0,0,.814h2.17l2.587,3.391H32.41a.413.413,0,0,0-.356.217l-.79,1.451a.96.96,0,0,1-.831.5H25.574a.957.957,0,0,1-.831-.5l-.79-1.451a.416.416,0,0,0-.356-.22h-2.39l2.59-3.391h2.17a.407.407,0,0,0,0-.814H23.594a.406.406,0,0,0-.326.159l-3.187,4.2A.4.4,0,0,0,20,131.6v4.113a1.764,1.764,0,0,0,1.763,1.763H34.241A1.764,1.764,0,0,0,36,135.714V131.6a.422.422,0,0,0-.081-.244Zm2.455,8.555a.952.952,0,0,1-.949.949H21.763a.95.95,0,0,1-.949-.949v-3.7h2.54l.675,1.241a1.778,1.778,0,0,0,1.546.929H30.43a1.775,1.775,0,0,0,1.546-.929l.675-1.241h2.54Z" transform="translate(0 -49.271)" fill="#2D43AA"/>
  </g>
</svg>
