<svg xmlns="http://www.w3.org/2000/svg" width="16.1" height="15.1" viewBox="0 0 16.1 15.1">
  <g id="noun_Library_3404219" transform="translate(0.05 -1.95)">
    <path id="Path_3346" data-name="Path 3346" d="M13.06,15.5l1.437-.279a.5.5,0,0,0,.4-.586l-2.1-10.8a.5.5,0,0,0-.585-.4l-2.454.477a.5.5,0,0,0-.4.586l.194,1L9.5,5.5H7v-3A.5.5,0,0,0,6.5,2H4a.5.5,0,0,0-.5.5V4H1a.5.5,0,0,0-.5.5v11H0V17H16V15.5Zm1.342-.77h0l-2.454.477-.286-1.472,2.454-.477L14.4,14.73Zm-3.313-3.94,2.454-.477.477,2.454-2.454.477ZM12.3,3.932l1.145,5.89-2.454.478L9.849,4.41ZM11.457,15.3a.494.494,0,0,0,.088.2H10V7.806ZM4,9.5H6.5V12H4Zm5.5,4H7V11H9.5Zm-6,0H1V11H3.5Zm.5-1H6.5v3H4ZM7,14H9.5v1.5H7ZM9.5,6v4.5H7V6ZM4,2.5H6.5V9H4Zm-.5,2v6H1v-6ZM1,14H3.5v1.5H1Zm14.5,2.5H.5V16h15Z" fill="#727a9d" stroke="#727a9d" stroke-width="0.1"/>
  </g>
</svg>
