<svg xmlns="http://www.w3.org/2000/svg" width="16" height="13.384" viewBox="0 0 16 13.384">
  <g id="Group_2298" data-name="Group 2298" transform="translate(-84.184 -288)">
    <g id="Group_2295" data-name="Group 2295">
      <g id="Group_2294" data-name="Group 2294" transform="translate(80.5 282.5)">
        <path id="Path_3329" data-name="Path 3329" d="M15.777,11.433,8.16,7.785a.378.378,0,0,0-.329,0L.214,11.433a.379.379,0,0,0,0,.686l1.951.936v2.859a.383.383,0,0,0,.137.293A8.881,8.881,0,0,0,8,18.577a7.509,7.509,0,0,0,3.26-.777v.637a1.032,1.032,0,0,0-.629.762l-.27,1.489a.373.373,0,0,0,.081.3.379.379,0,0,0,.292.139h1.833a.384.384,0,0,0,.375-.457l-.279-1.484a1.036,1.036,0,0,0-.641-.773V17.381a12.492,12.492,0,0,0,1.676-1.189.383.383,0,0,0,.137-.293V13.055l1.953-.936A.38.38,0,0,0,15.777,11.433Zm-4.6,8.944.193-1.033a.273.273,0,0,1,.536,0l.193,1.033ZM2.927,15.738V13.419l4.9,2.348a.375.375,0,0,0,.329,0l3.1-1.483v2.673C8.474,18.426,5.73,18.024,2.927,15.738Zm10.135,0a12.23,12.23,0,0,1-1.045.762V13.92l1.045-.5Zm-1.418-2.484L8.171,11.439a.381.381,0,0,0-.353.675l2.968,1.551L8,15,1.26,11.776,8,8.55l6.735,3.226Z" transform="translate(3.688 -2.247)" fill="#2D43AA"/>
      </g>
    </g>
  </g>
</svg>
