<svg xmlns="http://www.w3.org/2000/svg" width="82.908" height="96.933" viewBox="0 0 82.908 96.933">
  <path id="noun_performance_426118" d="M54.4,37.959a1.918,1.918,0,1,1-2.712,0A2.006,2.006,0,0,1,54.4,37.959ZM82.524,63.572V80.345a3.68,3.68,0,0,1-2.511,3.515L36.924,98.525a2.5,2.5,0,0,1-3.315-2.31v-9.04H23.465a6.516,6.516,0,0,1-6.529-6.529V62.668H12.014A3.228,3.228,0,0,1,9.3,57.646c1.406-2.21,3.114-5.223,4.821-8.437a29.219,29.219,0,0,0,2.812-11.651l.1-1A37.363,37.363,0,0,1,91.664,38.06,38.015,38.015,0,0,1,82.524,63.572ZM76.3,39.365h0A22.491,22.491,0,0,0,72.58,26.81l-5.123,5.826a16.421,16.421,0,0,1,1.507,6.629h0A15.97,15.97,0,1,1,52.994,23.4h0a16.119,16.119,0,0,1,9.642,3.214L53.6,34.544a4.781,4.781,0,0,0-4.018,1.406,4.9,4.9,0,0,0,6.93,6.93,4.781,4.781,0,0,0,1.406-4.018L72.379,22.29l-2.21-2.21-1.908,1.707a23.146,23.146,0,0,0-15.167-5.625h0a23.252,23.252,0,1,0,23.2,23.2Z" transform="translate(-8.764 -1.714)" fill="#f86423" opacity="0.1"/>
</svg>
