<svg xmlns="http://www.w3.org/2000/svg" width="16.198" height="14.198" viewBox="0 0 16.198 14.198">
  <g id="Group_3913" data-name="Group 3913" transform="translate(-23.9 -364.9)">
    <path id="Rectangle_3681" data-name="Rectangle 3681" d="M2.285.143A1.144,1.144,0,0,0,1.143,1.285v9.427a1.144,1.144,0,0,0,1.143,1.143H13.712a1.144,1.144,0,0,0,1.143-1.143V1.285A1.144,1.144,0,0,0,13.712.143H2.285M2.285-1H13.712A2.285,2.285,0,0,1,16,1.285v9.427A2.285,2.285,0,0,1,13.712,13H2.285A2.285,2.285,0,0,1,0,10.712V1.285A2.285,2.285,0,0,1,2.285-1Z" transform="translate(24 366)" fill="#727a9d" stroke="#fff" stroke-width="0.2"/>
    <path id="Path_4024" data-name="Path 4024" d="M11.783,20.72a.222.222,0,0,0,.158-.065l1.149-1.149a.991.991,0,0,0,1.117-.039l1.066.926a1,1,0,1,0,1.476-.329l.947-2.149a.993.993,0,0,0,.9-.278l1.125.7a1,1,0,1,0,1.788-.206l1.406-1.406a.223.223,0,1,0-.315-.315l-1.406,1.406a.994.994,0,0,0-1.238.142l-1.125-.7a1,1,0,1,0-1.54.476l-.947,2.149a.987.987,0,0,0-.775.174L14.5,19.131a1,1,0,1,0-1.726.06l-1.149,1.149a.223.223,0,0,0,.158.38Zm8.877-2.612a.552.552,0,0,1,.39.162h0a.553.553,0,1,1-.391-.162Zm-2.777-1.726a.553.553,0,1,1-.553.553A.554.554,0,0,1,17.883,16.382Zm-1.731,3.929a.553.553,0,1,1-.553.553A.554.554,0,0,1,16.153,20.311Zm-2.533-2.2a.553.553,0,1,1-.553.553A.554.554,0,0,1,13.619,18.108Z" transform="translate(14.787 352.869)" fill="#727a9d" stroke="#727a9d" stroke-width="0.2"/>
  </g>
</svg>
