<svg xmlns="http://www.w3.org/2000/svg" width="15" height="17.538" viewBox="0 0 15 17.538">
  <path id="noun_performance_426118" d="M17.021,8.271a.347.347,0,1,1-.491,0A.363.363,0,0,1,17.021,8.271Zm5.088,4.634V15.94a.666.666,0,0,1-.454.636l-7.8,2.653a.453.453,0,0,1-.6-.418V17.176H11.424a1.179,1.179,0,0,1-1.181-1.181V12.742h-.89a.584.584,0,0,1-.491-.909c.254-.4.563-.945.872-1.526A5.286,5.286,0,0,0,10.243,8.2l.018-.182a6.76,6.76,0,0,1,13.5.273A6.878,6.878,0,0,1,22.109,12.905ZM20.983,8.526h0a4.069,4.069,0,0,0-.672-2.272l-.927,1.054a2.971,2.971,0,0,1,.273,1.2h0a2.889,2.889,0,1,1-2.889-2.871h0a2.916,2.916,0,0,1,1.745.582L16.876,7.653a.865.865,0,0,0-.727.254A.887.887,0,0,0,17.4,9.162a.865.865,0,0,0,.254-.727l2.617-3-.4-.4-.345.309a4.188,4.188,0,0,0-2.744-1.018h0a4.207,4.207,0,1,0,4.2,4.2Z" transform="translate(-8.764 -1.714)" fill="#fff"/>
</svg>
