<svg xmlns="http://www.w3.org/2000/svg" width="15.767" height="14.195" viewBox="0 0 15.767 14.195">
  <g id="noun_stats_890021" transform="translate(-5.116 -8.891)">
    <path id="Path_3344" data-name="Path 3344" d="M19.888,8.645H5.78A.772.772,0,0,0,5,9.408v9.753a.772.772,0,0,0,.78.763h5.793v1.363H9.536a.723.723,0,0,0-.73.714v.482a.258.258,0,0,0,.261.256H16.6a.258.258,0,0,0,.261-.256V22a.723.723,0,0,0-.73-.714H14.095V19.924h5.793a.772.772,0,0,0,.78-.763V9.408A.772.772,0,0,0,19.888,8.645ZM5.78,9.156H19.888a.255.255,0,0,1,.257.252v8.012H5.522V9.408A.255.255,0,0,1,5.78,9.156ZM16.338,22v.227H9.329V22a.205.205,0,0,1,.207-.2h6.595A.205.205,0,0,1,16.338,22Zm-2.766-.714H12.095V19.924h1.478Zm6.315-1.875H5.78a.255.255,0,0,1-.257-.252v-1.23H20.145v1.23A.255.255,0,0,1,19.888,19.413Z" transform="translate(0.166 0.296)" fill="#272c3d" stroke="#272c3d" stroke-width="0.1"/>
    <path id="Path_3345" data-name="Path 3345" d="M11.827,21.663a.266.266,0,0,0,.189-.078l1.375-1.375a1.186,1.186,0,0,0,1.338-.047L16,21.272a1.2,1.2,0,1,0,1.767-.394L18.9,18.305a1.188,1.188,0,0,0,1.074-.332l1.347.838a1.2,1.2,0,1,0,2.141-.246l1.683-1.683a.267.267,0,1,0-.377-.377L23.09,18.187a1.19,1.19,0,0,0-1.482.17l-1.347-.838a1.2,1.2,0,1,0-1.843.569l-1.133,2.573a1.181,1.181,0,0,0-.928.209L15.08,19.761a1.2,1.2,0,1,0-2.066.071l-1.375,1.375a.267.267,0,0,0,.189.455Zm10.628-3.127a.66.66,0,0,1,.467.194h0a.662.662,0,1,1-.468-.194ZM19.13,16.47a.662.662,0,1,1-.662.662A.663.663,0,0,1,19.13,16.47Zm-2.072,4.7a.662.662,0,1,1-.662.662A.663.663,0,0,1,17.058,21.174Zm-3.033-2.637a.662.662,0,1,1-.662.662A.663.663,0,0,1,14.025,18.537Z" transform="translate(-5.394 -5.995)" fill="#272c3d" stroke="#272c3d" stroke-width="0.1"/>
  </g>
</svg>
