<svg xmlns="http://www.w3.org/2000/svg" width="16.201" height="16.196" viewBox="0 0 16.201 16.196">
  <path id="Union_47" data-name="Union 47" d="M18672.287-4066a2.288,2.288,0,0,1-2.289-2.284v-11.428a2.288,2.288,0,0,1,2.289-2.284h11.424a2.286,2.286,0,0,1,2.289,2.284v11.428a2.285,2.285,0,0,1-2.289,2.284Zm-1.145-13.712v11.428a1.145,1.145,0,0,0,1.145,1.139h11.424a1.142,1.142,0,0,0,1.145-1.139v-11.428a1.143,1.143,0,0,0-1.145-1.144h-11.424A1.146,1.146,0,0,0,18671.143-4079.714Zm10.209,10.856a.5.5,0,0,1-.5-.5v-4.333a.5.5,0,0,1,.5-.5h.717a.5.5,0,0,1,.5.5v4.333a.5.5,0,0,1-.5.5Zm-3.855,0a.5.5,0,0,1-.5-.5v-8.713a.5.5,0,0,1,.5-.5h.719a.5.5,0,0,1,.5.5v8.713a.5.5,0,0,1-.5.5Zm-3.568,0a.5.5,0,0,1-.5-.5v-7a.5.5,0,0,1,.5-.5h.713a.5.5,0,0,1,.5.5v7a.5.5,0,0,1-.5.5Z" transform="translate(-18669.898 4082.098)" fill="#2D43AA" stroke="#fff" stroke-width="0.2"/>
</svg>
