<svg id="Group_2566" data-name="Group 2566" xmlns="http://www.w3.org/2000/svg" width="61" height="61" viewBox="0 0 61 61">
  <circle id="Ellipse_281" data-name="Ellipse 281" cx="30.5" cy="30.5" r="30.5" fill="#00b074"/>
  <g id="noun_Idea_1377885" transform="translate(19.085 13.008)">
    <g id="Group_2401" data-name="Group 2401" transform="translate(0)">
      <g id="Group_2400" data-name="Group 2400">
        <path id="Path_3399" data-name="Path 3399" d="M11.846,2.424V.789a.79.79,0,0,0-1.579,0V2.424a5.747,5.747,0,0,1,1.579,0ZM6.818,4.011a6.311,6.311,0,0,1,1.29-.91L7.173,1.765A.79.79,0,0,0,5.88,2.67ZM3.365,6.727,4.9,7.286A6.273,6.273,0,0,1,5.44,5.8L3.905,5.244a.79.79,0,0,0-.54,1.484ZM16.232,2.67a.789.789,0,0,0-1.293-.906L14,3.1a6.322,6.322,0,0,1,1.29.91Zm2.515,4.057a.79.79,0,0,0-.541-1.484L16.672,5.8a6.273,6.273,0,0,1,.54,1.484ZM21.48,19.9c1.448-3.364.814-7.832-4.072-10.34-.03-.016-.064-.029-.094-.045a6.261,6.261,0,0,1-.332,1.346A5.206,5.206,0,0,1,19.348,15c0,3.271-3.712,5.923-8.292,5.923S2.764,18.276,2.764,15a5.2,5.2,0,0,1,2.368-4.14,6.277,6.277,0,0,1-.354-1.487,7,7,0,0,0-.944.722C-5.652,18.915,5.749,25.2,3.4,30.975a24.994,24.994,0,0,1-1.327,2.982H14.057a8.507,8.507,0,0,1-.577-3.11,10.208,10.208,0,0,0,4.527,1.236c1.555.049,1-1.115,1.227-2.287.112-.614.669-.558.837-1,.112-.279-.2-.684-.772-1.195,1.452.223,1.59-.511,1.665-1.26.01-.429.266-.472.478-.514.452-.09,1.28-.094,1.448-.6C23.057,24.613,21.387,22.136,21.48,19.9ZM10.47,8.6l.586-.942.586.943a.4.4,0,0,0,.25.177.39.39,0,0,0,.3-.056l.664-.436.6,1.352a.395.395,0,0,0,.722-.32h0l-.79-1.777a.394.394,0,0,0-.577-.17l-.715.469L11.391,6.7a.4.4,0,0,0-.67,0l-.707,1.136L9.3,7.369a.394.394,0,0,0-.577.17l-.79,1.777a.395.395,0,1,0,.721.321l.6-1.352.665.436a.39.39,0,0,0,.3.056A.4.4,0,0,0,10.47,8.6ZM8.489,16.584a.8.8,0,0,0,.81.79h.177a2.181,2.181,0,0,0,1.579.79,2.181,2.181,0,0,0,1.579-.79h.178a.8.8,0,0,0,.809-.79V15H8.489v1.579Zm-.2-2.369H9.477a4.822,4.822,0,0,0-1.409-2.891A4.178,4.178,0,0,1,6.91,8.687a4.146,4.146,0,0,1,8.292,0,4.177,4.177,0,0,1-1.158,2.636,4.822,4.822,0,0,0-1.409,2.891H13.82c-.015-.674.487-1.321,1.158-2.163a5.331,5.331,0,0,0,1.409-3.365,5.33,5.33,0,1,0-10.661,0,5.323,5.323,0,0,0,1.409,3.365C7.805,12.894,8.307,13.541,8.292,14.215Z" transform="translate(0)" fill="#fff"/>
      </g>
    </g>
  </g>
</svg>
