<svg xmlns="http://www.w3.org/2000/svg" width="15" height="22.242" viewBox="0 0 15 22.242">
  <g id="noun_Idea_1377885" transform="translate(0)">
    <g id="Group_2401" data-name="Group 2401" transform="translate(0)">
      <g id="Group_2400" data-name="Group 2400" transform="translate(0)">
        <path id="Path_3399" data-name="Path 3399" d="M7.759,1.587V.517a.517.517,0,0,0-1.034,0v1.07a3.764,3.764,0,0,1,1.034,0ZM4.466,2.627a4.134,4.134,0,0,1,.845-.6L4.7,1.156a.517.517,0,0,0-.847.593ZM2.2,4.407l1.005.366A4.109,4.109,0,0,1,3.563,3.8L2.558,3.435a.517.517,0,0,0-.354.972Zm8.428-2.657a.517.517,0,0,0-.847-.593l-.613.875a4.141,4.141,0,0,1,.845.6ZM12.28,4.407a.517.517,0,0,0-.354-.972L10.92,3.8a4.109,4.109,0,0,1,.354.972Zm1.79,8.629A5.074,5.074,0,0,0,11.4,6.263l-.062-.029a4.1,4.1,0,0,1-.218.882,3.41,3.41,0,0,1,1.55,2.712c0,2.143-2.432,3.879-5.431,3.879S1.811,11.971,1.811,9.828A3.408,3.408,0,0,1,3.362,7.116a4.112,4.112,0,0,1-.232-.974,4.585,4.585,0,0,0-.619.473C-3.7,12.39,3.766,16.5,2.227,20.289a16.372,16.372,0,0,1-.869,1.953H9.207a5.572,5.572,0,0,1-.378-2.037,6.687,6.687,0,0,0,2.965.81c1.018.032.658-.731.8-1.5.073-.4.438-.366.548-.658.073-.183-.133-.448-.506-.783.951.146,1.042-.335,1.091-.825.006-.281.174-.309.313-.337.3-.059.838-.061.948-.39C15.1,16.121,14.009,14.5,14.069,13.036Zm-7.211-7.4.384-.617.384.617a.259.259,0,0,0,.164.116.256.256,0,0,0,.2-.037l.435-.285.394.885A.259.259,0,0,0,9.289,6.1h0L8.771,4.938a.258.258,0,0,0-.378-.111l-.468.307-.463-.744a.259.259,0,0,0-.439,0l-.463.744-.468-.307a.258.258,0,0,0-.378.111L5.2,6.1a.259.259,0,1,0,.473.21l.394-.885.435.285a.255.255,0,0,0,.2.037A.261.261,0,0,0,6.858,5.632Zm-1.3,5.23a.525.525,0,0,0,.53.517h.116a1.429,1.429,0,0,0,1.035.517,1.429,1.429,0,0,0,1.035-.517h.116a.525.525,0,0,0,.53-.517V9.828H5.561v1.035ZM5.431,9.311h.776a3.158,3.158,0,0,0-.923-1.894A2.736,2.736,0,0,1,4.526,5.69a2.716,2.716,0,0,1,5.431,0A2.736,2.736,0,0,1,9.2,7.417a3.159,3.159,0,0,0-.923,1.894h.776c-.01-.441.319-.865.758-1.417a3.492,3.492,0,0,0,.923-2.2,3.491,3.491,0,1,0-6.983,0,3.486,3.486,0,0,0,.923,2.2C5.113,8.446,5.442,8.869,5.431,9.311Z" transform="translate(0 0)" fill="#fff"/>
      </g>
    </g>
  </g>
</svg>
