<svg xmlns="http://www.w3.org/2000/svg" width="74.436" height="110.372" viewBox="0 0 74.436 110.372">
  <g id="noun_Idea_1377885" opacity="0.1">
    <g id="Group_2401" data-name="Group 2401">
      <g id="Group_2400" data-name="Group 2400">
        <path id="Path_3399" data-name="Path 3399" d="M35.935,7.877V2.566a2.566,2.566,0,0,1,5.132,0V7.877a18.679,18.679,0,0,0-5.132,0Zm16.34,5.159a20.512,20.512,0,0,0-4.194-2.958l3.04-4.343a2.566,2.566,0,0,1,4.2,2.944ZM63.5,21.867l-4.987,1.816a20.39,20.39,0,0,0-1.756-4.823l4.987-1.816A2.566,2.566,0,0,1,63.5,21.867ZM21.677,8.68a2.566,2.566,0,0,1,4.2-2.944l3.04,4.343a20.548,20.548,0,0,0-4.194,2.958ZM13.5,21.867a2.567,2.567,0,0,1,1.757-4.823l4.989,1.816a20.39,20.39,0,0,0-1.756,4.823ZM4.622,64.687C-.083,53.754,1.976,39.231,17.859,31.08c.1-.051.207-.095.305-.145a20.35,20.35,0,0,0,1.081,4.376c-4.754,3.472-7.694,8.218-7.694,13.458C11.551,59.4,23.617,68.02,38.5,68.02S65.453,59.4,65.453,48.769c0-5.24-2.94-9.986-7.7-13.456a20.4,20.4,0,0,0,1.151-4.835,22.752,22.752,0,0,1,3.07,2.347C92.809,61.481,55.751,81.9,63.386,100.68a81.24,81.24,0,0,0,4.313,9.692H28.748a27.651,27.651,0,0,0,1.876-10.108,33.181,33.181,0,0,1-14.715,4.018c-5.054.159-3.264-3.626-3.988-7.433-.363-2-2.175-1.815-2.72-3.266-.363-.906.662-2.223,2.509-3.884-4.719.726-5.168-1.661-5.413-4.094-.032-1.394-.864-1.534-1.554-1.672C3.275,83.639.584,83.629.039,82-.5,80,4.922,71.95,4.622,64.687ZM40.407,27.95l-1.9-3.062L36.6,27.951a1.284,1.284,0,0,1-.814.575,1.269,1.269,0,0,1-.979-.182l-2.159-1.416-1.953,4.393a1.283,1.283,0,0,1-2.346-1.04l0,0L30.915,24.5a1.279,1.279,0,0,1,1.875-.552l2.324,1.523,2.3-3.694a1.284,1.284,0,0,1,2.179,0l2.3,3.694,2.324-1.523a1.281,1.281,0,0,1,1.876.552l2.567,5.775a1.283,1.283,0,1,1-2.345,1.043L44.359,26.93,42.2,28.345a1.266,1.266,0,0,1-.979.182A1.293,1.293,0,0,1,40.407,27.95ZM46.844,53.9a2.6,2.6,0,0,1-2.632,2.567h-.576A7.089,7.089,0,0,1,38.5,59.036a7.089,7.089,0,0,1-5.134-2.567h-.578a2.607,2.607,0,0,1-2.63-2.567V48.769H46.845V53.9Zm.642-7.7h-3.85c.05-4.075,2.587-6.8,4.579-9.4,2.069-2.653,3.76-5.105,3.763-8.569a13.476,13.476,0,0,0-26.951,0c0,3.464,1.693,5.915,3.763,8.569,1.992,2.6,4.53,5.324,4.58,9.4H29.518c.05-2.191-1.582-4.294-3.763-7.029-2.1-2.686-4.58-6.087-4.579-10.938a17.326,17.326,0,1,1,34.652,0c0,4.851-2.476,8.252-4.579,10.938C49.068,41.909,47.436,44.012,47.486,46.2Z" transform="translate(0 0)" fill="#16b074"/>
      </g>
    </g>
  </g>
</svg>
